<svg width="80" height="48" viewBox="0 0 80 48" fill="none" xmlns="http://www.w3.org/2000/svg">
<path fill-rule="evenodd" clip-rule="evenodd" d="M18.6149 15.6173C18.6222 15.6086 18.6296 15.5999 18.6374 15.5912L18.6391 15.5895C18.8141 15.3828 18.9787 15.1901 19.1537 15.0164C19.3841 14.7889 19.4308 14.5389 19.3078 14.2089L19.2775 14.1276C18.8609 13.0119 18.6738 12.5108 18.2459 11.3018C18.2384 11.2849 18.2059 11.2115 18.0674 11.2115C17.7896 11.2115 17.2957 11.2105 16.7104 11.2094C15.2443 11.2064 13.2053 11.2023 12.5565 11.2098C12.463 11.2115 12.3954 11.215 12.3677 11.3001C12.23 11.7273 12.1214 12.0286 12.0165 12.3195C11.8998 12.6434 11.7876 12.9543 11.6453 13.4118C11.5794 13.6237 11.5898 13.8824 11.77 14.1464C12.1636 14.7253 12.9174 15.353 13.0691 15.4794L13.0763 15.4853C13.1352 15.5339 13.1923 15.5825 13.2547 15.6364H8.94613L8.95631 15.6258C9.05675 15.5218 9.15563 15.4194 9.2545 15.3186C9.68068 14.8792 10.0774 14.4694 10.4533 14.0352C10.7236 13.7053 10.9263 13.3684 11.0372 13.0558C11.3897 12.055 11.7672 10.9983 12.1605 9.89733L12.1608 9.89654C12.9563 7.66988 13.8164 5.26225 14.6649 2.76988C14.7914 2.39651 14.8433 1.8738 14.8659 1.51085C14.8849 1.13748 14.8815 0.758896 14.8763 0.390736C14.8763 0.390736 14.8728 0.125036 14.8728 0.00347321C14.9207 0.00347321 15.0767 0.00280436 15.2518 0.00205368C15.4756 0.00109377 15.7307 0 15.8308 0C16.2865 0 16.633 0.00520981 16.9552 0.0191026C16.9881 0.0364687 17.0851 0.166714 17.118 0.258754C18.3273 3.5583 19.5296 6.86306 20.7302 10.1661L21.2343 11.5554C21.3313 11.8175 21.4231 12.0832 21.5149 12.3488L21.5288 12.3907C21.7592 13.0558 21.9983 13.7435 22.2911 14.4017C22.4384 14.7316 22.674 14.9991 22.9234 15.2821L22.954 15.3172C23.0508 15.4282 23.1453 15.5365 23.2283 15.6433H18.5923C18.6001 15.6346 18.6075 15.626 18.6149 15.6173ZM18.0553 10.6523C18.0553 10.6523 15.5831 3.98203 15.176 2.87408C14.7879 4.00461 12.6033 10.6384 12.5964 10.661L18.0553 10.6523Z" fill="#121212"/>
<path d="M48.8836 3.18978C48.0087 3.1863 47.3486 2.55244 47.3486 1.7154C47.3486 0.890513 48.0277 0.24276 48.8939 0.241024C49.7498 0.241024 50.4202 0.89225 50.4254 1.72408C50.4271 2.12698 50.2712 2.49861 49.9871 2.77126C49.703 3.04043 49.3149 3.18978 48.8922 3.18978H48.8836Z" fill="#121212"/>
<path d="M41.0209 15.5608C41.0209 15.5608 40.9741 15.6129 40.9637 15.6251H45.6829L45.6396 15.5765L45.6072 15.5405C45.4599 15.3766 45.3202 15.2212 45.1701 15.0885C44.8115 14.7707 44.659 14.399 44.6607 13.8451C44.6763 10.4292 44.6746 6.46798 44.6711 3.10939V0.573945C44.6711 0.487115 44.6677 0.400285 44.6607 0.297825L40.9377 1.46656C40.9421 1.47003 40.9464 1.47307 40.9507 1.47611C40.955 1.47915 40.9594 1.48219 40.9637 1.48566L40.9893 1.50319C41.1431 1.6088 41.2782 1.70151 41.4211 1.77394C41.8299 1.98407 42.0032 2.27929 41.9997 2.7638C41.9824 5.85322 41.9807 9.64944 41.9945 13.9718C41.9962 14.3904 41.8715 14.6943 41.5909 14.9582C41.3916 15.1458 41.2028 15.3559 41.0209 15.5608Z" fill="#121212"/>
<path d="M64.4925 15.6C64.4844 15.6085 64.4763 15.617 64.4682 15.6257H69.1856C69.17 15.6092 69.1544 15.5931 69.1388 15.577C69.1234 15.5612 69.1075 15.5448 69.0921 15.5284L69.0854 15.5215C68.8405 15.2657 68.6277 15.0435 68.4303 14.7991C68.2778 14.6115 68.1826 14.3701 68.1808 14.1669C68.1635 12.7551 68.167 10.7372 68.1722 9.44512V8.58724C68.1751 7.75843 68.5341 7.65975 69.193 7.47867C69.31 7.44652 69.4364 7.41177 69.572 7.36988C69.9998 7.23727 70.4446 7.16444 70.876 7.0938L70.8869 7.09202C71.126 7.05381 71.3737 7.01387 71.6128 6.96351C71.734 6.9392 71.838 6.88363 71.8536 6.86279C72.076 6.2161 72.2768 5.57774 72.4934 4.88889L72.5067 4.84659L72.6401 4.42633C72.5691 4.42286 72.4981 4.42286 72.4253 4.42286C71.8969 4.42286 71.0428 4.47843 70.3394 4.8709C69.3277 5.43356 68.484 6.51199 68.1687 7.44802V4.46454L64.4336 5.65585L64.4417 5.66118L64.4578 5.67145L64.471 5.67984L64.4821 5.68711C64.6726 5.81214 64.839 5.91981 65.0105 6.00664C65.3414 6.17336 65.4817 6.40953 65.4782 6.79506C65.4696 7.85786 65.4696 8.91893 65.4696 9.98173V10.3099L65.4688 10.8912V10.8924C65.4676 11.9236 65.4661 13.0951 65.4574 14.0766C65.4557 14.3146 65.3431 14.6046 65.1595 14.8512C64.9775 15.0943 64.7662 15.3148 64.541 15.5493L64.5324 15.5584L64.5173 15.5743L64.4925 15.6Z" fill="#121212"/>
<path d="M46.7627 15.5494C46.7627 15.5494 46.7142 15.605 46.6969 15.6241L46.6952 15.6276H51.4334L51.4117 15.6032L51.3727 15.5598C51.1908 15.3584 51.0193 15.1691 50.8392 15.0007C50.5325 14.7141 50.3974 14.3894 50.4009 13.9448C50.4147 11.6699 50.413 8.87566 50.4095 6.63718V4.76859C50.4095 4.69093 50.4052 4.61181 50.4005 4.52597L50.3991 4.50115L46.6761 5.64558L46.7246 5.67857L46.7734 5.71168C46.9399 5.82471 47.0861 5.92398 47.2409 6.00158C47.5926 6.17698 47.7346 6.42878 47.7312 6.86814C47.7173 9.00764 47.7173 11.7185 47.7312 13.9813C47.7329 14.3807 47.6134 14.6742 47.3414 14.9312C47.1439 15.1188 46.9602 15.3254 46.7627 15.5494Z" fill="#121212"/>
<path d="M28.8813 15.442C28.5452 15.4263 26.5408 15.3256 26.5408 12.8579C26.5356 10.5413 26.5356 7.99541 26.5373 5.67878V4.59861H28.5157L28.5123 4.48921C28.5123 4.46663 28.5123 4.41627 28.5106 4.36591C28.5106 4.31034 28.5088 4.25303 28.5071 4.22872L28.5036 4.12626H26.5096V1.83915L22.4955 4.42842L22.5804 4.59167H23.833V4.91988C23.8312 5.2481 23.8295 5.85244 23.833 6.16677C23.8399 6.76937 23.8364 7.38065 23.833 7.97283V8.01104C23.826 9.39164 23.8191 11.0449 23.9265 12.4376C24.0738 14.3496 25.1375 15.435 27.0865 15.6747C27.3377 15.7094 27.5681 15.7233 27.776 15.7233H27.8782C28.5452 15.7059 28.9437 15.5514 28.9437 15.5514L28.883 15.4472L28.8813 15.442Z" fill="#121212"/>
<path fill-rule="evenodd" clip-rule="evenodd" d="M34.5025 4.27855C37.2761 4.27855 39.679 6.34511 40.1623 9.115V9.11673C40.1814 9.23482 40.1935 9.33554 40.2005 9.41716H31.4724C31.4684 9.47471 31.4651 9.51538 31.4625 9.54683C31.4551 9.63673 31.4539 9.65135 31.4603 9.76969C31.4603 10.4956 32.0147 11.8241 32.4062 12.3868C33.2776 13.6388 34.3344 14.3804 35.6372 14.6565C35.6701 14.6617 35.6978 14.6669 35.729 14.6739H35.7394C35.7637 14.6808 35.7879 14.686 35.8139 14.6912C35.8486 14.6982 35.8815 14.7034 35.9161 14.7086C35.9335 14.7103 35.9525 14.7138 35.9698 14.7173C37.0266 14.8562 38.9566 14.3752 39.6669 12.3208C39.6695 12.3208 39.6986 12.3276 39.7319 12.3354C39.7635 12.3429 39.7991 12.3513 39.8193 12.3555C39.828 12.359 39.8366 12.359 39.8366 12.359C39.724 12.9182 39.3741 13.6319 38.7244 14.2692L38.7175 14.2762C38.2584 14.726 37.652 15.1358 36.8672 15.4258C36.8361 15.4362 36.8101 15.4449 36.7806 15.4536C36.3233 15.629 35.8555 15.7401 35.3808 15.7905C35.1175 15.8322 34.8507 15.8565 34.577 15.86H34.4245C32.9831 15.86 31.6076 15.3008 30.5525 14.2883C30.3273 14.0713 30.1211 13.8386 29.9358 13.5937C29.0973 12.5639 28.6745 11.4108 28.6797 10.1622C28.6797 9.90862 28.7109 9.3998 28.7196 9.27824C28.9465 7.44785 30.064 5.89186 31.6249 5.02182C32.4374 4.55988 33.3816 4.29418 34.3829 4.27855H34.5025ZM34.2842 4.82211C32.0667 4.82211 31.5209 7.21862 31.5331 8.85971L38.0141 8.8545C37.5602 6.48057 36.2522 4.82211 34.2842 4.82211Z" fill="#121212"/>
<path fill-rule="evenodd" clip-rule="evenodd" d="M63.8389 9.115C63.3556 6.34511 60.9527 4.27855 58.1791 4.27855H58.0595C57.0582 4.29418 56.114 4.55988 55.3015 5.02182C53.7406 5.89186 52.6231 7.44785 52.3962 9.27824C52.3875 9.3998 52.3563 9.90862 52.3563 10.1622C52.3511 11.4108 52.7739 12.5639 53.6124 13.5937C53.7977 13.8386 54.0039 14.0713 54.2291 14.2883C55.2842 15.3008 56.6597 15.86 58.1011 15.86H58.2536C58.5273 15.8565 58.7941 15.8322 59.0574 15.7905C59.5321 15.7401 59.9999 15.629 60.4572 15.4536C60.4866 15.4449 60.5126 15.4363 60.5437 15.4258C61.3285 15.1358 61.935 14.726 62.3941 14.2762L62.401 14.2692C63.0507 13.6319 63.4006 12.9182 63.5132 12.359C63.5132 12.359 63.511 12.359 63.5077 12.3585C63.5056 12.3582 63.503 12.3578 63.5003 12.357C63.4989 12.3566 63.4974 12.3561 63.4959 12.3555C63.4757 12.3513 63.4403 12.3429 63.4087 12.3355L63.369 12.3262L63.3548 12.323C63.3485 12.3216 63.3444 12.3208 63.3435 12.3208C62.6332 14.3752 60.7032 14.8562 59.6464 14.7173C59.6291 14.7138 59.6101 14.7103 59.5927 14.7086C59.5581 14.7034 59.5252 14.6982 59.4905 14.6912C59.4645 14.686 59.4403 14.6808 59.416 14.6739H59.4056C59.3745 14.6669 59.3467 14.6617 59.3138 14.6565C58.011 14.3804 56.9542 13.6388 56.0828 12.3868C55.6913 11.8241 55.1369 10.4956 55.1369 9.76969C55.1305 9.65135 55.1317 9.63686 55.1391 9.54696C55.1417 9.5155 55.145 9.47476 55.149 9.41716H63.8771C63.8701 9.33554 63.858 9.23482 63.8389 9.11673V9.115ZM55.2097 8.85971C55.1975 7.21862 55.7433 4.82211 57.9608 4.82211C59.9288 4.82211 61.2368 6.48057 61.6907 8.8545L55.2097 8.85971Z" fill="#121212"/>
<path d="M55.6763 36.879C55.6763 36.2296 55.4615 35.8718 55.4615 35.8718C55.4182 35.7971 55.3748 35.7277 55.3281 35.6599C54.9053 35.066 54.2973 34.6649 53.5644 34.4982C53.3669 34.453 53.1677 34.4183 52.9737 34.3974C52.8611 34.3853 52.7502 34.3766 52.6376 34.3714C52.6064 34.3644 52.544 34.361 52.4488 34.361C51.0681 34.3409 50.1485 34.8971 49.6054 35.2255L49.5417 35.264C49.2855 35.4029 49.0318 35.5482 48.7785 35.6933L48.6547 35.7641L48.5123 35.8453L48.5114 35.8459C48.2399 36.0008 47.9628 36.1589 47.6845 36.3094L47.421 36.4521C46.9928 36.6836 46.5514 36.9222 46.0907 37.0996C45.914 37.1673 45.7304 37.1916 45.5467 37.1743C45.195 37.1326 44.8433 36.9259 44.6822 36.6411C44.4241 36.1844 44.5384 35.6304 44.9733 35.2293C45.2106 35.0105 45.4272 34.8663 45.6385 34.7882C45.6853 34.7708 45.7373 34.7343 45.7373 34.7343L45.6749 34.5798C44.9508 34.7257 44.4085 34.9097 43.8004 35.323C43.1785 35.7468 42.7003 36.589 42.6934 37.2646C42.6882 37.664 42.8233 38.0513 43.0589 38.3934C43.0642 38.4009 43.0688 38.4084 43.0733 38.4158C43.0792 38.4255 43.085 38.4349 43.0919 38.4437C43.0962 38.4493 43.1007 38.4548 43.1053 38.4605C43.1136 38.4706 43.1222 38.4812 43.13 38.4923C43.1715 38.5462 43.2131 38.6 43.2616 38.6521C43.2661 38.6574 43.2713 38.6623 43.2766 38.6672L43.2828 38.6727L43.2876 38.6771C43.2912 38.6802 43.2947 38.6835 43.298 38.6868C43.3465 38.7372 43.3968 38.7893 43.4505 38.8362C43.5215 38.8987 43.596 38.9595 43.674 39.0151C44.0741 39.2999 44.4709 39.4423 44.9473 39.4978C45.8845 39.6055 46.8357 39.2964 47.5494 38.5444C47.8717 38.2041 48.4815 37.3479 49.022 36.5873C49.0367 36.5668 49.0511 36.5463 49.0655 36.5259C49.0788 36.507 49.0923 36.488 49.1056 36.4694C49.1169 36.4536 49.1283 36.4379 49.1398 36.4223C49.3927 36.1097 50.2936 35.0747 51.3157 34.8767C53.1937 34.5867 53.483 36.0455 53.5055 36.24C53.6112 37.1691 53.3583 37.8099 52.8108 38.4889C52.8098 38.4889 52.8083 38.4894 52.8069 38.4902L52.8053 38.4912L52.8039 38.4923C52.4054 39.0342 51.023 39.866 49.242 38.3013C49.241 38.302 49.2363 38.3062 49.2292 38.3127C49.2177 38.3233 49.2 38.3397 49.1821 38.3564L49.1814 38.357C49.1512 38.385 49.1208 38.4133 49.119 38.4142C49.6093 38.9699 50.4287 39.3937 51.2343 39.6073C51.288 39.6211 51.3417 39.635 51.3972 39.6472C51.4214 39.6524 51.4439 39.6576 51.4682 39.6628C51.5306 39.6767 51.5947 39.6889 51.6588 39.6993C51.7228 39.7097 51.787 39.7201 51.8511 39.7288C51.858 39.7288 51.8645 39.7301 51.871 39.7314C51.8775 39.7327 51.884 39.734 51.8909 39.734L51.955 39.7392C51.9621 39.7398 51.9694 39.7406 51.9767 39.7415L51.987 39.7427C51.9979 39.744 52.0087 39.7453 52.0191 39.7462H52.0243C52.6878 39.8017 53.3306 39.7062 53.8936 39.4631C55.0872 38.9473 55.6711 38.1033 55.6763 36.8843V36.879Z" fill="#121212"/>
<path d="M25.7293 34.0351C25.7969 33.95 26.0134 33.6513 26.0134 33.3283L26.0117 33.33C26.0204 31.2825 26.0221 28.9815 26.0221 26.9323C26.0225 26.5063 26.0229 26.0632 26.0232 25.6121V25.6082C26.0242 24.3432 26.0252 23.0154 26.029 21.8233C26.0308 21.4673 25.8939 21.2328 25.5873 21.0609C25.4245 20.9706 25.2661 20.8673 25.0857 20.7497L25.0329 20.7153C25.0207 20.7075 25.009 20.6997 24.9974 20.6919C24.9857 20.684 24.974 20.6762 24.9618 20.6684L28.69 19.5014V22.9156C28.6918 26.0675 28.6918 29.8342 28.6797 33.0382C28.6762 33.5957 28.8269 33.9691 29.1838 34.2834C29.3536 34.4345 29.5095 34.6099 29.6758 34.7974L29.7191 34.846H24.9965C25.0155 34.8269 25.071 34.7679 25.071 34.7679L25.0889 34.7492C25.3179 34.5095 25.5351 34.2822 25.7293 34.0351Z" fill="#121212"/>
<path d="M64.148 33.3193C64.1446 33.6371 63.9263 33.9376 63.8587 34.0209C63.6621 34.2681 63.4364 34.5015 63.2173 34.728L63.2143 34.7312L63.1843 34.7623C63.1719 34.7751 63.1588 34.7885 63.1519 34.7955H67.8468L67.8401 34.7877L67.8313 34.7776C67.8275 34.7733 67.8236 34.7691 67.8196 34.7648L67.8139 34.759C67.6528 34.5766 67.502 34.4065 67.3357 34.2623C66.9702 33.9428 66.816 33.5712 66.8212 33.0207C66.8385 31.1486 66.8489 28.4603 66.8021 26.2757C66.7761 25.067 65.9844 24.0459 64.822 23.7055C64.8163 23.7036 64.8105 23.7017 64.8049 23.7001C64.8002 23.6987 64.7955 23.6976 64.7908 23.6968C64.7856 23.6953 64.7804 23.6936 64.7752 23.6918C64.763 23.6878 64.7504 23.6836 64.7371 23.6812L64.692 23.6708C64.6383 23.6569 64.5846 23.6447 64.5292 23.6343C64.5222 23.6343 64.5153 23.6308 64.5084 23.6308C64.4477 23.6187 64.3871 23.61 64.3247 23.6013C64.3188 23.6007 64.3131 23.5999 64.3075 23.5991L64.2996 23.5978C64.2914 23.5965 64.2832 23.5952 64.2745 23.5944C64.2347 23.5892 64.1965 23.5857 64.1567 23.5822L64.0146 23.5718H64.0112C63.9947 23.5712 63.9782 23.5705 63.9616 23.5697C63.9277 23.5681 63.8936 23.5666 63.8587 23.5666C63.6352 23.5666 63.4066 23.5909 63.1796 23.636C63.146 23.6417 63.1132 23.6487 63.0801 23.6558C63.062 23.6597 63.0438 23.6636 63.0254 23.6673L63.0185 23.6689L63.0103 23.6706C63.0008 23.6724 62.9911 23.6744 62.9821 23.6777C62.4433 23.8028 61.759 24.0823 61.2133 24.4297C60.9309 24.6085 60.231 25.1 60.037 25.324V23.6916L56.2654 25.0201C56.275 25.0262 56.2841 25.0323 56.2932 25.0384L56.3091 25.0489L56.3209 25.0566C56.5097 25.1834 56.6708 25.291 56.8406 25.3779C57.1906 25.555 57.3309 25.8051 57.3274 26.2409V26.4337C57.3084 28.4638 57.291 31.0461 57.3361 33.111C57.3499 33.7639 56.9896 34.1026 56.6102 34.4568L56.2273 34.8198H61.0366L61.0275 34.8099L61.0072 34.7883L60.9874 34.7675L60.9413 34.7191C60.6866 34.4499 60.4666 34.2172 60.2587 33.9654C60.1201 33.8004 60.0352 33.585 60.0335 33.4044C60.0214 31.0583 60.0248 28.3509 60.0283 26.2271C60.0283 26.1055 60.0543 25.9266 60.0959 25.8711C60.5948 25.2111 61.8855 24.6224 63.0393 25.0705C63.7981 25.3657 64.1446 26.1159 64.148 27.0242V27.0189C64.155 28.8181 64.1584 31.2997 64.1394 33.3193H64.148Z" fill="#121212"/>
<path fill-rule="evenodd" clip-rule="evenodd" d="M42.031 28.8214C42.0345 28.8319 42.0345 28.844 42.0345 28.8544L42.0327 28.8527C42.0431 28.9882 42.0518 29.1219 42.0535 29.2591C42.0726 30.7734 41.4645 32.1592 40.4631 33.1873C40.4531 33.1981 40.443 33.2085 40.433 33.2189C40.4234 33.2287 40.4138 33.2384 40.4042 33.2481L40.3905 33.2618L40.2552 33.3922C40.1963 33.4478 40.1357 33.5016 40.0733 33.5554C40.0543 33.5693 40.037 33.5849 40.0198 33.6005C39.7391 33.8366 39.4358 34.0486 39.1136 34.2292C38.3045 34.6912 37.3655 34.9569 36.3694 34.9725H36.2169C34.7755 34.9725 33.4 34.4133 32.3449 33.4009C31.2102 32.312 30.5744 30.8376 30.5536 29.2504C30.5276 27.123 31.7178 25.244 33.4901 24.2577L33.4866 24.2611L33.488 24.2604L33.4899 24.2592C33.4914 24.2583 33.4925 24.2577 33.4935 24.2577C34.3026 23.7957 35.2416 23.53 36.2377 23.5144H36.3573C37.2703 23.5144 38.1399 23.7453 38.9126 24.1517L38.9542 24.1726C38.9741 24.1839 38.9936 24.1947 39.0131 24.2056C39.0326 24.2164 39.0521 24.2273 39.072 24.2385C39.4982 24.4782 39.8984 24.7717 40.2622 25.1207C41.2912 26.1089 41.908 27.4113 42.031 28.8214ZM39.7892 32.3103C39.7979 32.1852 39.8048 32.0602 39.81 31.9352V31.9369C39.8117 31.8831 39.8135 31.8275 39.8135 31.7685C39.8239 30.7873 39.02 27.4565 37.6566 25.6487C37.5336 25.4872 37.4019 25.3204 37.2599 25.1555C36.9324 24.8151 36.4681 24.44 35.8583 24.2385C34.9765 23.9468 33.6668 24.2889 33.2475 24.9749C32.9963 25.383 32.8456 25.8119 32.8196 26.1818C32.7936 26.5586 32.7798 26.939 32.7988 27.3175C32.8127 27.5294 32.8473 27.8733 32.8768 28.1216C32.9929 28.9326 33.206 29.7158 33.5195 30.4677H33.523L33.542 30.5181C33.9526 31.4889 34.5313 32.4075 35.2728 33.2689C35.6088 33.6249 36.1234 34.0451 36.7505 34.2535C37.6323 34.5453 38.9421 34.2032 39.3613 33.5172C39.6108 33.1091 39.7632 32.6802 39.7892 32.3103Z" fill="#121212"/>
<path fill-rule="evenodd" clip-rule="evenodd" d="M24.1851 28.8544C24.1851 28.844 24.1851 28.8319 24.1816 28.8214C24.0586 27.4113 23.4419 26.1089 22.4128 25.1207C22.049 24.7717 21.6488 24.4782 21.2226 24.2385C21.2027 24.2273 21.1832 24.2164 21.1637 24.2055L21.1269 24.185L21.1048 24.1726L21.0632 24.1517C20.2906 23.7453 19.4209 23.5144 18.5079 23.5144H18.3884C17.3922 23.53 16.4532 23.7957 15.6442 24.2577C15.6431 24.2577 15.642 24.2583 15.6406 24.2592L15.6372 24.2611L15.6407 24.2577C13.8684 25.244 12.6782 27.123 12.7042 29.2504C12.7183 30.323 13.0132 31.3441 13.5531 32.2294C13.0411 32.8444 12.1003 33.4177 11.5797 33.6665C11.0218 33.8975 10.3288 34.0954 9.51286 34.1562C7.59678 34.1875 6.74789 33.7064 5.76387 32.9041C5.74962 32.8909 5.73676 32.8805 5.72353 32.8698C5.71585 32.8636 5.70804 32.8573 5.69977 32.8503C5.08995 32.3172 4.54423 31.6763 4.05395 30.9192C2.43412 28.4133 1.87108 25.9803 2.33017 23.4883C2.545 22.5626 3.13229 21.4425 4.61526 20.668C6.31305 19.7806 8.07147 19.8032 9.4401 20.5951C9.53538 20.6524 9.62893 20.7097 9.72075 20.7722C9.72249 20.7731 9.72378 20.7739 9.72508 20.7748C9.72638 20.7757 9.72768 20.7765 9.72941 20.7774C10.3011 21.1595 10.833 21.6197 11.3371 22.165C11.3403 22.1684 11.3438 22.1723 11.3476 22.1766C11.4029 22.2387 11.5276 22.3786 11.9799 22.3786H14.8869C13.669 20.6854 11.7564 19.5566 9.58216 19.3152L9.58043 19.3221C9.05723 19.2631 8.52537 19.2579 7.99525 19.3013C7.80295 19.3117 7.59852 19.3343 7.38196 19.3673C4.65164 19.7372 2.77888 21.4408 2.07031 22.2501C2.05991 22.2622 2.05298 22.2709 2.04605 22.283C0.959816 23.5126 0.240854 25.0286 0.0520183 26.668C-0.360302 30.2558 1.71169 33.5137 5.08995 34.5904C5.61661 34.7588 6.16579 34.8752 6.71844 34.9377C6.73251 34.9394 6.74659 34.9403 6.76089 34.9412C6.77476 34.9421 6.78883 34.9429 6.80333 34.9446C6.88649 34.9551 7.01295 34.9655 7.19313 34.9759H7.21392C7.22431 34.9759 7.23471 34.9759 7.24683 34.9776C7.39409 34.9846 7.54135 34.988 7.69034 34.9863H7.71112C7.85318 34.9863 7.99698 34.9811 8.14077 34.9724C8.17195 34.9707 8.20314 34.9689 8.23432 34.9655C8.35213 34.9568 8.46993 34.9464 8.58947 34.9342C8.60939 34.9316 8.62975 34.9294 8.65011 34.9273C8.67046 34.9251 8.69082 34.9229 8.71074 34.9203C8.82855 34.9064 8.94462 34.8891 9.06243 34.8682L9.16118 34.8526C9.30843 34.8265 9.45569 34.797 9.60295 34.7623C9.62547 34.7571 9.64626 34.7519 9.66878 34.7467C9.79698 34.7154 9.92691 34.6824 10.0551 34.6459C10.0681 34.6425 10.0807 34.6386 10.0932 34.6347C10.1058 34.6307 10.1183 34.6268 10.1313 34.6234C10.263 34.5852 10.3947 34.5417 10.5263 34.4966C10.5294 34.4966 10.5319 34.4954 10.5345 34.4944C10.5362 34.4937 10.5381 34.4931 10.5402 34.4931H10.5385C11.5138 34.1527 12.4615 33.6491 13.2567 32.9319C13.457 32.7512 13.6054 32.6018 13.7154 32.4807C13.9406 32.8102 14.2013 33.1185 14.4956 33.4009C15.5506 34.4133 16.9262 34.9725 18.3676 34.9725H18.52C19.5162 34.9569 20.4552 34.6912 21.2642 34.2292C21.5864 34.0486 21.8896 33.8368 22.1703 33.6006C22.1876 33.5849 22.2049 33.5693 22.224 33.5554C22.2863 33.5016 22.347 33.4478 22.4059 33.3922L22.541 33.2619C22.5653 33.2376 22.5895 33.2133 22.6138 33.1873C23.6151 32.1592 24.2232 30.7734 24.2041 29.2591C24.2024 29.1219 24.1938 28.9882 24.1834 28.8527L24.1851 28.8544ZM21.9606 31.9352C21.9554 32.0602 21.9485 32.1852 21.9399 32.3103C21.9139 32.6802 21.7614 33.1091 21.5119 33.5172C21.0927 34.2032 19.783 34.5453 18.9012 34.2535C18.274 34.0451 17.7595 33.6249 17.4234 33.2689C16.6819 32.4075 16.1033 31.4889 15.6927 30.5181L15.6736 30.4677H15.6702C15.3566 29.7158 15.1435 28.9326 15.0274 28.1216C14.998 27.8733 14.9633 27.5294 14.9495 27.3175C14.9304 26.939 14.9443 26.5586 14.9703 26.1818C14.9962 25.8119 15.147 25.383 15.3982 24.9749C15.8174 24.2889 17.1271 23.9468 18.0089 24.2385C18.6188 24.44 19.0831 24.8151 19.4105 25.1555C19.5526 25.3204 19.6842 25.4872 19.8072 25.6487C21.1706 27.4565 21.9745 30.7873 21.9641 31.7685C21.9641 31.8275 21.9624 31.8831 21.9606 31.9369V31.9352Z" fill="#121212"/>
<path fill-rule="evenodd" clip-rule="evenodd" d="M51.1629 33.3138C50.6466 33.5587 50.1667 33.6698 50.0662 33.6907L50.0645 33.6889C48.4966 34.0154 47.4208 33.7254 47.4208 33.7254C45.0647 33.1106 43.4154 30.6846 43.6649 28.2047C43.8017 26.8415 44.4739 25.6293 45.4545 24.7836C45.4562 24.7819 45.4562 24.7784 45.4562 24.7784C45.4816 24.7564 45.507 24.736 45.5324 24.7156C45.5451 24.7053 45.5579 24.6951 45.5706 24.6846C45.5827 24.676 45.5948 24.6655 45.6069 24.6551C46.4836 23.9518 47.2129 23.7729 47.5403 23.693C47.5499 23.6899 47.5638 23.6881 47.5767 23.6865L47.5802 23.6861C47.8556 23.6184 48.1398 23.5749 48.4291 23.5576C48.5452 23.5506 48.6595 23.5472 48.7738 23.5472C49.9207 23.5472 50.9567 23.9049 51.8506 24.6082C52.0083 24.7315 52.1504 24.7888 52.2994 24.7888C52.4605 24.7888 52.5956 24.7211 52.7169 24.6482C53.2522 24.3286 53.8048 24.0143 54.3402 23.7104L54.8235 23.436C54.8789 23.4048 54.9344 23.377 55.0019 23.344V23.6132L55.002 23.624C55.0037 24.2103 55.0053 24.7575 54.9881 25.3011C54.9517 25.3341 54.8651 25.3758 54.8252 25.3793C54.6745 25.3897 54.5082 25.3914 54.2882 25.3897H53.6212C53.552 25.3911 53.4828 25.3945 53.4044 25.3985L53.3371 25.4019L52.9126 25.4262L53.0703 25.8273L53.0726 25.8332C53.1166 25.9469 53.1543 26.0443 53.2019 26.1382C54.212 28.0988 54.0872 30.0212 52.8347 31.8551C52.5298 32.3014 52.1677 32.6695 51.7519 32.9648C51.7447 32.971 51.7362 32.9778 51.7257 32.9857C51.7187 32.9909 51.7107 32.9967 51.7017 33.003C51.6064 33.069 51.5076 33.1297 51.4089 33.1853L51.4042 33.1881L51.3967 33.1923C51.3943 33.1936 51.3918 33.195 51.3892 33.1965C51.3877 33.1974 51.3862 33.1983 51.3846 33.1992C51.3378 33.2253 51.2911 33.2496 51.2443 33.2739C51.2166 33.2895 51.1889 33.3051 51.1594 33.319C51.1611 33.3173 51.1629 33.3138 51.1629 33.3138ZM45.898 26.3379C45.9118 28.6042 46.7296 30.6603 48.339 32.4577C48.41 32.5358 48.4845 32.6105 48.5607 32.6834C48.5694 32.6921 48.5798 32.7025 48.5902 32.7112C48.8553 32.9405 49.6262 33.4944 50.5617 33.1211C51.5353 32.7234 51.6635 31.5164 51.6601 30.8808C51.6566 30.7541 51.6497 30.629 51.641 30.504V30.4849C51.5215 28.8125 50.948 27.2565 49.9311 25.8516L49.8358 25.7214C49.6608 25.48 49.4737 25.2508 49.278 25.0372L49.2295 24.9799C49.1619 24.9017 49.0874 24.827 48.9904 24.7367H48.9887C48.9627 24.7107 48.9367 24.6864 48.909 24.6603L48.902 24.6551C48.4568 24.2522 47.6564 23.9292 46.7452 24.4085C46.1059 24.7784 45.9378 25.5095 45.9049 26.0027C45.9015 26.1034 45.898 26.2043 45.898 26.3049V26.3379Z" fill="#121212"/>
<path fill-rule="evenodd" clip-rule="evenodd" d="M79.9619 28.2326C79.4785 25.4627 77.0756 23.3962 74.302 23.3962H74.1825C73.1811 23.4118 72.2369 23.6775 71.4244 24.1394C69.8635 25.0095 68.7461 26.5655 68.5191 28.3959C68.5105 28.5174 68.4793 29.0262 68.4793 29.2798C68.4741 30.5284 68.8968 31.6815 69.7353 32.7113C69.9207 32.9562 70.1268 33.1889 70.3521 33.406C71.4071 34.4184 72.7827 34.9776 74.2241 34.9776H74.3765C74.6502 34.9741 74.917 34.9498 75.1804 34.9081C75.655 34.8578 76.1228 34.7466 76.5802 34.5712C76.6096 34.5625 76.6356 34.5539 76.6668 34.5434C77.4516 34.2534 78.0579 33.8436 78.517 33.3938L78.524 33.3869C79.1736 32.7495 79.5236 32.0358 79.6362 31.4766C79.6362 31.4766 79.6328 31.4766 79.6281 31.4757C79.6253 31.4752 79.6221 31.4744 79.6189 31.4731C79.6066 31.4706 79.5888 31.4665 79.5696 31.462C79.5571 31.4591 79.544 31.456 79.5314 31.4531C79.4982 31.4452 79.4691 31.4384 79.4664 31.4384C78.7561 33.4928 76.8262 33.9738 75.7694 33.8349L75.7539 33.8319C75.7473 33.8307 75.7407 33.8296 75.734 33.8286C75.7278 33.8276 75.7216 33.8268 75.7157 33.8262C75.681 33.821 75.6481 33.8158 75.6135 33.8088C75.5875 33.8036 75.5632 33.7984 75.539 33.7915H75.5286C75.4974 33.7845 75.4697 33.7793 75.4368 33.7741C74.134 33.498 73.0772 32.7565 72.2058 31.5044C71.8142 30.9417 71.2598 29.6132 71.2598 28.8873C71.2534 28.769 71.2546 28.7545 71.262 28.6646C71.2646 28.6331 71.2679 28.5923 71.272 28.5348H80C79.9931 28.4532 79.9809 28.3524 79.9619 28.2344V28.2326ZM71.3326 27.9773C71.3205 26.3362 71.8662 23.9397 74.0837 23.9397C76.0518 23.9397 77.3598 25.5982 77.8137 27.9721L71.3326 27.9773Z" fill="#121212"/>
<path d="M50.1373 43.879C50.1771 43.8495 50.2152 43.8061 50.2516 43.7488L50.5548 43.1809C50.4612 43.0941 50.3556 43.0177 50.236 42.9482C50.1165 42.8788 49.9883 42.8214 49.8514 42.7711C49.7146 42.7225 49.569 42.686 49.4166 42.6599C49.2641 42.6339 49.1082 42.6217 48.9471 42.6217C48.6595 42.6217 48.4031 42.6651 48.1796 42.7537C47.9561 42.8423 47.7673 42.9586 47.6131 43.1062C47.4589 43.2539 47.3429 43.4206 47.2632 43.6081C47.1835 43.7957 47.1436 43.9884 47.1436 44.1864C47.1436 44.433 47.1765 44.6397 47.2441 44.8064C47.3117 44.9731 47.4 45.1138 47.5092 45.2249C47.6183 45.3361 47.7413 45.4264 47.8816 45.4958C48.022 45.5653 48.164 45.6226 48.3113 45.6695C48.4585 45.7164 48.6023 45.7598 48.7409 45.798C48.8795 45.8362 49.0043 45.8813 49.1134 45.9317C49.2226 45.9821 49.3109 46.0463 49.3785 46.1227C49.446 46.2009 49.479 46.2999 49.479 46.4232C49.479 46.635 49.4183 46.7896 49.2953 46.8868C49.174 46.9841 49.0025 47.0327 48.7808 47.0327C48.6162 47.0327 48.4741 47.0084 48.3546 46.9632C48.2351 46.9181 48.1276 46.8677 48.0358 46.8122C48.0217 46.8038 48.0079 46.7956 47.9942 46.7875C47.9174 46.742 47.8481 46.7009 47.7864 46.6611C47.7136 46.6142 47.6408 46.5916 47.5681 46.5916C47.5144 46.5916 47.4624 46.6055 47.4139 46.6315C47.3671 46.6576 47.329 46.6923 47.303 46.7357L46.9427 47.3071C47.0466 47.4095 47.1679 47.5033 47.3065 47.5884C47.4451 47.6735 47.5941 47.7465 47.7534 47.8072C47.9128 47.868 48.0757 47.9166 48.2455 47.9496C48.4152 47.9826 48.5815 48 48.7444 48C49.0424 48 49.3092 47.9548 49.5431 47.8645C49.7769 47.7742 49.9744 47.6509 50.1338 47.4929C50.2932 47.3366 50.4145 47.1508 50.4994 46.9389C50.5842 46.7271 50.6258 46.4996 50.6258 46.2564C50.6258 46.0359 50.5929 45.8501 50.5253 45.6938C50.4578 45.5375 50.3694 45.4055 50.2603 45.2978C50.1511 45.1902 50.0264 45.0999 49.8861 45.0304C49.744 44.9609 49.602 44.9002 49.4547 44.8481C49.3074 44.796 49.1637 44.7491 49.0233 44.7074C48.883 44.6657 48.7583 44.6188 48.6491 44.5685C48.54 44.5181 48.4516 44.4573 48.3841 44.3879C48.3165 44.3184 48.2836 44.2298 48.2836 44.1239C48.2836 43.9572 48.3407 43.8252 48.4516 43.728C48.5625 43.6307 48.7323 43.5821 48.9609 43.5821C49.0926 43.5821 49.2104 43.5994 49.3144 43.6342C49.4166 43.6689 49.5101 43.7089 49.5898 43.7523C49.64 43.779 49.6863 43.8045 49.7294 43.8282C49.7562 43.8429 49.7818 43.857 49.8064 43.8704C49.8705 43.9051 49.9294 43.9225 49.9848 43.9225C50.0472 43.9225 50.0974 43.9086 50.1373 43.879Z" fill="#121212"/>
<path fill-rule="evenodd" clip-rule="evenodd" d="M30.4123 46.183V47.9422H29.1944V42.6785H31.0464C31.4171 42.6785 31.7342 42.722 31.9992 42.8105C32.2643 42.8991 32.4826 43.0189 32.6558 43.1735C32.8273 43.328 32.9538 43.5086 33.0352 43.7188C33.1166 43.9289 33.1582 44.1546 33.1582 44.3978C33.1582 44.66 33.1166 44.9014 33.0317 45.1202C32.9469 45.339 32.8187 45.5266 32.6454 45.6846C32.4722 45.8409 32.2539 45.9642 31.9871 46.051C31.722 46.1396 31.4067 46.183 31.0446 46.183H30.4123ZM30.4123 45.2609H31.0464C31.3634 45.2609 31.5921 45.1845 31.7307 45.0334C31.8693 44.8823 31.9403 44.6704 31.9403 44.3978C31.9403 44.2779 31.923 44.1685 31.8866 44.0696C31.8502 43.9706 31.7965 43.8855 31.722 43.8143C31.6493 43.7431 31.5557 43.6892 31.4448 43.6493C31.334 43.6094 31.2006 43.592 31.0464 43.592H30.4123V45.2609Z" fill="#121212"/>
<path fill-rule="evenodd" clip-rule="evenodd" d="M38.4996 47.9422H37.5572C37.4515 47.9422 37.3649 47.9179 37.2956 47.8675C37.2263 47.8172 37.1795 47.7546 37.1535 47.6782L36.8434 46.7596H34.8459L34.5358 47.6782C34.5116 47.7459 34.4648 47.8067 34.3955 47.8606C34.3262 47.9144 34.2413 47.9422 34.1391 47.9422H33.188L35.2201 42.6785H36.4675L38.4996 47.9422ZM36.5628 45.9295L36.0794 44.4881C36.0482 44.396 36.0119 44.2884 35.9703 44.1651C35.9287 44.0418 35.8871 43.9063 35.8455 43.7622C35.8074 43.9098 35.7676 44.0452 35.726 44.1703C35.6844 44.2953 35.6463 44.4047 35.6099 44.495L35.1266 45.9295H36.5628Z" fill="#121212"/>
<path fill-rule="evenodd" clip-rule="evenodd" d="M40.5747 45.9972V47.9422H39.3568V42.6785H41.065C41.4444 42.6785 41.7684 42.7185 42.0369 42.7966C42.3054 42.8748 42.5237 42.9842 42.6935 43.1231C42.8633 43.262 42.9863 43.427 43.0625 43.618C43.1387 43.8091 43.1786 44.0157 43.1786 44.2397C43.1786 44.4099 43.1561 44.5714 43.1093 44.7243C43.0643 44.8753 42.995 45.016 42.9049 45.1445C42.8148 45.273 42.7039 45.3894 42.574 45.4901C42.4423 45.5908 42.2916 45.6742 42.1218 45.7402C42.2032 45.7819 42.2795 45.8322 42.3505 45.8913C42.4215 45.952 42.4839 46.025 42.5359 46.1118L43.6533 47.9439H42.5497C42.3453 47.9439 42.198 47.8675 42.1097 47.713L41.2365 46.1847C41.1984 46.117 41.1534 46.0684 41.1014 46.0406C41.0494 46.0111 40.9767 45.9972 40.8831 45.9972H40.5747ZM41.065 45.1532H40.5747L40.573 45.1549V43.5937H41.0633C41.3786 43.5937 41.6107 43.658 41.7615 43.7882C41.9122 43.9185 41.9867 44.0991 41.9867 44.3301C41.9867 44.4447 41.9694 44.5523 41.9364 44.6531C41.9018 44.7538 41.8481 44.8406 41.7736 44.9153C41.6991 44.99 41.6038 45.049 41.4877 45.0907C41.3717 45.1324 41.2313 45.1532 41.065 45.1532Z" fill="#121212"/>
<path d="M45.9187 47.9422H44.6939V42.6785H45.9187V47.9422Z" fill="#121212"/>
</svg>
