<svg width="1327" height="405" viewBox="0 0 1327 405" fill="none" xmlns="http://www.w3.org/2000/svg">
<path fill-rule="evenodd" clip-rule="evenodd" d="M1183.63 162.318V164.796L1189.51 164.712C1248.84 164.712 1241.28 207.372 1200.34 252.467L1067.21 404H1070.89L1103.39 367.053L1124.79 404H1197.59L1146.85 316.919L1203.7 253.391C1204.48 252.525 1205.26 251.66 1206.05 250.795C1245.33 207.379 1283.86 164.796 1322.36 164.796H1325.72V162.318H1183.63ZM978.012 404V3.51928H925.359V1H1042.38V404H978.012Z" fill="#121212"/>
<path fill-rule="evenodd" clip-rule="evenodd" d="M641.981 149.848C535.205 149.848 454.882 252.467 454.882 374.233V374.401C454.882 384.469 455.365 394.349 456.313 404H524.887C524.043 393.072 523.616 381.776 523.616 370.16C523.616 248.478 569.971 159.043 656.089 159.043C714.033 159.043 755.433 197.127 755.433 260.865V404H816.694V1H701.604V3.4773H755.349V217.743C737.21 178.82 696.566 149.848 641.981 149.848Z" fill="#121212"/>
<path fill-rule="evenodd" clip-rule="evenodd" d="M1.11572 1V3.4773H54.7766V404H116.205V267.583V267.415C116.205 202.165 157.606 162.444 219.706 162.444C301.835 162.444 348.022 247.722 348.022 368.606C348.022 380.72 347.579 392.538 346.696 404H413.652C415.638 391.146 416.672 377.926 416.672 364.449C416.672 243.566 347.098 150.016 237.005 150.016C177.466 150.016 135.268 182.305 116.205 223.537V1H1.11572Z" fill="#121212"/>
</svg>
