<svg viewBox="0 0 566.9 566.9" version="1.1" xmlns="http://www.w3.org/2000/svg" id="Livello_1">
  
  <defs>
    <style>
      .st0 {
        fill: #1d1d1b;
        stroke: #1d1d1b;
        stroke-miterlimit: 10;
      }
    </style>
  </defs>
  <g>
    <path d="M235.2,349.6c0,.7-.4,1.2-1.5,1.6l-3.2.8c-1.7.3-3.3,1.1-4.8,2.3-5.1,4.1-8.1,6.2-9.1,6.3-.5,0-2.4,1.6-5.6,4.9-3.7,3.7-6.2,6-7.5,7-3.9,3.1-7.8,5.9-11.5,8.5-.3,0-.9.3-1.7.9l-1.6,1.5c-2,.8-4.2,1.9-6.6,3.3l-5.7,3.2c-.7.6-3.4,1.2-7.9,1.9-2.6,0-5.6.2-9,.7-.4.2-1.2.3-2.6.3-4.2,0-6.6-.8-7-2.4v-1.3c-.2-2.1,1.9-5,6.5-8.7,1.4-1.1,4.1-3.6,7.9-7.4,2.7-2.6,4.5-4.1,5.3-4.5.6-.2,1.7-1.1,3.4-2.9,1.7-1.8,3.1-2.9,4.2-3.2.8-.2,2.4-1.5,4.7-3.9,2.3-2.4,4.1-3.9,5.4-4.4,1.3-.5,2.7-1.6,4.3-3.2,1.6-1.6,2.5-2.5,2.7-2.6,1.6-.7,2.4-1.5,2.4-2.4v-.6c-.3-.2-.6-.3-.8-.3-.9,0-2.1.5-3.4,1.6-2.4.9-6.2,2.6-11.4,5.2l-4.7,3.2c-1.3.9-2.4,1.3-3.3,1.3s-1.3.6-2.6,1.9c-1.4,1.3-2.7,2.1-3.9,2.4-1.2.3-3.1,1.5-5.7,3.6-3.2,2.7-5.1,4.2-5.7,4.6-5.2,3.2-8.4,5.9-9.4,7.9l-1.2,2.4c-.4.8-.8,1.2-1.3,1.2-1,0-1.6-.6-1.6-1.9s.4-1.9,1.2-3c.8-1,1.7-1.8,2.6-2.2.9-.4,1.7-1.1,2.5-2.1l.9-1.3.7-.9,3.7-3.2c1.1-1,2.3-1.8,3.5-2.4,2.3-1.1,3.6-1.7,3.9-1.9,2.3-1.3,3.8-2.2,4.6-2.9l5.1-3.1c.4-.2,1.5-1,3.2-2.4,1.3-1,2.4-1.7,3.4-2,1.5-.5,2.4-.9,2.7-1.3.3-.4,1.4-1,3.4-1.9,2-.9,3.3-1.6,3.9-2.1.6-.5,2.3-1.3,5.1-2.3,2.8-1.1,4.4-1.8,4.6-2.1.4-.7,2.5-1.7,6.5-3l4.2-1.5c1.4-.5,2.7-.8,3.9-.9.6,0,.9.2,1.1.6,0,1.7-1.6,3.7-4.9,6l-3.9,2.2c-.6.4-1.3.9-2,1.5-.1.4-1,1.4-2.7,2.7-1.7,1.3-2.9,2.1-3.5,2.4-.6.2-3.2,2.2-7.8,5.9l-15.1,12.2c-2,2-5.2,5-9.6,8.8-2,1.6-3.2,2.7-3.5,3.4l-.3.4-1.8,2.6c-1.2,1.7-1.8,2.9-1.8,3.6s.6,1,1.7,1.2l2.7.2h2.8c.3,0,.7-.1,1.2-.2l2.9-.3c1,0,2.5-.2,4.5-.7,2-.4,3.4-.9,4.2-1.4,2.7-1.4,6.4-3,11.2-5,2.1-.4,3.8-1.7,5.2-3.8.4-.7,1.8-2.1,4.2-4.1,2.4-2,4-3.2,4.9-3.5.7-.3,1.8-1.3,3.3-3.1,1.5-1.8,2.6-2.8,3.2-3.2.5-.2,2-1.5,4.5-3.9,2.5-2.4,4.3-3.9,5.4-4.5.6-.2,1.8-1.2,3.7-3.1,1.2-1.2,2.8-1.8,4.7-1.8h1.4c.9-.2,2.2-.5,3.9-.9l3.3-.8c.7,0,1,.2,1,.7" class="st0"></path>
    <path d="M233.5,387.2c-.5,0-.9-.1-1.2-.4-.1-.3-.1-.6,0-.9.5-.2,1.2-.6,2-1.2.2-.3.6-.6,1.3-.9.7-.3,1.1-.5,1.3-.7,1-.8,2.6-1.8,4.8-3.1.7-.2,1.2-.6,1.6-1.1.4-.5.8-.8,1.3-1l2.6-.8,1-.4c1.3,0,1.9,1.1,1.9,3.4s-.3,1.5-.9,2.5c-.6,1-.9,1.8-.9,2.4s.5,1.3,1.4,1.3,1.3-.2,2.1-.6c2.1-1.1,4.3-2.2,6.6-3.3l4.1-1.5c2.5-.4,4.2-.9,5.2-1.6,1.4-1,2.9-1.6,4.5-1.6s.9.2,1.1.6l.3,1-.2,1.1-.4,1.2c0,.3-.4.6-1.1.9-.6.1-.9.5-1,1.3,0,.5,0,.8-.3.9-.7.5-1.1,1.3-1.1,2.3s.3.8,1,1.1h3.8c.3,0,.7-.1,1.3-.3l1.4-.5,1.5-.3c.6-.2,1.1-.3,1.4-.3.9,0,1.3.3,1.3.8s-.7.5-1.9.9c-.7.2-1.8.6-3.3,1.3-1.2.5-2.4.8-3.4.8h-2c0,.1-1.6.4-1.6.4-.5,0-1-.2-1.5-.5-1.2-.8-1.9-1.5-1.9-2.2s.1-.9.4-1.6c.2-.7.4-1.2.4-1.6,0-1-.5-1.5-1.5-1.6l-4.1.9c-1.5.3-2.7.9-3.6,1.7-.6.7-2.9,1.7-6.8,3.1-1.9.7-3.5,1-4.7,1s-2.4-.6-2.4-1.8v-.8c0-.9.4-2.4,1.1-4.6l.2-.9c0-.4-.2-.7-.7-.8-.4-.1-.9,0-1.3.5-.5.3-2,1.2-4.4,2.9-1.9,1.3-3.4,2.1-4.6,2.3" class="st0"></path>
    <path d="M395.5,373.4c0,.7-.9,1-2.7,1l-4.2-.3-1,.2c-.3,0-2.4.1-6.6.1h-1.6c0,.1-1.5.3-1.5.3l-2.9-.2-2.8-.2-2,.3h-2.1l-3.2-.3-5.8.3h-3.1l-2.2.2h-2.1c0,.1-1.6.1-1.6.1l-1.5-.3c-1.2,0-2.6.7-4.3,2.1l-3.8,3.1c-.9.5-1.9,1.3-2.9,2.2l-1.8,1.8c-1.2,1.1-1.8,2.2-1.8,3.3s1.5,1.7,4.4,1.7h4.1c0,0,1.9-.5,1.9-.5l1.9-.5c.9,0,2.1-.2,3.8-.5,1.7-.3,2.8-.6,3.4-1,.6-.3,1.9-.7,4.1-1.2.5,0,.7.3.7,1-.2.2-.4.4-.6.5l-.9.2c-.7.2-1.7.6-2.8,1.2-.2.3-.8.5-1.8.7-1.2.1-1.9.3-2.2.5-2.2.9-4.8,1.3-7.6,1.3-1.1.3-2.2.4-3.1.6h-3.7c-2.2.3-4,0-5.5-.9-1.3-.7-1.9-1.7-1.9-3s.6-1.2,1.9-2.4c1.6-1.5,2.6-2.5,2.9-2.9,1.2-1.8,2.2-2.8,3-3,1.5-.5,2.3-1,2.3-1.6s-.1-.3-.4-.3c-.6,0-1.9.6-3.8,1.7-1.9,1.1-3.1,2-3.6,2.6-.2.2-2.1,1.2-5.6,2.8l-1.1.5c-.7.6-2.5,1.5-5.4,2.6-2.8,1.1-4.7,1.6-5.7,1.6s-1.1-.3-1.1-.8,1-1.2,3-1.5c.4-.3,1.3-.7,2.7-1.2.7-.2,1.5-.5,2.3-1.1.7,0,1.9-.5,3.5-1.5l5.2-3.2c1.4-.8,2.8-1.8,4.3-2.8,0-.5-.6-.7-1.7-.7s-1.6.3-3.1,1c-1.5.6-2.9,1-4.1,1s-2.1-.2-2.1-.6c0-.6,1.4-1.4,4.2-2.4,2.6-.9,4.5-1.4,5.4-1.4h1.2c5.7,0,9.8-1,12.5-3.1,1.2-.9,3.4-2,6.7-3.3,4.1-1.6,6.6-2.5,7.4-2.9,4.7-2.4,7.8-3.6,9.1-3.6s.9.2.9.6-.9,1.2-2.6,2c-2.1,1.2-5.2,2.8-9.4,5-3.4,1.7-5.2,2.9-5.2,3.8h.2c1.5.5,3.3.6,5.2.5l2.9-.2,2.8-.2c.4,0,.9,0,1.4.3l1.4.2h1.2c0-.1,1.2,0,1.2,0,.7,0,1.3.1,1.7.2l3,.2c.6,0,1.2-.1,2-.5l2-.5,2.5.5,2.2-.2,2.3-.3h6.2c0,0,2.1,0,2.1,0,2-.1,3,.3,3,1.1" class="st0"></path>
    <path d="M387.6,362.4c-.3,1-.8,1.5-1.5,1.6l-.8-.2c-.4-.2-.7-.4-1-.9-.2-.4-.6-.7-1.1-.9-.5-.2-.7-.4-.7-.6,0-.4.4-.8,1.3-1.3.9-.4,1.6-.7,2.1-.7s.6.2.7.6l.6,1.2c.2.4.3.8.3,1.3M382.1,387.4l-1.5.6-2.4.7c-.8,0-2,.5-3.7,1.2-.5.3-1.2.4-2.3.3h-1.2c-.4,0-.8,0-1,0l-1.7.4-2.6.5-3,.4c-1.1,0-2-.3-2.9-.8-.9-.5-1.3-1.2-1.3-2,0-1.7,1.2-3.1,3.7-4.3,1.1-.6,2.6-1.7,4.6-3.2,2-1.6,3.6-2.6,5-3.2l2-1.5.4-.2h.3c.4,0,.7.2.7.8,0,1-.7,1.8-2,2.4l-.8.4c-.2.1-2.4,2-6.7,5.7-1.1.9-1.6,1.6-1.6,2.2v.5l.2.3h.9c.5.1,1.4.3,2.7.4l2.5-.4h1.4c.7-.3,1.3-.4,1.9-.6l2.4-.6c.7,0,1.3-.1,1.9-.4l1.9-.7,2.9-1c.4-.1.6,0,.8,0,.4.8,0,1.4-1.6,1.8" class="st0"></path>
    <path d="M424.4,386.8c-.3.3-.6.5-1.1.6-.2.3-.8.6-1.7.9l-2,.5c-.3.2-1.1.6-2.3,1-.3,0-.7.1-1.3.3-1,.6-1.8.8-2.6.8-.2-.1-.6-.1-1.4,0h-3.9c-1.7.3-3.2-.4-4.4-1.9l-.5-1.6c0-.6-.3-.9-.8-.9h-1.6c-.5,0-.9.2-1.3.6-.8.8-1.8,1.3-3.1,1.5-.9.2-1.6.4-2,.6l-1,.5c-.6.2-1.4.3-2.5.3h-1.9c-.7.1-1.3.2-1.6.2l-1,.2h-1.6c-.4,0-1-.2-1.9-.5l-.8-.6c-.1-.2-.4-.8-.7-1.7-.1-.7,1.2-2.4,3.9-5.3.2-.3.5-.5.9-.7l.9-.6,1.3-.8,1.7-1.3c.3-.3.6-.4,1-.5l.8-.2,1.6-.5c.4-.1,1-.4,1.6-.8.4-.5,1-.8,1.7-.9.3,0,.5,0,.6,0,.3-.1.7-.1,1.1,0,.2,0,.6,0,1,0l1.1-.2c1.9.3,2.9,1.1,2.9,2.4s-.6.7-1.9,1.1c-.8.2-1.6.3-2.3.3l-.5-.2c-1.7,0-2.6,0-2.9.2-1.2,0-2.5.3-3.7.8-.7.8-1.3,1.4-1.9,1.6-.1.3-.7.6-1.7,1.1l-.5.4-1.4,1-1,.9c-.1.4.1.9.8,1.3,1,.7,2.1,1.1,3.1,1.1s.9,0,1.1-.2c1.7-.4,2.9-.6,3.5-.6.6,0,1.3-.3,2-.7.7-.4,1.3-.6,1.7-.6.4,0,.8,0,1.3-.3l.7-.3,2.9-1.4c.2-.3.8-.8,1.7-1.4.1-.3.6-.7,1.3-1l.8-.2c.9-.3,2.1-.6,3.7-1,.8,0,1.2.2,1.2.6l-.2.6c-.3.6-.6.9-1,.9,0,0-.1,0-.3,0s-.1,0-.2,0l-.3.7-.8,2-.4,1.5c0,1,1.2,1.6,3.5,1.8l1,.3c.4.1.8.1,1,0l.8-.2h.6c.4-.1,1-.3,1.9-.5.4,0,1,0,1.9-.5l1.3-.5h.5c.6-.5,1.5-.8,2.7-1.2.9,0,1.4.2,1.4.6" class="st0"></path>
    <path d="M291.7,378.9l1.2-1.1,6.8-3.4,1.4.4v.5c0,2-.8,2.4-1.4,2.4s-1.4.4-2.3,1.1c-.7.6-1.4,1-1.9,1.3h-.3c0,0-.2,0-.5.3l-1,.6h-2.3s-1-.5-1-.5l1.3-1.6ZM319.6,384.1h-.9c0,.1-.9.5-.9.5-1,.7-2.4,1.4-4.3,2l-2.9.9c-.7.3-1.4.4-1.9.4l-3.6.5c-.6.2-1.3.3-2.2.3h-7.4c0,0-4.7-1.1-4.7-1.1-1.9-.8-2.9-1.7-2.9-2.7l2-.7,3.2-.7c1-.3,1.9-.7,2.9-1.2l4-2c1.7-.8,2.9-1.6,3.7-2.4l1.6-2.1c.6-.6.9-1.4,1-2.3,0-.4-.2-.7-.6-.9l-1.2-.7-1.3-.5-1.6.3-1.3.2c-2.3,0-4.8,1-7.6,2.9l-4.5,3.1c-1,.4-2.3,1.6-3.7,3.7-1.4,2.1-2.1,3.7-2.1,4.7,0,1.8,1.1,2.9,3.3,3.1l1.9.7c.9.4,1.7.6,2.3.6l2.9.3c.8.3,2.5.5,4.9.5l1.8-.3h.9c0,0,1.6,0,1.6,0,.9,0,1.6-.1,2-.3,2.3-.8,4.2-1.1,5.7-1.1l5.7-1.8c3-.6,4.6-1.6,4.6-3.2s-.1-.4-.4-.6" class="st0"></path>
    <path d="M211.2,376.7l1.2-1.1,6.8-3.4,1.4.4v.5c0,2-.8,2.4-1.4,2.4s-1.4.4-2.3,1.1c-.7.6-1.3,1-1.9,1.3h-.3c-.2,0-.4.2-.5.3l-1,.6h-2.3c0,0-1-.5-1-.5l1.3-1.6ZM239.1,382h-.9c0,0-.9.5-.9.5-1,.7-2.4,1.4-4.3,2l-2.9.9c-.7.3-1.4.4-1.9.4l-3.6.5c-.6.2-1.3.3-2.2.3h-7.3c0,0-4.7-1.1-4.7-1.1-1.9-.7-2.9-1.7-2.9-2.7l2-.7,3.2-.8c1-.3,1.9-.7,2.9-1.2l4-2c1.7-.8,2.9-1.6,3.7-2.4l1.6-2.1c.6-.6.9-1.4,1-2.3,0-.4-.2-.7-.6-.9l-1.2-.7-1.3-.5-1.6.3-1.3.2c-2.3,0-4.8,1-7.6,2.9l-4.4,3.1c-1,.4-2.3,1.6-3.7,3.7-1.4,2.1-2.1,3.7-2.1,4.7,0,1.8,1.1,2.9,3.3,3.1l1.9.6c.9.4,1.7.6,2.3.6l2.9.3c.8.3,2.4.5,4.9.5l1.8-.3h.9c0,0,1.6,0,1.6,0,.9,0,1.5,0,2-.3,2.3-.7,4.2-1.1,5.7-1.1l5.7-1.8c3-.6,4.6-1.6,4.6-3.2s-.2-.4-.4-.6" class="st0"></path>
  </g>
  <g>
    <path d="M171.6,261.3c1.7,1.3,3,2.9,4,4.8,1.7,3.2,2.5,7.8,2.5,13.5s-.4,8.4-1.3,11.7h0s0,0,0,0c-.2.9-.5,1.8-.8,2.6-1.4,3.9-3.5,6.7-6.3,8.4l-.9.6-.9-2.4.2-.3c1.2-2.3,2.1-5.1,2.8-8.3,0-.2,0-.4,0-.6.6-3.1.8-6.6.8-10.4s-.5-9.7-1.5-13.1c-1-3.2-2.3-5.3-3.8-6.2l-.5-.3h0v-2.7l1.2.4c1.6.6,3,1.3,4.2,2.2M123.8,319.7l-1.1-.3c-15.6-3.5-27.8-11-36.4-22.4-1.4-1.8-2.7-3.8-3.8-5.8h0c-5-8.6-7.9-18.6-8.8-30h0c-.2-2.3-.3-4.7-.3-7.2,0-13.7,2.6-26.3,7.6-37.5,5.1-11.2,12.5-20.7,22.2-28.3l.7-.6,1.5,2.2-.5.5c-8,7.6-14.2,17-18.8,27.9-4.5,10.9-6.7,22.4-6.7,34.2s.1,6,.4,8.8h0c1.1,11.4,4.5,21.4,10,30,.3.4.5.8.8,1.2,7.5,11,18.4,19.1,32.4,24.1l.6.2v2.9ZM204.7,255.7c0-1.1-.4-1.9-1.1-2.5-.8-.6-1.9-.9-3.5-.9s-3,.2-7.7.7c-4.7.5-9.3.7-13.7.7s-10.5-.3-16.4-.7c-5.9-.5-9.3-.7-10.1-.7-1.8,0-3,.3-3.7.9-.7.6-1.1,1.5-1.1,2.7,0,2,1.6,3.4,4.8,4.2,1.8.4,3.3.8,4.5,1.2h.1-.1c.2,0,.4.2.6.2,4.3.7,7.4,2.4,9.2,5.1,1.8,2.7,2.7,6.9,2.7,12.7s-.3,8.5-.8,11.9c0,.3,0,.6-.1.9-.6,3.7-1.5,6.3-2.6,7.8-2.2,3.1-5.9,5.8-11.1,8-5.2,2.2-10.6,3.3-16.3,3.3-13.1,0-23.7-6.3-31.6-18.8-.2-.3-.5-.7-.7-1.1h0,0c-5-8.2-8.3-18.2-10-30-.8-5.9-1.2-12.2-1.2-18.9,0-18.2,3.9-32.6,11.8-43.3,7.9-10.6,18.5-16,31.9-16s17.5,2.9,25.8,8.7c8.4,5.8,14.4,13.1,18.2,22,1,2.5,1.9,5.4,2.8,8.6.8,3.2,2.1,4.8,3.9,4.8s1.4-.2,1.8-.7c.3-.4.5-1.7.5-3.8,0-.4-.1-1.3-.2-2.6-.6-5.7-.9-11.1-.9-16.2s.2-7,.6-10.8c.4-3.7.6-5.7.6-6.1,0-1.7-.2-2.9-.5-3.5-.3-.6-.9-.9-1.6-.9s-2,.8-3,2.4c-1,1.6-2.5,2.4-4.3,2.4s-5.8-2.2-15.7-6.6c-9.8-4.4-19.6-6.6-29.3-6.6-18.7,0-34.4,7.7-47.1,23-12.7,15.3-19.1,34.4-19.1,57.1s0,4.6.2,6.8h0c.8,11.4,3.5,21.4,8.2,30,2.3,4.2,5,8,8.2,11.5,11.1,12.3,25.6,18.4,43.5,18.4s15.3-1.3,24.1-4c8.8-2.6,17.7-6.5,27-11.5.8-.4,1.9-1,3.2-1.7,4.2-2.1,6.2-4.4,6.2-7s0-1.2,0-2.7c0-1.2,0-2.2,0-3.1h0c0-.3,0-.5,0-.7v-12.2c0-4.5.3-8,.9-10.5.7-2.5,1.7-4.6,3.2-6.4.1,0,.2-.1.3-.2,1-.6,2.7-1.2,5-1.8,2.6-.7,3.8-2,3.8-3.8" class="st0"></path>
    <path d="M231.2,291.3v1.7c0,5.4-.6,9.2-1.7,11.6-1.2,2.4-3.2,4.5-6.2,6l-.7.4-1.1-1.8.3-.5c1.1-1.6,1.9-3.3,2.3-5,.5-1.9.7-4.9.7-9v-3.3h0v-30h0v-.8c0-4.4-.3-7.8-.9-10-.6-2.1-1.5-3.7-2.7-4.7l-.6-.5,1.1-1.9.7.3c3.2,1.3,5.5,3.4,6.8,6.1,1.1,2.4,1.8,6.2,1.9,11.5,0,.6,0,1.2,0,1.9v28.1ZM275.7,244.7c0-2.7-1.7-5.8-5.3-9.4-3.5-3.6-6.6-5.3-9.3-5.3s-4.7,1.6-7.8,4.8c-3.2,3.2-6.9,8.1-11.2,14.6l.6-16.2v-3.4c0-.5-.2-.9-.7-1.3-.5-.4-1-.7-1.4-.7s-2.3.8-5.5,2.5c-3.2,1.7-6.5,3.1-9.7,4.4-2.8,1.1-6.1,2-10,2.8-3.7.8-5.6,2.2-5.6,4.2s1.3,2.9,3.8,3.1c2.5.2,4.3.6,5.3,1.3,1.3.9,2.2,2.1,2.8,3.6.5,1.5.7,4.6.7,9.5v38.6c0,6-1.6,10.1-4.8,12.5-3.2,2.4-4.8,4.1-4.8,4.9s.3,1.8.9,2.4c.6.6,1.4.9,2.4.9s.8,0,1.6-.1c5.6-.6,11.4-.9,17.4-.9s6.6.2,10.7.5c4.1.3,6.7.5,7.7.5,1.4,0,2.6-.3,3.4-.9.8-.6,1.2-1.5,1.2-2.6,0-1.9-1.4-3.2-4.4-4-2.9-.8-5.1-1.7-6.8-2.8-1.8-1.3-3.1-2.9-3.8-4.9-.7-2-1-5.5-1-10.5v-19.8c0-4.7.4-8.6,1.1-11.6.4-1.6.8-2.9,1.3-4,1.6-3.3,4.1-5,7.5-5s5.3,1.4,8.5,4.2c3.2,2.8,5.3,4.2,6.2,4.2,1.7,0,3.6-2.1,5.8-6.2,2.2-4.1,3.3-7.4,3.3-9.8" class="st0"></path>
    <path d="M301.3,180.8c1.4,0,3.7,2.2,7.1,6.6,3.3,4.4,5,7.7,5,9.8s-1.7,5.2-5.1,9.3c-3.4,4.1-5.9,6.1-7.3,6.1s-4.3-2-7.5-6c-3.2-4-4.8-6.9-4.8-8.9s1.8-5.4,5.5-10.1c3.7-4.6,6.1-6.9,7.3-6.9" class="st0"></path>
    <path d="M300.4,291.3v3c0,4.9-.6,8.7-1.8,11.1-1.2,2.5-3.3,4.6-6.3,6.1l-.9.4-.7-2,.3-.4c1.1-1.5,1.9-3.5,2.4-6,.5-2.4.7-6.6.7-12.4v-32.2c0-3.9-.2-6.8-.7-8.6-.5-1.8-1.3-3.3-2.4-4.6l-.2-.2v-2.5l1.2.6c3,1.3,5.1,3.4,6.4,6.2,1.3,2.7,1.9,6.4,1.9,11v30.4ZM324.9,315c0-1.9-1.3-3.2-3.7-4-2.5-.8-4.4-1.7-5.7-2.8-1.5-1.2-2.6-2.9-3.2-4.9-.6-2-.9-5.6-.9-10.6v-53.1c0-.5,0-1.6.2-3.3.1-1.7.2-3.1.2-4.2,0-1.6-.2-2.7-.5-3.4-.3-.7-.9-1-1.7-1.1-.1,0-1.8.9-5,2.6-3.2,1.8-6.6,3.3-10.2,4.6-2.8,1-6,1.9-9.8,2.6-3.7.7-5.6,2.1-5.6,4.2s1.3,3,3.8,3.1c2.6.2,4.3.6,5.3,1.3,1.3.9,2.2,2.1,2.7,3.6.5,1.5.8,4.6.8,9.4v2.2h0v30h0v6.5c0,5.9-1.6,10.1-4.8,12.5-3.2,2.4-4.8,4-4.8,4.9s.3,1.8.9,2.4c.6.6,1.4.9,2.4.9s.8,0,1.6-.1c5.6-.6,11.4-.9,17.4-.9s6.3.2,10,.5c3.6.3,5.8.5,6.5.5,1.3,0,2.3-.3,3.1-.9.7-.6,1.1-1.5,1.1-2.6" class="st0"></path>
    <path d="M472.5,180.8c1.4,0,3.7,2.2,7.1,6.6,3.3,4.4,5,7.7,5,9.8s-1.7,5.2-5.1,9.3c-3.4,4.1-5.9,6.1-7.3,6.1s-4.3-2-7.5-6c-3.2-4-4.8-6.9-4.8-8.9s1.8-5.4,5.5-10.1c3.7-4.6,6.1-6.9,7.3-6.9" class="st0"></path>
    <path d="M471.6,291.3v3c0,4.9-.6,8.7-1.8,11.1-1.2,2.5-3.3,4.6-6.3,6.1l-.9.4-.7-2,.3-.4c1.1-1.5,1.9-3.5,2.4-6,.5-2.4.7-6.6.7-12.4v-32.2c0-3.9-.2-6.8-.7-8.6-.5-1.8-1.3-3.3-2.4-4.6l-.2-.2v-2.5l1.2.6c3,1.3,5.1,3.4,6.4,6.2,1.3,2.7,1.9,6.4,1.9,11v30.4ZM496.1,315c0-1.9-1.3-3.2-3.7-4-2.5-.8-4.4-1.7-5.7-2.8-1.5-1.2-2.6-2.9-3.2-4.9-.6-2-.9-5.6-.9-10.6v-53.1c0-.5,0-1.6.2-3.3.1-1.7.2-3.1.2-4.2,0-1.6-.2-2.7-.5-3.4-.3-.7-.9-1-1.7-1.1-.1,0-1.8.9-5,2.6-3.2,1.8-6.6,3.3-10.2,4.6-2.8,1-6,1.9-9.8,2.6-3.7.7-5.6,2.1-5.6,4.2s1.3,3,3.8,3.1c2.6.2,4.3.6,5.3,1.3,1.3.9,2.2,2.1,2.7,3.6.5,1.5.8,4.6.8,9.4v2.2h0v30h0v6.5c0,5.9-1.6,10.1-4.8,12.5-3.2,2.4-4.8,4-4.8,4.9s.3,1.8.9,2.4c.6.6,1.4.9,2.4.9s.8,0,1.6-.1c5.6-.6,11.4-.9,17.4-.9s6.3.2,10,.5c3.6.3,5.8.5,6.5.5,1.3,0,2.3-.3,3.1-.9.7-.6,1.1-1.5,1.1-2.6" class="st0"></path>
    <path d="M350.7,249.9v11.4h0v30h0v2.7c0,7.3.8,12.6,2.3,15.7,1.5,3,4.2,5.3,8.1,6.7l.6.2v1.6l-1,.4c-6.2-.9-10.5-3.2-12.8-6.6-2.3-3.4-3.4-9.4-3.4-18.3v-43c0-3.4.4-4.4.7-4.8.5-.8,1.5-1.2,2.9-1.2s1.7.3,2.1.9c.4.5.7,1.2.7,2.2s0,.8-.1,1.3c0,.4,0,.7,0,.9M361.9,291.3h0s0,0,0,0h0v-30h0v-15.4c0-1.4.2-2.4.7-2.9.5-.5,1.4-.7,2.6-.7h10.4c3,0,5.3-1,7-2.8,1.6-1.9,2.5-4.6,2.5-8.3s-.1-1.2-.4-1.6c-.3-.4-.7-.6-1.2-.6s-1.2.6-2.9,1.9c-1.8,1.3-3.6,1.9-5.5,1.9h-9.6c-1.6,0-2.6-.2-2.9-.7-.4-.5-.6-1.4-.6-2.9v-18.9c0-1.1-.2-1.9-.5-2.5-.3-.6-.8-.8-1.6-.8-1.2,0-3,1.8-5.4,5.4-2.3,3.4-4.4,6.2-6.2,8.6-3.2,4-6.7,7.9-10.6,11.7-3.9,3.8-5.8,6.2-5.8,7.1s.2,1.5.8,1.9c.5.4,1.5.6,2.9.6h3.9c1,0,1.8.4,2.2,1.1.5.7.7,1.8.7,3.3v44.6h0v1.7c0,10.8,1.4,18.1,4.2,21.8,2.8,3.7,7.7,5.6,14.7,5.6s11.8-1.6,17.2-4.7c5.4-3.1,8.1-6,8.1-8.5s-.2-1.3-.7-1.7c-.4-.4-1-.6-1.9-.6s-2.3.6-5,1.7c-2.7,1.1-5.4,1.7-8.1,1.7s-5.7-1.1-7.1-3.4c-1.3-2.2-2-6.8-2-13.7" class="st0"></path>
    <path d="M411,249.9v11.4h0v30h0v2.7c0,7.3.8,12.6,2.3,15.7,1.5,3,4.2,5.3,8.1,6.7l.6.2v1.6l-1,.4c-6.2-.9-10.5-3.2-12.8-6.6-2.3-3.4-3.4-9.4-3.4-18.3v-43c0-3.4.4-4.4.7-4.8.5-.8,1.5-1.2,2.9-1.2s1.7.3,2.1.9c.4.5.7,1.2.7,2.2s0,.8-.1,1.3c0,.4,0,.7,0,.9M422.1,291.3h0s0,0,0,0h0v-30h0v-15.4c0-1.4.2-2.4.7-2.9.5-.5,1.4-.7,2.6-.7h10.4c3,0,5.3-1,7-2.8,1.6-1.9,2.5-4.6,2.5-8.3s-.1-1.2-.4-1.6c-.3-.4-.7-.6-1.2-.6s-1.2.6-2.9,1.9c-1.8,1.3-3.6,1.9-5.5,1.9h-9.6c-1.6,0-2.6-.2-2.9-.7-.4-.5-.6-1.4-.6-2.9v-18.9c0-1.1-.2-1.9-.5-2.5-.3-.6-.8-.8-1.6-.8-1.2,0-3,1.8-5.4,5.4-2.3,3.4-4.4,6.2-6.2,8.6-3.2,4-6.7,7.9-10.6,11.7-3.9,3.8-5.8,6.2-5.8,7.1s.2,1.5.8,1.9c.5.4,1.5.6,2.9.6h3.9c1,0,1.8.4,2.2,1.1.5.7.7,1.8.7,3.3v44.6h0v1.7c0,10.8,1.4,18.1,4.2,21.8,2.8,3.7,7.7,5.6,14.7,5.6s11.8-1.6,17.2-4.7c5.4-3.1,8.1-6,8.1-8.5s-.2-1.3-.7-1.7c-.4-.4-1-.6-1.9-.6s-2.3.6-5,1.7c-2.7,1.1-5.4,1.7-8.1,1.7s-5.7-1.1-7.1-3.4c-1.3-2.2-2-6.8-2-13.7" class="st0"></path>
  </g>
</svg>