<svg xmlns:svg="http://www.w3.org/2000/svg" xmlns="http://www.w3.org/2000/svg" version="1.1" width="281" height="27" id="svg15670" xmlns:xlink="http://www.w3.org/1999/xlink">
 <defs id="defs15672">
 </defs>
 <path d="m 190.38174,8.5132706 c -2.26563,0 -4.23829,1.6210904 -4.23829,4.0624994 0,1.91406 1.48438,2.98828 1.89454,3.35937 -2.03125,1.05469 -4.10157,2.65625 -4.16016,5.46875 0.0586,2.1875 1.58203,4.86329 5.48828,4.86329 2.08984,0 3.82813,-0.83985 5.625,-2.65625 0.35156,0.5664 0.9375,1.40625 1.3086,1.79688 0.50781,0.50781 1.89452,0.85937 3.18358,0.85937 1.34767,0 3.32032,-0.50781 4.64844,-1.95312 0.0781,-0.27344 -0.11712,-0.52735 -0.39062,-0.56642 -0.5664,0.41017 -1.44532,0.74219 -2.1875,0.74219 -1.93359,0 -3.18359,-1.11327 -4.33594,-2.91016 -0.17578,-0.29296 -0.21484,-0.54687 -0.039,-0.80078 1.19141,-1.69922 2.16797,-3.16406 2.8125,-4.25781 0.9375,-1.58203 1.50391,-2.36328 2.91016,-2.65625 l 1.25,-0.27344 c 0.21484,-0.21484 0.13671,-0.66406 -0.0586,-0.76172 -0.625,0.0586 -3.16406,0.15625 -4.55079,0.15625 l -1.5039,0 c -0.27343,0.11719 -0.33203,0.52735 -0.0781,0.76172 l 0.78125,0.13672 c 0.76172,0.13672 0.66407,0.41016 0.19532,1.44531 -0.78125,1.73829 -1.73829,3.59375 -2.61719,4.7461 -1.42579,-2.22656 -2.46095,-3.47656 -4.55079,-4.82422 0.91797,-0.54688 2.55859,-1.19141 2.55859,-3.24219 0,-1.874999 -1.52343,-3.4960894 -3.94531,-3.4960894 z m 1.62109,10.5273394 c 0.80078,0.87891 1.5625,1.91406 2.20703,2.94922 0.33203,0.50781 0.33203,0.66406 -0.0781,1.03516 -0.83984,0.76172 -1.95312,1.25 -3.16406,1.25 -2.36328,0 -4.25781,-1.6211 -4.25781,-3.88672 0,-1.36719 0.74218,-2.75391 1.66015,-3.39844 0.21485,-0.17578 0.48828,-0.33203 0.625,-0.33203 0.13672,0 1.73828,0.97656 3.00781,2.38281 z m -1.73828,-9.5507794 c 1.03515,0 1.71875,0.9960894 1.71875,2.4218794 0,1.13281 -0.39063,2.03125 -0.89844,2.59765 -0.0586,0.0391 -0.19531,0.13672 -0.27344,0.13672 -0.0586,0 -0.27343,-0.13672 -0.42968,-0.23437 -1.19141,-0.87891 -1.85547,-1.69922 -1.85547,-2.83204 0,-1.25 0.80078,-2.0898394 1.73828,-2.0898394 z m 0,0" id="path15602" style="fill:#343434;fill-opacity:1;stroke:none">
 </path>
 <path d="m 215.11259,2.1655406 c -1.58202,0 -3.20312,-0.0391 -4.45312,-0.11719 -0.29296,0.15625 -0.33203,0.80078 -0.0781,1.05469 l 0.46875,0.0586 c 1.69922,0.2539 2.01172,0.37109 2.01172,4.17969 l 0,13.3788994 c 0,3.80859 -0.3125,3.92578 -2.01172,4.14063 l -0.80078,0.0976 c -0.23437,0.25391 -0.21485,0.89843 0.0781,1.05468 1.66015,-0.0781 3.28125,-0.11712 4.86328,-0.11712 1.58204,0 3.20312,0.039 5.48829,0.11712 0.29296,-0.15625 0.33202,-0.80077 0.0781,-1.05468 l -1.50392,-0.17579 c -1.69921,-0.13672 -2.01171,-0.25391 -2.01171,-4.0625 l 0,-5.03907 c 0,-0.89843 0.0195,-0.97656 0.85937,-0.97656 l 2.10938,0 c 3.14452,0 3.71093,0.0781 4.04296,1.58203 l 0.27344,1.40625 c 0.21485,0.25391 0.89843,0.25391 1.09375,-0.0391 -0.039,-1.11328 -0.11713,-2.40234 -0.11713,-3.73047 0,-1.32812 0.0781,-2.65625 0.11713,-3.59375 -0.19532,-0.292959 -0.8789,-0.292959 -1.09375,-0.0391 l -0.27344,1.23047 c -0.33203,1.50391 -0.89844,1.58203 -4.04296,1.58203 l -2.10938,0 c -0.83985,0 -0.85937,-0.0781 -0.85937,-0.97656 l 0,-6.4453094 c 0,-2.01172 0,-2.07031 1.5039,-2.07031 l 1.83593,0 c 1.15235,0 2.05079,0.0195 3.00782,0.27343 1.36718,0.3711 1.95312,1.40625 2.30468,3.4961 0.3711,0.21484 1.01563,0.13672 1.15235,-0.13672 -0.0586,-1.69922 -0.0586,-4.39453 -0.0586,-5.19531 -0.76172,0.0781 -2.77343,0.11718 -5.07812,0.11718 l -6.79688,0 z m 0,0" id="path15606" style="fill:#343434;fill-opacity:1;stroke:none">
 </path>
 <path d="m 233.44401,15.38819 c 0,-1.46484 0.039,-3.18359 0.11712,-4.375 -0.11712,-0.17578 -0.29296,-0.2539 -0.50781,-0.29297 -0.99609,0.60547 -2.81249,1.40625 -4.66796,1.95313 -0.15625,0.17578 -0.15625,0.66406 -0.039,0.82031 l 0.42968,0.25391 c 0.89844,0.52734 0.89844,0.95703 0.89844,2.57812 l 0,5.29297 c 0,2.65626 -0.13671,3.04688 -1.36719,3.2422 l -0.64452,0.0976 c -0.25391,0.25391 -0.21485,0.89843 0.0781,1.05468 1.36719,-0.0781 2.57812,-0.11712 3.76952,-0.11712 1.32813,0 2.55859,0.039 3.88672,0.11712 0.27343,-0.15625 0.3125,-0.80077 0.0586,-1.05468 l -0.64454,-0.0976 c -1.21095,-0.19532 -1.3672,-0.58594 -1.3672,-3.2422 l 0,-6.23047 z m -1.89453,-8.9062494 c 1.36719,0 2.30469,-0.97656 2.30469,-2.26562 0,-1.28906 -0.9375,-2.26563 -2.30469,-2.26563 -1.36719,0 -2.30469,0.97657 -2.30469,2.26563 0,1.28906 0.9375,2.26562 2.30469,2.26562 z m 0,0" id="path15610" style="fill:#343434;fill-opacity:1;stroke:none">
 </path>
 <path d="m 246.32573,13.31788 c 0.29296,-0.19531 0.42968,-0.50781 0.46875,-0.9375 0,-0.37109 -0.0781,-0.64453 -0.29298,-0.76172 l -3.55469,0 c -0.68358,0 -0.68358,-0.0977 -0.68358,-0.68359 l 0,-2.1484394 c -0.17579,-0.29297 -0.6836,-0.41016 -1.01562,-0.19531 -0.50782,0.97656 -1.28907,1.7382794 -1.97267,2.2460894 -0.80077,0.56641 -1.62108,1.03516 -2.83202,1.50391 -0.33204,0.21484 -0.25391,0.78125 0.0976,0.97656 l 1.26954,0 c 0.5664,0 0.64452,0.0195 0.64452,1.28906 l 0,7.30469 c 0,2.51954 0.60548,4.49219 4.02343,4.49219 2.1875,0 3.84766,-0.97656 4.57031,-1.97265 0.0586,-0.41016 -0.15625,-0.6836 -0.46875,-0.72266 -0.58593,0.39062 -1.01561,0.64453 -1.73827,0.64453 -2.28516,0 -2.61718,-2.01172 -2.61718,-4.27735 l 0,-5.54687 c 0,-1.15235 0.039,-1.21094 0.68359,-1.21094 l 3.41796,0 z m 0,0" id="path15618" style="fill:#343434;fill-opacity:1;stroke:none">
 </path>
 <path d="m 256.92986,11.22804 c -5.78125,0 -8.84766,3.84765 -8.84766,8.04687 0,2.08985 0.82031,3.96485 2.08985,5.17578 1.21094,1.19142 3.08594,1.95313 5,1.95313 2.26563,0 5.01953,-1.01563 6.32813,-3.92578 -0.039,-0.42969 -0.42969,-0.6836 -0.76173,-0.64453 -0.72265,1.03516 -1.54296,1.91406 -3.88671,1.91406 -3.26173,0 -5.13673,-2.77344 -5.13673,-5.6836 0,-3.3789 2.12892,-5.39062 4.17969,-5.39062 1.38673,0 2.48048,1.13281 3.26173,2.1875 0.2539,0.3125 0.42968,0.39062 0.68358,0.39062 0.29298,0 0.89844,-0.54687 0.89844,-1.67968 0,-0.83985 -0.2539,-1.40625 -0.72265,-1.83594 -0.9961,-0.37109 -2.05079,-0.50781 -3.08594,-0.50781 z m 0,0" id="path15614" style="fill:#343434;fill-opacity:1;stroke:none">
 </path>
 <path d="m 268.61258,5.6811606 c 0,-1.54297 0.039,-3.76953 0.11712,-5.21484001 -0.0781,-0.17578 -0.29296,-0.3125 -0.50781,-0.27344 -1.48438,0.56641 -3.32031,1.32813001 -4.70703,1.71875001 -0.25391,0.11719 -0.21485,0.68359 0,0.82031 l 0.48828,0.33203 c 0.80079,0.46875 0.83985,0.72266 0.83985,3.125 l 0,15.4296894 c 0,2.65626 -0.15625,3.04688 -1.36719,3.2422 l -0.80079,0.0976 c -0.2539,0.25391 -0.21483,0.89843 0.0781,1.05468 1.50391,-0.0781 2.73437,-0.11712 3.88672,-0.11712 1.32813,0 2.55859,0.039 3.80859,0.11712 0.29298,-0.15625 0.33204,-0.80077 0.0781,-1.05468 l -0.54688,-0.0781 c -1.23046,-0.21484 -1.36719,-0.60547 -1.36719,-3.26172 l 0,-4.82422 c 0,-1.40625 0.039,-1.9336 0.42969,-2.36328 0.42969,-0.46875 1.26954,-1.05469 2.44141,-1.05469 2.1289,0 2.89063,1.44531 2.89063,3.16406 l 0,5.07813 c 0,2.65625 -0.15625,3.04688 -1.36719,3.26172 l -0.54687,0.0781 c -0.25392,0.25391 -0.21485,0.89843 0.0781,1.05468 1.25,-0.0781 2.48046,-0.11712 3.67188,-0.11712 1.32812,0 2.53906,0.039 4.0625,0.11712 0.35156,-0.15625 0.39062,-0.80077 0.0586,-1.05468 l -0.82031,-0.0976 c -1.23046,-0.19532 -1.36719,-0.58594 -1.36719,-3.2422 l 0,-5.35156 c 0,-3.06641 -1.5039,-5.03906 -4.60937,-5.03906 -1.79688,0 -3.33984,0.78125 -4.58984,1.71875 -0.25391,0 -0.33204,-0.17578 -0.33204,-0.60547 l 0,-6.6601594 z m 0,0" id="path15622" style="fill:#343434;fill-opacity:1;stroke:none">
 </path>
 <path d="m 13.776572,17.49739 c 0.99609,0 1.11328,0 1.46484,0.97656 l 1.69922,4.88282 c 0.46875,1.54296 0.35156,1.75781 -0.9375,1.91406 l -0.80078,0.0977 c -0.21484,0.21484 -0.17578,0.85937 0.11719,1.05469 1.25,-0.0391 2.83203,-0.11719 4.39453,-0.11719 1.85547,0 3.18359,0.0391 4.66797,0.11719 0.2539,-0.19532 0.2539,-0.80079 -0.0391,-1.05469 l -0.54688,-0.0977 c -1.81641,-0.33203 -2.01172,-0.58594 -2.83203,-2.98828 L 15.788252,7.2044206 c -0.58594,-1.60156 -1.05469,-3.30078 -1.6211,-4.92187 -0.13672,-0.17578 -0.33203,-0.29297 -0.60547,-0.29297 -0.0781,0 -1.26953,1.48437 -2.51953,1.73828 0.0977,0.60547 -0.21484,1.46484 -0.68359,2.61719 L 5.4366819,19.15755 c -0.76171,1.93359 -1.32812,3.4375 -1.77734,4.375 -0.52734,1.1914 -0.91797,1.52343 -1.97266,1.66015 l -1.07421003,0.17578 c -0.25391,0.33204 -0.21485,0.85938 0.0391,1.05469 1.25000003,-0.0781 2.36328003,-0.11719 3.55469003,-0.11719 1.48437,0.0391 2.65625,0.0391 3.80859,0.11719 0.29297,-0.15625 0.33203,-0.80078 0.0781,-1.05469 l -1.03515,-0.17578 c -1.34766,-0.17578 -1.48438,-0.29297 -0.76172,-2.40234 l 1.46484,-4.31641 c 0.33203,-0.97656 0.29297,-0.97656 1.23047,-0.97656 l 4.7851601,0 z M 9.5578219,15.8763 c -0.85938,0 -0.95703,0 -0.56641,-1.03516 l 1.5039101,-4.21875 c 0.64453,-1.6796894 0.9375,-2.5781194 1.07422,-2.8320294 l 0.0781,0 c 0.17578,0.25391 0.39062,0.9375 1.01562,2.8320294 l 1.50391,4.31641 c 0.29297,0.85937 0.13672,0.9375 -0.85938,0.9375 l -3.7500001,0 z m 0,0" id="path15558" style="fill:#343434;fill-opacity:1;stroke:none">
 </path>
 <path d="m 29.624852,6.0911406 c 0,-1.54297 0.0391,-3.76953 0.11718,-5.21484002 -0.0781,-0.17577999 -0.29296,-0.31249999 -0.50781,-0.27343999 -1.48437,0.56641001 -3.33984,1.32812001 -4.70703,1.71875001 -0.25391,0.11719 -0.21484,0.68359 0,0.82031 l 0.50781,0.33203 c 0.78125,0.46875 0.82032,0.72266 0.82032,3.125 l 0,16.2109394 c 0,1.34766 -0.11719,3.24219 -0.11719,3.37891 0,0.11718 0.21484,0.2539 0.37109,0.2539 0.0977,0 0.17578,0 0.25391,-0.0195 0.21484,-0.2539 0.46875,-0.58593 0.89844,-0.58593 0.42968,0 2.10937,0.97656 4.78515,0.97656 4.70703,0 8.51563,-2.94922 8.51563,-8.06641 0,-3.98437 -2.65625,-7.10937 -6.875,-7.10937 -1.42578,0 -2.61719,0.46875 -3.76953,1.15234 -0.21485,0 -0.29297,-0.15625 -0.29297,-0.64453 l 0,-6.0546894 z m 0,9.8632794 c 0,-1.23047 0.0781,-1.69922 0.39062,-1.91406 0.29297,-0.21484 1.05469,-0.46875 1.77735,-0.46875 2.53906,0 4.76562,2.26562 4.76562,6.48437 0,3.04688 -1.32812,5.3125 -3.73047,5.3125 -1.03515,0 -1.91406,-0.52734 -2.40234,-1.21093 -0.58594,-0.76172 -0.80078,-2.03125 -0.80078,-3.61328 l 0,-4.58985 z m 0,0" id="path15562" style="fill:#343434;fill-opacity:1;stroke:none">
 </path>
 <path d="m 53.098752,17.79036 c 1.44531,0 2.26563,-0.15625 2.48046,-0.46875 0.15625,-0.29297 0.19532,-0.50781 0.19532,-0.83984 0,-3.125 -2.73437,-4.84375 -5.39062,-4.84375 -4.82422,0 -7.59766,3.92578 -7.59766,7.98828 0,4.08203 2.77344,7.1875 6.93359,7.1875 2.20703,0 4.86329,-1.07422 6.09375,-3.96485 -0.039,-0.3125 -0.44921,-0.68359 -0.80078,-0.5664 -0.82031,1.32812 -2.01172,1.79687 -3.45703,1.79687 -3.20312,0 -5.42969,-2.59765 -5.42969,-5.82031 0,-0.42969 0.0781,-0.46875 0.76172,-0.46875 l 6.21094,0 z m -6.17188,-1.44531 c -0.42968,0 -0.50781,-0.0977 -0.50781,-0.25391 0,-0.76172 1.11328,-3.08594 3.51563,-3.08594 1.5625,0 2.38281,1.03516 2.38281,2.32422 0,0.33203 -0.13672,0.625 -0.35156,0.76172 -0.25391,0.15625 -0.72266,0.25391 -1.77735,0.25391 l -3.26172,0 z m 0,0" id="path15566" style="fill:#343434;fill-opacity:1;stroke:none">
 </path>
 <path d="m 58.862692,22.02864 c 0,2.65625 -0.15625,3.04688 -1.36719,3.24219 l -0.64452,0.0977 c -0.25392,0.2539 -0.21485,0.89844 0.0586,1.05469 1.36718,-0.0781 2.5586,-0.11719 3.75,-0.11719 1.32812,0 2.5586,0.0391 4.70703,0.11719 0.29297,-0.15625 0.33203,-0.80079 0.0781,-1.05469 l -1.40625,-0.13672 c -1.25,-0.15625 -1.40625,-0.54688 -1.40625,-3.20313 l 0,-4.92187 c 0,-1.77734 0.21484,-2.59766 1.05469,-2.59766 0.21484,0 0.82031,0.0781 1.71875,0.6836 0.29296,0.17578 0.60546,0.29297 0.97656,0.29297 0.95703,0 2.01172,-0.6836 2.01172,-2.08985 0,-0.9375 -0.72265,-1.75781 -1.99219,-1.75781 -1.21094,0 -2.40234,1.07422 -3.51563,1.875 -0.21483,0 -0.35156,-0.19531 -0.35156,-0.42969 0,-0.33203 0.0195,-0.9375 0.0586,-1.62109 -0.0586,-0.21485 -0.27344,-0.33203 -0.48829,-0.33203 -1.09375,0.64453 -2.98827,1.44531 -4.53125,1.95312 -0.15625,0.17578 -0.15625,0.66406 -0.039,0.82031 l 0.42969,0.25391 c 0.89844,0.52734 0.89844,0.95703 0.89844,2.57813 l 0,5.29296 z m 0,0" id="path15570" style="fill:#343434;fill-opacity:1;stroke:none">
 </path>
 <path d="m 77.449782,11.63802 c -5.78125,0 -8.84765,3.84765 -8.84765,8.04687 0,2.08984 0.82031,3.96484 2.08983,5.17578 1.21094,1.19141 3.08594,1.95313 5,1.95313 2.26563,0 5.01954,-1.01563 6.32813,-3.92578 -0.039,-0.42969 -0.42969,-0.6836 -0.76171,-0.64454 -0.72267,1.03516 -1.54298,1.91407 -3.88673,1.91407 -3.26171,0 -5.13671,-2.77344 -5.13671,-5.6836 0,-3.3789 2.1289,-5.39062 4.17969,-5.39062 1.38671,0 2.48046,1.13281 3.26171,2.1875 0.25391,0.3125 0.42969,0.39062 0.6836,0.39062 0.29296,0 0.89844,-0.54687 0.89844,-1.67968 0,-0.83985 -0.25392,-1.40625 -0.72267,-1.83594 -0.99608,-0.3711 -2.05077,-0.50781 -3.08593,-0.50781 z m 0,0" id="path15574" style="fill:#343434;fill-opacity:1;stroke:none">
 </path>
 <path d="m 85.074662,22.02864 c 0,2.65625 -0.15625,3.04688 -1.36718,3.24219 l -0.64454,0.0977 c -0.2539,0.2539 -0.21484,0.89844 0.0586,1.05469 1.36719,-0.0781 2.55859,-0.11719 3.75,-0.11719 1.32812,0 2.55859,0.0391 4.70702,0.11719 0.29298,-0.15625 0.33204,-0.80079 0.0781,-1.05469 l -1.40625,-0.13672 c -1.25,-0.15625 -1.40625,-0.54688 -1.40625,-3.20313 l 0,-4.92187 c 0,-1.77734 0.21485,-2.59766 1.05469,-2.59766 0.21485,0 0.82031,0.0781 1.71875,0.6836 0.29298,0.17578 0.60548,0.29297 0.97656,0.29297 0.95704,0 2.01173,-0.6836 2.01173,-2.08985 0,-0.9375 -0.72266,-1.75781 -1.99219,-1.75781 -1.21094,0 -2.40235,1.07422 -3.51562,1.875 -0.21485,0 -0.35157,-0.19531 -0.35157,-0.42969 0,-0.33203 0.0195,-0.9375 0.0586,-1.62109 -0.0586,-0.21485 -0.27343,-0.33203 -0.48827,-0.33203 -1.09375,0.64453 -2.98829,1.44531 -4.53125,1.95312 -0.15625,0.17578 -0.15625,0.66406 -0.039,0.82031 l 0.42969,0.25391 c 0.89843,0.52734 0.89843,0.95703 0.89843,2.57813 l 0,5.29296 z m 0,0" id="path15578" style="fill:#343434;fill-opacity:1;stroke:none">
 </path>
 <path d="m 102.68555,11.63802 c -4.199208,0 -7.871088,3.02734 -7.871088,7.83203 0,4.70703 3.45703,7.34375 7.597648,7.34375 4.27735,0 7.8711,-2.65625 7.8711,-7.77344 0,-4.66797 -3.53516,-7.40234 -7.59766,-7.40234 z m -3.632808,7.30468 c 0,-4.0039 1.445308,-5.85937 3.281238,-5.85937 2.65625,0 3.69142,3.55469 3.69142,6.5625 0,2.77344 -0.70313,5.72265 -3.1836,5.72265 -2.59765,0 -3.789058,-3.16406 -3.789058,-6.42578 z m 0,0" id="path15582" style="fill:#343434;fill-opacity:1;stroke:none">
 </path>
 <path d="m 113.11701,22.02864 c 0,2.65625 -0.13673,3.04688 -1.36719,3.24219 l -0.64454,0.0977 c -0.2539,0.2539 -0.21483,0.89844 0.0781,1.05469 1.36719,-0.0781 2.53906,-0.11719 3.73047,-0.11719 1.32813,0 2.55859,0.0391 3.80859,0.11719 0.29298,-0.15625 0.33204,-0.80079 0.0781,-1.05469 l -0.54688,-0.0781 c -1.21094,-0.21485 -1.36719,-0.60547 -1.36719,-3.26172 l 0,-4.82422 c 0,-1.40625 0.039,-1.71875 0.46875,-2.30469 0.39063,-0.52734 1.32813,-1.11328 2.5586,-1.11328 2.08984,0 2.73438,1.44531 2.73438,3.35938 l 0,4.88281 c 0,2.65625 -0.13673,3.04687 -1.36719,3.26172 l -0.46875,0.0781 c -0.25391,0.2539 -0.21485,0.89844 0.0781,1.05469 1.17187,-0.0781 2.40233,-0.11719 3.59375,-0.11719 1.32812,0 2.51952,0.0391 3.76952,0.11719 0.29298,-0.15625 0.33204,-0.80079 0.0781,-1.05469 l -0.54688,-0.0781 c -1.21094,-0.21485 -1.36719,-0.60547 -1.36719,-3.26172 l 0,-5.29297 c 0,-0.99609 0.0781,-1.42578 0.42969,-1.85547 0.42969,-0.54687 1.36719,-1.09375 2.42188,-1.09375 2.26562,0 2.91016,1.44531 2.91016,3.35938 l 0,4.88281 c 0,2.65625 -0.15625,3.04687 -1.36719,3.24219 l -0.58594,0.0977 c -0.25391,0.2539 -0.21485,0.89843 0.0781,1.05468 1.28906,-0.0781 2.51952,-0.11718 3.71094,-0.11718 1.32812,0 2.53906,0.0391 4.10156,0.11718 0.13671,-0.15625 0.3125,-0.80078 0,-1.05468 l -0.80079,-0.0977 c -1.23046,-0.19532 -1.36719,-0.58594 -1.36719,-3.24219 l 0,-5.56641 c 0,-2.8125 -1.36718,-4.82422 -4.39452,-4.82422 -1.67969,0 -2.91016,0.64454 -4.58985,1.67969 -0.42969,0.25391 -0.64453,0.3711 -0.80078,0.3711 -0.13672,0 -0.35156,-0.21485 -0.56641,-0.54688 -0.50781,-0.68359 -1.69921,-1.50391 -3.24219,-1.50391 -2.4414,0 -3.3789,0.85938 -5.13671,1.79688 -0.21485,-0.0391 -0.33204,-0.11719 -0.33204,-0.35156 0,-0.29297 0,-0.97657 0.0781,-1.66016 -0.0781,-0.15625 -0.21484,-0.29297 -0.46875,-0.29297 -1.15234,0.64453 -3.08594,1.50391 -4.66796,1.95313 -0.15625,0.17578 -0.15625,0.66406 -0.039,0.82031 l 0.42968,0.25391 c 0.89844,0.52734 0.89844,0.95703 0.89844,2.57812 l 0,5.29297 z m 0,0" id="path15586" style="fill:#343434;fill-opacity:1;stroke:none">
 </path>
 <path d="m 143.4961,6.0911406 c 0,-1.54297 0.039,-3.76953 0.11712,-5.21484002 -0.0781,-0.17577999 -0.29297,-0.31249999 -0.50781,-0.27343999 -1.48438,0.56641001 -3.33985,1.32812001 -4.70704,1.71875001 -0.2539,0.11719 -0.21484,0.68359 0,0.82031 l 0.50781,0.33203 c 0.78125,0.46875 0.82032,0.72266 0.82032,3.125 l 0,16.2109394 c 0,1.34766 -0.11713,3.24219 -0.11713,3.37891 0,0.11718 0.21485,0.2539 0.3711,0.2539 0.0976,0 0.17578,0 0.2539,-0.0195 0.21485,-0.2539 0.46875,-0.58593 0.89844,-0.58593 0.42969,0 2.10937,0.97656 4.78516,0.97656 4.70703,0 8.51563,-2.94922 8.51563,-8.06641 0,-3.98437 -2.65625,-7.10937 -6.875,-7.10937 -1.42579,0 -2.61719,0.46875 -3.76954,1.15234 -0.21484,0 -0.29296,-0.15625 -0.29296,-0.64453 l 0,-6.0546894 z m 0,9.8632794 c 0,-1.23047 0.0781,-1.69922 0.39062,-1.91406 0.29296,-0.21484 1.05469,-0.46875 1.77734,-0.46875 2.53906,0 4.76562,2.26562 4.76562,6.48437 0,3.04688 -1.32812,5.3125 -3.73046,5.3125 -1.03516,0 -1.91406,-0.52734 -2.40235,-1.21093 -0.58594,-0.76172 -0.80077,-2.03125 -0.80077,-3.61328 l 0,-4.58985 z m 0,0" id="path15590" style="fill:#343434;fill-opacity:1;stroke:none">
 </path>
 <path d="m 161.03961,15.79817 c 0,-1.46484 0.039,-3.18359 0.11712,-4.375 -0.11712,-0.17578 -0.29297,-0.2539 -0.50781,-0.29297 -0.9961,0.60547 -2.8125,1.40625 -4.66797,1.95313 -0.15625,0.17578 -0.15625,0.66406 -0.039,0.82031 l 0.42968,0.25391 c 0.89844,0.52734 0.89844,0.95703 0.89844,2.57812 l 0,5.29297 c 0,2.65625 -0.13671,3.04688 -1.36719,3.24219 l -0.64452,0.0977 c -0.25391,0.2539 -0.21485,0.89844 0.0781,1.05469 1.36719,-0.0781 2.57813,-0.11719 3.76953,-0.11719 1.32812,0 2.5586,0.0391 3.88672,0.11719 0.27344,-0.15625 0.3125,-0.80079 0.0586,-1.05469 l -0.64453,-0.0977 c -1.21093,-0.19531 -1.36718,-0.58594 -1.36718,-3.24219 l 0,-6.23047 z m -1.89454,-8.9062494 c 1.36719,0 2.30469,-0.97656 2.30469,-2.26562 0,-1.28907 -0.9375,-2.26563 -2.30469,-2.26563 -1.36719,0 -2.30469,0.97656 -2.30469,2.26563 0,1.28906 0.9375,2.26562 2.30469,2.26562 z m 0,0" id="path15594" style="fill:#343434;fill-opacity:1;stroke:none">
 </path>
 <path d="m 174.44917,17.79036 c 1.44531,0 2.26563,-0.15625 2.48048,-0.46875 0.15625,-0.29297 0.19531,-0.50781 0.19531,-0.83984 0,-3.125 -2.73438,-4.84375 -5.39063,-4.84375 -4.82422,0 -7.59766,3.92578 -7.59766,7.98828 0,4.08203 2.77344,7.1875 6.9336,7.1875 2.20703,0 4.86328,-1.07422 6.09375,-3.96485 -0.039,-0.3125 -0.44922,-0.68359 -0.80079,-0.5664 -0.82031,1.32812 -2.01171,1.79687 -3.45702,1.79687 -3.20313,0 -5.42969,-2.59765 -5.42969,-5.82031 0,-0.42969 0.0781,-0.46875 0.76171,-0.46875 l 6.21094,0 z m -6.17187,-1.44531 c -0.42969,0 -0.50782,-0.0977 -0.50782,-0.25391 0,-0.76172 1.11329,-3.08594 3.51563,-3.08594 1.5625,0 2.38281,1.03516 2.38281,2.32422 0,0.33203 -0.13671,0.625 -0.35156,0.76172 -0.2539,0.15625 -0.72265,0.25391 -1.77734,0.25391 l -3.26172,0 z m 0,0" id="path15598" style="fill:#343434;fill-opacity:1;stroke:none">
 </path>
</svg>