<svg xmlns="http://www.w3.org/2000/svg" width="187" height="24" viewBox="0 0 187 24" fill="none">
<g clip-path="url(#clip0_331_3351)">
<path d="M50.5983 0L42.4991 11.6357L34.4017 0H31V23H34.537V6.27102L42.136 16.956H42.8017L50.399 6.24371V23H54V0H50.5983Z" fill="#000"/>
<path d="M152.466 13.979H159.483V18.7818C157.705 20.0563 155.551 20.7486 153.336 20.7574C148.183 20.7574 144.721 17.2355 144.721 11.9328C144.721 7.09036 148.345 3.2978 152.974 3.2978C156.312 3.2978 158.154 4.46315 159.656 5.72159L160.044 6.04568L162.377 3.38745L161.989 3.07197C159.31 0.891252 156.723 0 153.066 0C146.302 0 141 5.26993 141 12.0672C141 19.0921 146.028 24 153.231 24C156.768 24.0009 160.182 22.7454 162.821 20.4729L163 20.3281V10.745H152.461L152.466 13.979Z" fill="#000"/>
<path d="M106.423 13.6714C106.423 18.1707 104.159 20.6466 100.048 20.6466C95.9367 20.6466 93.5755 18.0461 93.5755 13.5117V0H90V13.6644C90 20.0395 93.8247 24 99.9841 24C106.257 24 110 20.0641 110 13.4714V0.00702594H106.423V13.6714Z" fill="#000"/>
<path d="M72.0245 20.6882C67.235 20.6882 63.6341 16.9488 63.6341 11.9267C63.6341 7.00639 67.2175 3.29459 71.9685 3.29459C76.758 3.29459 80.3677 7.03225 80.3677 12.0543C80.3677 16.9781 76.7843 20.6882 72.0332 20.6882M72.0332 0C65.2859 0 60 5.27031 60 12.0681C60 18.8659 65.1444 24 71.9668 24C78.7141 24 84 18.7314 84 11.9405C84 5.14963 78.8539 0.00861797 72.0297 0.00861797" fill="#000"/>
<path d="M125.466 4.53524L129.928 14.0296H120.981L125.466 4.53524ZM123.956 0L113 23H116.78L119.511 17.2186H131.393L134.09 23H138L127.046 0H123.956Z" fill="#000"/>
<path d="M169 0V23H187V19.7638H172.647V13.0234H185.339V9.78887H172.647V3.23622H186.834V0H169Z" fill="#000"/>
<path d="M12.467 4.53524L16.9201 14.0296H7.98172L12.467 4.53524ZM10.957 0L0 23H3.78025L6.50924 17.2186H18.3926L21.0895 23H25L14.0376 0H10.957Z" fill="#000"/>
</g>
<defs>
<clipPath id="clip0_331_3351">
<rect width="187" height="24" fill="white"/>
</clipPath>
</defs>
</svg>