<svg version="1.1" id="Layer_1" xmlns:x="ns_extend;" xmlns:i="ns_ai;" xmlns:graph="ns_graphs;" xmlns="http://www.w3.org/2000/svg" xmlns:xlink="http://www.w3.org/1999/xlink" x="0px" y="0px" viewBox="0 0 247.7 59.5" style="enable-background:new 0 0 247.7 59.5;" xml:space="preserve">
 <style type="text/css">
  .st0{fill:#181818;}
 </style>
 <metadata>
  <sfw xmlns="ns_sfw;">
   <slices>
   </slices>
   <sliceSourceBounds bottomLeftOrigin="true" height="59.5" width="247.7" x="76.6" y="-229.9">
   </sliceSourceBounds>
  </sfw>
 </metadata>
 <g>
  <path class="st0" d="M152.5,38.2l8.3-24.2l8.1,24.2H152.5z M62.7,27.6h-4.5V4.4h3.7C68.5,4.4,73,8.7,73,16.6
		C73,20.9,69.6,27.6,62.7,27.6z M12.2,38.2L20.5,14l8.1,24.2H12.2z M247.7,4.4v-2h-28v2h4.3v38.2L197.9,2.4h-12.1v2h4.3v51.3h-7.5
		L163.7,0l-19.5,55.7h-7.2V4.4h4.4v-2h-11.5l-14.5,42l-15.2-42H88.8v2h4.3v51.3h-8.6c-2.4,0-4.6-2.2-4.6-5.9v-8.1
		c0-6.2-2-11.4-8.2-13.1c5.4-1.6,9.2-6.8,9.2-12.3c0-7.9-5.9-13.8-17.2-13.8h-17v2h4.3v51.3h-8.8L23.4,0L3.9,55.7H0v2h10.9v-2H6.1
		l5.5-15.5h17.7l5.2,15.5h-6.7v2h37.1v-2h-6.7V29.6h4.5c6.6,0,9.9,2.7,9.9,9.1v4.7c0,11.3,7.4,14.3,11.4,14.3h15.9v-2h-4.7V10.3
		l17.8,48l16.8-49.4v46.8h-4.3v2h25.8v-2h-4.8l5.4-15.5h17.7l5.2,15.5h-6.7v2h28.4v-2h-4.4V7.2L226,59.5V4.4h10.2v51.3h-4.3v2h15.8
		v-2h-4.4V4.4L247.7,4.4L247.7,4.4L247.7,4.4z">
  </path>
 </g>
</svg>