<svg version="1.1" id="Layer_1" xmlns="http://www.w3.org/2000/svg" xmlns:xlink="http://www.w3.org/1999/xlink" x="0px" y="0px" viewBox="0 0 549.9 54.4" style="enable-background:new 0 0 549.9 54.4;" xml:space="preserve">
 <g>
  <path d="M4.6,46.9c0,2.7-1.2,3.7-3.4,3.7H0v1.9h36c14.4,0,22.6-4.7,22.6-14.5c0-7.4-4.7-11.8-16.2-13.3c5.6-1.5,10.5-5.3,10.5-11.4
		c0-8.7-8.7-12.3-20.3-12.3L0,1.1v1.9h1.2c2.2,0,3.4,1,3.4,3.7V46.9 M13.7,5.7h15.1c11.3,0,15.1,2.5,15.1,7.9
		c0,5.5-3.3,9.6-15.7,9.6l-14.7,0L13.7,5.7z M32.5,28c11.3,0,16,4.6,16,10.2c0,5.2-3.4,8.6-16.3,8.6H13.7V28H32.5z">
  </path>
  <path d="M447.7,5.3v21.2l13.7,0c10.8,0,15.9-4,15.9-10.7c0-6.6-4.9-10.5-16.2-10.5H447.7 M470.5,29.5c6.4,0.5,7.9,2.2,10.3,6
		l5.2,9.5c2.7,3.9,5.1,6.1,10.4,6.1v1.4H490c-3,0-8.7,0.4-11.9-3.5l-6.8-11.3c-2.4-3.3-3.1-6-11.1-6h-12.4l0,15.2
		c0,2.7,1.2,3.7,3.4,3.7h1.2v1.9h-18.2v-1.9h1.2c2.2,0,3.4-1,3.4-3.7V6.8c0-2.7-1.2-3.7-3.4-3.7h-1.2V1.1l30.4,0
		c17.6,0,22.6,7.2,22.6,14.2C487,23.2,480.8,27.8,470.5,29.5">
  </path>
  <path d="M545.3,6.8c0-2.7,1.2-3.7,3.4-3.7h1.2V1.1h-18.2v1.9h1.2c2.2,0,3.4,1,3.4,3.7v40.2c0,2.7-1.2,3.7-3.4,3.7h-1.2v1.9h18.2
		v-1.9h-1.2c-2.2,0-3.4-1-3.4-3.7L545.3,6.8">
  </path>
  <path d="M193.8,1.1v1.9h-1.2c-2.2,0-3.4,1-3.4,3.7l0,40.1l26,0c4.3-0.2,7.7-2.4,9.6-5.5l1.8,0.7l-5.3,10.6l-45.7,0v-1.9h1.2
		c2.2,0,3.4-1,3.4-3.7V6.8c0-2.7-1.2-3.7-3.4-3.7h-1.2V1.1H193.8">
  </path>
  <path d="M146.3,1.1v1.9h-1.2c-2.7,0-3,1.4-4.2,3.6l-23.6,45.9h-7.6L86.1,6.6c-1.2-2.2-1.5-3.6-4.2-3.6h-1.2V1.1h18.9v1.9h-1.2
		c-2.5,0-3.5,1.7-2.3,4l19.3,37.1l19-37.1c1.2-2.3,0.2-4-2.3-4h-1.2V1.1H146.3">
  </path>
  <path d="M316.8,28.1V30h-2.1c-2.2,0-3.4,1-3.4,3.7l0,9.5c-3.2,5.4-13.5,11.1-29.1,11.1c-22.2,0-36.3-12.3-36.3-27.4
		c0-12.5,13.3-27,36-27c12.8,0,22.2,4.5,24.8,6.2c0,0.2,2.8,11.5,2.8,11.5c0,0-2,0.7-2,0.7c0,0-5.9-14.1-24.4-14.2
		c-16-0.1-26.9,11.5-26.9,22.8c0,12.4,10.7,22.7,26.9,22.6c10.1,0,19.6-5.3,19.6-9l0-6.8c0-2.7-1.2-3.7-3.4-3.7h-2.1v-1.9H316.8">
  </path>
  <path d="M382.1,33L369.7,8.9l0,0L357.6,33H382.1 M404.9,50.7v1.9h-19.1v-1.9h1.2c2.5,0,3.5-1.7,2.3-4l-4.4-7.9h-30.3l-4.1,7.9
		c-1.2,2.3-0.2,4,2.3,4h1.2l0,1.9h-15.8v-1.9h1.2c1.9,0,2.7-0.7,3.8-2.7l24.7-46.8h6.9l24.6,45.9c0.2,0.3,0.4,0.6,0.5,0.9
		c1.1,2,1.9,2.7,3.8,2.7H404.9z">
  </path>
 </g>
</svg>