<svg xmlns="http://www.w3.org/2000/svg" width="684" height="144" viewBox="0 0 684 144" fill="none">
<path d="M0 0H23.9923V119.685L0 143.621V0ZM47.9846 119.685C61.4273 119.685 72.2164 108.911 72.2164 95.7476C72.2164 82.5842 61.4181 71.8107 47.9846 71.8107V47.8738C54.7013 47.8738 59.9807 42.6066 59.9807 35.9145C59.9807 29.2133 54.7013 23.9461 47.9846 23.9461V0C67.8953 0 83.9823 16.0315 83.9823 35.9054C83.9823 44.0406 81.3379 51.4588 76.7864 57.4431C88.3034 66.0655 95.9784 80.185 95.9784 95.7384C95.9784 122.075 74.6304 143.612 47.9938 143.612V119.685H47.9846Z" fill="black"/>
<path d="M108.008 47.8738V0H132V47.8646H155.992L132 71.8107L108.008 47.8738ZM155.983 71.8107L179.975 47.8738V0H203.968V47.8646L179.975 71.8015V119.675L155.983 143.612V71.8107Z" fill="black"/>
<path d="M228.02 0H252.012V119.685L228.02 143.621V0ZM275.995 71.8107C289.198 71.8107 299.987 61.0373 299.987 47.8738C299.987 34.7104 289.189 23.9369 275.995 23.9369V0C302.392 0 323.979 21.5377 323.979 47.8646C323.979 74.2007 302.392 95.7384 275.995 95.7384V71.8107ZM299.996 95.7476L323.989 119.685V143.621H299.996V95.7476Z" fill="black"/>
<path d="M348.023 0H372.016V119.685L348.023 143.621V0ZM395.999 0H443.983V23.9369H395.999V0ZM395.999 47.8738H443.983V71.8107H395.999V47.8738ZM395.999 119.685H443.983V143.621H395.999V119.685Z" fill="black"/>
<path d="M468.035 0H492.027V119.685L468.035 143.621V0ZM516.011 119.685C529.214 119.685 540.003 108.911 540.003 95.7476V47.8738C540.003 34.7104 529.204 23.9369 516.011 23.9369V0C542.647 0 563.995 21.5377 563.995 47.8646V95.7384C563.995 122.075 542.647 143.612 516.011 143.612V119.685Z" fill="black"/>
<path d="M588.031 47.8724C588.031 21.5455 609.618 0.0078125 636.006 0.0078125C662.643 0.0078125 683.991 21.5455 683.991 47.8724L659.998 71.8094V47.8724C659.998 34.709 649.44 23.9355 636.006 23.9355C622.812 23.9355 612.014 34.709 612.014 47.8724L588.021 71.8094V47.8724H588.031ZM588.031 95.7463L612.023 71.8094V95.7463C612.023 108.91 622.821 119.683 636.015 119.683C649.458 119.683 660.008 108.91 660.008 95.7463L684 71.8094V95.7463C684 122.082 662.652 143.62 636.015 143.62C609.627 143.62 588.031 122.082 588.031 95.7463Z" fill="black"/>
</svg>