<?xml version="1.0" encoding="UTF-8" standalone="no"?>
<!-- Generator: Adobe Illustrator 13.0.0, SVG Export Plug-In . SVG Version: 6.00 Build 14948)  -->
<svg
   xmlns:dc="http://purl.org/dc/elements/1.1/"
   xmlns:cc="http://creativecommons.org/ns#"
   xmlns:rdf="http://www.w3.org/1999/02/22-rdf-syntax-ns#"
   xmlns:svg="http://www.w3.org/2000/svg"
   xmlns="http://www.w3.org/2000/svg"
   xmlns:sodipodi="http://sodipodi.sourceforge.net/DTD/sodipodi-0.dtd"
   xmlns:inkscape="http://www.inkscape.org/namespaces/inkscape"
   version="1.0"
   id="Ebene_1"
   x="0px"
   y="0px"
   width="450"
   height="50"
   viewBox="0 0 467.717 225.808"
   enable-background="new 0 0 467.717 225.808"
   xml:space="preserve"
   sodipodi:version="0.32"
   inkscape:version="0.46"
   sodipodi:docname="Dolce_&amp;_Gabbana.svg"
   inkscape:output_extension="org.inkscape.output.svg.inkscape"><metadata
   id="metadata8"><rdf:RDF><cc:Work
       rdf:about=""><dc:format>image/svg+xml</dc:format><dc:type
         rdf:resource="http://purl.org/dc/dcmitype/StillImage" /></cc:Work></rdf:RDF></metadata><defs
   id="defs6"><inkscape:perspective
     sodipodi:type="inkscape:persp3d"
     inkscape:vp_x="0 : 112.904 : 1"
     inkscape:vp_y="0 : 1000 : 0"
     inkscape:vp_z="467.71701 : 112.904 : 1"
     inkscape:persp3d-origin="233.85851 : 75.269333 : 1"
     id="perspective10" /></defs><sodipodi:namedview
   inkscape:window-height="701"
   inkscape:window-width="1280"
   inkscape:pageshadow="2"
   inkscape:pageopacity="0.0"
   guidetolerance="10.0"
   gridtolerance="10.0"
   objecttolerance="10.0"
   borderopacity="1.0"
   bordercolor="#666666"
   pagecolor="#ffffff"
   id="base"
   showgrid="false"
   inkscape:zoom="1"
   inkscape:cx="93.303923"
   inkscape:cy="62.337625"
   inkscape:window-x="0"
   inkscape:window-y="22"
   inkscape:current-layer="Ebene_1" />
<path
   clip-rule="evenodd"
   d="M -762.86191,22.2306 L -737.09811,22.2306 L -735.03215,22.2306 L -697.93827,22.2306 C -652.57118,22.2306 -614.43963,62.400035 -614.43963,112.92738 C -614.43963,162.40769 -652.58053,202.57713 -697.93827,203.62414 L -735.03215,203.62414 L -735.03215,203.62414 L -738.12642,203.62414 L -762.86191,203.62414 L -762.86191,22.2306 L -762.86191,22.2306 z M -735.03215,43.86246 L -735.03215,181.98293 L -705.14576,181.98293 C -663.91063,180.93592 -643.30707,147.97397 -643.30707,113.92763 C -643.30707,78.871662 -663.91995,50.022944 -697.93827,44.862721 L -735.03215,43.86246 L -735.03215,43.86246 z M -505.17723,18.070616 C -449.50838,18.070616 -405.20699,60.334074 -405.20699,112.91802 C -405.20699,165.45522 -449.51772,207.72803 -505.17723,207.72803 C -559.80846,207.72803 -605.14749,165.46457 -605.14749,112.91802 C -605.1568,60.343422 -559.80846,18.070616 -505.17723,18.070616 L -505.17723,18.070616 z M -505.17723,40.758829 C -464.97039,40.758829 -431.9991,72.711178 -431.9991,112.92738 C -431.9991,152.08719 -464.97039,184.03956 -505.17723,184.03956 C -544.33706,184.03956 -577.33643,152.08719 -577.33643,112.92738 C -577.33643,72.711178 -544.34644,40.758829 -505.17723,40.758829 L -505.17723,40.758829 z M -396.95247,22.2306 L -370.16039,22.2306 L -370.16039,181.99227 L -318.62346,181.99227 L -318.62346,203.62414 L -370.16039,203.62414 L -382.51879,203.62414 L -396.95247,203.62414 L -396.95247,22.2306 L -396.95247,22.2306 z M -232.0399,17.070355 C -211.42701,17.070355 -191.83307,23.230862 -175.35209,33.551317 L -175.35209,66.550673 C -188.76682,50.022944 -209.3704,39.711824 -232.0399,39.711824 C -272.24674,39.711824 -304.1991,72.711178 -304.1991,112.92738 C -304.1991,152.08719 -272.24674,185.04915 -232.0399,185.04915 C -209.36103,185.04915 -188.75749,174.77542 -175.35209,158.25704 L -175.35209,192.26602 C -191.84239,202.58649 -211.43636,208.79372 -232.0399,208.79372 C -286.67111,208.79372 -332.01013,165.47391 -332.01013,112.93671 C -332.01013,60.343422 -286.66178,17.070355 -232.0399,17.070355 L -232.0399,17.070355 z M -139.27717,181.98293 L -74.33483,181.98293 L -74.33483,203.6148 L -139.27717,203.6148 L -167.10691,203.6148 L -167.10691,181.98293 L -167.10691,118.07828 L -167.10691,96.399665 L -167.10691,42.815455 L -167.10691,22.2306 L -139.27717,22.2306 L -74.33483,22.2306 L -74.33483,42.815455 L -139.27717,42.815455 L -139.27717,96.399665 L -74.33483,96.399665 L -74.33483,118.07828 L -139.27717,118.07828 L -139.27717,181.98293 L -139.27717,181.98293 z M 27.710739,191.25641 C 24.616455,194.36003 21.512834,196.41666 17.390249,198.46391 C 14.295976,200.52051 10.182737,201.56751 6.050817,202.5678 C 5.022526,202.5678 3.994203,202.5678 2.965901,203.6148 C 1.928243,203.6148 0.899919,203.6148 -0.128371,203.6148 C -3.2226564,203.6148 -5.2886171,202.5678 -8.3829005,202.5678 C -11.47715,201.56751 -13.543112,200.51117 -16.637396,198.46391 C -18.694011,196.40727 -20.750624,193.30368 -22.807253,190.20005 C -23.84491,187.14316 -24.873206,184.03956 -25.901521,180.93592 L -25.901521,179.88892 C -25.901521,178.88865 -25.901521,178.88865 -25.901521,178.88865 C -25.901521,177.84165 -25.901521,177.84165 -25.901521,177.84165 C -25.901521,176.84141 -25.901521,176.84141 -25.901521,175.78502 L -25.901521,175.78502 L -24.873206,175.78502 C -24.873206,174.78478 -24.873206,174.78478 -24.873206,174.78478 C -24.873206,174.78478 -24.873206,174.78478 -24.873206,173.73777 C -23.854253,168.57753 -21.778927,164.47364 -17.665686,160.31367 C -13.55248,157.25678 -9.4298847,154.15316 -5.2979633,151.04957 C -7.3545779,147.99267 -9.4298847,144.88906 -11.486498,141.78544 C -13.55248,139.7288 -14.580782,135.62493 -14.580782,132.5213 L -14.580782,131.47432 C -14.580782,130.47405 -14.580782,130.47405 -14.580782,129.4177 L -14.580782,129.4177 L -14.580782,129.4177 C -14.580782,128.37069 -14.580782,128.37069 -14.580782,128.37069 C -13.55248,128.37069 -13.55248,127.37043 -13.55248,127.37043 C -12.514822,123.26654 -10.448861,120.16291 -7.3545779,117.04995 C -3.2413378,114.99333 -0.147064,113.94632 3.97552,113.94632 C 3.97552,113.94632 3.97552,113.94632 5.00381,113.94632 L 5.00381,113.94632 L 6.032133,113.94632 C 6.032133,113.94632 6.032133,113.94632 7.069771,113.94632 C 11.183011,113.94632 16.343244,116.04968 20.475186,119.10656 C 23.560102,122.2102 25.616727,126.31408 25.616727,132.53067 C 25.616727,137.69089 24.597773,141.79477 21.494142,144.8984 C 17.371567,149.00228 14.286629,152.10592 10.164055,154.16253 L 29.748648,177.85101 C 30.776961,175.79439 32.84292,173.74712 34.908882,170.64349 C 36.965495,168.58688 37.993819,166.53961 40.069126,164.48298 L 46.248316,170.64349 C 45.220025,172.70011 43.154042,174.79413 42.12574,176.85074 C 41.097417,178.90737 39.031456,180.95463 36.965495,183.01123 C 36.965495,183.01123 36.965495,183.01123 35.937205,184.05823 C 35.937205,184.05823 35.937205,185.0585 34.908882,185.0585 L 49.333252,201.58624 L 36.965495,201.58624 L 27.710739,191.25641 L 27.710739,191.25641 z M 3.994203,194.36003 C 7.088487,194.36003 10.182737,193.31302 13.267675,191.25641 C 15.333636,189.1998 18.418572,187.15252 20.49388,185.04915 C 21.512834,185.04915 21.512834,185.04915 21.512834,185.04915 C 21.512834,185.04915 21.512834,185.04915 22.550494,184.0489 L -0.119025,158.25704 L -0.119025,158.25704 C -0.119025,159.30406 -0.119025,159.30406 -1.156695,159.30406 L -1.156695,159.30406 C -2.1849857,160.30433 -2.1849857,160.30433 -2.1849857,160.30433 C -4.2509464,161.35133 -5.27927,162.40769 -7.3265266,163.40795 C -9.4111925,165.46457 -10.420798,166.51158 -11.458469,168.56819 C -12.477413,168.56819 -12.477413,169.6152 -12.477413,170.62481 C -13.515083,171.67181 -13.515083,172.68143 -13.515083,173.72844 C -14.543373,174.77542 -14.543373,175.78502 -14.543373,175.78502 C -14.543373,176.83203 -14.543373,177.84165 -14.543373,178.88865 C -14.543373,182.99255 -13.515083,186.09615 -10.411452,190.20941 C -6.2982248,193.31302 -3.2039414,194.36003 1.946936,194.36003 L 1.946936,194.36003 L 2.984595,194.36003 L 2.984595,194.36003 L 2.984595,194.36003 C 2.975248,194.36003 2.975248,194.36003 3.994203,194.36003 L 3.994203,194.36003 z M -4.2509464,130.45534 C -4.2509464,131.4556 -4.2509464,131.4556 -4.2509464,131.4556 L -4.2509464,131.4556 L -4.2509464,132.50262 L -4.2509464,132.50262 C -4.2509464,134.55924 -4.2509464,136.60651 -3.2133093,138.66312 C -2.1849857,140.71973 -0.119025,142.81373 0.899919,143.82336 C 1.928243,144.87034 1.928243,144.87034 2.965901,145.87998 L 3.994203,146.92697 L 5.022526,146.92697 C 5.022526,146.92697 6.050817,146.92697 6.050817,145.87998 C 8.116777,144.87971 10.182737,143.82336 12.24872,141.77609 C 14.305346,139.71948 15.342981,137.6722 16.361959,134.56858 L 16.361959,134.56858 C 16.361959,133.52156 16.361959,133.52156 16.361959,133.52156 L 16.361959,133.52156 C 16.361959,132.5213 16.361959,132.5213 16.361959,132.5213 C 16.361959,129.4177 15.333636,127.36109 13.267675,125.31381 C 11.201715,124.2668 9.154447,123.2572 7.088487,123.2572 C 6.050817,123.2572 6.050817,123.2572 6.050817,123.2572 C 6.050817,123.2572 6.050817,123.2572 5.022526,123.2572 L 5.022526,123.2572 L 5.022526,123.2572 C 2.965901,123.2572 0.899919,123.2572 -1.166042,125.31381 C -3.2133093,126.29537 -4.2509464,128.35198 -4.2509464,130.45534 L -4.2509464,130.45534 z M 194.67993,16.023349 C 230.75485,16.023349 262.70717,34.598323 281.26347,61.399775 L 257.55629,73.767531 C 244.16025,53.135911 221.47204,39.711824 195.70822,39.711824 C 154.48244,39.711824 122.53008,72.711178 122.53008,112.92738 C 122.53008,153.09681 154.48244,185.04915 195.70822,185.04915 C 229.72653,185.04915 256.51863,168.56819 258.59395,133.51223 L 199.84015,133.51223 L 199.84015,111.88036 L 256.51863,111.88036 C 256.51863,111.88036 285.3767,111.88036 287.46136,111.88036 C 287.46136,111.88036 287.46136,56.239531 287.46136,112.92738 C 287.46136,169.6152 256.51863,209.78465 194.68926,209.78465 C 132.84123,209.78465 93.67202,166.51158 93.67202,112.92738 C 93.67202,59.287069 139.02042,16.023349 194.67993,16.023349 L 194.67993,16.023349 z M 271.98065,203.62414 L 347.23411,22.2306 L 364.76209,22.2306 L 439.98747,203.62414 L 411.13868,203.62414 L 390.5258,152.08719 L 321.46097,152.08719 L 300.85742,203.62414 L 271.98065,203.62414 L 271.98065,203.62414 z M 331.78145,129.39898 L 356.49822,64.447316 L 380.2147,129.39898 L 331.78145,129.39898 L 331.78145,129.39898 z M 703.86065,203.62414 L 778.0765,22.2306 L 795.58569,22.2306 L 870.82989,203.62414 L 841.98134,203.62414 L 821.37774,152.08719 L 752.29401,152.08719 L 731.68107,203.62414 L 703.86065,203.62414 L 703.86065,203.62414 z M 762.61435,129.39898 L 787.35005,64.447316 L 812.08541,129.39898 L 762.61435,129.39898 L 762.61435,129.39898 z M 1062.5439,203.62414 L 1137.7974,22.2306 L 1155.3254,22.2306 L 1230.5789,203.62414 L 1201.702,203.62414 L 1180.07,152.08719 L 1112.0335,152.08719 L 1091.4299,203.62414 L 1062.5439,203.62414 L 1062.5439,203.62414 z M 1122.3354,129.39898 L 1146.0519,64.447316 L 1170.778,129.39898 L 1122.3354,129.39898 L 1122.3354,129.39898 z M 504.92986,42.815455 C 523.48614,44.872067 529.65592,52.079559 529.65592,70.663911 C 529.65592,88.191883 517.28824,97.455998 501.82613,97.455998 L 478.11906,97.455998 L 478.11906,42.815455 L 504.92986,42.815455 L 504.92986,42.815455 L 504.92986,42.815455 z M 506.99573,119.08787 L 508.01473,119.08787 C 521.42025,119.08787 545.12732,122.1915 545.12732,152.08719 C 545.12732,175.77569 524.52373,181.98293 504.92986,181.98293 L 509.03375,181.98293 L 478.10975,181.98293 L 478.10975,119.07853 L 501.81684,119.07853 L 506.99573,119.07853 L 506.99573,119.08787 z M 471.95858,203.62414 L 478.11906,203.62414 L 518.33513,203.62414 L 518.33513,203.62414 C 550.28763,203.62414 574.00401,181.99227 574.00401,152.08719 C 574.00401,128.35198 559.55161,110.87074 538.94824,103.65389 C 550.28763,96.399665 556.47601,83.022302 556.47601,66.541325 C 556.47601,39.702489 538.94824,22.221231 511.11846,22.221231 C 496.67536,21.174248 481.22254,22.221231 466.79827,22.221231 L 465.75137,22.221231 C 465.75137,22.221231 465.75137,22.221231 464.73237,22.221231 L 464.73237,22.221231 L 450.30786,22.221231 L 450.30786,203.6148 L 471.95858,203.6148 L 471.95858,203.62414 z M 643.04098,42.815455 C 660.56898,44.872067 666.75758,52.079559 667.77634,70.663911 C 667.77634,88.191883 655.40866,97.455998 639.94678,97.455998 L 616.23948,97.455998 L 616.23948,42.815455 L 643.04098,42.815455 L 643.04098,42.815455 L 643.04098,42.815455 z M 644.08787,119.08787 C 645.11616,119.08787 645.11616,119.08787 645.11616,119.08787 C 658.51236,119.08787 682.2008,122.1915 682.2008,152.08719 C 682.2008,175.77569 661.58797,181.98293 642.01268,181.98293 L 647.16347,181.98293 L 616.23948,181.98293 L 616.23948,119.07853 L 639.94678,119.07853 L 644.08787,119.07853 L 644.08787,119.08787 z M 609.0321,203.62414 L 616.23948,203.62414 L 656.45579,203.62414 L 656.45579,203.62414 C 688.40806,203.62414 711.06827,181.99227 711.06827,152.08719 C 711.06827,128.35198 696.64393,110.87074 676.04038,103.65389 C 688.40806,96.399665 694.56853,83.022302 694.56853,66.541325 C 694.56853,39.702489 676.04038,22.221231 649.22004,22.221231 C 633.76747,21.174248 619.3432,22.221231 603.86249,22.221231 L 603.86249,22.221231 C 602.8435,22.221231 602.8435,22.221231 602.8435,22.221231 L 601.81519,22.221231 L 587.39069,22.221231 L 587.39069,203.6148 L 609.0321,203.6148 L 609.0321,203.62414 z M 883.20707,22.2306 L 900.73504,22.2306 L 1027.5162,156.20044 L 1027.5162,22.2306 L 1052.2514,22.2306 L 1052.2514,203.62414 L 1033.6952,203.62414 L 908.97072,70.654565 L 908.97072,203.62414 L 883.20707,203.62414 L 883.20707,22.2306 L 883.20707,22.2306 z"
   id="path3"
   style="fill-rule:evenodd"
   sodipodi:nodetypes="ccccsccccccccccsccccssccccssscccccccccccccccsssccssccccccccccccccccccccccccccscccccccccccccccccccccccccccscsscccccsccccccccccccccccccccccscccccccccccccssccccsccccccsccccccccccssscccccsssccccccccccccccccccccccccccccccccccccccccccccccccsccccccccscccccccccccscscccccccccccccccccccscccccccccccscsccccccccccccccccccccc" />
</svg>