<svg xmlns="http://www.w3.org/2000/svg" viewBox="0 0 926.45 202.94"><path d="m5 4.38h51.5v11.29h-38.5v21.33h33v11.31h-33v21.37h38.5v11.39h-51.5zm108.09 59.49v.88c0 9.75-6.58 16.32-16.22 16.32h-15.44c-9.76 0-16.33-6.57-16.33-16.32v-2.2h12.16v2.45c0 3.51 2.08 5.59 5.7 5.59h12.38c3.51 0 5.59-2.19 5.59-5.7v-2c0-3.5-2.08-5.69-5.59-5.69h-13.47c-9.65 0-16.22-6.47-16.22-16.33v-.44c0-9.75 6.57-16.32 16.22-16.32h14.35c9.75 0 16.32 6.57 16.32 16.32v2.2h-12.16v-2.43c0-3.5-2.08-5.58-5.59-5.58h-11.28c-3.62 0-5.7 2.08-5.7 5.58v1.8c0 3.5 2.08 5.59 5.7 5.59h13.36c9.64-.04 16.22 6.53 16.22 16.28zm56.08-3.07v3.51c0 10-6.68 16.76-16.76 16.76h-14.57c-9.86 0-16.65-6.79-16.65-16.76v-23.45c0-10.08 6.79-16.76 16.65-16.76h14.57c10.08 0 16.76 6.68 16.76 16.76v3.51h-12.17v-3.73c0-3.83-2.3-6-6-6h-11.52c-3.83 0-6.13 2.19-6.13 6v23.89c0 3.72 2.3 6 6.13 6h11.52c3.72 0 6-2.3 6-6v-3.73zm56.68 1.65v1.86c0 10-6.69 16.76-16.76 16.76h-14.58c-9.86 0-16.65-6.79-16.65-16.76v-23.45c0-10.08 6.79-16.76 16.65-16.76h14.58c10.07 0 16.76 6.68 16.76 16.76v16.14h-35.85v7.56c0 3.72 2.3 6 6.14 6h11.5c3.73 0 6-2.3 6-6v-2.11zm-35.85-15.23h23.67v-6.58c0-3.83-2.3-6-6-6h-11.5c-3.84 0-6.14 2.19-6.14 6zm80.34 33.85v-40.43c0-3.83-2.3-6-6-6h-11.51c-3.72 0-5.91 2-6.13 5.48v41h-12.16v-57h9.31l1.42 5.15c3-3.29 7.34-5.15 12.71-5.15h7.78c10.08 0 16.76 6.68 16.76 16.76v40.19zm95.08-46.45h-15.1c-3.83 0-6.13 2.19-6.13 6v40.45h-12.19v-57h9.31l1.43 5.15c3-3.29 7.34-5.15 12.7-5.15h10zm5-32.87h12.16v14.13h-12.16zm0 22.35h12.16v57h-12.16zm68.84 36.7v3.51c0 10-6.69 16.76-16.77 16.76h-14.57c-9.86 0-16.65-6.79-16.65-16.76v-23.45c0-10.08 6.79-16.76 16.65-16.76h14.57c10.08 0 16.77 6.68 16.77 16.76v3.51h-12.17v-3.73c0-3.83-2.29-6-6-6h-11.5c-3.84 0-6.14 2.19-6.14 6v23.89c0 3.72 2.3 6 6.14 6h11.5c3.73 0 6-2.3 6-6v-3.73zm92.88-30.8-20.93 39.46-20.92-39.46v51.07h-13v-76.69h12.6l21.32 40.32 21.37-40.32h12.59v76.69h-13zm53 51.05h-14.62c-9.87 0-16.66-6.79-16.66-16.76v-23.43c0-10.08 6.79-16.76 16.66-16.76h14.57c10.07 0 16.76 6.68 16.76 16.76v23.45c0 9.97-6.69 16.76-16.76 16.76zm4.6-40.43c0-3.83-2.3-6-6-6h-11.5c-3.84 0-6.14 2.19-6.14 6v23.91c0 3.72 2.3 6 6.14 6h11.5c3.73 0 6-2.3 6-6zm89.68 21.81v1.86c0 10-6.68 16.76-16.76 16.76h-14.66c-9.86 0-16.65-6.79-16.65-16.76v-23.43c0-10.08 6.79-16.76 16.65-16.76h14.57c10.08 0 16.76 6.68 16.76 16.76v16.14h-35.78v7.56c0 3.72 2.3 6 6.13 6h11.51c3.72 0 6-2.3 6-6v-2.11zm-35.87-15.21h23.66v-6.58c0-3.83-2.3-6-6-6h-11.53c-3.83 0-6.13 2.19-6.13 6zm92.51 13.58v3.51c0 10-6.69 16.76-16.77 16.76h-14.57c-9.85 0-16.65-6.79-16.65-16.76v-23.45c0-10.08 6.8-16.76 16.65-16.76h14.57c10.08 0 16.77 6.68 16.77 16.76v3.51h-12.17v-3.73c0-3.83-2.29-6-6-6h-11.5c-3.84 0-6.14 2.19-6.14 6v23.89c0 3.72 2.3 6 6.14 6h11.5c3.73 0 6-2.3 6-6v-3.73zm20.86-36.7v40.43c0 3.72 2.3 6 6.14 6h11.5c3.51 0 5.81-2.08 6-5.48v-41h12.17v57h-9.32l-1.53-5.15c-3 3.29-7.23 5.15-12.49 5.15h-7.89c-10.08 0-16.76-6.68-16.76-16.76v-40.19zm113.35 38.35v1.86c0 10-6.68 16.76-16.76 16.76h-14.57c-9.86 0-16.65-6.79-16.65-16.76v-23.45c0-10.08 6.79-16.76 16.65-16.76h14.57c10.08 0 16.76 6.68 16.76 16.76v16.14h-35.82v7.56c0 3.72 2.3 6 6.13 6h11.51c3.72 0 6-2.3 6-6v-2.11zm-35.82-15.23h23.66v-6.58c0-3.83-2.3-6-6-6h-11.53c-3.83 0-6.13 2.19-6.13 6zm92 16.65v.88c0 9.75-6.57 16.32-16.21 16.32h-15.45c-9.75 0-16.32-6.57-16.32-16.32v-2.2h12.16v2.45c0 3.51 2.08 5.59 5.7 5.59h12.37c3.51 0 5.59-2.19 5.59-5.7v-2c0-3.5-2.08-5.69-5.59-5.69h-13.47c-9.64 0-16.21-6.47-16.21-16.33v-.44c0-9.75 6.57-16.32 16.21-16.32h14.35c9.75 0 16.33 6.57 16.33 16.32v2.2h-12.16v-2.43c0-3.5-2.09-5.58-5.59-5.58h-11.29c-3.61 0-5.69 2.08-5.69 5.58v1.8c0 3.5 2.08 5.59 5.69 5.59h13.37c9.64-.04 16.21 6.53 16.21 16.28zm-898 45.23-28.45 72.99h5l7.93-20.34h36.91l7.92 20.34h5.11l-28.46-73zm-14.16 48.38 17.09-43.27 17.1 43.27zm58.14-24.19-.43-5.42h-3.64v54.22h4.64v-39.73c.21-6.47 4.48-10.53 11-10.53h11v-4h-10.58c-5.22.04-9.42 2.02-11.99 5.46zm102.67-.94v-8c0-6.67 4.38-11 11.05-11h14.6c6.57 0 10.95 4.38 10.95 11v5h4.9v-5.11c0-9.08-6.15-15.12-15.12-15.12h-16.06c-9.07 0-15.12 6-15.12 15.12v7.09c0 7 3.75 12.3 9.7 14.18-6.36 1.67-10.53 7-10.53 14.28v7.21c0 9 6.15 15.12 15.12 15.12h15.74c5 0 9.18-1.88 11.78-5.22l.63 5.22h3.75v-34.44h9.51v-4.28h-39.85c-6.67 0-11.05-4.4-11.05-11.05zm36.6 34.51c0 6.57-4.38 10.95-10.95 10.95h-15.43c-6.57 0-11-4.38-11-10.95v-8.24c0-6.57 4.48-10.94 11-10.94h26.38zm80.56-57.76h-22.21c-9 0-15.12 6-15.12 15.12v42.78c0 9 6.15 15.12 15.12 15.12h22.21c9.07 0 15.12-6.16 15.12-15.12v-7.09h-4.8v7c0 6.57-4.38 10.95-11.05 10.95h-20.75c-6.57 0-11-4.38-11-10.95v-42.59c0-6.67 4.48-11 11-11h20.75c6.67 0 11.05 4.38 11.05 11v6.88h4.8v-7c0-9.06-6.05-15.1-15.12-15.1zm51.11 18.77h-10.94c-4.9 0-8.87 1.77-11.47 4.9v-23.67h-4.59v73h4.63v-39.22c0-6.78 4.38-11 11.05-11h10.95c6.67 0 11 4.27 11 11v39.21h4.58v-39.09c-.09-9.09-6.13-15.13-15.21-15.13zm51.12 0h-11.89c-9 0-15.11 6-15.11 15.11v24c0 9 6.15 15.12 15.11 15.12h11.89c9.07 0 15.12-6.16 15.12-15.12v-1.58h-4.61v1.67c0 6.67-4.27 11.05-10.95 11.05h-10.93c-6.67 0-11.05-4.38-11.05-11.05v-11.07h37.54v-13c0-9.09-6.05-15.13-15.12-15.13zm10.51 24.39h-32.93v-9.38c0-6.78 4.38-11 11.05-11h10.95c6.68 0 10.95 4.27 10.95 11zm66.55-24.39h-5.21c-6.05 0-10.74 2.71-13.25 7.29-2.5-4.58-7.19-7.29-13.24-7.29h-5.21c-5.21 0-9.39 2-12 5.42l-.42-5.42h-3.62v54.22h4.59v-39.73c.21-6.47 4.48-10.53 11.05-10.53h5.11c6.68 0 11 4.27 11 11v39.21h4.65v-39.68c.21-6.47 4.49-10.53 10.95-10.53h5.21c6.68 0 11.06 4.27 11.06 11v39.21h4.48v-39.04c-.01-9.09-5.95-15.13-15.13-15.13zm24.11 54.22h4.59v-54.22h-4.59zm0-63h4.59v-10h-4.59zm41.4 33.57h-13.33c-5.94 0-9.8-3.86-9.8-9.8v-1.25c0-5.94 3.86-9.8 9.8-9.8h12.41c5.84 0 9.69 3.86 9.69 9.8v2.5h4.59v-2.4c0-8.34-5.52-13.86-13.86-13.86h-13.35c-8.34 0-13.87 5.52-13.87 13.86v.73c0 8.34 5.53 13.87 13.87 13.87h13.45c5.84 0 9.7 4 9.7 9.8v2.19c0 5.94-3.86 9.8-9.7 9.8h-13.45c-5.94 0-9.8-3.86-9.8-9.8v-2.5h-4.59v2.4c0 8.34 5.53 13.87 13.87 13.87h14.39c8.34 0 13.87-5.53 13.87-13.87v-1.67c.05-8.32-5.53-13.85-13.87-13.85zm72-24.81c-5.22 0-9.39 2-12 5.42l-.41-5.42h-3.65v54.22h4.59v-39.71c.21-6.47 4.48-10.53 11-10.53h10.94l-1.61-4zm-490.45-18.85h-4.61v18.88h-14v4h14v38.82c0 6.62 3.63 11.44 10.53 11.44h4v-4.14h-3.22c-4.63 0-6.72-2.63-6.72-7.26v-38.91h14.08v-4h-14.06zm455.39 0h-4.59v18.88h-14.12v4h14.08v38.82c0 6.62 3.63 11.44 10.53 11.44h4v-4.14h-3.22c-4.63 0-6.72-2.63-6.72-7.26v-38.91h14.04v-4h-14zm63.43 94 8.55-20.85h-.52l-22-54.22h4.9l19.92 49.21 19.91-49.21h4.59l-30.38 75.01zm-349.93-178.9h13.7v-16.43l12.15-3.62v20.05h13.7v10.52h-13.7v46.45h-12.15v-46.45h-13.7zm323.04-24.1h12.16v81.07h-12.16zm190.9 0h12.16v81.07h-12.16z" fill="#0266aa"/></svg>
