<?xml version="1.0" encoding="utf-8"?>
<!-- Generator: $$$/GeneralStr/196=Adobe Illustrator 27.6.0, SVG Export Plug-In . SVG Version: 6.00 Build 0)  -->
<svg version="1.1" id="Calque_1" xmlns="http://www.w3.org/2000/svg" xmlns:xlink="http://www.w3.org/1999/xlink" x="0px" y="0px"
	 viewBox="0 0 428 170.4" style="enable-background:new 0 0 428 170.4;" xml:space="preserve">
<style type="text/css">
	.st0{fill:#1B1E1D;}
</style>
<g>
	<g>
		<path d="M25.4,128.6c-0.6,1.3-1.1,2.2-1.5,2.6c-0.4,0.4-0.8,0.6-1.4,0.8c-0.6,0.2-1.8,0.2-3.7,0.2c-0.8,0-1.4,0-1.9,0l-0.5,0
			c-0.2,0-0.4,0-0.5,0l-0.9,0c-0.6,0-0.8-0.1-0.9-0.2c0,0-0.1-0.3-0.1-1.6l0-1.6l0-1.7l0-2.7l0-0.3c0.5,0,1.3-0.1,2.4-0.1h0.9
			c0.7,0,1.2,0,1.6,0c0.4,0,0.6,0,0.7,0c0.6,0,1,0.1,1.2,0.3c0.2,0.1,0.4,0.6,0.7,1.7c0.2,0.6,0.3,1,0.5,1.3l0.1,0.1h0.2
			c0.1,0,0.2,0,0.3-0.1l0.1-0.1l0-0.1c0-0.2,0-0.3,0-0.4c0,0,0-0.1-0.1-1c-0.1-0.6-0.1-1.2-0.1-1.7c0-1.9,0-3,0.1-3.3
			c0-0.2,0-0.3,0-0.4c0-0.1,0-0.2,0-0.3l0-0.1l-0.1,0c-0.1-0.1-0.3-0.1-0.4-0.1l-0.1,0c-0.4,0.1-0.6,0.6-0.6,1.5
			c-0.1,0.9-0.2,1.2-0.3,1.2c0,0-0.1,0.1-0.7,0.2c-1.6,0-2.9,0-4.1,0.1c-0.1,0-0.2,0-0.3,0c-0.2,0-0.5,0-1,0c-0.3,0-0.6,0-0.7,0
			h-0.2c0,0-0.1,0-0.1,0V121l0-1.4c0-1.3,0-2,0-2c0-1.5,0.1-1.8,0.2-1.9c0,0,0.1-0.1,0.8-0.1l4.5-0.1c0.2,0,0.4,0,0.6,0
			c0.8,0,1.2,0,1.3,0c0.5,0,0.7,0.1,0.7,0.1c0,0,0.2,0.1,0.5,0.6c0.4,0.6,0.6,1.1,0.8,1.6c0.2,0.5,0.3,0.8,0.4,1l0,0.1l0.1,0
			c0.1,0,0.2,0.1,0.4,0.1l0.1,0c0.1-0.1,0.2-0.2,0.2-0.4c-0.1-0.7-0.1-1.6-0.1-2.5c0,0,0-0.1,0.1-0.5c0-0.3,0.1-0.5,0.1-0.7
			c0-0.1-0.1-0.2-0.1-0.3l0-0.1l-0.3-0.1l-1.2,0l-0.3,0l-2.1,0c-0.9,0-1.4-0.1-1.7-0.1c-0.3,0-0.7,0-1.5,0c-0.7,0-1.7,0-3,0
			l-2.6-0.1l-1.1,0c-0.6,0-1.2,0-1.8-0.1c-0.4,0-0.6-0.1-0.9,0.1l-0.1,0l0,0.1c-0.1,0.1-0.1,0.3-0.1,0.4c0,0.1,0,0.3,0.3,0.5l0.1,0
			c0.3,0.1,0.6,0.1,1,0.1c1.1,0,1.3,0.2,1.4,0.2c0,0,0.1,0.3,0.1,1.5l0.1,4.1l0,3.7l0,1.7l0,3.7l0,1c0,0.3,0,0.5-0.1,0.6
			c-0.2,0.1-0.6,0.1-1.6,0.2c-0.4,0-0.7,0.1-0.9,0.1c-0.1,0-0.2,0.1-0.3,0.2l-0.1,0.1l0,0.3c0,0.2,0.1,0.3,0.2,0.4
			c0.1,0.1,0.2,0.1,0.5,0.1c0.8,0,2.1,0,3.9-0.1c0.2,0,0.4,0,0.6,0l6.1-0.1l1.8,0l4.1,0h0.4l0.1-0.1c0.2-0.3,0.3-0.6,0.3-0.9
			c0-0.7,0.1-1.4,0.2-2.1c0-0.2,0.1-0.7,0.5-1.9l0-0.2l-0.1-0.1C26.2,127.7,25.8,127.8,25.4,128.6z"/>
		<path d="M45.8,123.6c-0.7-0.5-1.8-1.2-3.4-2c-2-1-3.3-1.8-3.7-2.3c-0.5-0.5-0.7-1-0.7-1.6c0-0.8,0.3-1.4,1-2
			c0.7-0.6,1.5-0.9,2.6-0.9c1,0,1.9,0.3,2.6,0.9c0.7,0.6,1.2,1.5,1.5,2.8l0,0.1l0.3,0.1c0.1,0,0.2,0,0.3-0.1l0.1-0.1l0-0.1
			c0-0.2,0.1-0.6,0.1-1.1l0.1-1.3c0-0.1,0-0.5-0.1-1.1l0-0.1l-0.1-0.1c-0.6-0.4-1.1-0.7-1.7-0.9c-0.7-0.2-1.6-0.3-2.6-0.3
			c-1.8,0-3.3,0.5-4.4,1.5c-1.1,1-1.7,2.2-1.7,3.6c0,0.8,0.2,1.5,0.5,2.1c0.4,0.8,1.1,1.5,1.9,2.1c0.5,0.4,1.6,1.1,3.3,1.9
			c1.6,0.8,2.7,1.6,3.3,2.2c0.5,0.6,0.8,1.3,0.8,2c0,0.5-0.2,1.1-0.5,1.6c-0.3,0.6-0.8,1-1.4,1.3c-0.6,0.3-1.3,0.5-2,0.5
			c-1.2,0-2.2-0.4-3.2-1.3c-0.9-0.9-1.5-1.9-1.6-3c0-0.2-0.1-0.4-0.2-0.5c-0.1-0.1-0.2-0.2-0.4-0.2c-0.3,0-0.4,0.1-0.4,0.2
			c-0.1,0.1-0.1,0.3-0.1,0.9c0,0.7-0.1,1.6-0.2,2.8c0,0.2,0,0.3,0,0.4c0,0.2,0.1,0.5,0.3,0.7c0.1,0.1,0.4,0.3,1.4,0.7
			c1.2,0.4,2.5,0.6,3.8,0.6c1.5,0,2.8-0.2,3.7-0.7c1-0.5,1.7-1.2,2.3-2.1c0.6-0.9,0.8-2,0.8-3c0-0.9-0.2-1.6-0.5-2.3
			C47,124.7,46.5,124.1,45.8,123.6z"/>
		<path d="M67.5,123.6c-0.7-0.5-1.8-1.2-3.4-2c-2-1-3.3-1.8-3.7-2.3c-0.5-0.5-0.7-1-0.7-1.6c0-0.8,0.3-1.4,1-2
			c0.7-0.6,1.5-0.9,2.6-0.9c1,0,1.9,0.3,2.6,0.9c0.7,0.6,1.2,1.5,1.5,2.8l0,0.1l0.3,0.1c0.1,0,0.2,0,0.3-0.1l0.1-0.1l0-0.1
			c0-0.2,0.1-0.5,0.1-1.1l0.1-1.3c0-0.1,0-0.4-0.1-1.1l0-0.1l-0.1-0.1c-0.6-0.4-1.1-0.7-1.7-0.9c-0.7-0.2-1.6-0.3-2.6-0.3
			c-1.8,0-3.3,0.5-4.4,1.5c-1.1,1-1.7,2.2-1.7,3.6c0,0.8,0.2,1.5,0.5,2.1c0.4,0.7,1.1,1.5,1.9,2.1c0.5,0.4,1.6,1,3.3,1.9
			c1.6,0.8,2.7,1.6,3.3,2.2c0.5,0.6,0.8,1.3,0.8,2c0,0.5-0.2,1.1-0.5,1.6c-0.3,0.6-0.8,1-1.4,1.3c-0.6,0.3-1.3,0.5-2,0.5
			c-1.2,0-2.3-0.5-3.2-1.3c-0.9-0.9-1.5-1.9-1.6-3.1c0-0.2-0.1-0.4-0.2-0.5c-0.1-0.1-0.2-0.2-0.4-0.2c-0.3,0-0.4,0.1-0.4,0.2
			c-0.1,0.1-0.1,0.3-0.2,0.9c0,0.7-0.1,1.7-0.2,2.8c0,0.2,0,0.3,0,0.4c0,0.2,0.1,0.5,0.3,0.7c0.1,0.1,0.4,0.3,1.4,0.7
			c1.2,0.4,2.5,0.6,3.8,0.6c1.5,0,2.8-0.2,3.7-0.7c0.9-0.5,1.7-1.2,2.3-2.2c0.6-0.9,0.8-2,0.8-3c0-0.9-0.2-1.6-0.5-2.3
			C68.7,124.7,68.2,124.1,67.5,123.6z"/>
		<path d="M96.6,127.8c-0.4,0-0.6,0.4-0.8,0.7c-0.6,1.3-1.1,2.2-1.5,2.6c-0.4,0.4-0.8,0.6-1.4,0.8c-0.6,0.2-1.8,0.2-3.7,0.2
			c-0.8,0-1.4,0-2,0l-0.4,0c-0.3,0-0.4,0-0.5,0l-0.9,0c-0.6,0-0.8-0.1-0.9-0.2c0,0-0.1-0.3-0.1-1.6l0-1.6l0-1.7l0-2.7l0-0.3
			c0.5,0,1.3-0.1,2.4-0.1h0.9c0.7,0,1.2,0,1.6,0c0.4,0,0.6,0,0.7,0c0.6,0,1,0.1,1.2,0.3c0.2,0.1,0.4,0.6,0.7,1.7
			c0.2,0.6,0.3,1,0.5,1.3l0.1,0.1h0.2c0.1,0,0.2,0,0.3-0.1l0.1-0.1l0-0.1c0-0.2,0-0.3,0-0.4c0,0,0-0.1-0.1-1
			c-0.1-0.6-0.1-1.2-0.1-1.7c0-2.3,0-3.1,0.1-3.3c0-0.2,0-0.3,0-0.4c0-0.1,0-0.2,0-0.3l0-0.1l-0.1,0c-0.1-0.1-0.3-0.1-0.5-0.1
			l-0.1,0c-0.4,0.1-0.6,0.6-0.6,1.5c-0.1,1-0.2,1.2-0.3,1.2c0,0-0.1,0.1-0.7,0.2c-1.6,0-2.9,0-4.1,0.1c-0.1,0-0.2,0-0.3,0
			c-0.2,0-0.5,0-1,0c-0.3,0-0.6,0-0.7,0h-0.2c0,0-0.1,0-0.1,0V121c0-2.2-0.1-3.4-0.1-3.5c0-1.5,0.1-1.8,0.2-1.9c0,0,0.1-0.1,0.8-0.1
			l4.5-0.1c0.2,0,0.4,0,0.6,0l0.1,0c0.7,0,1.1,0,1.2,0c0.5,0,0.7,0.1,0.7,0.1c0,0,0.2,0.1,0.5,0.6c0.4,0.6,0.6,1.1,0.8,1.6
			c0.2,0.5,0.3,0.8,0.4,1l0,0.1l0.1,0c0.1,0,0.2,0.1,0.4,0.1l0.1,0c0.1-0.1,0.2-0.2,0.2-0.4C95,117.8,95,117,95,116
			c0,0,0-0.1,0.1-0.5c0-0.3,0.1-0.5,0.1-0.7c0-0.1-0.1-0.2-0.1-0.3l0-0.1l-0.3-0.1l-1.2,0l-0.3,0l-2.1,0c-0.9,0-1.4-0.1-1.7-0.1
			c-0.3,0-0.7,0-1.5,0c-0.7,0-1.7,0-3,0l-2.6-0.1l-1.1,0c-0.6,0-1.2,0-1.8-0.1c-0.3,0-0.6-0.1-0.9,0.1l-0.1,0l0,0.1
			c-0.1,0.1-0.1,0.3-0.1,0.4s0,0.3,0.3,0.5l0.1,0c0.3,0.1,0.6,0.1,1,0.1c1.1,0,1.3,0.2,1.4,0.2c0,0,0.1,0.3,0.1,1.5l0.1,4.1l0,3.7
			l0,1.7l0,3.7l0,1c0,0.3,0,0.5-0.1,0.6c-0.2,0.1-0.6,0.1-1.6,0.2c-0.4,0-0.7,0.1-0.9,0.1c-0.1,0-0.2,0.1-0.3,0.2l-0.1,0.1l0,0.3
			c0,0.2,0.1,0.3,0.2,0.4c0.1,0.1,0.2,0.1,0.5,0.1c0.8,0,2.1,0,3.9-0.1c0.2,0,0.4,0,0.6,0l6.1-0.1l1.8,0l4.1,0h0.4l0.1-0.1
			c0.2-0.3,0.3-0.6,0.3-0.9c0-0.7,0.1-1.4,0.2-2.1c0-0.3,0.2-0.9,0.5-1.9l0-0.2L97,128C96.9,127.9,96.7,127.8,96.6,127.8z"/>
		<path d="M125.4,114.2c-0.9,0.1-1.6,0.1-2.1,0.1c-0.3,0-0.7,0-1-0.1c-0.8-0.1-1.3-0.2-1.9,0l-0.1,0l0,0.1c-0.1,0.2-0.1,0.3-0.2,0.5
			l0,0.1l0,0.1c0.1,0.2,0.2,0.3,0.4,0.4c0.1,0,0.2,0.1,0.8,0.1c0.4,0,0.7,0.1,0.8,0.1c0.9,0.2,1.1,0.3,1.1,0.3c0,0,0.1,0.3,0.1,1.7
			c0,0.6,0,1.3,0.1,2.1c0.1,0.8,0.1,1.3,0.1,1.6c0.1,2.2,0.1,3.3,0.1,3.7l0,2l-0.1,0.9c0,0.1,0,0.6,0.1,1.6l0,0.1
			c-0.3-0.4-0.6-0.7-0.9-1l-3.5-3.8c-1.5-1.6-2.5-2.7-3-3.2c-0.5-0.5-1.1-1.1-1.7-1.8l-3.5-3.9l-0.3-0.3c-0.4-0.4-0.7-0.8-1.2-1.2
			l-0.1-0.1l-0.1,0c-0.2,0-0.3,0-0.4,0c-0.1,0-0.3,0-0.6,0c-0.7,0.1-1.8,0.1-3.3,0.1h-0.2l0,1.1l0.2,0c0.2,0,0.6,0.1,1.2,0.2
			c0.5,0.1,1,0.2,1.3,0.4c0.1,0.1,0.2,0.2,0.3,0.3c0.1,0.2,0.2,0.8,0.2,3.2l0,6.1c0,1.6,0,2.7,0,3.3c0,1.2,0,2.2-0.1,2.8
			c-0.1,0.1-0.2,0.1-0.3,0.2c-0.3,0.1-0.7,0.2-1.3,0.3l-0.7,0.1l-0.6,0.3l0,0.8l0.2,0c0.2,0,0.3,0,0.4,0c0,0,0,0,0,0l0.2,0
			c0.7,0,1.5-0.1,2.5-0.1c1.4,0,2.5,0,3.5,0.1c0.3,0,0.5,0.1,0.9-0.1l0.2-0.1l0-0.9l-0.1-0.1c0,0-0.1-0.1-0.1-0.1l0,0l-0.1,0
			c-0.9-0.2-1.8-0.3-2.7-0.4l-0.3-0.1c0-0.3,0-0.6-0.1-1l-0.1-4.8c-0.1-3.3-0.1-5.9-0.1-7.8l0-0.1c0.1,0.1,0.2,0.1,0.2,0.2
			c0.1,0.1,0.4,0.4,1,1.2c0.9,1,1.5,1.8,2,2.3c1.8,1.9,3.1,3.4,4.1,4.5l0.1,0.1c0.1,0.1,0.2,0.1,0.3,0.3c0.1,0.1,0.5,0.5,0.9,1
			l1.2,1.4c0.2,0.2,0.5,0.5,1,1c2.1,2.2,3.2,3.3,3.5,3.7l0.1,0.1l1-0.1l0-0.2c0-1.1,0.1-1.8,0.1-2.1c0-1.4,0-3.1-0.1-5.2l-0.1-2.9
			l0-0.6l-0.1-2.1l-0.2-4.6c0-0.2,0.1-0.4,0.3-0.6c0,0,0.1-0.1,0.5-0.2c0.2-0.1,0.4-0.1,0.7-0.1c0.3,0,0.5-0.1,0.7-0.1l0.1-0.1
			l0.1-0.9h-0.5C126.3,114.1,125.9,114.1,125.4,114.2z"/>
		<path d="M153.5,113.7l0-0.1l-0.1,0c-0.1,0-0.3-0.1-0.4-0.1c-0.2,0-0.5,0.1-0.7,0.5c-0.1,0.2-0.4,0.8-0.4,0.9c0,0-0.1,0.1-0.2,0.1
			c-0.1,0-0.6,0-1.2-0.1c-0.2,0-0.3,0-0.4,0l-2.2,0l-5.2,0l-3.4,0l-0.7-0.1l-0.1,0c-0.2,0-0.3-0.1-0.4-0.1c0,0-0.1-0.1-0.3-0.5
			c-0.3-0.5-0.5-0.7-0.8-0.7c-0.1,0-0.3,0-0.4,0.2c-0.1,0.1-0.2,0.3-0.2,0.7l-0.6,2.2l0,0c0,0.2-0.1,0.6-0.3,1.5
			c-0.2,0.8-0.2,1-0.2,1.1c0,0.1,0,0.2,0.1,0.3l0.1,0.1l0.3,0c0.3,0,0.6-0.3,1-0.8c1.1-1.5,1.7-2.1,2-2.2c0.2-0.1,0.7-0.2,2.4-0.2
			h2.1l0,3.6l0.1,1.2l0.1,5.4v2.5c0,1.2,0,2.1-0.1,2.5c0,0.1-0.1,0.3-0.1,0.3c-0.1,0.1-0.4,0.2-1,0.4c-0.5,0.1-1,0.3-1.4,0.3
			c-0.4,0-0.6,0.1-0.7,0.2c-0.1,0.1-0.2,0.3-0.2,0.6l0,0.2l0.4,0.2c0.1,0,0.2,0,0.8,0c0,0,0,0,0,0l3.7-0.2c0.6,0,1.4,0.1,2.6,0.1
			l2.3,0.1v-0.8l-0.1-0.1c-0.1-0.1-0.3-0.1-0.5-0.1c-0.3,0-0.9-0.2-1.8-0.4c-0.6-0.2-0.8-0.3-0.8-0.3c-0.1-0.1-0.1-0.2-0.1-0.6
			l0-1.1l0-1.9c0-0.9,0.1-1.7,0.1-2l-0.1-9c0-0.3,0-0.5,0-0.8h2.2c1.4,0,2.2,0.1,2.5,0.1c0.3,0.1,0.6,0.2,0.7,0.4
			c0.3,0.3,0.5,0.9,0.7,1.8c0.1,0.5,0.2,0.7,0.3,0.8c0.1,0.2,0.3,0.2,0.4,0.2c0.1,0,0.3,0,0.4-0.1l0.1,0l0-0.1
			c0.1-0.1,0.1-0.2,0.1-0.4c0-1.5,0.1-2.6,0.1-2.9l0-1.2l0-0.6C153.5,114.1,153.5,113.9,153.5,113.7z"/>
		<path d="M166.8,114.2l-3.9-0.1h-1.5l0,0.2c0,0.2,0,0.5,0.2,0.6c0.1,0.1,0.3,0.2,1.5,0.3c0.7,0.1,1.2,0.2,1.6,0.3
			c0,0.1,0.1,0.2,0.1,0.2c0.1,0.7,0.1,1.3,0.1,1.9c0,0.2,0,0.4,0,0.6l0,0.8l0,3l0,1l0.1,1.8l0,3.1c0,3-0.2,3.5-0.3,3.6
			c-0.1,0.1-0.4,0.3-2.4,0.4c-0.2,0-0.5,0.1-0.7,0.2l-0.2,0.1l0.1,0.8l3.9,0l2,0c0.6,0,1.1,0,1.3,0c0.4,0,1.1,0,2,0l0.2,0v-0.3
			c0-0.1,0-0.2,0-0.4l0-0.1l-0.1,0c-0.2-0.2-0.6-0.3-1.2-0.3c-0.2,0-0.6-0.1-1-0.2c-0.3-0.1-0.5-0.2-0.5-0.3
			c-0.1-0.1-0.2-0.3-0.2-0.5c0-0.3-0.1-1-0.1-2c0-0.2,0-0.7,0-1.3l0-0.3l-0.1-9l0.1-1.9c0-0.5,0.1-0.8,0.2-0.9
			c0-0.1,0.1-0.1,0.2-0.1c0.1,0,0.4-0.1,1.6-0.3c0.4-0.1,0.8-0.1,1-0.2l0.2,0l0-0.2c0-0.1,0-0.3,0-0.5v-0.2l-0.2,0
			C169.1,114.2,167.8,114.2,166.8,114.2z"/>
		<path d="M199.1,132.3L199.1,132.3c-0.3-0.1-0.6-0.2-1-0.4c-0.1,0-0.4-0.1-0.7-0.2c-0.4-0.1-0.4-0.1-0.5-0.1c0,0,0,0,0,0
			c-0.1-0.1-0.2-0.3-0.5-0.8c-0.2-0.4-0.6-1.5-1.2-3.4l-3.4-9.2c-0.5-1.2-0.7-1.9-0.9-2.2c-0.3-0.9-0.7-1.8-1.1-2.7l-0.1-0.1l-0.7,0
			l-0.6,0l-0.1,0.2c-0.3,0.9-0.5,1.6-0.7,2.2c-0.9,2.3-1.3,3.6-1.5,4.1l-1.4,3.8c-0.2,0.7-0.5,1.3-0.7,1.8c-0.1,0.2-0.3,0.7-0.6,1.6
			c-0.6,1.8-1.2,3.2-1.7,4.2c-0.2,0.4-0.5,0.7-0.8,0.9c0,0-0.2,0.1-1.2,0.2c-0.1,0-0.3,0-0.3,0h-0.3c-0.2,0-0.3,0-0.5,0.1l-0.1,0
			l0,0.1c0,0.1-0.1,0.3-0.1,0.4v0.3l0.2,0c0.4,0,0.7,0,0.9,0c0.2,0,0.4,0,0.7,0c0.5,0,0.9,0,1.1,0c0.2,0,0.5,0,1,0
			c1,0,1.9,0.1,2.7,0.1c0.2,0,0.6,0,1,0l0.2,0l0.1-0.2c0-0.1,0.1-0.2,0.1-0.3c0-0.1-0.1-0.3-0.2-0.4l-0.1,0l-2-0.2
			c-0.3,0-0.5-0.1-0.7-0.1c-0.1-0.2-0.1-0.2-0.1-0.2c0-0.1,0.1-0.4,0.8-2.4l1.3-4c0-0.1,0.1-0.3,0.2-0.5c0.3,0,0.7-0.1,0.9-0.1
			l0.9,0l3.1,0c0.3,0,0.5,0,0.9,0.1c0.9,2.3,1.4,3.7,1.5,4.2c0.1,0.4,0.3,0.9,0.5,1.4c0.3,0.9,0.4,1.2,0.4,1.3c0,0,0,0.1,0,0.2
			c-0.2,0.1-0.4,0.1-0.7,0.1l-1.5,0.1c-0.1,0-0.3,0.1-0.4,0.1l-0.1,0l0,0.1c-0.1,0.2-0.1,0.3-0.1,0.5v0.1l0.1,0.1
			c0.1,0.1,0.2,0.1,0.4,0.1h0.3c0.1,0,0.2,0,0.3,0c0.1,0,0.3,0,0.4,0l1.8,0l1.5,0c1.2,0,2.1,0,2.6,0c0.1,0,0.3,0,0.6,0l0.2,0l0-0.2
			c0-0.1,0-0.2,0-0.3C199.3,132.7,199.2,132.5,199.1,132.3L199.1,132.3z M191.1,123.6c-0.5,0-1,0-1.7,0c-1.2,0-2.3,0-3.3-0.1
			c0-0.1,0-0.2,0.1-0.2c0-0.1,0.1-0.4,0.2-0.8c0.1-0.4,0.3-0.8,0.4-1.1c0.3-0.8,0.7-2,1.3-3.5c0.1-0.3,0.3-0.7,0.4-1l1.2,3.1
			c0.1,0.2,0.4,1.1,1,2.8C190.9,123.1,191,123.3,191.1,123.6z"/>
		<path d="M223.1,128c-0.4,0.9-0.6,1.3-0.7,1.5c-0.1,0.2-0.2,0.3-0.3,0.4c-0.2,0.3-0.5,0.7-0.9,1c-0.6,0.5-1.1,0.8-1.3,0.9
			c-0.2,0.1-0.5,0.2-1.3,0.2l-2.5,0.1h-1c-1,0-1.7,0-2,0c0,0,0-0.1,0-0.3l0-0.9l0-4.1l0-4.8l0-4.5l0-0.2c0-0.3,0-0.6,0-0.7
			c0-0.8,0.2-0.9,0.2-1c0,0,0.3-0.1,1.4-0.1c1.2,0,1.5-0.1,1.5-0.1l0.1,0l0-0.1c0.1-0.2,0.1-0.4,0.1-0.6l0-0.2l-0.2,0
			c-0.3,0-0.8,0-1.6,0c0,0,0,0-0.1,0l-1.2,0.1c-0.1,0-0.4,0-0.9,0c-0.2,0-0.4,0-0.5,0l-0.4,0l-3.5-0.1c-0.4,0-0.7,0-0.9,0h-0.2
			l0,0.2c0,0.1,0,0.2,0,0.3c0,0.1,0,0.1,0,0.3l0,0.2l0.2,0c1.3,0.2,2.1,0.4,2.3,0.4c0.1,0,0.3,0.1,0.5,0.2c0,0.1,0.1,0.2,0.1,0.2
			c0,0.5,0,1.7,0,3.8l0,4.3l0,2.6l-0.1,3.8c0,1.1-0.1,1.2-0.1,1.3c0,0.1-0.2,0.2-0.7,0.2c-0.7,0.1-1.5,0.2-2.2,0.4l-0.1,0l0,0.1
			c-0.1,0.1-0.1,0.3-0.2,0.5l0,0.3h1.8c0.3,0,0.6,0,0.9,0c0.9-0.1,3.7-0.1,8.3-0.1l5.7,0.2l0-0.2c0-0.2,0-0.3,0.1-0.5
			c0.1-0.9,0.3-2,0.6-3.4c0.1-0.3,0.1-0.6,0.2-1l0-0.3h-0.9L223.1,128z"/>
		<path d="M259.3,114.6c-0.9-0.4-2.2-0.7-3.7-0.7c-0.9,0-1.6,0-2.3,0.1l-2.5,0.1c-0.7,0-1.1,0.1-1.3,0.1c-0.1,0-0.4,0-0.8,0
			c-0.7,0-1.3-0.1-1.6-0.1c-0.1,0-0.2,0-0.4,0l-0.1,0l-0.1,0.1c-0.1,0.1-0.1,0.3-0.1,0.4c0,0.1,0,0.2,0.1,0.4l0.1,0.1l0.1,0
			c1.7,0.2,2.3,0.5,2.6,0.7c0.1,0.1,0.2,0.3,0.2,1.1v0.2c0,1.9,0,3.6,0.1,5.3c0.1,3.9,0.1,6.2,0.1,7.3c0,0.4,0,0.6,0,0.8
			c0,0.3,0,0.5,0,0.6c0,0.5-0.1,0.6-0.1,0.7c0,0-0.1,0.1-0.4,0.2l-2.1,0.4l0,0.8l0.4,0c0.4,0,0.6,0,0.7,0l1.5,0l2.5-0.1
			c0.5,0,1.1,0,1.9,0.1c0.4,0.1,0.7,0.1,0.8,0.1c0.2,0,0.4,0,0.5-0.1c0.1-0.1,0.2-0.2,0.3-0.4l0-0.1l0-0.1c-0.1-0.1-0.2-0.2-0.3-0.3
			c-0.1,0-0.2-0.1-0.9-0.2c-0.9-0.2-1.6-0.4-1.9-0.4c0-0.2-0.1-0.5-0.1-0.9c0-0.2,0-0.4,0-0.7c0-0.3,0-0.5,0-0.6l-0.2-6.6v-0.8
			c0-0.3-0.1-1.2-0.1-3.7c0-0.6,0-0.9,0-1.2l0-0.3l0-1.6l0-0.1c0.2-0.1,0.6-0.2,1.9-0.2c0.4,0,0.9,0.1,1.6,0.2
			c0.7,0.2,1.2,0.3,1.5,0.6c0.6,0.4,1,0.9,1.4,1.6c0.3,0.7,0.5,1.4,0.5,2.1c0,0.7-0.2,1.4-0.5,2.1c-0.3,0.7-0.8,1.2-1.4,1.5
			c-0.6,0.4-1.3,0.5-2.1,0.5c-0.5,0-0.9-0.1-1.2-0.2c-0.2-0.1-0.3-0.1-0.5-0.1l-0.1,0c-0.1,0-0.2,0.1-0.3,0.3l0,0.1l0,0.1
			c0,0.2,0.2,0.4,0.4,0.5c0.4,0.3,0.9,0.5,1.2,0.6c0.4,0.1,0.8,0.2,1.3,0.2c1.9,0,3.4-0.6,4.5-1.7c1.1-1.1,1.7-2.5,1.7-4.1
			c0-0.9-0.3-1.9-0.8-2.9C261,115.8,260.2,115.1,259.3,114.6z"/>
		<path d="M288.1,132.3L288.1,132.3c-0.3-0.1-0.6-0.2-1-0.4c-0.1,0-0.4-0.1-0.7-0.2c-0.4-0.1-0.4-0.1-0.5-0.1c0,0,0,0,0,0
			c-0.1-0.1-0.2-0.3-0.5-0.8c-0.2-0.4-0.6-1.5-1.2-3.4l-3.4-9.2c-0.5-1.2-0.7-1.9-0.9-2.2c-0.3-0.9-0.7-1.8-1.1-2.7l-0.1-0.1l-0.7,0
			l-0.6,0l-0.1,0.2c-0.3,0.9-0.5,1.6-0.7,2.2c-0.8,2.1-1.3,3.5-1.5,4.1l-1.4,3.8c-0.2,0.6-0.4,1.2-0.7,1.8c-0.1,0.2-0.3,0.7-0.6,1.6
			c-0.6,1.8-1.2,3.2-1.7,4.2c-0.2,0.4-0.5,0.7-0.8,0.9c0,0-0.2,0.1-1.3,0.2c-0.1,0-0.2,0-0.3,0h-0.3c-0.2,0-0.3,0-0.5,0.1l-0.1,0
			l0,0.1c-0.1,0.1-0.1,0.3-0.1,0.4v0.3l0.2,0c0.4,0,0.7,0,0.9,0c0.2,0,0.4,0,0.7,0c0.5,0,0.9,0,1.1,0c0.2,0,0.5,0,1,0
			c1,0,1.9,0.1,2.7,0.1c0.2,0,0.6,0,1,0l0.2,0l0.1-0.2c0-0.1,0.1-0.2,0.1-0.3c0-0.2-0.1-0.3-0.2-0.4l-0.1-0.1l-2-0.2
			c-0.3,0-0.5-0.1-0.7-0.1c-0.1-0.2-0.1-0.2-0.1-0.2c0-0.1,0.1-0.4,0.8-2.4l1.3-4c0-0.1,0.1-0.3,0.2-0.5c0.3,0,0.6-0.1,0.9-0.1
			l0.9,0l3.1,0c0.3,0,0.6,0,0.9,0.1c1.1,2.9,1.4,3.9,1.5,4.2c0.1,0.4,0.3,0.8,0.5,1.4c0.3,0.9,0.4,1.2,0.4,1.3c0,0,0,0.1,0,0.2
			c-0.1,0-0.4,0.1-0.7,0.1l-1.5,0.1c-0.1,0-0.3,0.1-0.4,0.1l-0.1,0l0,0.1c-0.1,0.2-0.1,0.3-0.1,0.5v0.1l0.1,0.1
			c0.1,0.1,0.2,0.1,0.4,0.1h0.3c0.1,0,0.2,0,0.3,0c0.1,0,0.3,0,0.4,0l1.8,0l1.5,0c1.2,0,2.1,0,2.6,0c0.1,0,0.3,0,0.6,0l0.3,0l0-0.2
			c0-0.1,0.1-0.2,0.1-0.3C288.2,132.7,288.1,132.5,288.1,132.3L288.1,132.3z M280,123.6c-0.5,0-1,0-1.7,0c-1.2,0-2.3,0-3.3-0.1
			c0-0.1,0-0.2,0.1-0.2c0-0.1,0.1-0.4,0.2-0.8c0.1-0.4,0.3-0.8,0.4-1.1c0.3-0.9,0.7-2.1,1.3-3.5c0.1-0.3,0.3-0.7,0.4-1l1.2,3.1
			c0,0.1,0.3,0.7,1,2.8C279.8,123.1,279.9,123.3,280,123.6z"/>
		<path d="M314.9,132.4l-0.2,0c-0.9-0.2-1.6-0.3-2-0.5s-0.7-0.4-1-0.7c-0.3-0.3-0.8-1-1.5-2.1l-1.8-3.2c-0.5-0.9-1-1.7-1.3-2.3
			c0.2-0.1,0.3-0.2,0.6-0.3c1.9-1,2.9-2.4,2.9-4.3c0-1-0.3-1.9-0.8-2.7c-0.5-0.8-1.3-1.4-2.2-1.7c-0.9-0.3-2.4-0.5-4.6-0.5l-3.8,0
			H298c-0.2,0-0.4,0-0.6,0c-0.2,0-0.3,0-0.4,0c-0.4,0-0.7,0.1-0.8,0.2l-0.1,0l0,0.1c0,0.1,0,0.2,0,0.3c0,0.3,0.1,0.4,0.2,0.4
			c0.1,0,0.2,0.1,1.3,0.3c0.9,0.1,1.1,0.3,1.2,0.4c0.1,0.1,0.2,0.5,0.2,1.9l0,2.6l0,3.6l0,2l0,1.7c0,0.4,0,0.8,0,1.2
			c-0.1,1.4-0.1,2.4-0.1,2.6v0.1c-0.1,0.2-0.2,0.3-0.2,0.3c-0.1,0-0.6,0.1-2.3,0.3l-0.1,0l-0.1,0c-0.2,0.2-0.3,0.3-0.3,0.5l0.1,0.3
			l0.5,0.1c0.8,0,1.2,0,1.3,0l1.9,0l2,0c0.1,0,0.3,0,0.4,0c0.4,0,1,0,1.9,0c0.1,0,0.3,0,0.6-0.1l0.2,0V133c0-0.2-0.1-0.4-0.2-0.5
			l-0.1-0.1l-0.7-0.2c-1.1-0.3-1.5-0.4-1.6-0.5c-0.1-0.1-0.2-0.2-0.3-0.3c-0.1-0.3-0.1-0.5-0.1-0.7v-5c0-0.8,0-1.3,0-1.7l0.2,0
			l1.2,0c0.3,0,0.5,0,0.6,0.1c0.1,0.1,0.3,0.2,0.6,0.7l2.2,3.9c1,1.6,1.8,3.1,2.4,4.3l0.1,0.1l0.1,0c0.2,0,0.4,0,0.5,0
			c1.8,0,3.3,0,4.7,0l0.2,0l0-0.2c0-0.1,0-0.2,0-0.2c0-0.1,0-0.1,0-0.3L314.9,132.4z M301.9,116.3c0-0.2,0-0.6,0-0.9
			c0.3,0,0.6,0,0.8,0c1,0,1.9,0.2,2.6,0.5c0.7,0.4,1.2,0.8,1.5,1.3c0.4,0.7,0.6,1.4,0.6,2c0,0.6-0.1,1.1-0.4,1.6
			c-0.2,0.5-0.6,0.9-0.9,1.2c-0.4,0.3-0.9,0.5-1.5,0.6c-0.9,0.2-1.7,0.2-2.4,0.2c-0.1,0-0.2,0-0.4,0c0-1,0-1.9,0-2.6l0-1.1
			L301.9,116.3z"/>
		<path d="M337.8,114.6c0-0.1,0-0.2-0.1-0.4l0-0.1l-0.1,0c-0.2-0.1-0.4-0.2-0.6-0.2l-5.4,0.2l-4.2,0.1h-2l-0.1,0c-0.6,0-0.9,0-1,0
			h-0.4c-0.5,0-0.8,0-0.9,0c-0.2,0-0.4,0.1-0.5,0.2l-0.1,0l0,0.1c0,0.1-0.1,0.2-0.1,0.3c0,0.1,0,0.3,0.3,0.4
			c0.1,0.1,0.3,0.2,1.2,0.3c0.8,0.2,1,0.3,1.1,0.3c0.1,0.1,0.2,0.2,0.2,0.6l0,1.9v11.3c0,1.1,0,1.8-0.1,2.2
			c-0.1,0.1-0.2,0.2-0.3,0.2c-0.1,0.1-0.4,0.1-1,0.2c-0.5,0.1-0.9,0.2-1.1,0.3l-0.1,0.1l0,0.7l0.5,0.1c0.7,0,1.4,0,2-0.1
			c0.8-0.1,1.6-0.2,2.3-0.2c1.4,0,2.5,0.1,3.2,0.2l0.1,0l0.1,0c0.2,0,0.3-0.1,0.3-0.2c0.1-0.1,0.1-0.2,0.1-0.3
			c0-0.3-0.2-0.5-0.6-0.6c-0.5-0.2-1-0.3-1.6-0.4c-0.5-0.1-0.8-0.2-0.9-0.2c0-0.1-0.1-0.3-0.1-0.4l0-4.8c0-0.9,0-1.3,0-1.4v-1
			c0,0,0,0,0-0.1c0.1,0,0.2-0.1,0.4-0.1h0.1c0.1,0,0.5,0,1.1,0c0.2,0,0.7,0,1.3,0c2.5,0,3.2,0,3.4,0.1c0.1,0,0.2,0.1,0.2,0.2
			c0.3,0.5,0.5,1.3,0.7,2.2l0,0.2l0.4,0.1c0.1,0,0.3,0,0.5-0.1l0.2-0.1l-0.2-5.5c0-0.4,0-0.8-0.1-1l0-0.1l-0.1-0.1
			c-0.3-0.1-0.4-0.1-0.7,0l-0.1,0.1l-0.2,1.3c-0.2,0.9-0.3,1.1-0.3,1.1c-0.1,0.2-0.3,0.3-0.5,0.4c-0.3,0.1-0.9,0.2-2.2,0.2h-2.8
			l-0.8,0l-0.2,0c0-0.3-0.1-0.6-0.1-0.9l0-4c0-0.6,0-1.2,0-1.6V116c0-0.3,0.1-0.4,0.2-0.4c0.3-0.1,0.6-0.2,1-0.2l1.1,0
			c0.1,0,0.5,0,1-0.1c0.6,0,1.2-0.1,1.8-0.1c1.3,0,2.3,0.1,2.8,0.3c0.2,0.1,0.4,0.3,0.5,0.5c0.2,0.6,0.4,1.2,0.4,1.5
			c0,0.3,0.1,0.6,0.2,0.7c0.2,0.2,0.5,0.2,0.9,0.1l0.1-0.1l0-0.1c0-0.2,0-0.3,0-0.4l-0.1-2.6L337.8,114.6z"/>
		<path d="M363.2,114.2c-0.1,0-0.4,0-1-0.1c-0.9-0.1-1.6-0.1-2.4,0l-0.2,0l0,0.2c0,0.2,0,0.3,0.1,0.5l0,0.1l0.1,0
			c1,0.2,1.7,0.4,2.1,0.7c0.1,0.1,0.2,0.2,0.3,0.5c0.1,0.2,0.1,0.7,0.2,2.4l0.2,4.2c0,0,0,0.2,0,0.3l0,0.7c0,0.3,0,0.6,0,0.7v0.4
			c0,0.7,0,1.1,0,1.2c0,1.7-0.2,2.9-0.5,3.7c-0.4,0.8-1,1.4-1.8,1.9c-0.8,0.5-2.1,0.7-3.7,0.7c-0.7,0-1.4-0.1-2.2-0.4
			c-0.7-0.3-1.3-0.6-1.7-1c-0.4-0.4-0.6-0.9-0.8-1.5c-0.2-0.6-0.2-2.3-0.2-4.9l0-7.2l0.1-1.6c0-0.1,0.1-0.2,0.2-0.3
			c0.2-0.1,0.5-0.2,0.9-0.2c0.1,0,0.2,0,0.4,0c0.2,0,0.3,0,0.4,0c0.2,0,0.4,0,0.7-0.1l0.1,0l0-0.1c0-0.2,0.1-0.2,0.1-0.3
			c0-0.1,0-0.2-0.1-0.4l-0.1-0.2l-4,0l-3.6,0c-0.2,0-0.4,0.1-0.5,0.2c-0.1,0.1-0.2,0.2-0.2,0.4c0,0.1,0,0.2,0.1,0.3l0,0.1l0.1,0
			c0.2,0.2,0.7,0.3,1.4,0.3l0.9,0c0.1,0,0.2,0,0.3,0.1c0.1,0.1,0.2,0.4,0.2,1l0,5.5l0,4.1v1c0,1.4,0.2,2.5,0.5,3.2
			c0.3,0.6,0.7,1.1,1.4,1.7c0.7,0.6,1.6,1,2.7,1.4c0.6,0.2,1.6,0.3,3.1,0.3c0.9,0,1.8-0.2,2.8-0.4c0.9-0.3,1.7-0.7,2.3-1.2
			c0.6-0.5,1-1,1.3-1.6c0.3-0.6,0.5-1.4,0.7-2.4c0.1-0.7,0.2-2,0.2-3.9l0-1.5l0-1.2l-0.1-3c0-1-0.1-1.7-0.1-2c0-0.5,0.1-0.8,0.3-1
			c0.1-0.1,0.5-0.3,2-0.5l0.2,0l0-1l-0.7,0L363.2,114.2z"/>
		<path d="M398.9,132.4c-1.2-0.2-2-0.4-2.5-0.5c-0.4-0.1-0.4-0.2-0.5-0.3c0,0-0.1-0.2-0.1-1.2l0-1.8l0-2.9c-0.1-3.5-0.1-5.9-0.1-7.3
			l0-0.7l0-0.6c0.1-1,0.1-1.2,0.1-1.2c0,0,0.1-0.1,0.3-0.2c0.1,0,0.5-0.1,1.6-0.2c0.5,0,0.9-0.1,1.2-0.3l0.1,0l0-0.1
			c0-0.1,0.1-0.2,0.1-0.3c0-0.1,0-0.1,0-0.3l0-0.2l-0.2,0c-0.5,0-1.1,0-1.9,0c-1.2,0-2.1,0-2.6,0c-0.5-0.1-0.8-0.1-1.2,0.1l-0.1,0
			l0,0.1c-0.1,0.2-0.4,1.1-1,2.7c-0.1,0.4-0.3,0.9-0.5,1.4l-0.5,1.3c-0.2,0.6-0.4,0.9-0.4,1.1c-0.1,0.2-0.2,0.4-0.2,0.5
			c-0.1,0.1-0.1,0.3-0.2,0.5c-0.7,1.9-1.7,4.2-2.9,6.6l-5.6-12.5l-0.6-1.4c-0.1-0.1-0.1-0.2-0.3-0.3l-0.1-0.1
			c-0.2-0.1-0.4-0.1-0.6-0.1c-0.1,0-0.3,0-0.8,0.1c-0.6,0-1.1,0.1-1.4,0.1c-0.8,0-1.5,0-1.9-0.1c-0.3,0-0.5-0.1-0.5-0.1
			c-0.1,0-0.3,0-0.5,0.1l-0.1,0l0,0.1c-0.1,0.2-0.1,0.3-0.1,0.4c0,0.1,0.1,0.3,0.2,0.5l0.1,0.1l0.1,0c1.4,0.1,2.4,0.3,3.1,0.4v0.2
			c0,0.6-0.1,2.3-0.2,4.9c-0.2,3.7-0.4,6.3-0.4,8.2c-0.1,1.9-0.2,2.6-0.3,2.8c0,0.1-0.1,0.1-0.1,0.1c0,0-0.2,0.1-1,0.1
			c-0.8,0.1-1.4,0.2-1.7,0.5l-0.1,0.1l0,0.8l0.2,0c0.7,0,1.3,0,1.7-0.1c0.7,0,1.2-0.1,1.5-0.1l4.7,0.2l0.1-0.2
			c0.1-0.2,0.1-0.3,0.1-0.3c0-0.1,0-0.2-0.1-0.4l-0.1-0.1l-0.1,0c-0.4-0.1-0.7-0.1-1.1-0.1c-1.3,0-1.6-0.2-1.7-0.2
			c-0.2-0.1-0.3-0.3-0.3-0.6c-0.1-1.1-0.2-2.2-0.2-3.1c0-2.9,0.1-5.6,0.2-8.1c0.1-1.3,0.1-2.2,0.2-2.9c0.6,1.2,1.6,3.2,2.8,6
			c1.5,3.3,2.8,6.6,3.9,9.8l0.1,0.2l0.7,0l0.1-0.2c0.1-0.2,0.2-0.5,0.3-0.9c0.3-0.8,0.7-1.8,1.1-2.9l1-2.4l0.8-2l2.1-5.1l0.2-0.6
			c0.2-0.5,0.4-1,0.6-1.3c0,0.7,0,1.6,0,2.6c0,2,0,3.4-0.1,4.3c0,0.9,0,1.5,0,1.8l0,2.9c0,1.2-0.1,1.8-0.1,2.1
			c-0.3,0.2-0.7,0.3-1.1,0.4c-0.6,0.1-1,0.1-1.4,0.3l-0.1,0l0,0.1c0,0.1-0.1,0.2-0.1,0.4v0.3l0.1,0.1c0.1,0.1,0.2,0.1,0.3,0.1
			c0.1,0,0.4,0,0.8,0c0.6,0,2-0.1,3.9-0.1c0,0,0.4,0,1.1,0.1c0.7,0,1.3,0.1,1.9,0.1h0.9l0-0.2c0-0.1,0-0.2,0-0.3
			c0-0.2-0.1-0.3-0.2-0.4L398.9,132.4z"/>
		<path d="M419.3,125.4c-0.4-0.7-0.9-1.3-1.6-1.8c-0.7-0.5-1.8-1.2-3.4-2c-2-1-3.3-1.8-3.7-2.3c-0.5-0.5-0.7-1-0.7-1.6
			c0-0.8,0.3-1.4,1-2c0.7-0.6,1.5-0.9,2.6-0.9c1,0,1.9,0.3,2.6,0.9c0.7,0.6,1.2,1.5,1.5,2.8l0,0.1l0.3,0.1c0.1,0,0.2,0,0.3-0.1
			l0.1-0.1l0-0.1c0-0.2,0.1-0.6,0.1-1.1l0.1-1.3c0-0.1,0-0.5-0.1-1.1l0-0.1l-0.1-0.1c-0.6-0.4-1.1-0.7-1.7-0.9
			c-0.7-0.2-1.6-0.3-2.6-0.3c-1.8,0-3.3,0.5-4.4,1.5c-1.1,1-1.7,2.2-1.7,3.6c0,0.8,0.2,1.5,0.5,2.1c0.4,0.7,1.1,1.5,1.9,2.1
			c0.5,0.4,1.6,1.1,3.3,1.9c1.6,0.9,2.7,1.6,3.3,2.2c0.5,0.6,0.8,1.3,0.8,2c0,0.5-0.2,1.1-0.5,1.6c-0.3,0.6-0.8,1-1.4,1.3
			c-0.6,0.3-1.3,0.5-2,0.5c-1.2,0-2.2-0.4-3.2-1.3c-0.9-0.9-1.5-1.9-1.6-3c0-0.2-0.1-0.4-0.2-0.5c-0.1-0.1-0.2-0.2-0.4-0.2
			c-0.2,0-0.4,0.1-0.4,0.2c-0.1,0.1-0.1,0.3-0.1,0.9c0,0.7-0.1,1.7-0.2,2.8c0,0.2,0,0.3,0,0.4c0,0.2,0.1,0.5,0.3,0.7
			c0.1,0.1,0.4,0.3,1.4,0.7c1.2,0.4,2.5,0.6,3.8,0.6c1.5,0,2.8-0.2,3.7-0.7c1-0.5,1.7-1.2,2.3-2.1c0.6-0.9,0.8-2,0.8-3
			C419.8,126.9,419.6,126.1,419.3,125.4z"/>
	</g>
	<g>
		<path d="M188.5,152.7c-0.5-0.4-1.1-0.7-1.7-0.9c-0.7-0.2-1.4-0.3-2.2-0.3h-5.4v14.3h2v-4.9h3.2c0.8,0,1.5-0.1,2.2-0.3
			c0.7-0.2,1.3-0.5,1.8-0.9c0.5-0.4,0.9-0.9,1.2-1.5c0.3-0.6,0.5-1.3,0.5-2.1c0-0.7-0.1-1.4-0.4-1.9
			C189.3,153.6,188.9,153.1,188.5,152.7z M184.3,159h-3.3v-5.7h3.3c1.1,0,2,0.2,2.6,0.7c0.6,0.5,0.9,1.2,0.9,2.1
			c0,0.4-0.1,0.8-0.3,1.2c-0.2,0.4-0.4,0.7-0.7,0.9c-0.3,0.3-0.7,0.5-1.2,0.6C185.4,159,184.9,159,184.3,159z"/>
		<path d="M201,151.3h-1.7l-6.5,14.4h2l1.7-3.7h7.3l1.6,3.7h2.1l-6.5-14.3L201,151.3z M203,160.3h-5.8l2.9-6.4L203,160.3z"/>
		<path d="M221.8,159.6c0.5-0.2,0.9-0.5,1.3-0.9c0.4-0.4,0.6-0.8,0.8-1.3c0.2-0.5,0.3-1,0.3-1.6c0-0.6-0.1-1.2-0.4-1.8
			c-0.2-0.5-0.6-1-1.1-1.4c-0.5-0.4-1-0.7-1.6-0.9c-0.6-0.2-1.4-0.3-2.1-0.3h-6.2v14.3h2v-5.4h3.7l4,5.3l0.1,0.1h2.4l-4.3-5.8
			C221,159.9,221.4,159.8,221.8,159.6z M214.7,153.3h4.1c1.1,0,1.9,0.2,2.5,0.7c0.6,0.5,0.9,1.1,0.9,1.9c0,0.4-0.1,0.8-0.2,1.1
			c-0.2,0.3-0.4,0.6-0.7,0.8c-0.3,0.2-0.7,0.4-1.1,0.5c-0.4,0.1-0.9,0.2-1.4,0.2h-4.1V153.3z"/>
		<rect x="230.3" y="151.4" width="2" height="14.3"/>
		<path d="M247.7,159.1c-0.8-0.6-1.9-1.1-3.5-1.5c-0.8-0.2-1.4-0.3-1.9-0.5c-0.5-0.2-0.8-0.4-1.1-0.6c-0.3-0.2-0.4-0.4-0.5-0.6
			c-0.1-0.2-0.1-0.5-0.1-0.8c0-0.3,0.1-0.6,0.2-0.8c0.1-0.3,0.3-0.5,0.5-0.7c0.2-0.2,0.5-0.3,0.9-0.4c0.3-0.1,0.7-0.2,1.2-0.2
			c0.7,0,1.4,0.1,2,0.3c0.6,0.2,1.3,0.6,1.9,1.1l0.2,0.1l1.2-1.5l-0.1-0.1c-0.7-0.6-1.5-1-2.3-1.3c-0.8-0.3-1.7-0.4-2.7-0.4
			c-0.7,0-1.3,0.1-1.9,0.3c-0.6,0.2-1.1,0.5-1.5,0.8c-0.4,0.4-0.8,0.8-1,1.3c-0.2,0.5-0.4,1-0.4,1.6c0,0.6,0.1,1.1,0.3,1.6
			c0.2,0.5,0.5,0.9,0.9,1.2c0.4,0.3,0.9,0.6,1.5,0.8c0.6,0.2,1.3,0.4,2.1,0.6c0.7,0.2,1.3,0.3,1.8,0.5c0.5,0.2,0.8,0.3,1.1,0.5
			c0.2,0.2,0.4,0.4,0.5,0.6c0.1,0.2,0.1,0.5,0.1,0.8c0,0.7-0.3,1.2-0.8,1.6c-0.5,0.4-1.2,0.6-2.1,0.6c-0.9,0-1.8-0.2-2.5-0.5
			c-0.7-0.3-1.4-0.8-2.2-1.4l-0.1-0.1l-1.2,1.5l0.1,0.1c0.8,0.8,1.8,1.3,2.7,1.7c0.9,0.4,2,0.6,3.1,0.6c0.7,0,1.4-0.1,2-0.3
			c0.6-0.2,1.1-0.5,1.6-0.8c0.4-0.4,0.8-0.8,1-1.3c0.2-0.5,0.4-1.1,0.4-1.7C248.8,160.7,248.5,159.8,247.7,159.1z"/>
	</g>
</g>
<g>
	<g>
		<path class="st0" d="M173,48.7c0.5,0,0.9,0.4,0.9,0.9s-0.4,0.9-0.9,0.9c-0.5,0-0.9-0.4-0.9-0.9S172.5,48.7,173,48.7z"/>
	</g>
	<g>
		<path class="st0" d="M176.3,48.7c0.5,0,0.9,0.4,0.9,0.9s-0.4,0.9-0.9,0.9s-0.9-0.4-0.9-0.9S175.8,48.7,176.3,48.7z"/>
	</g>
	<g>
		<path class="st0" d="M179.6,48.7c0.5,0,0.9,0.4,0.9,0.9s-0.4,0.9-0.9,0.9s-0.9-0.4-0.9-0.9S179.1,48.7,179.6,48.7z"/>
	</g>
	<g>
		<path class="st0" d="M182.9,48.7c0.5,0,0.9,0.4,0.9,0.9s-0.4,0.9-0.9,0.9s-0.9-0.4-0.9-0.9S182.4,48.7,182.9,48.7z"/>
	</g>
	<g>
		<path class="st0" d="M186.2,48.7c0.5,0,0.9,0.4,0.9,0.9s-0.4,0.9-0.9,0.9c-0.5,0-0.9-0.4-0.9-0.9S185.7,48.7,186.2,48.7z"/>
	</g>
	<g>
		<path class="st0" d="M189.4,48.7c0.5,0,0.9,0.4,0.9,0.9s-0.4,0.9-0.9,0.9c-0.5,0-0.9-0.4-0.9-0.9S189,48.7,189.4,48.7z"/>
	</g>
	<g>
		<path class="st0" d="M192.7,48.7c0.5,0,0.9,0.4,0.9,0.9s-0.4,0.9-0.9,0.9c-0.5,0-0.9-0.4-0.9-0.9S192.2,48.7,192.7,48.7z"/>
	</g>
	<g>
		<path class="st0" d="M196,48.7c0.5,0,0.9,0.4,0.9,0.9s-0.4,0.9-0.9,0.9c-0.5,0-0.9-0.4-0.9-0.9S195.5,48.7,196,48.7z"/>
	</g>
	<g>
		<path class="st0" d="M199.3,48.7c0.5,0,0.9,0.4,0.9,0.9s-0.4,0.9-0.9,0.9c-0.5,0-0.9-0.4-0.9-0.9S198.8,48.7,199.3,48.7z"/>
	</g>
	<g>
		<path class="st0" d="M202.6,48.7c0.5,0,0.9,0.4,0.9,0.9s-0.4,0.9-0.9,0.9c-0.5,0-0.9-0.4-0.9-0.9S202.1,48.7,202.6,48.7z"/>
	</g>
	<g>
		<path class="st0" d="M222.3,48.7c0.5,0,0.9,0.4,0.9,0.9s-0.4,0.9-0.9,0.9c-0.5,0-0.9-0.4-0.9-0.9S221.8,48.7,222.3,48.7z"/>
	</g>
	<g>
		<path class="st0" d="M225.5,48.7c0.5,0,0.9,0.4,0.9,0.9s-0.4,0.9-0.9,0.9c-0.5,0-0.9-0.4-0.9-0.9S225.1,48.7,225.5,48.7z"/>
	</g>
	<g>
		<path class="st0" d="M228.8,48.7c0.5,0,0.9,0.4,0.9,0.9s-0.4,0.9-0.9,0.9c-0.5,0-0.9-0.4-0.9-0.9S228.3,48.7,228.8,48.7z"/>
	</g>
	<g>
		<path class="st0" d="M232.1,48.7c0.5,0,0.9,0.4,0.9,0.9s-0.4,0.9-0.9,0.9c-0.5,0-0.9-0.4-0.9-0.9S231.6,48.7,232.1,48.7z"/>
	</g>
	<g>
		<path class="st0" d="M235.4,48.7c0.5,0,0.9,0.4,0.9,0.9s-0.4,0.9-0.9,0.9c-0.5,0-0.9-0.4-0.9-0.9S234.9,48.7,235.4,48.7z"/>
	</g>
	<g>
		<path class="st0" d="M238.7,48.7c0.5,0,0.9,0.4,0.9,0.9s-0.4,0.9-0.9,0.9c-0.5,0-0.9-0.4-0.9-0.9S238.2,48.7,238.7,48.7z"/>
	</g>
	<g>
		<path class="st0" d="M241.9,48.7c0.5,0,0.9,0.4,0.9,0.9s-0.4,0.9-0.9,0.9c-0.5,0-0.9-0.4-0.9-0.9S241.5,48.7,241.9,48.7z"/>
	</g>
	<g>
		<path class="st0" d="M245.2,48.7c0.5,0,0.9,0.4,0.9,0.9s-0.4,0.9-0.9,0.9c-0.5,0-0.9-0.4-0.9-0.9S244.7,48.7,245.2,48.7z"/>
	</g>
	<g>
		<path class="st0" d="M248.5,48.7c0.5,0,0.9,0.4,0.9,0.9s-0.4,0.9-0.9,0.9c-0.5,0-0.9-0.4-0.9-0.9S248,48.7,248.5,48.7z"/>
	</g>
	<g>
		<path class="st0" d="M251.8,48.7c0.5,0,0.9,0.4,0.9,0.9s-0.4,0.9-0.9,0.9c-0.5,0-0.9-0.4-0.9-0.9S251.3,48.7,251.8,48.7z"/>
	</g>
	<g>
		<path class="st0" d="M255.1,48.7c0.5,0,0.9,0.4,0.9,0.9s-0.4,0.9-0.9,0.9c-0.5,0-0.9-0.4-0.9-0.9S254.6,48.7,255.1,48.7z"/>
	</g>
	<g>
		<path class="st0" d="M258.4,48.7c0.5,0,0.9,0.4,0.9,0.9s-0.4,0.9-0.9,0.9c-0.5,0-0.9-0.4-0.9-0.9S257.9,48.7,258.4,48.7z"/>
	</g>
	<g>
		<path class="st0" d="M176.3,45.5c0.5,0,0.9,0.4,0.9,0.9s-0.4,0.9-0.9,0.9s-0.9-0.4-0.9-0.9S175.8,45.5,176.3,45.5z"/>
	</g>
	<g>
		<path class="st0" d="M179.6,45.5c0.5,0,0.9,0.4,0.9,0.9s-0.4,0.9-0.9,0.9s-0.9-0.4-0.9-0.9S179.1,45.5,179.6,45.5z"/>
	</g>
	<g>
		<path class="st0" d="M182.9,45.5c0.5,0,0.9,0.4,0.9,0.9s-0.4,0.9-0.9,0.9s-0.9-0.4-0.9-0.9S182.4,45.5,182.9,45.5z"/>
	</g>
	<g>
		<path class="st0" d="M186.2,45.5c0.5,0,0.9,0.4,0.9,0.9s-0.4,0.9-0.9,0.9c-0.5,0-0.9-0.4-0.9-0.9S185.7,45.5,186.2,45.5z"/>
	</g>
	<g>
		<path class="st0" d="M189.4,45.5c0.5,0,0.9,0.4,0.9,0.9s-0.4,0.9-0.9,0.9c-0.5,0-0.9-0.4-0.9-0.9S189,45.5,189.4,45.5z"/>
	</g>
	<g>
		<path class="st0" d="M192.7,45.5c0.5,0,0.9,0.4,0.9,0.9s-0.4,0.9-0.9,0.9c-0.5,0-0.9-0.4-0.9-0.9S192.2,45.5,192.7,45.5z"/>
	</g>
	<g>
		<path class="st0" d="M196,45.5c0.5,0,0.9,0.4,0.9,0.9s-0.4,0.9-0.9,0.9c-0.5,0-0.9-0.4-0.9-0.9S195.5,45.5,196,45.5z"/>
	</g>
	<g>
		<path class="st0" d="M199.3,45.5c0.5,0,0.9,0.4,0.9,0.9s-0.4,0.9-0.9,0.9c-0.5,0-0.9-0.4-0.9-0.9S198.8,45.5,199.3,45.5z"/>
	</g>
	<g>
		<path class="st0" d="M202.6,45.5c0.5,0,0.9,0.4,0.9,0.9s-0.4,0.9-0.9,0.9c-0.5,0-0.9-0.4-0.9-0.9S202.1,45.5,202.6,45.5z"/>
	</g>
	<g>
		<path class="st0" d="M212.4,45.5c0.5,0,0.9,0.4,0.9,0.9s-0.4,0.9-0.9,0.9c-0.5,0-0.9-0.4-0.9-0.9S211.9,45.5,212.4,45.5z"/>
	</g>
	<g>
		<path class="st0" d="M215.7,45.5c0.5,0,0.9,0.4,0.9,0.9s-0.4,0.9-0.9,0.9c-0.5,0-0.9-0.4-0.9-0.9S215.2,45.5,215.7,45.5z"/>
	</g>
	<g>
		<path class="st0" d="M219,45.5c0.5,0,0.9,0.4,0.9,0.9s-0.4,0.9-0.9,0.9c-0.5,0-0.9-0.4-0.9-0.9S218.5,45.5,219,45.5z"/>
	</g>
	<g>
		<path class="st0" d="M222.3,45.5c0.5,0,0.9,0.4,0.9,0.9s-0.4,0.9-0.9,0.9c-0.5,0-0.9-0.4-0.9-0.9S221.8,45.5,222.3,45.5z"/>
	</g>
	<g>
		<path class="st0" d="M225.5,45.5c0.5,0,0.9,0.4,0.9,0.9s-0.4,0.9-0.9,0.9c-0.5,0-0.9-0.4-0.9-0.9S225.1,45.5,225.5,45.5z"/>
	</g>
	<g>
		<path class="st0" d="M228.8,45.5c0.5,0,0.9,0.4,0.9,0.9s-0.4,0.9-0.9,0.9c-0.5,0-0.9-0.4-0.9-0.9S228.3,45.5,228.8,45.5z"/>
	</g>
	<g>
		<path class="st0" d="M232.1,45.5c0.5,0,0.9,0.4,0.9,0.9s-0.4,0.9-0.9,0.9c-0.5,0-0.9-0.4-0.9-0.9S231.6,45.5,232.1,45.5z"/>
	</g>
	<g>
		<path class="st0" d="M235.4,45.5c0.5,0,0.9,0.4,0.9,0.9s-0.4,0.9-0.9,0.9c-0.5,0-0.9-0.4-0.9-0.9S234.9,45.5,235.4,45.5z"/>
	</g>
	<g>
		<path class="st0" d="M238.7,45.5c0.5,0,0.9,0.4,0.9,0.9s-0.4,0.9-0.9,0.9c-0.5,0-0.9-0.4-0.9-0.9S238.2,45.5,238.7,45.5z"/>
	</g>
	<g>
		<path class="st0" d="M241.9,45.5c0.5,0,0.9,0.4,0.9,0.9s-0.4,0.9-0.9,0.9c-0.5,0-0.9-0.4-0.9-0.9S241.5,45.5,241.9,45.5z"/>
	</g>
	<g>
		<path class="st0" d="M245.2,45.5c0.5,0,0.9,0.4,0.9,0.9s-0.4,0.9-0.9,0.9c-0.5,0-0.9-0.4-0.9-0.9S244.7,45.5,245.2,45.5z"/>
	</g>
	<g>
		<path class="st0" d="M248.5,45.5c0.5,0,0.9,0.4,0.9,0.9s-0.4,0.9-0.9,0.9c-0.5,0-0.9-0.4-0.9-0.9S248,45.5,248.5,45.5z"/>
	</g>
	<g>
		<path class="st0" d="M251.8,45.5c0.5,0,0.9,0.4,0.9,0.9s-0.4,0.9-0.9,0.9c-0.5,0-0.9-0.4-0.9-0.9S251.3,45.5,251.8,45.5z"/>
	</g>
	<g>
		<path class="st0" d="M255.1,45.5c0.5,0,0.9,0.4,0.9,0.9s-0.4,0.9-0.9,0.9c-0.5,0-0.9-0.4-0.9-0.9S254.6,45.5,255.1,45.5z"/>
	</g>
	<g>
		<path class="st0" d="M179.6,42.2c0.5,0,0.9,0.4,0.9,0.9c0,0.5-0.4,0.9-0.9,0.9s-0.9-0.4-0.9-0.9C178.7,42.6,179.1,42.2,179.6,42.2
			z"/>
	</g>
	<g>
		<path class="st0" d="M182.9,42.2c0.5,0,0.9,0.4,0.9,0.9c0,0.5-0.4,0.9-0.9,0.9S182,43.5,182,43C182,42.6,182.4,42.2,182.9,42.2z"
			/>
	</g>
	<g>
		<path class="st0" d="M186.2,42.2c0.5,0,0.9,0.4,0.9,0.9c0,0.5-0.4,0.9-0.9,0.9c-0.5,0-0.9-0.4-0.9-0.9
			C185.3,42.6,185.7,42.2,186.2,42.2z"/>
	</g>
	<g>
		<path class="st0" d="M189.4,42.2c0.5,0,0.9,0.4,0.9,0.9c0,0.5-0.4,0.9-0.9,0.9c-0.5,0-0.9-0.4-0.9-0.9
			C188.6,42.6,189,42.2,189.4,42.2z"/>
	</g>
	<g>
		<path class="st0" d="M192.7,42.2c0.5,0,0.9,0.4,0.9,0.9c0,0.5-0.4,0.9-0.9,0.9c-0.5,0-0.9-0.4-0.9-0.9
			C191.8,42.6,192.2,42.2,192.7,42.2z"/>
	</g>
	<g>
		<path class="st0" d="M196,42.2c0.5,0,0.9,0.4,0.9,0.9c0,0.5-0.4,0.9-0.9,0.9c-0.5,0-0.9-0.4-0.9-0.9
			C195.1,42.6,195.5,42.2,196,42.2z"/>
	</g>
	<g>
		<path class="st0" d="M199.3,42.2c0.5,0,0.9,0.4,0.9,0.9c0,0.5-0.4,0.9-0.9,0.9c-0.5,0-0.9-0.4-0.9-0.9
			C198.4,42.6,198.8,42.2,199.3,42.2z"/>
	</g>
	<g>
		<path class="st0" d="M202.6,42.2c0.5,0,0.9,0.4,0.9,0.9c0,0.5-0.4,0.9-0.9,0.9c-0.5,0-0.9-0.4-0.9-0.9
			C201.7,42.6,202.1,42.2,202.6,42.2z"/>
	</g>
	<g>
		<path class="st0" d="M212.4,42.2c0.5,0,0.9,0.4,0.9,0.9c0,0.5-0.4,0.9-0.9,0.9c-0.5,0-0.9-0.4-0.9-0.9
			C211.5,42.6,211.9,42.2,212.4,42.2z"/>
	</g>
	<g>
		<path class="st0" d="M215.7,42.2c0.5,0,0.9,0.4,0.9,0.9c0,0.5-0.4,0.9-0.9,0.9c-0.5,0-0.9-0.4-0.9-0.9
			C214.8,42.6,215.2,42.2,215.7,42.2z"/>
	</g>
	<g>
		<path class="st0" d="M219,42.2c0.5,0,0.9,0.4,0.9,0.9c0,0.5-0.4,0.9-0.9,0.9c-0.5,0-0.9-0.4-0.9-0.9
			C218.1,42.6,218.5,42.2,219,42.2z"/>
	</g>
	<g>
		<path class="st0" d="M222.3,42.2c0.5,0,0.9,0.4,0.9,0.9c0,0.5-0.4,0.9-0.9,0.9c-0.5,0-0.9-0.4-0.9-0.9
			C221.4,42.6,221.8,42.2,222.3,42.2z"/>
	</g>
	<g>
		<path class="st0" d="M225.5,42.2c0.5,0,0.9,0.4,0.9,0.9c0,0.5-0.4,0.9-0.9,0.9c-0.5,0-0.9-0.4-0.9-0.9
			C224.7,42.6,225.1,42.2,225.5,42.2z"/>
	</g>
	<g>
		<path class="st0" d="M228.8,42.2c0.5,0,0.9,0.4,0.9,0.9c0,0.5-0.4,0.9-0.9,0.9c-0.5,0-0.9-0.4-0.9-0.9
			C227.9,42.6,228.3,42.2,228.8,42.2z"/>
	</g>
	<g>
		<path class="st0" d="M232.1,42.2c0.5,0,0.9,0.4,0.9,0.9c0,0.5-0.4,0.9-0.9,0.9c-0.5,0-0.9-0.4-0.9-0.9
			C231.2,42.6,231.6,42.2,232.1,42.2z"/>
	</g>
	<g>
		<path class="st0" d="M235.4,42.2c0.5,0,0.9,0.4,0.9,0.9c0,0.5-0.4,0.9-0.9,0.9c-0.5,0-0.9-0.4-0.9-0.9
			C234.5,42.6,234.9,42.2,235.4,42.2z"/>
	</g>
	<g>
		<path class="st0" d="M238.7,42.2c0.5,0,0.9,0.4,0.9,0.9c0,0.5-0.4,0.9-0.9,0.9c-0.5,0-0.9-0.4-0.9-0.9
			C237.8,42.6,238.2,42.2,238.7,42.2z"/>
	</g>
	<g>
		<path class="st0" d="M241.9,42.2c0.5,0,0.9,0.4,0.9,0.9c0,0.5-0.4,0.9-0.9,0.9c-0.5,0-0.9-0.4-0.9-0.9
			C241.1,42.6,241.5,42.2,241.9,42.2z"/>
	</g>
	<g>
		<path class="st0" d="M245.2,42.2c0.5,0,0.9,0.4,0.9,0.9c0,0.5-0.4,0.9-0.9,0.9c-0.5,0-0.9-0.4-0.9-0.9
			C244.4,42.6,244.7,42.2,245.2,42.2z"/>
	</g>
	<g>
		<path class="st0" d="M248.5,42.2c0.5,0,0.9,0.4,0.9,0.9c0,0.5-0.4,0.9-0.9,0.9c-0.5,0-0.9-0.4-0.9-0.9
			C247.6,42.6,248,42.2,248.5,42.2z"/>
	</g>
	<g>
		<path class="st0" d="M251.8,42.2c0.5,0,0.9,0.4,0.9,0.9c0,0.5-0.4,0.9-0.9,0.9c-0.5,0-0.9-0.4-0.9-0.9
			C250.9,42.6,251.3,42.2,251.8,42.2z"/>
	</g>
	<g>
		<path class="st0" d="M182.9,38.9c0.5,0,0.9,0.4,0.9,0.9s-0.4,0.9-0.9,0.9s-0.9-0.4-0.9-0.9S182.4,38.9,182.9,38.9z"/>
	</g>
	<g>
		<path class="st0" d="M186.2,38.9c0.5,0,0.9,0.4,0.9,0.9s-0.4,0.9-0.9,0.9c-0.5,0-0.9-0.4-0.9-0.9S185.7,38.9,186.2,38.9z"/>
	</g>
	<g>
		<path class="st0" d="M189.4,38.9c0.5,0,0.9,0.4,0.9,0.9s-0.4,0.9-0.9,0.9c-0.5,0-0.9-0.4-0.9-0.9S189,38.9,189.4,38.9z"/>
	</g>
	<g>
		<path class="st0" d="M192.7,38.9c0.5,0,0.9,0.4,0.9,0.9s-0.4,0.9-0.9,0.9c-0.5,0-0.9-0.4-0.9-0.9S192.2,38.9,192.7,38.9z"/>
	</g>
	<g>
		<path class="st0" d="M196,38.9c0.5,0,0.9,0.4,0.9,0.9s-0.4,0.9-0.9,0.9c-0.5,0-0.9-0.4-0.9-0.9S195.5,38.9,196,38.9z"/>
	</g>
	<g>
		<path class="st0" d="M199.3,38.9c0.5,0,0.9,0.4,0.9,0.9s-0.4,0.9-0.9,0.9c-0.5,0-0.9-0.4-0.9-0.9S198.8,38.9,199.3,38.9z"/>
	</g>
	<g>
		<path class="st0" d="M202.6,38.9c0.5,0,0.9,0.4,0.9,0.9s-0.4,0.9-0.9,0.9c-0.5,0-0.9-0.4-0.9-0.9S202.1,38.9,202.6,38.9z"/>
	</g>
	<g>
		<path class="st0" d="M212.4,38.9c0.5,0,0.9,0.4,0.9,0.9s-0.4,0.9-0.9,0.9c-0.5,0-0.9-0.4-0.9-0.9S211.9,38.9,212.4,38.9z"/>
	</g>
	<g>
		<path class="st0" d="M215.7,38.9c0.5,0,0.9,0.4,0.9,0.9s-0.4,0.9-0.9,0.9c-0.5,0-0.9-0.4-0.9-0.9S215.2,38.9,215.7,38.9z"/>
	</g>
	<g>
		<path class="st0" d="M219,38.9c0.5,0,0.9,0.4,0.9,0.9s-0.4,0.9-0.9,0.9c-0.5,0-0.9-0.4-0.9-0.9S218.5,38.9,219,38.9z"/>
	</g>
	<g>
		<path class="st0" d="M222.3,38.9c0.5,0,0.9,0.4,0.9,0.9s-0.4,0.9-0.9,0.9c-0.5,0-0.9-0.4-0.9-0.9S221.8,38.9,222.3,38.9z"/>
	</g>
	<g>
		<path class="st0" d="M225.5,38.9c0.5,0,0.9,0.4,0.9,0.9s-0.4,0.9-0.9,0.9c-0.5,0-0.9-0.4-0.9-0.9S225.1,38.9,225.5,38.9z"/>
	</g>
	<g>
		<path class="st0" d="M228.8,38.9c0.5,0,0.9,0.4,0.9,0.9s-0.4,0.9-0.9,0.9c-0.5,0-0.9-0.4-0.9-0.9S228.3,38.9,228.8,38.9z"/>
	</g>
	<g>
		<path class="st0" d="M232.1,38.9c0.5,0,0.9,0.4,0.9,0.9s-0.4,0.9-0.9,0.9c-0.5,0-0.9-0.4-0.9-0.9S231.6,38.9,232.1,38.9z"/>
	</g>
	<g>
		<path class="st0" d="M235.4,38.9c0.5,0,0.9,0.4,0.9,0.9s-0.4,0.9-0.9,0.9c-0.5,0-0.9-0.4-0.9-0.9S234.9,38.9,235.4,38.9z"/>
	</g>
	<g>
		<path class="st0" d="M238.7,38.9c0.5,0,0.9,0.4,0.9,0.9s-0.4,0.9-0.9,0.9c-0.5,0-0.9-0.4-0.9-0.9S238.2,38.9,238.7,38.9z"/>
	</g>
	<g>
		<path class="st0" d="M241.9,38.9c0.5,0,0.9,0.4,0.9,0.9s-0.4,0.9-0.9,0.9c-0.5,0-0.9-0.4-0.9-0.9S241.5,38.9,241.9,38.9z"/>
	</g>
	<g>
		<path class="st0" d="M245.2,38.9c0.5,0,0.9,0.4,0.9,0.9s-0.4,0.9-0.9,0.9c-0.5,0-0.9-0.4-0.9-0.9S244.7,38.9,245.2,38.9z"/>
	</g>
	<g>
		<path class="st0" d="M248.5,38.9c0.5,0,0.9,0.4,0.9,0.9s-0.4,0.9-0.9,0.9c-0.5,0-0.9-0.4-0.9-0.9S248,38.9,248.5,38.9z"/>
	</g>
	<g>
		<path class="st0" d="M186.2,35.6c0.5,0,0.9,0.4,0.9,0.9s-0.4,0.9-0.9,0.9c-0.5,0-0.9-0.4-0.9-0.9S185.7,35.6,186.2,35.6z"/>
	</g>
	<g>
		<path class="st0" d="M189.4,35.6c0.5,0,0.9,0.4,0.9,0.9s-0.4,0.9-0.9,0.9c-0.5,0-0.9-0.4-0.9-0.9S189,35.6,189.4,35.6z"/>
	</g>
	<g>
		<path class="st0" d="M192.7,35.6c0.5,0,0.9,0.4,0.9,0.9s-0.4,0.9-0.9,0.9c-0.5,0-0.9-0.4-0.9-0.9S192.2,35.6,192.7,35.6z"/>
	</g>
	<g>
		<path class="st0" d="M196,35.6c0.5,0,0.9,0.4,0.9,0.9s-0.4,0.9-0.9,0.9c-0.5,0-0.9-0.4-0.9-0.9S195.5,35.6,196,35.6z"/>
	</g>
	<g>
		<path class="st0" d="M199.3,35.6c0.5,0,0.9,0.4,0.9,0.9s-0.4,0.9-0.9,0.9c-0.5,0-0.9-0.4-0.9-0.9S198.8,35.6,199.3,35.6z"/>
	</g>
	<g>
		<path class="st0" d="M202.6,35.6c0.5,0,0.9,0.4,0.9,0.9s-0.4,0.9-0.9,0.9c-0.5,0-0.9-0.4-0.9-0.9S202.1,35.6,202.6,35.6z"/>
	</g>
	<g>
		<path class="st0" d="M212.4,35.6c0.5,0,0.9,0.4,0.9,0.9s-0.4,0.9-0.9,0.9c-0.5,0-0.9-0.4-0.9-0.9S211.9,35.6,212.4,35.6z"/>
	</g>
	<g>
		<path class="st0" d="M215.7,35.6c0.5,0,0.9,0.4,0.9,0.9s-0.4,0.9-0.9,0.9c-0.5,0-0.9-0.4-0.9-0.9S215.2,35.6,215.7,35.6z"/>
	</g>
	<g>
		<path class="st0" d="M219,35.6c0.5,0,0.9,0.4,0.9,0.9s-0.4,0.9-0.9,0.9c-0.5,0-0.9-0.4-0.9-0.9S218.5,35.6,219,35.6z"/>
	</g>
	<g>
		<path class="st0" d="M222.3,35.6c0.5,0,0.9,0.4,0.9,0.9s-0.4,0.9-0.9,0.9c-0.5,0-0.9-0.4-0.9-0.9S221.8,35.6,222.3,35.6z"/>
	</g>
	<g>
		<path class="st0" d="M225.5,35.6c0.5,0,0.9,0.4,0.9,0.9s-0.4,0.9-0.9,0.9c-0.5,0-0.9-0.4-0.9-0.9S225.1,35.6,225.5,35.6z"/>
	</g>
	<g>
		<path class="st0" d="M228.8,35.6c0.5,0,0.9,0.4,0.9,0.9s-0.4,0.9-0.9,0.9c-0.5,0-0.9-0.4-0.9-0.9S228.3,35.6,228.8,35.6z"/>
	</g>
	<g>
		<path class="st0" d="M232.1,35.6c0.5,0,0.9,0.4,0.9,0.9s-0.4,0.9-0.9,0.9c-0.5,0-0.9-0.4-0.9-0.9S231.6,35.6,232.1,35.6z"/>
	</g>
	<g>
		<path class="st0" d="M235.4,35.6c0.5,0,0.9,0.4,0.9,0.9s-0.4,0.9-0.9,0.9c-0.5,0-0.9-0.4-0.9-0.9S234.9,35.6,235.4,35.6z"/>
	</g>
	<g>
		<path class="st0" d="M238.7,35.6c0.5,0,0.9,0.4,0.9,0.9s-0.4,0.9-0.9,0.9c-0.5,0-0.9-0.4-0.9-0.9S238.2,35.6,238.7,35.6z"/>
	</g>
	<g>
		<path class="st0" d="M241.9,35.6c0.5,0,0.9,0.4,0.9,0.9s-0.4,0.9-0.9,0.9c-0.5,0-0.9-0.4-0.9-0.9S241.5,35.6,241.9,35.6z"/>
	</g>
	<g>
		<path class="st0" d="M245.2,35.6c0.5,0,0.9,0.4,0.9,0.9s-0.4,0.9-0.9,0.9c-0.5,0-0.9-0.4-0.9-0.9S244.7,35.6,245.2,35.6z"/>
	</g>
	<g>
		<path class="st0" d="M189.4,32.3c0.5,0,0.9,0.4,0.9,0.9s-0.4,0.9-0.9,0.9c-0.5,0-0.9-0.4-0.9-0.9S189,32.3,189.4,32.3z"/>
	</g>
	<g>
		<path class="st0" d="M192.7,32.3c0.5,0,0.9,0.4,0.9,0.9s-0.4,0.9-0.9,0.9c-0.5,0-0.9-0.4-0.9-0.9S192.2,32.3,192.7,32.3z"/>
	</g>
	<g>
		<path class="st0" d="M196,32.3c0.5,0,0.9,0.4,0.9,0.9s-0.4,0.9-0.9,0.9c-0.5,0-0.9-0.4-0.9-0.9S195.5,32.3,196,32.3z"/>
	</g>
	<g>
		<path class="st0" d="M199.3,32.3c0.5,0,0.9,0.4,0.9,0.9s-0.4,0.9-0.9,0.9c-0.5,0-0.9-0.4-0.9-0.9S198.8,32.3,199.3,32.3z"/>
	</g>
	<g>
		<path class="st0" d="M202.6,32.3c0.5,0,0.9,0.4,0.9,0.9s-0.4,0.9-0.9,0.9c-0.5,0-0.9-0.4-0.9-0.9S202.1,32.3,202.6,32.3z"/>
	</g>
	<g>
		<path class="st0" d="M228.8,32.3c0.5,0,0.9,0.4,0.9,0.9s-0.4,0.9-0.9,0.9c-0.5,0-0.9-0.4-0.9-0.9S228.3,32.3,228.8,32.3z"/>
	</g>
	<g>
		<path class="st0" d="M232.1,32.3c0.5,0,0.9,0.4,0.9,0.9s-0.4,0.9-0.9,0.9c-0.5,0-0.9-0.4-0.9-0.9S231.6,32.3,232.1,32.3z"/>
	</g>
	<g>
		<path class="st0" d="M235.4,32.3c0.5,0,0.9,0.4,0.9,0.9s-0.4,0.9-0.9,0.9c-0.5,0-0.9-0.4-0.9-0.9S234.9,32.3,235.4,32.3z"/>
	</g>
	<g>
		<path class="st0" d="M238.7,32.3c0.5,0,0.9,0.4,0.9,0.9s-0.4,0.9-0.9,0.9c-0.5,0-0.9-0.4-0.9-0.9S238.2,32.3,238.7,32.3z"/>
	</g>
	<g>
		<path class="st0" d="M241.9,32.3c0.5,0,0.9,0.4,0.9,0.9s-0.4,0.9-0.9,0.9c-0.5,0-0.9-0.4-0.9-0.9S241.5,32.3,241.9,32.3z"/>
	</g>
	<g>
		<path class="st0" d="M192.7,29c0.5,0,0.9,0.4,0.9,0.9s-0.4,0.9-0.9,0.9c-0.5,0-0.9-0.4-0.9-0.9S192.2,29,192.7,29z"/>
	</g>
	<g>
		<path class="st0" d="M196,29c0.5,0,0.9,0.4,0.9,0.9s-0.4,0.9-0.9,0.9c-0.5,0-0.9-0.4-0.9-0.9S195.5,29,196,29z"/>
	</g>
	<g>
		<path class="st0" d="M199.3,29c0.5,0,0.9,0.4,0.9,0.9s-0.4,0.9-0.9,0.9c-0.5,0-0.9-0.4-0.9-0.9S198.8,29,199.3,29z"/>
	</g>
	<g>
		<path class="st0" d="M202.6,29c0.5,0,0.9,0.4,0.9,0.9s-0.4,0.9-0.9,0.9c-0.5,0-0.9-0.4-0.9-0.9S202.1,29,202.6,29z"/>
	</g>
	<g>
		<path class="st0" d="M205.8,29c0.5,0,0.9,0.4,0.9,0.9s-0.4,0.9-0.9,0.9c-0.5,0-0.9-0.4-0.9-0.9S205.4,29,205.8,29z"/>
	</g>
	<g>
		<path class="st0" d="M209.1,29c0.5,0,0.9,0.4,0.9,0.9s-0.4,0.9-0.9,0.9c-0.5,0-0.9-0.4-0.9-0.9S208.6,29,209.1,29z"/>
	</g>
	<g>
		<path class="st0" d="M212.4,29c0.5,0,0.9,0.4,0.9,0.9s-0.4,0.9-0.9,0.9c-0.5,0-0.9-0.4-0.9-0.9S211.9,29,212.4,29z"/>
	</g>
	<g>
		<path class="st0" d="M215.7,29c0.5,0,0.9,0.4,0.9,0.9s-0.4,0.9-0.9,0.9c-0.5,0-0.9-0.4-0.9-0.9S215.2,29,215.7,29z"/>
	</g>
	<g>
		<path class="st0" d="M219,29c0.5,0,0.9,0.4,0.9,0.9s-0.4,0.9-0.9,0.9c-0.5,0-0.9-0.4-0.9-0.9S218.5,29,219,29z"/>
	</g>
	<g>
		<path class="st0" d="M222.3,29c0.5,0,0.9,0.4,0.9,0.9s-0.4,0.9-0.9,0.9c-0.5,0-0.9-0.4-0.9-0.9S221.8,29,222.3,29z"/>
	</g>
	<g>
		<path class="st0" d="M225.5,29c0.5,0,0.9,0.4,0.9,0.9s-0.4,0.9-0.9,0.9c-0.5,0-0.9-0.4-0.9-0.9S225.1,29,225.5,29z"/>
	</g>
	<g>
		<path class="st0" d="M228.8,29c0.5,0,0.9,0.4,0.9,0.9s-0.4,0.9-0.9,0.9c-0.5,0-0.9-0.4-0.9-0.9S228.3,29,228.8,29z"/>
	</g>
	<g>
		<path class="st0" d="M232.1,29c0.5,0,0.9,0.4,0.9,0.9s-0.4,0.9-0.9,0.9c-0.5,0-0.9-0.4-0.9-0.9S231.6,29,232.1,29z"/>
	</g>
	<g>
		<path class="st0" d="M235.4,29c0.5,0,0.9,0.4,0.9,0.9s-0.4,0.9-0.9,0.9c-0.5,0-0.9-0.4-0.9-0.9S234.9,29,235.4,29z"/>
	</g>
	<g>
		<path class="st0" d="M238.7,29c0.5,0,0.9,0.4,0.9,0.9s-0.4,0.9-0.9,0.9c-0.5,0-0.9-0.4-0.9-0.9S238.2,29,238.7,29z"/>
	</g>
	<g>
		<path class="st0" d="M196,25.8c0.5,0,0.9,0.4,0.9,0.9s-0.4,0.9-0.9,0.9c-0.5,0-0.9-0.4-0.9-0.9S195.5,25.8,196,25.8z"/>
	</g>
	<g>
		<path class="st0" d="M199.3,25.8c0.5,0,0.9,0.4,0.9,0.9s-0.4,0.9-0.9,0.9c-0.5,0-0.9-0.4-0.9-0.9S198.8,25.8,199.3,25.8z"/>
	</g>
	<g>
		<path class="st0" d="M202.6,25.8c0.5,0,0.9,0.4,0.9,0.9s-0.4,0.9-0.9,0.9c-0.5,0-0.9-0.4-0.9-0.9S202.1,25.8,202.6,25.8z"/>
	</g>
	<g>
		<path class="st0" d="M205.8,25.8c0.5,0,0.9,0.4,0.9,0.9s-0.4,0.9-0.9,0.9c-0.5,0-0.9-0.4-0.9-0.9S205.4,25.8,205.8,25.8z"/>
	</g>
	<g>
		<path class="st0" d="M209.1,25.8c0.5,0,0.9,0.4,0.9,0.9s-0.4,0.9-0.9,0.9c-0.5,0-0.9-0.4-0.9-0.9S208.6,25.8,209.1,25.8z"/>
	</g>
	<g>
		<path class="st0" d="M212.4,25.8c0.5,0,0.9,0.4,0.9,0.9s-0.4,0.9-0.9,0.9c-0.5,0-0.9-0.4-0.9-0.9S211.9,25.8,212.4,25.8z"/>
	</g>
	<g>
		<path class="st0" d="M215.7,25.8c0.5,0,0.9,0.4,0.9,0.9s-0.4,0.9-0.9,0.9c-0.5,0-0.9-0.4-0.9-0.9S215.2,25.8,215.7,25.8z"/>
	</g>
	<g>
		<path class="st0" d="M219,25.8c0.5,0,0.9,0.4,0.9,0.9s-0.4,0.9-0.9,0.9c-0.5,0-0.9-0.4-0.9-0.9S218.5,25.8,219,25.8z"/>
	</g>
	<g>
		<path class="st0" d="M222.3,25.8c0.5,0,0.9,0.4,0.9,0.9s-0.4,0.9-0.9,0.9c-0.5,0-0.9-0.4-0.9-0.9S221.8,25.8,222.3,25.8z"/>
	</g>
	<g>
		<path class="st0" d="M225.5,25.8c0.5,0,0.9,0.4,0.9,0.9s-0.4,0.9-0.9,0.9c-0.5,0-0.9-0.4-0.9-0.9S225.1,25.8,225.5,25.8z"/>
	</g>
	<g>
		<path class="st0" d="M228.8,25.8c0.5,0,0.9,0.4,0.9,0.9s-0.4,0.9-0.9,0.9c-0.5,0-0.9-0.4-0.9-0.9S228.3,25.8,228.8,25.8z"/>
	</g>
	<g>
		<path class="st0" d="M232.1,25.8c0.5,0,0.9,0.4,0.9,0.9s-0.4,0.9-0.9,0.9c-0.5,0-0.9-0.4-0.9-0.9S231.6,25.8,232.1,25.8z"/>
	</g>
	<g>
		<path class="st0" d="M235.4,25.8c0.5,0,0.9,0.4,0.9,0.9s-0.4,0.9-0.9,0.9c-0.5,0-0.9-0.4-0.9-0.9S234.9,25.8,235.4,25.8z"/>
	</g>
	<g>
		<path class="st0" d="M199.3,22.5c0.5,0,0.9,0.4,0.9,0.9c0,0.5-0.4,0.9-0.9,0.9c-0.5,0-0.9-0.4-0.9-0.9
			C198.4,22.9,198.8,22.5,199.3,22.5z"/>
	</g>
	<g>
		<path class="st0" d="M202.6,22.5c0.5,0,0.9,0.4,0.9,0.9c0,0.5-0.4,0.9-0.9,0.9c-0.5,0-0.9-0.4-0.9-0.9
			C201.7,22.9,202.1,22.5,202.6,22.5z"/>
	</g>
	<g>
		<path class="st0" d="M205.8,22.5c0.5,0,0.9,0.4,0.9,0.9c0,0.5-0.4,0.9-0.9,0.9c-0.5,0-0.9-0.4-0.9-0.9
			C205,22.9,205.4,22.5,205.8,22.5z"/>
	</g>
	<g>
		<path class="st0" d="M209.1,22.5c0.5,0,0.9,0.4,0.9,0.9c0,0.5-0.4,0.9-0.9,0.9c-0.5,0-0.9-0.4-0.9-0.9
			C208.3,22.9,208.6,22.5,209.1,22.5z"/>
	</g>
	<g>
		<path class="st0" d="M212.4,22.5c0.5,0,0.9,0.4,0.9,0.9c0,0.5-0.4,0.9-0.9,0.9c-0.5,0-0.9-0.4-0.9-0.9
			C211.5,22.9,211.9,22.5,212.4,22.5z"/>
	</g>
	<g>
		<path class="st0" d="M215.7,22.5c0.5,0,0.9,0.4,0.9,0.9c0,0.5-0.4,0.9-0.9,0.9c-0.5,0-0.9-0.4-0.9-0.9
			C214.8,22.9,215.2,22.5,215.7,22.5z"/>
	</g>
	<g>
		<path class="st0" d="M219,22.5c0.5,0,0.9,0.4,0.9,0.9c0,0.5-0.4,0.9-0.9,0.9c-0.5,0-0.9-0.4-0.9-0.9
			C218.1,22.9,218.5,22.5,219,22.5z"/>
	</g>
	<g>
		<path class="st0" d="M222.3,22.5c0.5,0,0.9,0.4,0.9,0.9c0,0.5-0.4,0.9-0.9,0.9c-0.5,0-0.9-0.4-0.9-0.9
			C221.4,22.9,221.8,22.5,222.3,22.5z"/>
	</g>
	<g>
		<path class="st0" d="M225.5,22.5c0.5,0,0.9,0.4,0.9,0.9c0,0.5-0.4,0.9-0.9,0.9c-0.5,0-0.9-0.4-0.9-0.9
			C224.7,22.9,225.1,22.5,225.5,22.5z"/>
	</g>
	<g>
		<path class="st0" d="M228.8,22.5c0.5,0,0.9,0.4,0.9,0.9c0,0.5-0.4,0.9-0.9,0.9c-0.5,0-0.9-0.4-0.9-0.9
			C227.9,22.9,228.3,22.5,228.8,22.5z"/>
	</g>
	<g>
		<path class="st0" d="M232.1,22.5c0.5,0,0.9,0.4,0.9,0.9c0,0.5-0.4,0.9-0.9,0.9c-0.5,0-0.9-0.4-0.9-0.9
			C231.2,22.9,231.6,22.5,232.1,22.5z"/>
	</g>
	<g>
		<path class="st0" d="M202.6,19.2c0.5,0,0.9,0.4,0.9,0.9c0,0.5-0.4,0.9-0.9,0.9c-0.5,0-0.9-0.4-0.9-0.9
			C201.7,19.6,202.1,19.2,202.6,19.2z"/>
	</g>
	<g>
		<path class="st0" d="M205.8,19.2c0.5,0,0.9,0.4,0.9,0.9c0,0.5-0.4,0.9-0.9,0.9c-0.5,0-0.9-0.4-0.9-0.9
			C205,19.6,205.4,19.2,205.8,19.2z"/>
	</g>
	<g>
		<path class="st0" d="M209.1,19.2c0.5,0,0.9,0.4,0.9,0.9c0,0.5-0.4,0.9-0.9,0.9c-0.5,0-0.9-0.4-0.9-0.9
			C208.3,19.6,208.6,19.2,209.1,19.2z"/>
	</g>
	<g>
		<path class="st0" d="M212.4,19.2c0.5,0,0.9,0.4,0.9,0.9c0,0.5-0.4,0.9-0.9,0.9c-0.5,0-0.9-0.4-0.9-0.9
			C211.5,19.6,211.9,19.2,212.4,19.2z"/>
	</g>
	<g>
		<path class="st0" d="M215.7,19.2c0.5,0,0.9,0.4,0.9,0.9c0,0.5-0.4,0.9-0.9,0.9c-0.5,0-0.9-0.4-0.9-0.9
			C214.8,19.6,215.2,19.2,215.7,19.2z"/>
	</g>
	<g>
		<path class="st0" d="M219,19.2c0.5,0,0.9,0.4,0.9,0.9c0,0.5-0.4,0.9-0.9,0.9c-0.5,0-0.9-0.4-0.9-0.9
			C218.1,19.6,218.5,19.2,219,19.2z"/>
	</g>
	<g>
		<path class="st0" d="M222.3,19.2c0.5,0,0.9,0.4,0.9,0.9c0,0.5-0.4,0.9-0.9,0.9c-0.5,0-0.9-0.4-0.9-0.9
			C221.4,19.6,221.8,19.2,222.3,19.2z"/>
	</g>
	<g>
		<path class="st0" d="M225.5,19.2c0.5,0,0.9,0.4,0.9,0.9c0,0.5-0.4,0.9-0.9,0.9c-0.5,0-0.9-0.4-0.9-0.9
			C224.7,19.6,225.1,19.2,225.5,19.2z"/>
	</g>
	<g>
		<path class="st0" d="M228.8,19.2c0.5,0,0.9,0.4,0.9,0.9c0,0.5-0.4,0.9-0.9,0.9c-0.5,0-0.9-0.4-0.9-0.9
			C227.9,19.6,228.3,19.2,228.8,19.2z"/>
	</g>
	<g>
		<path class="st0" d="M205.8,15.9c0.5,0,0.9,0.4,0.9,0.9s-0.4,0.9-0.9,0.9c-0.5,0-0.9-0.4-0.9-0.9S205.4,15.9,205.8,15.9z"/>
	</g>
	<g>
		<path class="st0" d="M209.1,15.9c0.5,0,0.9,0.4,0.9,0.9s-0.4,0.9-0.9,0.9c-0.5,0-0.9-0.4-0.9-0.9S208.6,15.9,209.1,15.9z"/>
	</g>
	<g>
		<path class="st0" d="M212.4,15.9c0.5,0,0.9,0.4,0.9,0.9s-0.4,0.9-0.9,0.9c-0.5,0-0.9-0.4-0.9-0.9S211.9,15.9,212.4,15.9z"/>
	</g>
	<g>
		<path class="st0" d="M215.7,15.9c0.5,0,0.9,0.4,0.9,0.9s-0.4,0.9-0.9,0.9c-0.5,0-0.9-0.4-0.9-0.9S215.2,15.9,215.7,15.9z"/>
	</g>
	<g>
		<path class="st0" d="M219,15.9c0.5,0,0.9,0.4,0.9,0.9s-0.4,0.9-0.9,0.9c-0.5,0-0.9-0.4-0.9-0.9S218.5,15.9,219,15.9z"/>
	</g>
	<g>
		<path class="st0" d="M222.3,15.9c0.5,0,0.9,0.4,0.9,0.9s-0.4,0.9-0.9,0.9c-0.5,0-0.9-0.4-0.9-0.9S221.8,15.9,222.3,15.9z"/>
	</g>
	<g>
		<path class="st0" d="M225.5,15.9c0.5,0,0.9,0.4,0.9,0.9s-0.4,0.9-0.9,0.9c-0.5,0-0.9-0.4-0.9-0.9S225.1,15.9,225.5,15.9z"/>
	</g>
	<g>
		<path class="st0" d="M209.1,12.6c0.5,0,0.9,0.4,0.9,0.9c0,0.5-0.4,0.9-0.9,0.9c-0.5,0-0.9-0.4-0.9-0.9
			C208.3,13,208.6,12.6,209.1,12.6z"/>
	</g>
	<g>
		<path class="st0" d="M212.4,12.6c0.5,0,0.9,0.4,0.9,0.9c0,0.5-0.4,0.9-0.9,0.9c-0.5,0-0.9-0.4-0.9-0.9
			C211.5,13,211.9,12.6,212.4,12.6z"/>
	</g>
	<g>
		<path class="st0" d="M215.7,12.6c0.5,0,0.9,0.4,0.9,0.9c0,0.5-0.4,0.9-0.9,0.9c-0.5,0-0.9-0.4-0.9-0.9
			C214.8,13,215.2,12.6,215.7,12.6z"/>
	</g>
	<g>
		<path class="st0" d="M219,12.6c0.5,0,0.9,0.4,0.9,0.9c0,0.5-0.4,0.9-0.9,0.9c-0.5,0-0.9-0.4-0.9-0.9C218.1,13,218.5,12.6,219,12.6
			z"/>
	</g>
	<g>
		<path class="st0" d="M222.3,12.6c0.5,0,0.9,0.4,0.9,0.9c0,0.5-0.4,0.9-0.9,0.9c-0.5,0-0.9-0.4-0.9-0.9
			C221.4,13,221.8,12.6,222.3,12.6z"/>
	</g>
	<g>
		<path class="st0" d="M212.4,9.4c0.5,0,0.9,0.4,0.9,0.9c0,0.5-0.4,0.9-0.9,0.9c-0.5,0-0.9-0.4-0.9-0.9
			C211.5,9.7,211.9,9.4,212.4,9.4z"/>
	</g>
	<g>
		<path class="st0" d="M215.7,9.4c0.5,0,0.9,0.4,0.9,0.9c0,0.5-0.4,0.9-0.9,0.9c-0.5,0-0.9-0.4-0.9-0.9
			C214.8,9.7,215.2,9.4,215.7,9.4z"/>
	</g>
	<g>
		<path class="st0" d="M219,9.4c0.5,0,0.9,0.4,0.9,0.9c0,0.5-0.4,0.9-0.9,0.9c-0.5,0-0.9-0.4-0.9-0.9C218.1,9.7,218.5,9.4,219,9.4z"
			/>
	</g>
	<g>
		<path class="st0" d="M215.7,6.1c0.5,0,0.9,0.4,0.9,0.9s-0.4,0.9-0.9,0.9c-0.5,0-0.9-0.4-0.9-0.9S215.2,6.1,215.7,6.1z"/>
	</g>
	<g>
		<path class="st0" d="M215.7,91.4c0.5,0,0.9,0.4,0.9,0.9c0,0.5-0.4,0.9-0.9,0.9c-0.5,0-0.9-0.4-0.9-0.9
			C214.8,91.8,215.2,91.4,215.7,91.4z"/>
	</g>
	<g>
		<path class="st0" d="M212.4,88.1c0.5,0,0.9,0.4,0.9,0.9s-0.4,0.9-0.9,0.9c-0.5,0-0.9-0.4-0.9-0.9S211.9,88.1,212.4,88.1z"/>
	</g>
	<g>
		<path class="st0" d="M215.7,88.1c0.5,0,0.9,0.4,0.9,0.9s-0.4,0.9-0.9,0.9c-0.5,0-0.9-0.4-0.9-0.9S215.2,88.1,215.7,88.1z"/>
	</g>
	<g>
		<path class="st0" d="M219,88.1c0.5,0,0.9,0.4,0.9,0.9s-0.4,0.9-0.9,0.9c-0.5,0-0.9-0.4-0.9-0.9S218.5,88.1,219,88.1z"/>
	</g>
	<g>
		<path class="st0" d="M209.1,84.8c0.5,0,0.9,0.4,0.9,0.9s-0.4,0.9-0.9,0.9c-0.5,0-0.9-0.4-0.9-0.9S208.6,84.8,209.1,84.8z"/>
	</g>
	<g>
		<path class="st0" d="M212.4,84.8c0.5,0,0.9,0.4,0.9,0.9s-0.4,0.9-0.9,0.9c-0.5,0-0.9-0.4-0.9-0.9S211.9,84.8,212.4,84.8z"/>
	</g>
	<g>
		<path class="st0" d="M215.7,84.8c0.5,0,0.9,0.4,0.9,0.9s-0.4,0.9-0.9,0.9c-0.5,0-0.9-0.4-0.9-0.9S215.2,84.8,215.7,84.8z"/>
	</g>
	<g>
		<path class="st0" d="M219,84.8c0.5,0,0.9,0.4,0.9,0.9s-0.4,0.9-0.9,0.9c-0.5,0-0.9-0.4-0.9-0.9S218.5,84.8,219,84.8z"/>
	</g>
	<g>
		<path class="st0" d="M222.3,84.8c0.5,0,0.9,0.4,0.9,0.9s-0.4,0.9-0.9,0.9c-0.5,0-0.9-0.4-0.9-0.9S221.8,84.8,222.3,84.8z"/>
	</g>
	<g>
		<path class="st0" d="M205.8,81.6c0.5,0,0.9,0.4,0.9,0.9s-0.4,0.9-0.9,0.9c-0.5,0-0.9-0.4-0.9-0.9S205.4,81.6,205.8,81.6z"/>
	</g>
	<g>
		<path class="st0" d="M209.1,81.6c0.5,0,0.9,0.4,0.9,0.9s-0.4,0.9-0.9,0.9c-0.5,0-0.9-0.4-0.9-0.9S208.6,81.6,209.1,81.6z"/>
	</g>
	<g>
		<path class="st0" d="M212.4,81.6c0.5,0,0.9,0.4,0.9,0.9s-0.4,0.9-0.9,0.9c-0.5,0-0.9-0.4-0.9-0.9S211.9,81.6,212.4,81.6z"/>
	</g>
	<g>
		<path class="st0" d="M215.7,81.6c0.5,0,0.9,0.4,0.9,0.9s-0.4,0.9-0.9,0.9c-0.5,0-0.9-0.4-0.9-0.9S215.2,81.6,215.7,81.6z"/>
	</g>
	<g>
		<path class="st0" d="M219,81.6c0.5,0,0.9,0.4,0.9,0.9s-0.4,0.9-0.9,0.9c-0.5,0-0.9-0.4-0.9-0.9S218.5,81.6,219,81.6z"/>
	</g>
	<g>
		<path class="st0" d="M222.3,81.6c0.5,0,0.9,0.4,0.9,0.9s-0.4,0.9-0.9,0.9c-0.5,0-0.9-0.4-0.9-0.9S221.8,81.6,222.3,81.6z"/>
	</g>
	<g>
		<path class="st0" d="M225.5,81.6c0.5,0,0.9,0.4,0.9,0.9s-0.4,0.9-0.9,0.9c-0.5,0-0.9-0.4-0.9-0.9S225.1,81.6,225.5,81.6z"/>
	</g>
	<g>
		<path class="st0" d="M202.6,78.3c0.5,0,0.9,0.4,0.9,0.9S203,80,202.6,80c-0.5,0-0.9-0.4-0.9-0.9S202.1,78.3,202.6,78.3z"/>
	</g>
	<g>
		<path class="st0" d="M205.8,78.3c0.5,0,0.9,0.4,0.9,0.9s-0.4,0.9-0.9,0.9c-0.5,0-0.9-0.4-0.9-0.9S205.4,78.3,205.8,78.3z"/>
	</g>
	<g>
		<path class="st0" d="M209.1,78.3c0.5,0,0.9,0.4,0.9,0.9s-0.4,0.9-0.9,0.9c-0.5,0-0.9-0.4-0.9-0.9S208.6,78.3,209.1,78.3z"/>
	</g>
	<g>
		<path class="st0" d="M212.4,78.3c0.5,0,0.9,0.4,0.9,0.9s-0.4,0.9-0.9,0.9c-0.5,0-0.9-0.4-0.9-0.9S211.9,78.3,212.4,78.3z"/>
	</g>
	<g>
		<path class="st0" d="M215.7,78.3c0.5,0,0.9,0.4,0.9,0.9s-0.4,0.9-0.9,0.9c-0.5,0-0.9-0.4-0.9-0.9S215.2,78.3,215.7,78.3z"/>
	</g>
	<g>
		<path class="st0" d="M219,78.3c0.5,0,0.9,0.4,0.9,0.9S219.5,80,219,80c-0.5,0-0.9-0.4-0.9-0.9S218.5,78.3,219,78.3z"/>
	</g>
	<g>
		<path class="st0" d="M222.3,78.3c0.5,0,0.9,0.4,0.9,0.9s-0.4,0.9-0.9,0.9c-0.5,0-0.9-0.4-0.9-0.9S221.8,78.3,222.3,78.3z"/>
	</g>
	<g>
		<path class="st0" d="M225.5,78.3c0.5,0,0.9,0.4,0.9,0.9S226,80,225.5,80c-0.5,0-0.9-0.4-0.9-0.9S225.1,78.3,225.5,78.3z"/>
	</g>
	<g>
		<path class="st0" d="M228.8,78.3c0.5,0,0.9,0.4,0.9,0.9s-0.4,0.9-0.9,0.9c-0.5,0-0.9-0.4-0.9-0.9S228.3,78.3,228.8,78.3z"/>
	</g>
	<g>
		<path class="st0" d="M199.3,75c0.5,0,0.9,0.4,0.9,0.9c0,0.5-0.4,0.9-0.9,0.9c-0.5,0-0.9-0.4-0.9-0.9C198.4,75.4,198.8,75,199.3,75
			z"/>
	</g>
	<g>
		<path class="st0" d="M202.6,75c0.5,0,0.9,0.4,0.9,0.9c0,0.5-0.4,0.9-0.9,0.9c-0.5,0-0.9-0.4-0.9-0.9C201.7,75.4,202.1,75,202.6,75
			z"/>
	</g>
	<g>
		<path class="st0" d="M205.8,75c0.5,0,0.9,0.4,0.9,0.9c0,0.5-0.4,0.9-0.9,0.9c-0.5,0-0.9-0.4-0.9-0.9C205,75.4,205.4,75,205.8,75z"
			/>
	</g>
	<g>
		<path class="st0" d="M209.1,75c0.5,0,0.9,0.4,0.9,0.9c0,0.5-0.4,0.9-0.9,0.9c-0.5,0-0.9-0.4-0.9-0.9C208.3,75.4,208.6,75,209.1,75
			z"/>
	</g>
	<g>
		<path class="st0" d="M212.4,75c0.5,0,0.9,0.4,0.9,0.9c0,0.5-0.4,0.9-0.9,0.9c-0.5,0-0.9-0.4-0.9-0.9C211.5,75.4,211.9,75,212.4,75
			z"/>
	</g>
	<g>
		<path class="st0" d="M215.7,75c0.5,0,0.9,0.4,0.9,0.9c0,0.5-0.4,0.9-0.9,0.9c-0.5,0-0.9-0.4-0.9-0.9C214.8,75.4,215.2,75,215.7,75
			z"/>
	</g>
	<g>
		<path class="st0" d="M219,75c0.5,0,0.9,0.4,0.9,0.9c0,0.5-0.4,0.9-0.9,0.9c-0.5,0-0.9-0.4-0.9-0.9C218.1,75.4,218.5,75,219,75z"/>
	</g>
	<g>
		<path class="st0" d="M222.3,75c0.5,0,0.9,0.4,0.9,0.9c0,0.5-0.4,0.9-0.9,0.9c-0.5,0-0.9-0.4-0.9-0.9C221.4,75.4,221.8,75,222.3,75
			z"/>
	</g>
	<g>
		<path class="st0" d="M225.5,75c0.5,0,0.9,0.4,0.9,0.9c0,0.5-0.4,0.9-0.9,0.9c-0.5,0-0.9-0.4-0.9-0.9C224.7,75.4,225.1,75,225.5,75
			z"/>
	</g>
	<g>
		<path class="st0" d="M228.8,75c0.5,0,0.9,0.4,0.9,0.9c0,0.5-0.4,0.9-0.9,0.9c-0.5,0-0.9-0.4-0.9-0.9C227.9,75.4,228.3,75,228.8,75
			z"/>
	</g>
	<g>
		<path class="st0" d="M232.1,75c0.5,0,0.9,0.4,0.9,0.9c0,0.5-0.4,0.9-0.9,0.9c-0.5,0-0.9-0.4-0.9-0.9C231.2,75.4,231.6,75,232.1,75
			z"/>
	</g>
	<g>
		<path class="st0" d="M196,71.7c0.5,0,0.9,0.4,0.9,0.9s-0.4,0.9-0.9,0.9c-0.5,0-0.9-0.4-0.9-0.9S195.5,71.7,196,71.7z"/>
	</g>
	<g>
		<path class="st0" d="M199.3,71.7c0.5,0,0.9,0.4,0.9,0.9s-0.4,0.9-0.9,0.9c-0.5,0-0.9-0.4-0.9-0.9S198.8,71.7,199.3,71.7z"/>
	</g>
	<g>
		<path class="st0" d="M202.6,71.7c0.5,0,0.9,0.4,0.9,0.9s-0.4,0.9-0.9,0.9c-0.5,0-0.9-0.4-0.9-0.9S202.1,71.7,202.6,71.7z"/>
	</g>
	<g>
		<path class="st0" d="M205.8,71.7c0.5,0,0.9,0.4,0.9,0.9s-0.4,0.9-0.9,0.9c-0.5,0-0.9-0.4-0.9-0.9S205.4,71.7,205.8,71.7z"/>
	</g>
	<g>
		<path class="st0" d="M209.1,71.7c0.5,0,0.9,0.4,0.9,0.9s-0.4,0.9-0.9,0.9c-0.5,0-0.9-0.4-0.9-0.9S208.6,71.7,209.1,71.7z"/>
	</g>
	<g>
		<path class="st0" d="M212.4,71.7c0.5,0,0.9,0.4,0.9,0.9s-0.4,0.9-0.9,0.9c-0.5,0-0.9-0.4-0.9-0.9S211.9,71.7,212.4,71.7z"/>
	</g>
	<g>
		<path class="st0" d="M215.7,71.7c0.5,0,0.9,0.4,0.9,0.9s-0.4,0.9-0.9,0.9c-0.5,0-0.9-0.4-0.9-0.9S215.2,71.7,215.7,71.7z"/>
	</g>
	<g>
		<path class="st0" d="M219,71.7c0.5,0,0.9,0.4,0.9,0.9s-0.4,0.9-0.9,0.9c-0.5,0-0.9-0.4-0.9-0.9S218.5,71.7,219,71.7z"/>
	</g>
	<g>
		<path class="st0" d="M222.3,71.7c0.5,0,0.9,0.4,0.9,0.9s-0.4,0.9-0.9,0.9c-0.5,0-0.9-0.4-0.9-0.9S221.8,71.7,222.3,71.7z"/>
	</g>
	<g>
		<path class="st0" d="M225.5,71.7c0.5,0,0.9,0.4,0.9,0.9s-0.4,0.9-0.9,0.9c-0.5,0-0.9-0.4-0.9-0.9S225.1,71.7,225.5,71.7z"/>
	</g>
	<g>
		<path class="st0" d="M228.8,71.7c0.5,0,0.9,0.4,0.9,0.9s-0.4,0.9-0.9,0.9c-0.5,0-0.9-0.4-0.9-0.9S228.3,71.7,228.8,71.7z"/>
	</g>
	<g>
		<path class="st0" d="M232.1,71.7c0.5,0,0.9,0.4,0.9,0.9s-0.4,0.9-0.9,0.9c-0.5,0-0.9-0.4-0.9-0.9S231.6,71.7,232.1,71.7z"/>
	</g>
	<g>
		<path class="st0" d="M235.4,71.7c0.5,0,0.9,0.4,0.9,0.9s-0.4,0.9-0.9,0.9c-0.5,0-0.9-0.4-0.9-0.9S234.9,71.7,235.4,71.7z"/>
	</g>
	<g>
		<path class="st0" d="M192.7,68.4c0.5,0,0.9,0.4,0.9,0.9s-0.4,0.9-0.9,0.9c-0.5,0-0.9-0.4-0.9-0.9S192.2,68.4,192.7,68.4z"/>
	</g>
	<g>
		<path class="st0" d="M196,68.4c0.5,0,0.9,0.4,0.9,0.9s-0.4,0.9-0.9,0.9c-0.5,0-0.9-0.4-0.9-0.9S195.5,68.4,196,68.4z"/>
	</g>
	<g>
		<path class="st0" d="M199.3,68.4c0.5,0,0.9,0.4,0.9,0.9s-0.4,0.9-0.9,0.9c-0.5,0-0.9-0.4-0.9-0.9S198.8,68.4,199.3,68.4z"/>
	</g>
	<g>
		<path class="st0" d="M202.6,68.4c0.5,0,0.9,0.4,0.9,0.9s-0.4,0.9-0.9,0.9c-0.5,0-0.9-0.4-0.9-0.9S202.1,68.4,202.6,68.4z"/>
	</g>
	<g>
		<path class="st0" d="M205.8,68.4c0.5,0,0.9,0.4,0.9,0.9s-0.4,0.9-0.9,0.9c-0.5,0-0.9-0.4-0.9-0.9S205.4,68.4,205.8,68.4z"/>
	</g>
	<g>
		<path class="st0" d="M209.1,68.4c0.5,0,0.9,0.4,0.9,0.9s-0.4,0.9-0.9,0.9c-0.5,0-0.9-0.4-0.9-0.9S208.6,68.4,209.1,68.4z"/>
	</g>
	<g>
		<path class="st0" d="M212.4,68.4c0.5,0,0.9,0.4,0.9,0.9s-0.4,0.9-0.9,0.9c-0.5,0-0.9-0.4-0.9-0.9S211.9,68.4,212.4,68.4z"/>
	</g>
	<g>
		<path class="st0" d="M215.7,68.4c0.5,0,0.9,0.4,0.9,0.9s-0.4,0.9-0.9,0.9c-0.5,0-0.9-0.4-0.9-0.9S215.2,68.4,215.7,68.4z"/>
	</g>
	<g>
		<path class="st0" d="M219,68.4c0.5,0,0.9,0.4,0.9,0.9s-0.4,0.9-0.9,0.9c-0.5,0-0.9-0.4-0.9-0.9S218.5,68.4,219,68.4z"/>
	</g>
	<g>
		<path class="st0" d="M222.3,68.4c0.5,0,0.9,0.4,0.9,0.9s-0.4,0.9-0.9,0.9c-0.5,0-0.9-0.4-0.9-0.9S221.8,68.4,222.3,68.4z"/>
	</g>
	<g>
		<path class="st0" d="M225.5,68.4c0.5,0,0.9,0.4,0.9,0.9s-0.4,0.9-0.9,0.9c-0.5,0-0.9-0.4-0.9-0.9S225.1,68.4,225.5,68.4z"/>
	</g>
	<g>
		<path class="st0" d="M228.8,68.4c0.5,0,0.9,0.4,0.9,0.9s-0.4,0.9-0.9,0.9c-0.5,0-0.9-0.4-0.9-0.9S228.3,68.4,228.8,68.4z"/>
	</g>
	<g>
		<path class="st0" d="M232.1,68.4c0.5,0,0.9,0.4,0.9,0.9s-0.4,0.9-0.9,0.9c-0.5,0-0.9-0.4-0.9-0.9S231.6,68.4,232.1,68.4z"/>
	</g>
	<g>
		<path class="st0" d="M235.4,68.4c0.5,0,0.9,0.4,0.9,0.9s-0.4,0.9-0.9,0.9c-0.5,0-0.9-0.4-0.9-0.9S234.9,68.4,235.4,68.4z"/>
	</g>
	<g>
		<path class="st0" d="M238.7,68.4c0.5,0,0.9,0.4,0.9,0.9s-0.4,0.9-0.9,0.9c-0.5,0-0.9-0.4-0.9-0.9S238.2,68.4,238.7,68.4z"/>
	</g>
	<g>
		<path class="st0" d="M189.4,65.1c0.5,0,0.9,0.4,0.9,0.9s-0.4,0.9-0.9,0.9c-0.5,0-0.9-0.4-0.9-0.9S189,65.1,189.4,65.1z"/>
	</g>
	<g>
		<path class="st0" d="M192.7,65.1c0.5,0,0.9,0.4,0.9,0.9s-0.4,0.9-0.9,0.9c-0.5,0-0.9-0.4-0.9-0.9S192.2,65.1,192.7,65.1z"/>
	</g>
	<g>
		<path class="st0" d="M196,65.1c0.5,0,0.9,0.4,0.9,0.9s-0.4,0.9-0.9,0.9c-0.5,0-0.9-0.4-0.9-0.9S195.5,65.1,196,65.1z"/>
	</g>
	<g>
		<path class="st0" d="M199.3,65.1c0.5,0,0.9,0.4,0.9,0.9s-0.4,0.9-0.9,0.9c-0.5,0-0.9-0.4-0.9-0.9S198.8,65.1,199.3,65.1z"/>
	</g>
	<g>
		<path class="st0" d="M202.6,65.1c0.5,0,0.9,0.4,0.9,0.9s-0.4,0.9-0.9,0.9c-0.5,0-0.9-0.4-0.9-0.9S202.1,65.1,202.6,65.1z"/>
	</g>
	<g>
		<path class="st0" d="M228.8,65.1c0.5,0,0.9,0.4,0.9,0.9s-0.4,0.9-0.9,0.9c-0.5,0-0.9-0.4-0.9-0.9S228.3,65.1,228.8,65.1z"/>
	</g>
	<g>
		<path class="st0" d="M232.1,65.1c0.5,0,0.9,0.4,0.9,0.9s-0.4,0.9-0.9,0.9c-0.5,0-0.9-0.4-0.9-0.9S231.6,65.1,232.1,65.1z"/>
	</g>
	<g>
		<path class="st0" d="M235.4,65.1c0.5,0,0.9,0.4,0.9,0.9s-0.4,0.9-0.9,0.9c-0.5,0-0.9-0.4-0.9-0.9S234.9,65.1,235.4,65.1z"/>
	</g>
	<g>
		<path class="st0" d="M238.7,65.1c0.5,0,0.9,0.4,0.9,0.9s-0.4,0.9-0.9,0.9c-0.5,0-0.9-0.4-0.9-0.9S238.2,65.1,238.7,65.1z"/>
	</g>
	<g>
		<path class="st0" d="M241.9,65.1c0.5,0,0.9,0.4,0.9,0.9s-0.4,0.9-0.9,0.9c-0.5,0-0.9-0.4-0.9-0.9S241.5,65.1,241.9,65.1z"/>
	</g>
	<g>
		<path class="st0" d="M186.2,61.9c0.5,0,0.9,0.4,0.9,0.9c0,0.5-0.4,0.9-0.9,0.9c-0.5,0-0.9-0.4-0.9-0.9
			C185.3,62.3,185.7,61.9,186.2,61.9z"/>
	</g>
	<g>
		<path class="st0" d="M189.4,61.9c0.5,0,0.9,0.4,0.9,0.9c0,0.5-0.4,0.9-0.9,0.9c-0.5,0-0.9-0.4-0.9-0.9
			C188.6,62.3,189,61.9,189.4,61.9z"/>
	</g>
	<g>
		<path class="st0" d="M192.7,61.9c0.5,0,0.9,0.4,0.9,0.9c0,0.5-0.4,0.9-0.9,0.9c-0.5,0-0.9-0.4-0.9-0.9
			C191.8,62.3,192.2,61.9,192.7,61.9z"/>
	</g>
	<g>
		<path class="st0" d="M196,61.9c0.5,0,0.9,0.4,0.9,0.9c0,0.5-0.4,0.9-0.9,0.9c-0.5,0-0.9-0.4-0.9-0.9
			C195.1,62.3,195.5,61.9,196,61.9z"/>
	</g>
	<g>
		<path class="st0" d="M199.3,61.9c0.5,0,0.9,0.4,0.9,0.9c0,0.5-0.4,0.9-0.9,0.9c-0.5,0-0.9-0.4-0.9-0.9
			C198.4,62.3,198.8,61.9,199.3,61.9z"/>
	</g>
	<g>
		<path class="st0" d="M202.6,61.9c0.5,0,0.9,0.4,0.9,0.9c0,0.5-0.4,0.9-0.9,0.9c-0.5,0-0.9-0.4-0.9-0.9
			C201.7,62.3,202.1,61.9,202.6,61.9z"/>
	</g>
	<g>
		<path class="st0" d="M212.4,61.9c0.5,0,0.9,0.4,0.9,0.9c0,0.5-0.4,0.9-0.9,0.9c-0.5,0-0.9-0.4-0.9-0.9
			C211.5,62.3,211.9,61.9,212.4,61.9z"/>
	</g>
	<g>
		<path class="st0" d="M215.7,61.9c0.5,0,0.9,0.4,0.9,0.9c0,0.5-0.4,0.9-0.9,0.9c-0.5,0-0.9-0.4-0.9-0.9
			C214.8,62.3,215.2,61.9,215.7,61.9z"/>
	</g>
	<g>
		<path class="st0" d="M219,61.9c0.5,0,0.9,0.4,0.9,0.9c0,0.5-0.4,0.9-0.9,0.9c-0.5,0-0.9-0.4-0.9-0.9
			C218.1,62.3,218.5,61.9,219,61.9z"/>
	</g>
	<g>
		<path class="st0" d="M222.3,61.9c0.5,0,0.9,0.4,0.9,0.9c0,0.5-0.4,0.9-0.9,0.9c-0.5,0-0.9-0.4-0.9-0.9
			C221.4,62.3,221.8,61.9,222.3,61.9z"/>
	</g>
	<g>
		<path class="st0" d="M225.5,61.9c0.5,0,0.9,0.4,0.9,0.9c0,0.5-0.4,0.9-0.9,0.9c-0.5,0-0.9-0.4-0.9-0.9
			C224.7,62.3,225.1,61.9,225.5,61.9z"/>
	</g>
	<g>
		<path class="st0" d="M228.8,61.9c0.5,0,0.9,0.4,0.9,0.9c0,0.5-0.4,0.9-0.9,0.9c-0.5,0-0.9-0.4-0.9-0.9
			C227.9,62.3,228.3,61.9,228.8,61.9z"/>
	</g>
	<g>
		<path class="st0" d="M232.1,61.9c0.5,0,0.9,0.4,0.9,0.9c0,0.5-0.4,0.9-0.9,0.9c-0.5,0-0.9-0.4-0.9-0.9
			C231.2,62.3,231.6,61.9,232.1,61.9z"/>
	</g>
	<g>
		<path class="st0" d="M235.4,61.9c0.5,0,0.9,0.4,0.9,0.9c0,0.5-0.4,0.9-0.9,0.9c-0.5,0-0.9-0.4-0.9-0.9
			C234.5,62.3,234.9,61.9,235.4,61.9z"/>
	</g>
	<g>
		<path class="st0" d="M238.7,61.9c0.5,0,0.9,0.4,0.9,0.9c0,0.5-0.4,0.9-0.9,0.9c-0.5,0-0.9-0.4-0.9-0.9
			C237.8,62.3,238.2,61.9,238.7,61.9z"/>
	</g>
	<g>
		<path class="st0" d="M241.9,61.9c0.5,0,0.9,0.4,0.9,0.9c0,0.5-0.4,0.9-0.9,0.9c-0.5,0-0.9-0.4-0.9-0.9
			C241.1,62.3,241.5,61.9,241.9,61.9z"/>
	</g>
	<g>
		<path class="st0" d="M245.2,61.9c0.5,0,0.9,0.4,0.9,0.9c0,0.5-0.4,0.9-0.9,0.9c-0.5,0-0.9-0.4-0.9-0.9
			C244.4,62.3,244.7,61.9,245.2,61.9z"/>
	</g>
	<g>
		<path class="st0" d="M182.9,58.6c0.5,0,0.9,0.4,0.9,0.9s-0.4,0.9-0.9,0.9s-0.9-0.4-0.9-0.9S182.4,58.6,182.9,58.6z"/>
	</g>
	<g>
		<path class="st0" d="M186.2,58.6c0.5,0,0.9,0.4,0.9,0.9s-0.4,0.9-0.9,0.9c-0.5,0-0.9-0.4-0.9-0.9S185.7,58.6,186.2,58.6z"/>
	</g>
	<g>
		<path class="st0" d="M189.4,58.6c0.5,0,0.9,0.4,0.9,0.9s-0.4,0.9-0.9,0.9c-0.5,0-0.9-0.4-0.9-0.9S189,58.6,189.4,58.6z"/>
	</g>
	<g>
		<path class="st0" d="M192.7,58.6c0.5,0,0.9,0.4,0.9,0.9s-0.4,0.9-0.9,0.9c-0.5,0-0.9-0.4-0.9-0.9S192.2,58.6,192.7,58.6z"/>
	</g>
	<g>
		<path class="st0" d="M196,58.6c0.5,0,0.9,0.4,0.9,0.9s-0.4,0.9-0.9,0.9c-0.5,0-0.9-0.4-0.9-0.9S195.5,58.6,196,58.6z"/>
	</g>
	<g>
		<path class="st0" d="M199.3,58.6c0.5,0,0.9,0.4,0.9,0.9s-0.4,0.9-0.9,0.9c-0.5,0-0.9-0.4-0.9-0.9S198.8,58.6,199.3,58.6z"/>
	</g>
	<g>
		<path class="st0" d="M202.6,58.6c0.5,0,0.9,0.4,0.9,0.9s-0.4,0.9-0.9,0.9c-0.5,0-0.9-0.4-0.9-0.9S202.1,58.6,202.6,58.6z"/>
	</g>
	<g>
		<path class="st0" d="M212.4,58.6c0.5,0,0.9,0.4,0.9,0.9s-0.4,0.9-0.9,0.9c-0.5,0-0.9-0.4-0.9-0.9S211.9,58.6,212.4,58.6z"/>
	</g>
	<g>
		<path class="st0" d="M215.7,58.6c0.5,0,0.9,0.4,0.9,0.9s-0.4,0.9-0.9,0.9c-0.5,0-0.9-0.4-0.9-0.9S215.2,58.6,215.7,58.6z"/>
	</g>
	<g>
		<path class="st0" d="M219,58.6c0.5,0,0.9,0.4,0.9,0.9s-0.4,0.9-0.9,0.9c-0.5,0-0.9-0.4-0.9-0.9S218.5,58.6,219,58.6z"/>
	</g>
	<g>
		<path class="st0" d="M222.3,58.6c0.5,0,0.9,0.4,0.9,0.9s-0.4,0.9-0.9,0.9c-0.5,0-0.9-0.4-0.9-0.9S221.8,58.6,222.3,58.6z"/>
	</g>
	<g>
		<path class="st0" d="M225.5,58.6c0.5,0,0.9,0.4,0.9,0.9s-0.4,0.9-0.9,0.9c-0.5,0-0.9-0.4-0.9-0.9S225.1,58.6,225.5,58.6z"/>
	</g>
	<g>
		<path class="st0" d="M228.8,58.6c0.5,0,0.9,0.4,0.9,0.9s-0.4,0.9-0.9,0.9c-0.5,0-0.9-0.4-0.9-0.9S228.3,58.6,228.8,58.6z"/>
	</g>
	<g>
		<path class="st0" d="M232.1,58.6c0.5,0,0.9,0.4,0.9,0.9s-0.4,0.9-0.9,0.9c-0.5,0-0.9-0.4-0.9-0.9S231.6,58.6,232.1,58.6z"/>
	</g>
	<g>
		<path class="st0" d="M235.4,58.6c0.5,0,0.9,0.4,0.9,0.9s-0.4,0.9-0.9,0.9c-0.5,0-0.9-0.4-0.9-0.9S234.9,58.6,235.4,58.6z"/>
	</g>
	<g>
		<path class="st0" d="M238.7,58.6c0.5,0,0.9,0.4,0.9,0.9s-0.4,0.9-0.9,0.9c-0.5,0-0.9-0.4-0.9-0.9S238.2,58.6,238.7,58.6z"/>
	</g>
	<g>
		<path class="st0" d="M241.9,58.6c0.5,0,0.9,0.4,0.9,0.9s-0.4,0.9-0.9,0.9c-0.5,0-0.9-0.4-0.9-0.9S241.5,58.6,241.9,58.6z"/>
	</g>
	<g>
		<path class="st0" d="M245.2,58.6c0.5,0,0.9,0.4,0.9,0.9s-0.4,0.9-0.9,0.9c-0.5,0-0.9-0.4-0.9-0.9S244.7,58.6,245.2,58.6z"/>
	</g>
	<g>
		<path class="st0" d="M248.5,58.6c0.5,0,0.9,0.4,0.9,0.9s-0.4,0.9-0.9,0.9c-0.5,0-0.9-0.4-0.9-0.9S248,58.6,248.5,58.6z"/>
	</g>
	<g>
		<path class="st0" d="M179.6,55.3c0.5,0,0.9,0.4,0.9,0.9s-0.4,0.9-0.9,0.9s-0.9-0.4-0.9-0.9S179.1,55.3,179.6,55.3z"/>
	</g>
	<g>
		<path class="st0" d="M182.9,55.3c0.5,0,0.9,0.4,0.9,0.9s-0.4,0.9-0.9,0.9s-0.9-0.4-0.9-0.9S182.4,55.3,182.9,55.3z"/>
	</g>
	<g>
		<path class="st0" d="M186.2,55.3c0.5,0,0.9,0.4,0.9,0.9s-0.4,0.9-0.9,0.9c-0.5,0-0.9-0.4-0.9-0.9S185.7,55.3,186.2,55.3z"/>
	</g>
	<g>
		<path class="st0" d="M189.4,55.3c0.5,0,0.9,0.4,0.9,0.9s-0.4,0.9-0.9,0.9c-0.5,0-0.9-0.4-0.9-0.9S189,55.3,189.4,55.3z"/>
	</g>
	<g>
		<path class="st0" d="M192.7,55.3c0.5,0,0.9,0.4,0.9,0.9s-0.4,0.9-0.9,0.9c-0.5,0-0.9-0.4-0.9-0.9S192.2,55.3,192.7,55.3z"/>
	</g>
	<g>
		<path class="st0" d="M196,55.3c0.5,0,0.9,0.4,0.9,0.9s-0.4,0.9-0.9,0.9c-0.5,0-0.9-0.4-0.9-0.9S195.5,55.3,196,55.3z"/>
	</g>
	<g>
		<path class="st0" d="M199.3,55.3c0.5,0,0.9,0.4,0.9,0.9s-0.4,0.9-0.9,0.9c-0.5,0-0.9-0.4-0.9-0.9S198.8,55.3,199.3,55.3z"/>
	</g>
	<g>
		<path class="st0" d="M202.6,55.3c0.5,0,0.9,0.4,0.9,0.9s-0.4,0.9-0.9,0.9c-0.5,0-0.9-0.4-0.9-0.9S202.1,55.3,202.6,55.3z"/>
	</g>
	<g>
		<path class="st0" d="M212.4,55.3c0.5,0,0.9,0.4,0.9,0.9s-0.4,0.9-0.9,0.9c-0.5,0-0.9-0.4-0.9-0.9S211.9,55.3,212.4,55.3z"/>
	</g>
	<g>
		<path class="st0" d="M215.7,55.3c0.5,0,0.9,0.4,0.9,0.9s-0.4,0.9-0.9,0.9c-0.5,0-0.9-0.4-0.9-0.9S215.2,55.3,215.7,55.3z"/>
	</g>
	<g>
		<path class="st0" d="M219,55.3c0.5,0,0.9,0.4,0.9,0.9s-0.4,0.9-0.9,0.9c-0.5,0-0.9-0.4-0.9-0.9S218.5,55.3,219,55.3z"/>
	</g>
	<g>
		<path class="st0" d="M222.3,55.3c0.5,0,0.9,0.4,0.9,0.9s-0.4,0.9-0.9,0.9c-0.5,0-0.9-0.4-0.9-0.9S221.8,55.3,222.3,55.3z"/>
	</g>
	<g>
		<path class="st0" d="M225.5,55.3c0.5,0,0.9,0.4,0.9,0.9s-0.4,0.9-0.9,0.9c-0.5,0-0.9-0.4-0.9-0.9S225.1,55.3,225.5,55.3z"/>
	</g>
	<g>
		<path class="st0" d="M228.8,55.3c0.5,0,0.9,0.4,0.9,0.9s-0.4,0.9-0.9,0.9c-0.5,0-0.9-0.4-0.9-0.9S228.3,55.3,228.8,55.3z"/>
	</g>
	<g>
		<path class="st0" d="M232.1,55.3c0.5,0,0.9,0.4,0.9,0.9s-0.4,0.9-0.9,0.9c-0.5,0-0.9-0.4-0.9-0.9S231.6,55.3,232.1,55.3z"/>
	</g>
	<g>
		<path class="st0" d="M235.4,55.3c0.5,0,0.9,0.4,0.9,0.9s-0.4,0.9-0.9,0.9c-0.5,0-0.9-0.4-0.9-0.9S234.9,55.3,235.4,55.3z"/>
	</g>
	<g>
		<path class="st0" d="M238.7,55.3c0.5,0,0.9,0.4,0.9,0.9s-0.4,0.9-0.9,0.9c-0.5,0-0.9-0.4-0.9-0.9S238.2,55.3,238.7,55.3z"/>
	</g>
	<g>
		<path class="st0" d="M241.9,55.3c0.5,0,0.9,0.4,0.9,0.9s-0.4,0.9-0.9,0.9c-0.5,0-0.9-0.4-0.9-0.9S241.5,55.3,241.9,55.3z"/>
	</g>
	<g>
		<path class="st0" d="M245.2,55.3c0.5,0,0.9,0.4,0.9,0.9s-0.4,0.9-0.9,0.9c-0.5,0-0.9-0.4-0.9-0.9S244.7,55.3,245.2,55.3z"/>
	</g>
	<g>
		<path class="st0" d="M248.5,55.3c0.5,0,0.9,0.4,0.9,0.9s-0.4,0.9-0.9,0.9c-0.5,0-0.9-0.4-0.9-0.9S248,55.3,248.5,55.3z"/>
	</g>
	<g>
		<path class="st0" d="M251.8,55.3c0.5,0,0.9,0.4,0.9,0.9s-0.4,0.9-0.9,0.9c-0.5,0-0.9-0.4-0.9-0.9S251.3,55.3,251.8,55.3z"/>
	</g>
	<g>
		<path class="st0" d="M176.3,52c0.5,0,0.9,0.4,0.9,0.9s-0.4,0.9-0.9,0.9s-0.9-0.4-0.9-0.9S175.8,52,176.3,52z"/>
	</g>
	<g>
		<path class="st0" d="M179.6,52c0.5,0,0.9,0.4,0.9,0.9s-0.4,0.9-0.9,0.9s-0.9-0.4-0.9-0.9S179.1,52,179.6,52z"/>
	</g>
	<g>
		<path class="st0" d="M182.9,52c0.5,0,0.9,0.4,0.9,0.9s-0.4,0.9-0.9,0.9s-0.9-0.4-0.9-0.9S182.4,52,182.9,52z"/>
	</g>
	<g>
		<path class="st0" d="M186.2,52c0.5,0,0.9,0.4,0.9,0.9s-0.4,0.9-0.9,0.9c-0.5,0-0.9-0.4-0.9-0.9S185.7,52,186.2,52z"/>
	</g>
	<g>
		<path class="st0" d="M189.4,52c0.5,0,0.9,0.4,0.9,0.9s-0.4,0.9-0.9,0.9c-0.5,0-0.9-0.4-0.9-0.9S189,52,189.4,52z"/>
	</g>
	<g>
		<path class="st0" d="M192.7,52c0.5,0,0.9,0.4,0.9,0.9s-0.4,0.9-0.9,0.9c-0.5,0-0.9-0.4-0.9-0.9S192.2,52,192.7,52z"/>
	</g>
	<g>
		<path class="st0" d="M196,52c0.5,0,0.9,0.4,0.9,0.9s-0.4,0.9-0.9,0.9c-0.5,0-0.9-0.4-0.9-0.9S195.5,52,196,52z"/>
	</g>
	<g>
		<path class="st0" d="M199.3,52c0.5,0,0.9,0.4,0.9,0.9s-0.4,0.9-0.9,0.9c-0.5,0-0.9-0.4-0.9-0.9S198.8,52,199.3,52z"/>
	</g>
	<g>
		<path class="st0" d="M202.6,52c0.5,0,0.9,0.4,0.9,0.9s-0.4,0.9-0.9,0.9c-0.5,0-0.9-0.4-0.9-0.9S202.1,52,202.6,52z"/>
	</g>
	<g>
		<path class="st0" d="M212.4,52c0.5,0,0.9,0.4,0.9,0.9s-0.4,0.9-0.9,0.9c-0.5,0-0.9-0.4-0.9-0.9S211.9,52,212.4,52z"/>
	</g>
	<g>
		<path class="st0" d="M215.7,52c0.5,0,0.9,0.4,0.9,0.9s-0.4,0.9-0.9,0.9c-0.5,0-0.9-0.4-0.9-0.9S215.2,52,215.7,52z"/>
	</g>
	<g>
		<path class="st0" d="M219,52c0.5,0,0.9,0.4,0.9,0.9s-0.4,0.9-0.9,0.9c-0.5,0-0.9-0.4-0.9-0.9S218.5,52,219,52z"/>
	</g>
	<g>
		<path class="st0" d="M222.3,52c0.5,0,0.9,0.4,0.9,0.9s-0.4,0.9-0.9,0.9c-0.5,0-0.9-0.4-0.9-0.9S221.8,52,222.3,52z"/>
	</g>
	<g>
		<path class="st0" d="M225.5,52c0.5,0,0.9,0.4,0.9,0.9s-0.4,0.9-0.9,0.9c-0.5,0-0.9-0.4-0.9-0.9S225.1,52,225.5,52z"/>
	</g>
	<g>
		<path class="st0" d="M228.8,52c0.5,0,0.9,0.4,0.9,0.9s-0.4,0.9-0.9,0.9c-0.5,0-0.9-0.4-0.9-0.9S228.3,52,228.8,52z"/>
	</g>
	<g>
		<path class="st0" d="M232.1,52c0.5,0,0.9,0.4,0.9,0.9s-0.4,0.9-0.9,0.9c-0.5,0-0.9-0.4-0.9-0.9S231.6,52,232.1,52z"/>
	</g>
	<g>
		<path class="st0" d="M235.4,52c0.5,0,0.9,0.4,0.9,0.9s-0.4,0.9-0.9,0.9c-0.5,0-0.9-0.4-0.9-0.9S234.9,52,235.4,52z"/>
	</g>
	<g>
		<path class="st0" d="M238.7,52c0.5,0,0.9,0.4,0.9,0.9s-0.4,0.9-0.9,0.9c-0.5,0-0.9-0.4-0.9-0.9S238.2,52,238.7,52z"/>
	</g>
	<g>
		<path class="st0" d="M241.9,52c0.5,0,0.9,0.4,0.9,0.9s-0.4,0.9-0.9,0.9c-0.5,0-0.9-0.4-0.9-0.9S241.5,52,241.9,52z"/>
	</g>
	<g>
		<path class="st0" d="M245.2,52c0.5,0,0.9,0.4,0.9,0.9s-0.4,0.9-0.9,0.9c-0.5,0-0.9-0.4-0.9-0.9S244.7,52,245.2,52z"/>
	</g>
	<g>
		<path class="st0" d="M248.5,52c0.5,0,0.9,0.4,0.9,0.9s-0.4,0.9-0.9,0.9c-0.5,0-0.9-0.4-0.9-0.9S248,52,248.5,52z"/>
	</g>
	<g>
		<path class="st0" d="M251.8,52c0.5,0,0.9,0.4,0.9,0.9s-0.4,0.9-0.9,0.9c-0.5,0-0.9-0.4-0.9-0.9S251.3,52,251.8,52z"/>
	</g>
	<g>
		<path class="st0" d="M255.1,52c0.5,0,0.9,0.4,0.9,0.9s-0.4,0.9-0.9,0.9c-0.5,0-0.9-0.4-0.9-0.9S254.6,52,255.1,52z"/>
	</g>
	<g>
		<rect x="205" y="32.2" class="st0" width="21.4" height="1.9"/>
	</g>
	<g>
		<rect x="205" y="65.1" class="st0" width="21.4" height="1.9"/>
	</g>
	<g>
		<rect x="205" y="48.6" class="st0" width="14.9" height="1.9"/>
	</g>
</g>
</svg>
