<svg width="109" height="24" viewBox="0 0 109 24" fill="none" xmlns="http://www.w3.org/2000/svg">
<path d="M12.0649 23.1974C11.0938 23.5235 9.94646 23.6866 8.63201 23.6866C7.27239 23.6866 6.06183 23.4117 5.00033 22.8573C3.93432 22.3075 3.03543 21.5341 2.29464 20.5417C1.55385 19.5493 0.989225 18.3613 0.591728 16.9682C0.198748 15.5891 0 14.0423 0 12.3464C0 10.6505 0.198748 9.10369 0.591728 7.70131C0.984708 6.30359 1.54933 5.0969 2.27657 4.08588C3.00833 3.07486 3.88011 2.29214 4.90547 1.74237C5.93084 1.18794 7.07364 0.913055 8.32937 0.913055C9.78836 0.913055 11.008 1.16464 11.9927 1.66316C12.9774 2.16634 13.7498 2.79066 14.3189 3.55009L11.6765 7.13757C10.9447 6.11723 9.94646 5.60473 8.68621 5.60473C8.01318 5.60473 7.435 5.78178 6.94716 6.14053C6.45933 6.49927 6.0528 6.98382 5.72757 7.59415C5.40235 8.20915 5.16294 8.92199 5.00937 9.74198C4.85579 10.5573 4.779 11.4286 4.779 12.3464C4.779 13.2642 4.85127 14.1355 4.9913 14.9508C5.13584 15.7662 5.36169 16.4837 5.67788 17.0986C5.99407 17.7136 6.39157 18.2028 6.87037 18.5709C7.34918 18.939 7.92284 19.1207 8.59587 19.1207C9.32763 19.1207 9.90129 18.9669 10.3078 18.6594V14.6107H7.99511V10.3477H14.5628V21.9068C13.8717 22.4426 13.0406 22.8712 12.0649 23.1974Z" fill="black"/>
<path d="M18.5107 23.1974V1.49545H28.9089V5.81907H23.1633V10.0821H28.4527V14.1262H23.1633V18.7852H29.2703V23.1974H18.5107Z" fill="black"/>
<path d="M42.6451 23.1974L37.6584 9.98893H37.568L37.69 23.202H33.3446V1.49545H38.6927L43.6479 14.8903H43.7382L43.6479 1.49545H47.8442V23.1974H42.6451Z" fill="black"/>
<path d="M84.9108 18.5383C84.6353 19.5819 84.2062 20.4905 83.619 21.2685C83.0318 22.0466 82.2729 22.6569 81.3379 23.1089C80.4074 23.5561 79.2826 23.7844 77.9637 23.7844C76.6447 23.7844 75.5335 23.5608 74.6211 23.1089C73.7086 22.6616 72.9633 22.0466 72.3852 21.2685C71.807 20.4905 71.3914 19.5819 71.1385 18.5383C70.8855 17.4947 70.759 16.3718 70.759 15.1651V1.49545H75.651V14.7365C75.651 15.3515 75.6871 15.9199 75.7594 16.4511C75.8316 16.9822 75.9581 17.4388 76.1388 17.8162C76.3195 18.1935 76.5634 18.4964 76.8705 18.72C77.1732 18.9437 77.5707 19.0555 78.054 19.0555C78.5418 19.0555 78.9348 18.9437 79.2375 18.72C79.5401 18.4964 79.784 18.1935 79.9692 17.8162C80.1499 17.4388 80.2764 16.9822 80.3487 16.4511C80.4209 15.9199 80.4571 15.3469 80.4571 14.7365V1.49545H85.3219V15.1698C85.3219 16.3718 85.1864 17.4993 84.9108 18.5383Z" fill="black"/>
<path d="M104.225 23.1974L104.406 8.29769H104.284L100.666 23.1974H97.2331L93.737 8.29769H93.6466L93.8002 23.1974H89.3916V1.49545H95.5302L98.9948 15.4726H99.1167L102.491 1.49545H108.995V23.1974H104.225Z" fill="black"/>
<path d="M62.005 15.4261H56.6433V23.1694H62.005V15.4261Z" fill="black"/>
<path d="M59.3264 10.4548L62.3392 1.50476H68.3649L63.4865 12.4862H58.4681H55.1707L50.2878 1.50476H56.3135L59.3264 10.4548Z" fill="black"/>
</svg>
