<svg aria-hidden="true" class="m-auto w-auto transition-[height] duration-500 ease-out" fill="nonde" height="24" viewBox="0 0 101 24" width="101" xmlns="http://www.w3.org/2000/svg"><path d="M100.561 1.7801V0.975028H89.2453V1.7801H90.9986V17.2106L80.4522 0.983973H75.5413V1.78904H77.2946V22.4793H74.2532L66.614 0L58.7153 22.4704H55.7903V1.7801H57.5525V0.975028H52.9099L47.0597 17.9262L40.9233 0.975028H36.3702V1.7801H38.1235V22.4704H34.6438C33.6598 22.4704 32.7921 21.5937 32.7921 20.0999V16.8349C32.7921 14.3392 31.9781 12.237 29.4824 11.5304C31.6561 10.8684 33.1768 8.7842 33.1768 6.56578C33.1768 3.39918 30.8152 0.983973 26.2442 0.983973H19.3743V1.78904H21.1276V22.4793H17.5853L9.94606 0L2.04744 22.4704H0.490967V23.2754H4.90096V22.4704H2.9509L5.15143 16.1998H12.3255L14.4276 22.4704H11.7351V23.2754H26.7183V22.4704H24.0079V11.924H25.8238C28.4805 11.924 29.8134 13.0153 29.8134 15.5915V17.5058C29.8134 22.0499 32.81 23.2665 34.438 23.2665H40.8518V22.4614H38.9375V4.14163L46.1384 23.4991L52.9367 3.56019V22.4525H51.1835V23.2575H61.5868V22.4525H59.6367L61.8372 16.1819H69.0113L71.1134 22.4525H68.4209V23.2575H79.8797V22.4525H78.1175V2.92508L91.8216 24V1.7801H95.9543V22.4704H94.201V23.2754H100.579V22.4704H98.8257V1.7801H100.579H100.561ZM5.41979 15.4037L8.78318 5.63548L12.0661 15.4037H5.41083H5.41979ZM25.8149 11.1189H23.999V1.7801H25.5107C28.1853 1.7801 29.9833 3.49758 29.9833 6.68207C29.9833 8.43533 28.6147 11.1189 25.8238 11.1189H25.8149ZM62.0966 15.4037L65.46 5.63548L68.7429 15.4037H62.0877H62.0966Z" fill="currentColor"></path></svg>