<svg version="1.1" id="Layer_1" xmlns="http://www.w3.org/2000/svg" xmlns:xlink="http://www.w3.org/1999/xlink" x="0px" y="0px" viewBox="0 0 367.8 50.5" style="enable-background:new 0 0 367.8 50.5;" xml:space="preserve">
 <style type="text/css">
  .st0{clip-path:url(#SVGID_00000171696129725618607740000001753540585683414422_);fill:#010101;}
 </style>
 <g>
  <defs>
   <rect id="SVGID_1_" y="0" width="367.8" height="50.5">
   </rect>
  </defs>
  <clipPath id="SVGID_00000028303264304946828320000017613619744658815675_">
   <use href="#SVGID_1_" style="overflow:visible;">
   </use>
  </clipPath>
  <path style="clip-path:url(#SVGID_00000028303264304946828320000017613619744658815675_);fill:#010101;" d="M192.2,49.3l-14.9-16.2
		h-7.5v16.2h-7.7V1.2h20.3c8.8,0,15.9,7.1,15.9,15.9c0,11.9-10.2,15.2-11.6,15.4c0,0,15.3,16.8,15.3,16.8H192.2z M169.8,25.4h12.6
		c4.5,0,8.2-3.7,8.2-8.2s-3.7-8.2-8.2-8.2h-12.6V25.4z">
  </path>
  <path style="clip-path:url(#SVGID_00000028303264304946828320000017613619744658815675_);fill:#010101;" d="M25.1,50.5
		C11,50.5,0,39.4,0,25.3S11.1,0,25.2,0c8.3,0,15.2,3.4,20,9.7l-6.5,4.8c-3.1-4.4-7.9-6.8-13.5-6.8c-9.6,0-16.8,7.4-16.8,17.5
		c0,10.2,7.1,17.5,16.7,17.5l0.2,0c8.3,0,14.5-4.9,16.1-12.7l0.1-0.4l-14.7,0l0-7.7l23.3,0l0,3.8c0,6.7-2.4,12.6-7.1,17.4
		c-4.6,4.7-10.9,7.3-17.7,7.3L25.1,50.5z">
  </path>
  <path style="clip-path:url(#SVGID_00000028303264304946828320000017613619744658815675_);fill:#010101;" d="M82.4,50.5
		c-11.5,0-20.9-9.4-20.9-20.9V1.2h7.7v28.4c0,7.3,5.9,13.3,13.3,13.3c7.3,0,13.3-5.9,13.3-13.3V1.2h7.7v28.4
		C103.3,41.1,93.9,50.5,82.4,50.5">
  </path>
  <polygon style="clip-path:url(#SVGID_00000028303264304946828320000017613619744658815675_);fill:#010101;" points="116.1,49.3 
		116.1,1.2 149.1,1.2 149.1,8.9 123.8,8.9 123.8,21.4 147.2,21.4 147.2,29.1 123.8,29.1 123.8,41.6 149.1,41.6 149.1,49.3 	">
  </polygon>
  <polygon style="clip-path:url(#SVGID_00000028303264304946828320000017613619744658815675_);fill:#010101;" points="212.9,49.3 
		212.9,1.2 220.5,1.2 220.5,41.6 241.7,41.6 241.7,49.3 	">
  </polygon>
  <path style="clip-path:url(#SVGID_00000028303264304946828320000017613619744658815675_);fill:#010101;" d="M286.6,49.3L282,38.1
		h-21.4l-4.5,11.2h-8.3l19.3-48.1h8.4l19.3,48.1H286.6z M263.6,30.5H279L271.3,11L263.6,30.5z">
  </path>
  <rect x="304" y="1.2" style="clip-path:url(#SVGID_00000028303264304946828320000017613619744658815675_);fill:#010101;" width="7.7" height="48.1">
  </rect>
  <polygon style="clip-path:url(#SVGID_00000028303264304946828320000017613619744658815675_);fill:#010101;" points="359.8,49.3 
		333.3,13.7 333.3,49.3 325.6,49.3 325.6,1.2 333.6,1.2 360.1,36.9 360.1,1.2 367.8,1.2 367.8,49.3 	">
  </polygon>
 </g>
</svg>