<svg xmlns="http://www.w3.org/2000/svg" viewBox="0 0 1005 124"><path d="M79.9 8v42.5H40.2V8H9v113.4h31.2V76h39.7v45.4h31.2V8zM189 124.2c-25.5-.1-51-17-51-51V8h31.2v68c0 14.2 11.4 19.8 19.9 19.8S209 90.1 209 76V8h31v65.2c0 34-25.5 51.1-51 51zM319.4 124.2c-32.6 0-59.5-25.5-59.5-59.5s26.9-59.5 59.5-59.5c22.7 0 36.8 11.3 36.8 11.3l-17.7 22s-6.4-5.7-19.1-5.7c-17 0-29 14.9-29 31.9s12 31.2 29 31.2c14.2 0 21.3-5.7 21.3-5.7V76h-24.1V51.2h51v53.2s-15.6 19.8-48.2 19.8zM445.6 33.5c-17 0-29 14.2-29 31.2s12 31.2 29 31.2 29-14.2 29-31.2-12-31.2-29-31.2zm0 90.7c-32.6 0-59.5-25.5-59.5-59.5S413 5.2 445.6 5.2s59.5 25.5 59.5 59.5-26.9 59.5-59.5 59.5zM744.6 33.5c-17 0-29 14.2-29 31.2s12 31.2 29 31.2 29-14.2 29-31.2c.1-17-12-31.2-29-31.2zm0 90.7c-32.6 0-59.5-25.5-59.5-59.5S712 5.2 744.6 5.2s59.5 25.5 59.5 59.5-26.9 59.5-59.5 59.5zM870.8 88.8c0 4.2-4.2 7.8-11.3 7.8C843.9 96.6 834 86 834 86l-17 22.7s14.2 15.6 42.5 15.6c22.7 0 42.5-14.2 42.5-35.4 0-34-53.9-36.9-53.9-48.2 0-4.2 5.7-7.8 14.2-7.8 11.3 0 17.7 5.7 17.7 5.7l16.3-22S882.1 5.3 859.5 5.3c-21.3 0-39.7 15.6-39.7 35.4-.1 33.9 51 35.3 51 48.1zM653.9 59c5-6.4 7.1-12.7 7.1-19.8C661 21.9 647 8 629.8 8H576v113.4h58.8c19.2 0 34.7-15.6 34.7-34.7 0-11.9-5.7-22-15.6-27.7zM605 32.8h17.7c5.5 0 9.9 4.4 9.9 9.9s-4.4 9.9-9.9 9.9H605V32.8zm23.4 63.1H605V74.6h23.4c5.9 0 10.6 4.8 10.6 10.6 0 5.9-4.7 10.7-10.6 10.7zM970 88.8c0 4.2-4.2 7.8-11.3 7.8-15.6 0-25.5-10.6-25.5-10.6l-17 22.7s14.2 15.6 42.5 15.6c22.7 0 42.5-14.2 42.5-35.4 0-34-53.9-36.9-53.9-48.2 0-4.2 5.7-7.8 14.2-7.8 11.3 0 17.7 5.7 17.7 5.7l16.3-22S981.3 5.3 958.7 5.3c-21.3 0-39.7 15.6-39.7 35.4-.1 33.9 51 35.3 51 48.1z"/></svg>
