<svg id="Calque_1" style="enable-background:new 0 0 458 61;" version="1.1" viewBox="0 0 458 61" x="0px" xml:space="preserve" xmlns="http://www.w3.org/2000/svg" xmlns:xlink="http://www.w3.org/1999/xlink" y="0px">
<style type="text/css">
	.st0{fill:#DD0031;}
</style>
<g>
<g>
<g>
<path d="M45.1,39.5c-0.2-0.8-0.3-1.7-0.3-2.6c-1.8,1.7-3.9,2.6-6.4,2.6c-1.8,0-3.2-0.4-4.3-1.2c-1.1-0.8-1.6-2-1.6-3.5v-7.1
				l0-1.5c0-0.9-0.1-1.6-0.2-2c-0.1-0.4-0.3-0.8-0.6-1.1c-0.4-0.4-1.2-0.6-2.2-0.8v-0.5h6.3v10.4c0,1.5,0.1,2.5,0.2,3.2
				c0.1,0.7,0.3,1.3,0.6,1.7c0.3,0.5,0.8,0.8,1.4,1.1c0.6,0.3,1.2,0.4,2,0.4c0.8,0,1.6-0.2,2.3-0.5c0.7-0.3,1.3-0.7,1.7-1.2
				c0.4-0.5,0.7-1.1,0.8-1.8c0.1-0.7,0.2-1.8,0.2-3.4v-4l0-1.5c0-0.9-0.1-1.6-0.2-2c-0.1-0.4-0.3-0.8-0.7-1.1
				c-0.4-0.4-1.1-0.6-2.2-0.8v-0.5H48v11.1c0,1.4,0,2.4,0.1,2.9c0.1,0.6,0.2,1,0.5,1.4c0.3,0.4,0.6,0.7,0.9,0.8
				c0.3,0.2,0.8,0.3,1.5,0.3v0.4L45.1,39.5z"></path>
<path d="M45,39.6l0-0.1c-0.2-0.7-0.3-1.5-0.3-2.3c-1.8,1.6-3.9,2.4-6.2,2.4c-1.8,0-3.3-0.4-4.4-1.3c-1.1-0.8-1.6-2-1.6-3.6v-7.1
				l0-1.5c0-0.9-0.1-1.6-0.2-2c-0.1-0.4-0.3-0.7-0.6-1c-0.4-0.3-1.1-0.6-2.2-0.8l-0.1,0v-0.7h6.6v10.5c0,1.5,0.1,2.5,0.2,3.2
				c0.1,0.7,0.3,1.3,0.6,1.7c0.3,0.4,0.7,0.8,1.3,1c0.6,0.3,1.2,0.4,1.9,0.4c0.8,0,1.5-0.1,2.2-0.4c0.7-0.3,1.2-0.7,1.6-1.2
				c0.4-0.5,0.7-1.1,0.8-1.8c0.1-0.7,0.2-1.8,0.2-3.4v-4l0-1.5c0-0.9-0.1-1.6-0.2-2c-0.1-0.4-0.3-0.7-0.6-1
				c-0.4-0.3-1.1-0.6-2.2-0.8l-0.1,0v-0.7h6.6v11.2c0,1.4,0,2.4,0.1,2.9c0.1,0.5,0.2,1,0.4,1.3c0.2,0.4,0.5,0.6,0.9,0.8
				c0.3,0.2,0.8,0.3,1.4,0.3l0.1,0v0.7l-0.1,0L45,39.6z M29.5,22.1c1.1,0.2,1.8,0.5,2.2,0.8c0.3,0.3,0.6,0.7,0.7,1.1
				c0.1,0.4,0.2,1.1,0.2,2.1l0,1.5v7.1c0,1.5,0.5,2.6,1.5,3.4c1.1,0.8,2.5,1.2,4.2,1.2c2.4,0,4.5-0.8,6.3-2.5l0.2-0.2v0.3
				c0,0.8,0.1,1.6,0.3,2.4l5.7-0.7v-0.2c-0.6,0-1.1-0.2-1.4-0.3c-0.4-0.2-0.7-0.5-1-0.9c-0.2-0.4-0.4-0.9-0.5-1.4
				c-0.1-0.6-0.1-1.5-0.1-3v-11h-6.1v0.2c1.1,0.2,1.8,0.5,2.2,0.8c0.3,0.3,0.6,0.7,0.7,1.1c0.1,0.4,0.2,1.1,0.2,2.1l0,1.5v4
				c0,1.6-0.1,2.8-0.2,3.5c-0.1,0.7-0.4,1.3-0.8,1.9c-0.4,0.5-1,1-1.7,1.3c-0.7,0.3-1.5,0.5-2.3,0.5c-0.7,0-1.4-0.1-2-0.4
				c-0.6-0.3-1.1-0.7-1.4-1.1c-0.3-0.5-0.5-1-0.6-1.8c-0.1-0.7-0.2-1.8-0.2-3.3V21.9h-6.1V22.1z"></path>
</g>
<g>
<path d="M53.5,11.1l6.2-0.7v22.8l0,1.6c0,0.9,0.1,1.6,0.2,2c0.1,0.4,0.3,0.8,0.7,1.1c0.4,0.4,1.1,0.6,2.2,0.8v0.4h-9.5v-0.4
				c0.9-0.1,1.5-0.3,1.9-0.5c0.4-0.2,0.7-0.5,0.9-1c0.2-0.3,0.3-0.8,0.3-1.4c0.1-0.6,0.1-1.5,0.1-2.7V17c0-1.4,0-2.4-0.1-2.9
				c-0.1-0.6-0.2-1-0.5-1.4c-0.2-0.4-0.5-0.7-0.9-0.8c-0.3-0.2-0.8-0.3-1.5-0.3V11.1z"></path>
<path d="M62.9,39.2h-9.8v-0.7l0.1,0c0.8-0.1,1.4-0.3,1.8-0.4c0.3-0.2,0.6-0.5,0.8-1c0.2-0.3,0.3-0.8,0.3-1.4
				c0.1-0.6,0.1-1.5,0.1-2.7V17c0-1.4,0-2.4-0.1-2.9c-0.1-0.6-0.2-1-0.5-1.3c-0.2-0.4-0.5-0.6-0.8-0.8c-0.3-0.2-0.8-0.3-1.4-0.3
				l-0.1,0V11l0.1,0l6.3-0.8v22.9l0,1.6c0,0.9,0.1,1.6,0.2,2c0.1,0.4,0.3,0.7,0.6,1c0.4,0.4,1.1,0.6,2.2,0.8l0.1,0V39.2z M53.3,39
				h9.3v-0.2c-1-0.2-1.8-0.5-2.2-0.8c-0.3-0.3-0.6-0.7-0.7-1.1c-0.1-0.4-0.2-1.1-0.2-2.1l0-1.6V10.5l-5.9,0.7v0.2
				c0.6,0,1.1,0.1,1.4,0.3c0.4,0.2,0.7,0.5,0.9,0.9c0.3,0.4,0.4,0.8,0.5,1.4c0.1,0.6,0.1,1.5,0.1,3v16c0,1.2,0,2.1-0.1,2.8
				c-0.1,0.6-0.2,1.1-0.3,1.5c-0.2,0.5-0.6,0.9-1,1.1c-0.4,0.2-1,0.4-1.8,0.5V39z"></path>
</g>
<g>
<path d="M65.2,22.2l6.2-0.7v11.8l0,1.5c0,0.9,0.1,1.6,0.2,2c0.1,0.4,0.3,0.8,0.7,1.1c0.4,0.4,1.1,0.6,2.2,0.8v0.4H65v-0.4
				c0.9-0.1,1.5-0.3,1.8-0.5c0.4-0.2,0.7-0.5,0.9-1c0.2-0.3,0.3-0.8,0.3-1.4c0.1-0.6,0.1-1.5,0.1-2.7v-5c0-1.4,0-2.4-0.1-2.9
				c-0.1-0.6-0.2-1-0.5-1.4c-0.2-0.4-0.5-0.7-0.9-0.8c-0.3-0.2-0.8-0.3-1.5-0.3V22.2z M69.7,14.1c-0.6,0-1-0.2-1.4-0.5
				c-0.4-0.3-0.6-0.8-0.6-1.3c0-0.5,0.2-0.9,0.6-1.3c0.4-0.3,0.8-0.5,1.4-0.5c0.5,0,1,0.2,1.4,0.5c0.4,0.3,0.6,0.8,0.6,1.3
				c0,0.5-0.2,0.9-0.6,1.3C70.7,13.9,70.3,14.1,69.7,14.1z"></path>
<path d="M74.6,39.2h-9.8v-0.7l0.1,0c0.8-0.1,1.4-0.3,1.8-0.4c0.3-0.2,0.6-0.5,0.8-1c0.2-0.3,0.3-0.8,0.3-1.4
				c0.1-0.6,0.1-1.5,0.1-2.7v-5c0-1.4,0-2.4-0.1-2.9c-0.1-0.5-0.2-1-0.5-1.3c-0.2-0.4-0.5-0.6-0.8-0.8c-0.3-0.2-0.8-0.3-1.4-0.3
				l-0.1,0v-0.7l0.1,0l6.3-0.8v11.9l0,1.5c0,0.9,0.1,1.6,0.2,2c0.1,0.4,0.3,0.7,0.6,1c0.4,0.4,1.1,0.6,2.2,0.8l0.1,0V39.2z M65.1,39
				h9.3v-0.2c-1-0.2-1.8-0.5-2.2-0.8c-0.3-0.3-0.6-0.7-0.7-1.1c-0.1-0.4-0.2-1.1-0.2-2.1l0-1.5V21.6l-5.9,0.7v0.2
				c0.6,0,1.1,0.2,1.4,0.3c0.4,0.2,0.7,0.5,0.9,0.9c0.3,0.4,0.4,0.8,0.5,1.4c0.1,0.6,0.1,1.6,0.1,3v5c0,1.2,0,2.1-0.1,2.7
				c-0.1,0.6-0.2,1.1-0.3,1.5c-0.2,0.5-0.6,0.9-1,1.1c-0.4,0.2-1,0.3-1.8,0.5V39z M69.7,14.2c-0.6,0-1.1-0.2-1.5-0.5
				c-0.4-0.4-0.6-0.8-0.6-1.4c0-0.5,0.2-1,0.6-1.4c0.4-0.4,0.9-0.6,1.5-0.6c0.6,0,1.1,0.2,1.5,0.6c0.4,0.4,0.6,0.8,0.6,1.4
				c0,0.5-0.2,1-0.6,1.4C70.8,14,70.3,14.2,69.7,14.2z M69.7,10.6c-0.5,0-0.9,0.2-1.3,0.5c-0.4,0.3-0.5,0.7-0.5,1.2
				c0,0.5,0.2,0.9,0.5,1.2c0.3,0.3,0.8,0.5,1.3,0.5c0.5,0,1-0.2,1.3-0.5c0.3-0.3,0.5-0.7,0.5-1.2c0-0.5-0.2-0.9-0.5-1.2
				C70.7,10.8,70.2,10.6,69.7,10.6z"></path>
</g>
<g>
<path d="M81.3,28c-0.1,0.7-0.1,1.2-0.1,1.5c0,1.2,0.2,2.3,0.5,3.5c0.4,1.1,0.9,2.1,1.5,2.8c0.6,0.8,1.4,1.4,2.4,1.8
				c1,0.4,1.9,0.7,3,0.7c0.8,0,1.5-0.1,2.2-0.4c0.7-0.2,1.3-0.6,1.7-1c0.5-0.5,1-1.2,1.3-2.3l0.5,0.1c-0.4,1.6-1.2,2.8-2.4,3.6
				c-1.2,0.8-2.9,1.2-4.9,1.2c-1.8,0-3.3-0.3-4.5-0.8c-1.3-0.5-2.3-1.3-3.2-2.5c-1.2-1.5-1.8-3.4-1.8-5.7c0-3.1,1.2-5.5,3.5-7.2
				c1.7-1.3,3.6-1.9,5.7-1.9c1.1,0,2.2,0.2,3.2,0.6c1,0.4,1.8,1,2.5,1.7c1,1.1,1.6,2.6,1.6,4.3H81.3z M90.7,27.2
				c-0.1-1.4-0.4-2.4-0.8-3.1c-0.4-0.7-0.9-1.2-1.5-1.6c-0.6-0.4-1.3-0.6-2.1-0.6c-1.2,0-2.3,0.5-3.2,1.5c-0.9,1-1.5,2.3-1.6,3.8
				H90.7z"></path>
<path d="M87.1,39.6c-1.8,0-3.3-0.3-4.6-0.8c-1.3-0.5-2.4-1.4-3.3-2.5c-1.2-1.6-1.9-3.5-1.9-5.8c0-3.1,1.2-5.6,3.5-7.3
				c1.7-1.3,3.6-1.9,5.8-1.9c1.1,0,2.2,0.2,3.2,0.6c1,0.4,1.8,1,2.5,1.7c1.1,1.2,1.6,2.6,1.6,4.4v0.1H81.4c-0.1,0.6-0.1,1.1-0.1,1.3
				c0,1.2,0.2,2.3,0.5,3.4c0.4,1.1,0.9,2,1.5,2.8c0.6,0.7,1.4,1.3,2.3,1.8c0.9,0.4,1.9,0.6,2.9,0.6c0.8,0,1.5-0.1,2.2-0.4
				c0.7-0.2,1.2-0.6,1.7-1c0.5-0.5,0.9-1.2,1.3-2.2l0-0.1l0.7,0.2l0,0.1c-0.4,1.6-1.2,2.9-2.5,3.7C90.8,39.2,89.1,39.6,87.1,39.6z
				 M86.7,21.6c-2.1,0-4,0.6-5.7,1.9c-2.3,1.7-3.4,4.1-3.4,7.1c0,2.2,0.6,4.1,1.8,5.6c0.9,1.1,1.9,1.9,3.2,2.4
				c1.2,0.5,2.8,0.8,4.5,0.8c2,0,3.6-0.4,4.8-1.2c1.2-0.8,1.9-1.9,2.3-3.4L94,34.7c-0.4,1-0.8,1.8-1.3,2.2c-0.5,0.4-1.1,0.8-1.8,1
				c-0.7,0.2-1.5,0.4-2.2,0.4c-1.1,0-2.1-0.2-3-0.7c-1-0.4-1.8-1.1-2.4-1.8c-0.6-0.8-1.1-1.7-1.5-2.9c-0.4-1.1-0.6-2.3-0.6-3.5
				c0-0.3,0-0.8,0.1-1.5l0-0.1h12.6c0-1.6-0.5-3-1.5-4.1c-0.7-0.7-1.5-1.3-2.4-1.7C88.9,21.7,87.8,21.6,86.7,21.6z M90.9,27.3h-9.5
				l0-0.1c0.2-1.5,0.7-2.8,1.7-3.9c0.9-1,2.1-1.6,3.3-1.6c0.7,0,1.5,0.2,2.1,0.6c0.7,0.4,1.2,1,1.6,1.6c0.4,0.8,0.7,1.8,0.8,3.2
				L90.9,27.3z M81.6,27.1h9c-0.1-1.3-0.4-2.3-0.8-3c-0.4-0.6-0.9-1.2-1.5-1.5c-0.6-0.4-1.3-0.6-2-0.6c-1.2,0-2.2,0.5-3.1,1.5
				C82.3,24.4,81.8,25.6,81.6,27.1z"></path>
</g>
<g>
<path d="M103.3,21.7h5.5v0.8h-5.5v11.9c0,1.4,0.3,2.5,0.8,3.1c0.3,0.3,0.6,0.6,1.1,0.8c0.4,0.2,0.9,0.3,1.4,0.3
				c0.6,0,1.2-0.1,1.6-0.4c0.4-0.3,0.9-0.7,1.4-1.4l0.3,0.3c-0.5,0.8-1.1,1.4-2,1.8c-0.9,0.4-1.9,0.6-3.2,0.6
				c-1.7,0-2.9-0.3-3.7-0.9c-0.4-0.3-0.7-0.7-0.8-1.2c-0.1-0.5-0.2-1.3-0.2-2.5V22.5h-2.3v-0.3c0.9-0.3,1.8-0.8,2.6-1.7
				c0.5-0.5,0.9-1,1.1-1.5c0.3-0.5,0.6-1.1,0.8-1.9l0.2-0.7h0.8V21.7z"></path>
<path d="M104.7,39.6c-1.7,0-3-0.3-3.8-1c-0.4-0.3-0.7-0.8-0.9-1.2c-0.1-0.5-0.2-1.3-0.2-2.5V22.6h-2.3v-0.5l0.1,0
				c0.9-0.3,1.8-0.8,2.5-1.6c0.5-0.5,0.8-1,1.1-1.5c0.3-0.5,0.6-1.1,0.8-1.9l0.2-0.8h1v5.3h5.5v1h-5.5v11.8c0,1.4,0.3,2.4,0.7,3
				c0.3,0.3,0.6,0.6,1,0.8c0.4,0.2,0.9,0.3,1.4,0.3c0.6,0,1.1-0.1,1.5-0.4c0.4-0.2,0.9-0.7,1.4-1.3l0.1-0.1l0.5,0.4l-0.1,0.1
				c-0.5,0.8-1.2,1.5-2,1.9C107.1,39.4,106,39.6,104.7,39.6z M97.9,22.4h2.3v12.5c0,1.2,0.1,2,0.2,2.4c0.1,0.4,0.4,0.8,0.8,1.1
				c0.7,0.6,2,0.9,3.6,0.9c1.2,0,2.3-0.2,3.1-0.6c0.8-0.4,1.4-0.9,1.9-1.7l-0.1-0.1c-0.5,0.6-1,1.1-1.4,1.3c-0.4,0.3-1,0.4-1.7,0.4
				c-0.5,0-1-0.1-1.5-0.3c-0.5-0.2-0.8-0.5-1.1-0.8c-0.5-0.6-0.8-1.7-0.8-3.1v-12h5.5v-0.5h-5.5v-5.3h-0.6l-0.2,0.6
				c-0.3,0.8-0.5,1.4-0.8,2c-0.3,0.5-0.7,1-1.2,1.5c-0.8,0.8-1.6,1.4-2.5,1.7V22.4z"></path>
</g>
<g>
<path d="M115.8,21.7h5.5v0.8h-5.5v11.9c0,1.4,0.3,2.5,0.8,3.1c0.3,0.3,0.6,0.6,1.1,0.8c0.4,0.2,0.9,0.3,1.4,0.3
				c0.6,0,1.2-0.1,1.6-0.4c0.4-0.3,0.9-0.7,1.4-1.4l0.3,0.3c-0.5,0.8-1.1,1.4-2,1.8c-0.9,0.4-1.9,0.6-3.2,0.6
				c-1.7,0-2.9-0.3-3.7-0.9c-0.4-0.3-0.7-0.7-0.8-1.2c-0.1-0.5-0.2-1.3-0.2-2.5V22.5h-2.3v-0.3c0.9-0.3,1.8-0.8,2.6-1.7
				c0.5-0.5,0.9-1,1.1-1.5c0.3-0.5,0.6-1.1,0.8-1.9l0.2-0.7h0.8V21.7z"></path>
<path d="M117.3,39.6c-1.7,0-3-0.3-3.8-1c-0.4-0.3-0.7-0.8-0.9-1.2c-0.1-0.5-0.2-1.3-0.2-2.5V22.6h-2.3v-0.5l0.1,0
				c0.9-0.3,1.8-0.8,2.5-1.6c0.5-0.5,0.8-1,1.1-1.5c0.3-0.5,0.6-1.1,0.8-1.9l0.2-0.8h1v5.3h5.5v1H116v11.8c0,1.4,0.3,2.4,0.7,3
				c0.3,0.3,0.6,0.6,1,0.8c0.4,0.2,0.9,0.3,1.4,0.3c0.6,0,1.1-0.1,1.5-0.4c0.4-0.2,0.9-0.7,1.4-1.3l0.1-0.1l0.5,0.4l-0.1,0.1
				c-0.5,0.8-1.2,1.5-2,1.9C119.7,39.4,118.6,39.6,117.3,39.6z M110.4,22.4h2.3v12.5c0,1.2,0.1,2,0.2,2.4c0.1,0.4,0.4,0.8,0.8,1.1
				c0.7,0.6,2,0.9,3.6,0.9c1.2,0,2.3-0.2,3.1-0.6c0.8-0.4,1.4-0.9,1.9-1.7l-0.1-0.1c-0.5,0.6-1,1.1-1.4,1.3c-0.4,0.3-1,0.4-1.7,0.4
				c-0.5,0-1-0.1-1.5-0.3c-0.5-0.2-0.8-0.5-1.1-0.8c-0.5-0.6-0.8-1.7-0.8-3.1v-12h5.5v-0.5h-5.5v-5.3h-0.6l-0.2,0.6
				c-0.3,0.8-0.5,1.5-0.8,2c-0.3,0.5-0.7,1-1.2,1.5c-0.8,0.8-1.6,1.4-2.5,1.7V22.4z"></path>
</g>
<g>
<path d="M127.4,28c-0.1,0.7-0.1,1.2-0.1,1.5c0,1.2,0.2,2.3,0.5,3.5c0.4,1.1,0.9,2.1,1.5,2.8c0.6,0.8,1.4,1.4,2.4,1.8
				c1,0.4,1.9,0.7,3,0.7c0.8,0,1.5-0.1,2.2-0.4c0.7-0.2,1.3-0.6,1.7-1c0.5-0.5,1-1.2,1.3-2.3l0.5,0.1c-0.4,1.6-1.2,2.8-2.4,3.6
				c-1.2,0.8-2.9,1.2-4.9,1.2c-1.8,0-3.3-0.3-4.5-0.8c-1.3-0.5-2.3-1.3-3.2-2.5c-1.2-1.5-1.8-3.4-1.8-5.7c0-3.1,1.2-5.5,3.5-7.2
				c1.7-1.3,3.6-1.9,5.7-1.9c1.1,0,2.2,0.2,3.2,0.6c1,0.4,1.8,1,2.5,1.7c1,1.1,1.6,2.6,1.6,4.3H127.4z M136.7,27.2
				c-0.1-1.4-0.4-2.4-0.8-3.1c-0.4-0.7-0.9-1.2-1.5-1.6c-0.6-0.4-1.3-0.6-2.1-0.6c-1.2,0-2.3,0.5-3.2,1.5c-0.9,1-1.5,2.3-1.6,3.8
				H136.7z"></path>
<path d="M133.1,39.6c-1.8,0-3.3-0.3-4.6-0.8c-1.3-0.5-2.4-1.4-3.3-2.5c-1.2-1.6-1.9-3.5-1.9-5.8c0-3.1,1.2-5.6,3.5-7.3
				c1.7-1.3,3.6-1.9,5.8-1.9c1.1,0,2.2,0.2,3.2,0.6c1,0.4,1.8,1,2.5,1.7c1.1,1.2,1.6,2.6,1.6,4.4v0.1h-12.6
				c-0.1,0.7-0.1,1.1-0.1,1.3c0,1.2,0.2,2.3,0.5,3.4c0.4,1.1,0.9,2,1.5,2.8c0.6,0.8,1.4,1.3,2.3,1.8c0.9,0.4,1.9,0.6,2.9,0.6
				c0.8,0,1.5-0.1,2.2-0.4c0.7-0.2,1.2-0.6,1.7-1c0.5-0.5,0.9-1.2,1.3-2.2l0-0.1l0.7,0.2l0,0.1c-0.4,1.6-1.2,2.9-2.5,3.7
				C136.8,39.2,135.1,39.6,133.1,39.6z M132.7,21.6c-2.1,0-4,0.6-5.7,1.9c-2.3,1.7-3.4,4.1-3.4,7.1c0,2.2,0.6,4.1,1.8,5.6
				c0.9,1.1,1.9,1.9,3.2,2.4c1.2,0.5,2.8,0.8,4.5,0.8c2,0,3.6-0.4,4.8-1.2c1.2-0.8,1.9-1.9,2.3-3.4l-0.2-0.1c-0.4,1-0.8,1.8-1.3,2.2
				c-0.5,0.4-1.1,0.8-1.8,1c-0.7,0.2-1.5,0.4-2.2,0.4c-1.1,0-2.1-0.2-3-0.7c-1-0.4-1.8-1.1-2.4-1.8c-0.6-0.8-1.1-1.7-1.5-2.9
				c-0.4-1.1-0.6-2.3-0.6-3.5c0-0.3,0-0.7,0.1-1.5l0-0.1h12.6c0-1.6-0.5-3-1.5-4.1c-0.7-0.7-1.5-1.3-2.4-1.7
				C134.9,21.7,133.8,21.6,132.7,21.6z M136.9,27.3h-9.5l0-0.1c0.2-1.5,0.7-2.9,1.7-3.9c0.9-1,2.1-1.6,3.3-1.6
				c0.7,0,1.5,0.2,2.1,0.6c0.7,0.4,1.2,1,1.6,1.6c0.4,0.7,0.7,1.8,0.8,3.2L136.9,27.3z M127.6,27.1h9c-0.1-1.3-0.4-2.3-0.8-3
				c-0.4-0.7-0.9-1.2-1.5-1.5c-0.6-0.4-1.3-0.6-2-0.6c-1.2,0-2.2,0.5-3.1,1.5C128.3,24.4,127.8,25.6,127.6,27.1z"></path>
</g>
<g>
<path d="M162.3,10.4v14c0.5-0.6,0.9-1,1.3-1.4c0.4-0.3,0.9-0.6,1.4-0.9c1-0.5,2.2-0.7,3.6-0.7c1.7,0,3.1,0.3,4.2,1
				c0.8,0.5,1.3,1.1,1.6,1.7c0.3,0.7,0.4,1.7,0.4,3.1v6l0,1.6c0,0.9,0.1,1.6,0.2,2c0.1,0.4,0.3,0.8,0.7,1.1c0.4,0.4,1.1,0.6,2.2,0.8
				v0.4h-9.5v-0.4c0.8-0.1,1.3-0.2,1.6-0.3c0.3-0.1,0.6-0.4,0.9-0.7c0.3-0.3,0.4-0.8,0.5-1.4c0.1-0.6,0.1-1.5,0.1-2.6v-6.5
				c0-1-0.1-1.8-0.2-2.3c-0.2-0.6-0.4-1.1-0.8-1.5c-0.7-0.8-1.8-1.2-3.1-1.2c-3.5,0-5.2,2.6-5.2,7.8v3.3l0,1.5c0,0.9,0.1,1.6,0.2,2
				c0.1,0.4,0.3,0.8,0.7,1.1c0.4,0.4,1.1,0.6,2.2,0.8v0.4h-9.5v-0.4c0.9-0.1,1.5-0.3,1.9-0.5c0.4-0.2,0.7-0.5,0.9-1
				c0.2-0.3,0.3-0.8,0.3-1.4c0.1-0.6,0.1-1.5,0.1-2.7V17c0-1.4,0-2.4-0.1-2.9c-0.1-0.6-0.2-1-0.5-1.4c-0.2-0.4-0.5-0.7-0.9-0.8
				c-0.3-0.2-0.8-0.3-1.5-0.3v-0.5L162.3,10.4z"></path>
<path d="M178.1,39.2h-9.8v-0.7l0.1,0c0.7-0.1,1.3-0.2,1.6-0.3c0.3-0.1,0.6-0.3,0.8-0.7c0.2-0.3,0.4-0.8,0.5-1.3
				c0.1-0.6,0.1-1.5,0.1-2.6v-6.5c0-1-0.1-1.7-0.2-2.3c-0.2-0.6-0.4-1-0.8-1.4c-0.7-0.8-1.7-1.2-3-1.2c-3.4,0-5.1,2.6-5.1,7.7v3.3
				l0,1.5c0,0.9,0.1,1.6,0.2,2c0.1,0.4,0.3,0.7,0.6,1c0.4,0.4,1.1,0.6,2.1,0.8l0.1,0v0.7h-9.8v-0.7l0.1,0c0.8-0.1,1.4-0.3,1.8-0.4
				c0.3-0.2,0.6-0.5,0.8-1c0.2-0.3,0.3-0.8,0.3-1.4c0.1-0.7,0.1-1.6,0.1-2.7V17c0-1.4,0-2.4-0.1-2.9c-0.1-0.6-0.2-1-0.5-1.3
				c-0.2-0.4-0.5-0.6-0.8-0.8c-0.3-0.2-0.8-0.3-1.4-0.3l-0.1,0V11l0.1,0l6.3-0.8v13.8c0.4-0.5,0.8-0.8,1.1-1.1
				c0.4-0.3,0.9-0.6,1.4-0.9c1.1-0.5,2.3-0.7,3.6-0.7c1.7,0,3.1,0.3,4.3,1c0.8,0.5,1.4,1.1,1.7,1.8c0.3,0.7,0.5,1.8,0.5,3.1v6l0,1.6
				c0,0.9,0.1,1.6,0.2,2c0.1,0.4,0.3,0.7,0.6,1c0.4,0.4,1.1,0.6,2.2,0.8l0.1,0V39.2z M168.6,39h9.3v-0.2c-1-0.2-1.8-0.5-2.2-0.8
				c-0.4-0.3-0.6-0.7-0.7-1.1c-0.1-0.4-0.2-1.1-0.2-2.1l0-1.6v-6c0-1.4-0.1-2.4-0.4-3c-0.3-0.7-0.8-1.2-1.6-1.7
				c-1.1-0.6-2.5-0.9-4.1-0.9c-1.3,0-2.5,0.2-3.5,0.7c-0.5,0.2-1,0.5-1.4,0.8c-0.4,0.3-0.8,0.8-1.3,1.4l-0.2,0.3V10.5l-5.9,0.7v0.2
				c0.6,0,1.1,0.1,1.4,0.3c0.4,0.2,0.7,0.5,0.9,0.9c0.3,0.4,0.4,0.8,0.5,1.4c0.1,0.6,0.1,1.6,0.1,3v16c0,1.2,0,2.1-0.1,2.8
				c-0.1,0.7-0.2,1.1-0.3,1.5c-0.2,0.5-0.6,0.9-1,1.1c-0.4,0.2-1,0.4-1.8,0.5V39h9.3v-0.2c-1-0.2-1.8-0.5-2.2-0.8
				c-0.3-0.3-0.6-0.7-0.7-1.1c-0.1-0.4-0.2-1.1-0.2-2.1l0-1.5V30c0-5.3,1.8-7.9,5.3-7.9c1.4,0,2.4,0.4,3.2,1.2
				c0.4,0.4,0.7,0.9,0.8,1.5c0.2,0.6,0.2,1.4,0.2,2.4v6.5c0,1.1,0,2-0.1,2.6c-0.1,0.6-0.3,1.1-0.6,1.4c-0.3,0.4-0.6,0.6-0.9,0.7
				c-0.3,0.1-0.8,0.2-1.5,0.3V39z"></path>
</g>
<g>
<path d="M198.5,37.1l0.4,0.2c-0.5,1.4-1.7,2.1-3.5,2.1c-1,0-1.9-0.2-2.5-0.7c-0.4-0.3-0.9-0.9-1.4-1.6c-1,0.8-1.7,1.4-2.2,1.6
				c-0.9,0.5-2,0.7-3.3,0.7c-1.6,0-2.8-0.4-3.8-1.1c-0.9-0.7-1.4-1.7-1.4-2.9c0-1.1,0.4-2.1,1.1-2.8c0.4-0.4,0.9-0.8,1.5-1
				c0.6-0.2,1.4-0.5,2.4-0.8c1.2-0.3,2.2-0.5,2.8-0.8c0.6-0.2,1.1-0.5,1.5-0.7c0.5-0.3,0.8-0.7,0.9-1.1c0.2-0.4,0.3-1,0.3-1.8
				c0-1.6-0.3-2.8-0.9-3.5c-0.3-0.3-0.7-0.6-1.1-0.8c-0.5-0.2-0.9-0.3-1.4-0.3c-0.6,0-1.1,0.1-1.6,0.4c-0.5,0.3-0.8,0.7-1,1.2
				l-0.5,1.2c-0.3,0.6-0.8,1-1.5,1c-0.5,0-0.9-0.2-1.2-0.5c-0.3-0.3-0.5-0.7-0.5-1.2c0-0.7,0.5-1.3,1.6-1.8c0.6-0.2,1.3-0.4,2.1-0.6
				c0.8-0.2,1.6-0.2,2.4-0.2c0.9,0,1.8,0.1,2.8,0.3c1,0.2,1.8,0.5,2.4,0.8c0.9,0.5,1.5,1.2,1.7,2c0.1,0.4,0.2,1.1,0.2,2.1v7.6
				c0,1.3,0.1,2.2,0.2,2.6c0.2,1,0.8,1.5,1.8,1.5c0.4,0,0.8-0.1,1-0.2C197.8,37.9,198.1,37.6,198.5,37.1z M191.4,29.1
				c-0.8,0.6-1.6,1.2-2.6,1.6c-1,0.5-1.8,0.9-2.2,1.2c-0.4,0.3-0.8,0.6-1.1,1c-0.7,0.8-1,1.7-1,2.8c0,0.9,0.3,1.6,0.8,2.2
				c0.5,0.6,1.2,0.9,2,0.9c0.7,0,1.4-0.2,2-0.6c0.6-0.4,1.1-1,1.4-1.7c0.4-0.9,0.7-2.2,0.7-4V29.1z"></path>
<path d="M195.3,39.6c-1,0-1.9-0.2-2.6-0.7c-0.4-0.3-0.9-0.8-1.3-1.5c-0.9,0.8-1.6,1.3-2.1,1.5c-1,0.5-2.1,0.8-3.3,0.8
				c-1.6,0-2.9-0.4-3.8-1.1c-1-0.7-1.4-1.8-1.4-3c0-1.2,0.4-2.1,1.2-2.9c0.4-0.4,1-0.8,1.5-1c0.6-0.2,1.4-0.5,2.5-0.8
				c1.2-0.3,2.2-0.5,2.8-0.8c0.6-0.2,1.1-0.4,1.5-0.7c0.4-0.3,0.7-0.7,0.9-1c0.2-0.4,0.3-1,0.3-1.7c0-1.6-0.3-2.7-0.9-3.4
				c-0.3-0.3-0.6-0.6-1.1-0.8c-0.4-0.2-0.9-0.3-1.4-0.3c-0.6,0-1.1,0.1-1.5,0.4c-0.4,0.3-0.8,0.7-1,1.1l-0.5,1.2
				c-0.3,0.7-0.9,1-1.7,1c-0.5,0-1-0.2-1.3-0.5c-0.4-0.3-0.5-0.8-0.5-1.2c0-0.7,0.5-1.4,1.6-1.9c0.6-0.2,1.3-0.5,2.1-0.6
				c0.8-0.2,1.7-0.2,2.4-0.2c0.9,0,1.8,0.1,2.8,0.3c1,0.2,1.8,0.5,2.4,0.9c1,0.5,1.6,1.2,1.8,2c0.1,0.4,0.2,1.1,0.2,2.1v7.6
				c0,1.3,0.1,2.1,0.2,2.6c0.2,0.9,0.8,1.4,1.6,1.4c0.4,0,0.7-0.1,1-0.2c0.2-0.1,0.5-0.4,0.9-0.9l0.1-0.1l0.6,0.3l0,0.1
				C198.4,38.9,197.2,39.6,195.3,39.6z M191.4,36.9l0.1,0.1c0.5,0.8,0.9,1.3,1.3,1.6c0.7,0.5,1.5,0.7,2.5,0.7c1.8,0,2.9-0.6,3.4-2
				l-0.2-0.1c-0.3,0.4-0.6,0.7-0.9,0.8c-0.3,0.2-0.6,0.2-1.1,0.2c-1,0-1.6-0.5-1.9-1.5c-0.1-0.5-0.2-1.4-0.2-2.6v-7.6
				c0-0.9-0.1-1.6-0.2-2c-0.2-0.8-0.8-1.4-1.7-1.9c-0.6-0.3-1.4-0.6-2.4-0.8c-1-0.2-1.9-0.3-2.8-0.3c-0.8,0-1.6,0.1-2.4,0.2
				c-0.8,0.2-1.5,0.4-2.1,0.6c-1,0.5-1.5,1-1.5,1.6c0,0.4,0.2,0.8,0.5,1.1c0.3,0.3,0.7,0.4,1.1,0.4c0.7,0,1.2-0.3,1.4-0.9l0.5-1.2
				c0.2-0.5,0.6-0.9,1.1-1.2c0.5-0.3,1-0.4,1.6-0.4c0.5,0,1,0.1,1.5,0.3c0.5,0.2,0.9,0.5,1.2,0.8c0.6,0.8,1,2,1,3.6
				c0,0.8-0.1,1.4-0.3,1.8c-0.2,0.4-0.5,0.8-1,1.2c-0.4,0.3-0.9,0.5-1.5,0.8c-0.6,0.2-1.5,0.5-2.8,0.8c-1.1,0.3-1.9,0.5-2.4,0.8
				c-0.5,0.2-1,0.6-1.4,1c-0.7,0.7-1.1,1.6-1.1,2.8c0,1.2,0.4,2.1,1.3,2.8c0.9,0.7,2.1,1.1,3.7,1.1c1.2,0,2.3-0.2,3.2-0.7
				c0.5-0.3,1.2-0.8,2.2-1.6L191.4,36.9z M187.3,38.9c-0.8,0-1.5-0.3-2.1-0.9c-0.5-0.6-0.8-1.4-0.8-2.3c0-1.1,0.3-2,1-2.8
				c0.3-0.4,0.7-0.7,1.1-1c0.4-0.3,1.1-0.7,2.2-1.2c0.9-0.5,1.8-1,2.5-1.6l0.2-0.2v3.7c0,1.7-0.2,3.1-0.7,4
				c-0.3,0.7-0.8,1.3-1.4,1.7C188.7,38.7,188,38.9,187.3,38.9z M191.2,29.3c-0.7,0.6-1.5,1-2.4,1.5c-1,0.5-1.8,0.9-2.2,1.2
				c-0.4,0.3-0.8,0.6-1.1,1c-0.6,0.8-1,1.7-1,2.7c0,0.9,0.3,1.6,0.7,2.1c0.5,0.6,1.1,0.8,1.9,0.8c0.7,0,1.3-0.2,1.9-0.6
				c0.6-0.4,1.1-0.9,1.4-1.6c0.4-0.9,0.7-2.2,0.7-3.9V29.3z"></path>
</g>
<g>
<path d="M201.5,39.1v-5.8h0.3c0.4,1.4,0.9,2.5,1.5,3.4c1.1,1.5,2.4,2.3,3.9,2.3c0.9,0,1.7-0.3,2.3-0.8c0.7-0.6,1.1-1.4,1.1-2.4
				c0-0.9-0.3-1.6-0.8-2.2c-0.3-0.3-0.6-0.7-1.1-0.9c-0.4-0.3-1.2-0.7-2.2-1.2c-1.8-0.9-3-1.7-3.6-2.3c-0.9-0.9-1.3-1.9-1.3-3
				c0-1.2,0.4-2.3,1.3-3.2c1-1,2.3-1.5,3.9-1.5c0.7,0,1.4,0.1,2,0.4l0.7,0.3c0.2,0.1,0.4,0.1,0.6,0.1c0.3,0,0.5-0.2,0.8-0.6h0.4
				l0.2,4.6h-0.5c-0.2-0.7-0.3-1.2-0.5-1.6c-0.2-0.4-0.4-0.8-0.8-1.1c-0.4-0.5-1-0.9-1.5-1.2c-0.6-0.3-1.2-0.4-1.7-0.4
				c-0.8,0-1.5,0.3-2.1,0.8c-0.6,0.5-0.8,1.2-0.8,2c0,0.7,0.3,1.3,0.8,1.8c0.5,0.5,1.3,1,2.4,1.5l2.3,1c1.4,0.6,2.4,1.3,3.1,2.2
				c0.7,0.9,1,1.9,1,3.1c0,1.4-0.5,2.6-1.5,3.6c-1.1,1.1-2.6,1.6-4.3,1.6c-0.9,0-1.9-0.2-2.9-0.5c-0.6-0.2-1-0.4-1.1-0.4
				c-0.1,0-0.3-0.1-0.5-0.1c-0.5,0-0.9,0.2-1.1,0.6H201.5z"></path>
<path d="M207.5,39.6c-1,0-1.9-0.2-2.9-0.5c-0.5-0.2-1-0.4-1.1-0.4c-0.1,0-0.3,0-0.5,0c-0.5,0-0.8,0.2-1,0.6l0,0.1h-0.5v-6h0.6
				l0,0.1c0.4,1.4,0.9,2.5,1.5,3.4c1.1,1.5,2.3,2.3,3.8,2.3c0.9,0,1.6-0.3,2.3-0.8c0.7-0.5,1-1.3,1-2.3c0-0.8-0.2-1.5-0.7-2.2
				c-0.3-0.3-0.6-0.6-1.1-0.9c-0.4-0.3-1.2-0.7-2.2-1.2c-1.8-0.9-3-1.7-3.6-2.3c-0.9-0.9-1.3-1.9-1.3-3.1c0-1.3,0.4-2.4,1.3-3.3
				c1-1,2.4-1.6,4-1.6c0.7,0,1.4,0.1,2.1,0.4l0.7,0.3c0.2,0.1,0.4,0.1,0.6,0.1c0.2,0,0.4-0.2,0.7-0.6l0-0.1h0.6l0.2,4.9h-0.7l0-0.1
				c-0.2-0.7-0.3-1.2-0.5-1.5c-0.2-0.4-0.4-0.8-0.7-1.1c-0.4-0.5-0.9-0.9-1.5-1.2c-0.6-0.3-1.1-0.4-1.7-0.4c-0.8,0-1.4,0.3-2,0.8
				c-0.5,0.5-0.8,1.2-0.8,1.9c0,0.6,0.2,1.2,0.7,1.7c0.5,0.5,1.3,1,2.3,1.5l2.3,1c1.4,0.6,2.4,1.3,3.1,2.2c0.7,0.9,1,2,1,3.2
				c0,1.5-0.5,2.7-1.5,3.6C210.7,39,209.2,39.6,207.5,39.6z M202.9,38.4c0.2,0,0.4,0,0.5,0.1c0.1,0,0.4,0.1,1.2,0.4
				c1,0.4,1.9,0.5,2.8,0.5c1.7,0,3.1-0.5,4.2-1.6c0.9-0.9,1.4-2.1,1.4-3.5c0-1.1-0.3-2.2-1-3c-0.7-0.9-1.7-1.6-3-2.1l-2.3-1
				c-1.1-0.5-1.9-1-2.4-1.5c-0.5-0.6-0.8-1.2-0.8-1.9c0-0.8,0.3-1.6,0.9-2.1c0.6-0.6,1.3-0.9,2.1-0.9c0.6,0,1.2,0.2,1.8,0.4
				c0.6,0.3,1.1,0.7,1.6,1.3c0.3,0.4,0.6,0.8,0.8,1.2c0.2,0.4,0.3,0.9,0.5,1.5h0.2l-0.2-4.4h-0.2c-0.3,0.4-0.5,0.6-0.8,0.6
				c-0.2,0-0.4,0-0.6-0.1l-0.7-0.3c-0.6-0.2-1.3-0.4-2-0.4c-1.6,0-2.9,0.5-3.8,1.5c-0.8,0.9-1.3,1.9-1.3,3.1c0,1.1,0.4,2.1,1.3,2.9
				c0.6,0.6,1.8,1.4,3.6,2.3c1,0.5,1.8,0.9,2.2,1.2c0.5,0.3,0.8,0.6,1.1,1c0.5,0.7,0.8,1.4,0.8,2.3c0,1.1-0.4,1.9-1.1,2.5
				c-0.7,0.5-1.5,0.8-2.4,0.8c-1.5,0-2.8-0.8-4-2.4c-0.6-0.8-1.1-2-1.5-3.3h-0.1V39h0.2C202,38.6,202.4,38.4,202.9,38.4z"></path>
</g>
<g>
<path d="M247.2,37.1l0.4,0.2c-0.5,1.4-1.7,2.1-3.6,2.1c-1,0-1.9-0.2-2.5-0.7c-0.4-0.3-0.9-0.9-1.4-1.6c-1,0.8-1.7,1.4-2.2,1.6
				c-0.9,0.5-2,0.7-3.3,0.7c-1.6,0-2.8-0.4-3.8-1.1c-0.9-0.7-1.4-1.7-1.4-2.9c0-1.1,0.4-2.1,1.1-2.8c0.4-0.4,0.9-0.8,1.5-1
				c0.6-0.2,1.4-0.5,2.4-0.8c1.3-0.3,2.2-0.5,2.8-0.8c0.6-0.2,1.1-0.5,1.5-0.7c0.5-0.3,0.8-0.7,0.9-1.1c0.2-0.4,0.3-1,0.3-1.8
				c0-1.6-0.3-2.8-0.9-3.5c-0.3-0.3-0.7-0.6-1.1-0.8c-0.5-0.2-0.9-0.3-1.4-0.3c-0.6,0-1.1,0.1-1.6,0.4c-0.5,0.3-0.8,0.7-1,1.2
				l-0.5,1.2c-0.3,0.6-0.8,1-1.6,1c-0.5,0-0.9-0.2-1.2-0.5c-0.3-0.3-0.5-0.7-0.5-1.2c0-0.7,0.5-1.3,1.6-1.8c0.6-0.2,1.3-0.4,2.1-0.6
				c0.8-0.2,1.6-0.2,2.4-0.2c0.9,0,1.8,0.1,2.8,0.3c1,0.2,1.8,0.5,2.4,0.8c0.9,0.5,1.5,1.2,1.7,2c0.1,0.4,0.2,1.1,0.2,2.1v7.6
				c0,1.3,0.1,2.2,0.2,2.6c0.2,1,0.8,1.5,1.8,1.5c0.4,0,0.8-0.1,1-0.2C246.5,37.9,246.8,37.6,247.2,37.1z M240.1,29.1
				c-0.8,0.6-1.6,1.2-2.5,1.6c-1,0.5-1.8,0.9-2.2,1.2c-0.4,0.3-0.8,0.6-1.1,1c-0.7,0.8-1,1.7-1,2.8c0,0.9,0.3,1.6,0.8,2.2
				c0.5,0.6,1.2,0.9,2,0.9c0.7,0,1.4-0.2,2-0.6c0.6-0.4,1.1-1,1.4-1.7c0.4-0.9,0.7-2.2,0.7-4V29.1z"></path>
<path d="M244,39.6c-1,0-1.9-0.2-2.6-0.7c-0.4-0.3-0.9-0.8-1.3-1.5c-0.9,0.8-1.6,1.3-2.1,1.5c-1,0.5-2.1,0.8-3.3,0.8
				c-1.6,0-2.9-0.4-3.8-1.1c-0.9-0.7-1.4-1.8-1.4-3c0-1.2,0.4-2.1,1.2-2.9c0.4-0.4,1-0.8,1.5-1c0.6-0.3,1.4-0.5,2.5-0.8
				c1.2-0.3,2.2-0.5,2.8-0.8c0.6-0.2,1.1-0.4,1.5-0.7c0.4-0.3,0.7-0.6,0.9-1.1c0.2-0.4,0.2-1,0.2-1.7c0-1.6-0.3-2.7-0.9-3.4
				c-0.3-0.3-0.6-0.6-1.1-0.8c-0.4-0.2-0.9-0.3-1.4-0.3c-0.6,0-1.1,0.1-1.5,0.4c-0.4,0.3-0.8,0.7-1,1.1l-0.5,1.2
				c-0.3,0.7-0.9,1-1.7,1c-0.5,0-1-0.2-1.3-0.5c-0.4-0.3-0.5-0.7-0.5-1.2c0-0.7,0.5-1.4,1.6-1.9c0.6-0.2,1.3-0.5,2.1-0.6
				c0.8-0.2,1.7-0.2,2.4-0.2c0.9,0,1.8,0.1,2.8,0.3c1,0.2,1.8,0.5,2.4,0.9c1,0.5,1.6,1.2,1.8,2c0.1,0.4,0.2,1.1,0.2,2.1v7.6
				c0,1.3,0.1,2.1,0.2,2.6c0.2,0.9,0.8,1.4,1.6,1.4c0.4,0,0.8-0.1,1-0.2c0.2-0.1,0.5-0.4,0.9-0.9l0.1-0.1l0.6,0.3l0,0.1
				C247.1,38.9,245.9,39.6,244,39.6z M240.1,36.9l0.1,0.1c0.5,0.8,0.9,1.3,1.3,1.6c0.7,0.5,1.5,0.7,2.5,0.7c1.7,0,2.9-0.7,3.4-2
				l-0.2-0.1c-0.3,0.4-0.6,0.7-0.9,0.8c-0.3,0.2-0.6,0.2-1.1,0.2c-1,0-1.6-0.5-1.9-1.5c-0.1-0.5-0.2-1.3-0.2-2.6v-7.6
				c0-0.9-0.1-1.6-0.2-2c-0.2-0.8-0.8-1.4-1.7-1.9c-0.6-0.3-1.4-0.6-2.4-0.8c-1-0.2-1.9-0.3-2.8-0.3c-0.8,0-1.6,0.1-2.4,0.2
				c-0.8,0.2-1.5,0.4-2.1,0.6c-1,0.5-1.5,1-1.5,1.6c0,0.4,0.1,0.8,0.5,1.1c0.3,0.3,0.7,0.4,1.1,0.4c0.7,0,1.2-0.3,1.4-0.9l0.5-1.2
				c0.2-0.5,0.6-0.9,1.1-1.2c0.5-0.3,1-0.4,1.6-0.4c0.5,0,1,0.1,1.5,0.3c0.5,0.2,0.9,0.5,1.2,0.8c0.6,0.8,1,2,1,3.6
				c0,0.8-0.1,1.4-0.3,1.8c-0.2,0.5-0.5,0.8-1,1.2c-0.4,0.3-0.9,0.5-1.5,0.7c-0.6,0.2-1.5,0.5-2.8,0.8c-1,0.3-1.9,0.5-2.4,0.8
				c-0.5,0.2-1,0.6-1.4,1c-0.7,0.7-1.1,1.6-1.1,2.8c0,1.2,0.4,2.1,1.3,2.8c0.9,0.7,2.1,1.1,3.7,1.1c1.2,0,2.3-0.2,3.2-0.7
				c0.5-0.3,1.2-0.8,2.2-1.6L240.1,36.9z M236,38.9c-0.8,0-1.5-0.3-2.1-0.9c-0.5-0.6-0.8-1.4-0.8-2.3c0-1.1,0.3-2,1-2.8
				c0.3-0.4,0.7-0.7,1.1-1c0.4-0.3,1.1-0.7,2.2-1.2c0.9-0.5,1.8-1,2.5-1.6l0.2-0.2v3.7c0,1.7-0.2,3.1-0.7,4
				c-0.3,0.7-0.8,1.3-1.4,1.7C237.4,38.7,236.7,38.9,236,38.9z M239.9,29.3c-0.7,0.6-1.5,1-2.4,1.5c-1,0.5-1.8,0.9-2.2,1.2
				c-0.4,0.3-0.7,0.6-1.1,1c-0.6,0.8-1,1.7-1,2.7c0,0.9,0.3,1.6,0.8,2.1c0.5,0.6,1.1,0.8,1.9,0.8c0.7,0,1.3-0.2,1.9-0.6
				c0.6-0.4,1.1-0.9,1.4-1.6c0.4-0.9,0.7-2.2,0.7-3.9V29.3z"></path>
</g>
<g>
<path d="M295.5,39.5c-0.2-0.8-0.3-1.7-0.3-2.6c-1.8,1.7-3.9,2.6-6.4,2.6c-1.8,0-3.2-0.4-4.3-1.2c-1.1-0.8-1.6-2-1.6-3.5v-7.1
				l0-1.5c0-0.9-0.1-1.6-0.2-2c-0.1-0.4-0.3-0.8-0.6-1.1c-0.4-0.4-1.2-0.6-2.2-0.8v-0.5h6.3v10.4c0,1.5,0.1,2.5,0.2,3.2
				c0.1,0.7,0.3,1.3,0.6,1.7c0.3,0.5,0.8,0.8,1.3,1.1c0.6,0.3,1.2,0.4,2,0.4c0.8,0,1.6-0.2,2.3-0.5c0.7-0.3,1.3-0.7,1.7-1.2
				c0.4-0.5,0.7-1.1,0.8-1.8c0.1-0.7,0.2-1.8,0.2-3.4v-4l0-1.5c0-0.9-0.1-1.6-0.2-2c-0.1-0.4-0.3-0.8-0.7-1.1
				c-0.4-0.4-1.2-0.6-2.2-0.8v-0.5h6.3v11.1c0,1.4,0,2.4,0.1,2.9c0.1,0.6,0.2,1,0.5,1.4c0.3,0.4,0.6,0.7,0.9,0.8
				c0.3,0.2,0.8,0.3,1.5,0.3v0.4L295.5,39.5z"></path>
<path d="M295.4,39.6l0-0.1c-0.2-0.8-0.3-1.5-0.3-2.3c-1.8,1.6-3.9,2.4-6.2,2.4c-1.8,0-3.3-0.4-4.4-1.3c-1.1-0.8-1.6-2-1.6-3.6
				v-7.1l0-1.5c0-0.9-0.1-1.6-0.2-2c-0.1-0.4-0.3-0.7-0.6-1c-0.4-0.3-1.1-0.6-2.2-0.8l-0.1,0v-0.7h6.6v10.5c0,1.5,0.1,2.5,0.2,3.2
				c0.1,0.7,0.3,1.2,0.6,1.7c0.3,0.4,0.7,0.8,1.3,1c0.6,0.3,1.2,0.4,1.9,0.4c0.8,0,1.5-0.1,2.2-0.4c0.7-0.3,1.2-0.7,1.6-1.2
				c0.4-0.5,0.7-1.1,0.8-1.8c0.1-0.7,0.2-1.8,0.2-3.4v-4l0-1.5c0-0.9-0.1-1.6-0.2-2c-0.1-0.4-0.3-0.7-0.6-1
				c-0.4-0.3-1.1-0.6-2.2-0.8l-0.1,0v-0.7h6.6v11.2c0,1.4,0,2.4,0.1,2.9c0.1,0.5,0.2,1,0.4,1.3c0.2,0.4,0.5,0.6,0.9,0.8
				c0.3,0.2,0.8,0.3,1.4,0.3l0.1,0v0.7l-0.1,0L295.4,39.6z M280,22.1c1.1,0.2,1.8,0.5,2.2,0.8c0.3,0.3,0.6,0.7,0.7,1.1
				c0.1,0.4,0.2,1.1,0.2,2.1l0,1.5v7.1c0,1.4,0.5,2.6,1.5,3.4c1.1,0.8,2.5,1.2,4.3,1.2c2.4,0,4.5-0.8,6.3-2.5l0.2-0.2v0.3
				c0,0.8,0.1,1.6,0.3,2.4l5.7-0.7v-0.2c-0.6,0-1.1-0.2-1.4-0.3c-0.4-0.2-0.7-0.5-1-0.9c-0.2-0.4-0.4-0.9-0.5-1.4
				c-0.1-0.6-0.1-1.6-0.1-3v-11h-6.1v0.2c1.1,0.2,1.8,0.5,2.2,0.8c0.3,0.3,0.6,0.7,0.7,1.1c0.1,0.4,0.2,1.1,0.2,2.1l0,1.5v4
				c0,1.6-0.1,2.8-0.2,3.5c-0.1,0.7-0.4,1.3-0.8,1.9c-0.4,0.5-1,1-1.7,1.3c-0.7,0.3-1.5,0.5-2.3,0.5c-0.7,0-1.4-0.1-2-0.4
				c-0.6-0.3-1.1-0.7-1.4-1.1c-0.3-0.5-0.5-1.1-0.6-1.8c-0.1-0.7-0.2-1.8-0.2-3.3V21.9H280V22.1z"></path>
</g>
<g>
<path d="M309.8,21.4c0.2,0.8,0.3,1.5,0.3,2.2V24c1.8-1.7,3.9-2.5,6.3-2.5c1.8,0,3.3,0.4,4.4,1.2c1.1,0.8,1.7,1.9,1.7,3.4v8.7
				c0,0.9,0.1,1.6,0.2,2c0.1,0.4,0.3,0.8,0.7,1.1c0.4,0.4,1.1,0.6,2.2,0.8v0.4h-9.5v-0.4c0.9-0.1,1.5-0.3,1.8-0.5
				c0.4-0.2,0.7-0.5,0.9-1c0.2-0.3,0.3-0.8,0.3-1.4c0.1-0.6,0.1-1.5,0.1-2.7v-4.3c0-1.5-0.1-2.6-0.2-3.3c-0.1-0.7-0.3-1.3-0.6-1.7
				c-0.3-0.5-0.8-0.8-1.4-1.1c-0.6-0.3-1.3-0.4-2-0.4c-0.8,0-1.5,0.2-2.2,0.5c-0.7,0.3-1.2,0.7-1.6,1.2c-0.4,0.5-0.7,1.2-0.8,1.8
				c-0.1,0.7-0.2,1.8-0.2,3.4v4l0,1.5c0,0.9,0.1,1.6,0.2,2c0.1,0.4,0.3,0.8,0.7,1.1c0.4,0.4,1.1,0.6,2.2,0.8v0.4h-9.5v-0.4
				c0.9-0.1,1.5-0.3,1.8-0.5c0.4-0.2,0.7-0.5,0.9-1c0.2-0.3,0.3-0.8,0.3-1.4c0.1-0.6,0.1-1.5,0.1-2.7v-5c0-1.4,0-2.4-0.1-2.9
				c-0.1-0.6-0.2-1-0.5-1.4c-0.2-0.4-0.5-0.7-0.9-0.8c-0.3-0.2-0.8-0.3-1.5-0.3v-0.4L309.8,21.4z"></path>
<path d="M325.7,39.2H316v-0.7l0.1,0c0.8-0.1,1.4-0.3,1.8-0.4c0.3-0.2,0.6-0.5,0.8-1c0.1-0.3,0.3-0.8,0.3-1.4
				c0.1-0.7,0.1-1.6,0.1-2.7v-4.3c0-1.5-0.1-2.6-0.2-3.2c-0.1-0.7-0.3-1.2-0.6-1.6c-0.3-0.5-0.8-0.8-1.4-1.1c-0.6-0.3-1.3-0.4-2-0.4
				c-0.8,0-1.5,0.1-2.2,0.4c-0.7,0.3-1.2,0.7-1.6,1.2c-0.4,0.5-0.7,1.1-0.8,1.8c-0.1,0.7-0.2,1.8-0.2,3.4v4l0,1.5
				c0,0.9,0.1,1.6,0.2,2c0.1,0.4,0.3,0.7,0.6,1c0.4,0.4,1.1,0.6,2.2,0.8l0.1,0v0.7h-9.8v-0.7l0.1,0c0.8-0.1,1.4-0.3,1.8-0.4
				c0.3-0.2,0.6-0.5,0.9-1c0.1-0.3,0.3-0.8,0.3-1.4c0.1-0.6,0.1-1.6,0.1-2.7v-5c0-1.4,0-2.4-0.1-2.9c-0.1-0.5-0.2-1-0.5-1.3
				c-0.2-0.4-0.5-0.6-0.8-0.8c-0.3-0.2-0.8-0.3-1.4-0.3l-0.1,0v-0.7l6.1-0.8l0,0.1c0.2,0.8,0.3,1.6,0.3,2.2v0
				c1.8-1.6,3.8-2.4,6.2-2.4c1.9,0,3.4,0.4,4.5,1.3c1.1,0.8,1.7,2,1.7,3.5v8.7c0,0.9,0.1,1.6,0.2,2c0.1,0.4,0.3,0.7,0.6,1
				c0.4,0.4,1.1,0.6,2.2,0.8l0.1,0V39.2z M316.2,39h9.3v-0.2c-1-0.2-1.8-0.5-2.2-0.8c-0.3-0.3-0.6-0.7-0.7-1.1
				c-0.1-0.4-0.2-1.1-0.2-2.1v-8.7c0-1.4-0.5-2.6-1.6-3.3c-1.1-0.8-2.6-1.2-4.4-1.2c-2.4,0-4.5,0.8-6.3,2.5l-0.2,0.2v-0.6
				c0-0.6-0.1-1.3-0.3-2.1l-5.7,0.7v0.2c0.6,0,1.1,0.2,1.4,0.3c0.4,0.2,0.7,0.5,0.9,0.9c0.3,0.4,0.4,0.9,0.5,1.4
				c0.1,0.6,0.1,1.6,0.1,3v5c0,1.2,0,2.1-0.1,2.7c-0.1,0.7-0.2,1.1-0.3,1.5c-0.2,0.5-0.6,0.9-1,1.1c-0.4,0.2-1,0.3-1.8,0.5V39h9.3
				v-0.2c-1-0.2-1.8-0.5-2.2-0.8c-0.3-0.3-0.6-0.7-0.7-1.1c-0.1-0.4-0.2-1.1-0.2-2.1l0-1.5v-4c0-1.6,0.1-2.8,0.2-3.4
				c0.1-0.7,0.4-1.3,0.9-1.9c0.4-0.5,1-1,1.7-1.3c0.7-0.3,1.5-0.5,2.3-0.5c0.8,0,1.5,0.1,2.1,0.4c0.6,0.3,1.1,0.7,1.5,1.2
				c0.3,0.4,0.5,1,0.6,1.7c0.1,0.7,0.2,1.8,0.2,3.3v4.3c0,1.2,0,2.1-0.1,2.7c-0.1,0.7-0.2,1.1-0.3,1.5c-0.2,0.5-0.6,0.9-1,1.1
				c-0.4,0.2-1,0.4-1.8,0.5V39z"></path>
</g>
<path d="M15.8,9.1l0.2,0c1.4,0.2,2.5,0.9,3.4,2c0.5,0.7,0.9,1.8,1,3.1c0.1,1,0.2,2.2,0.2,3.5V39c0,2.6-0.1,4.9-0.2,6.9
			c-0.2,2.9-1.2,6.1-3,6.1c-2.2,0-2.6-1.7-2.6-3.1c0-2.4-1.2-2.9-2.2-2.9c-1.4,0-2.2,1.4-2.2,2.1c0,1.3,0.5,2.2,0.8,2.8
			c1.1,1.5,3,2.3,5.7,2.3c1.8,0,3.3-0.6,4.5-1.8c2.9-2.9,2.9-8.2,2.9-8.4c0.1-1.1,0.1-2.4,0.1-3.6V17.7c0-2.1,0.1-3.8,0.3-4.8
			c0.2-1,0.6-1.8,1.1-2.5c0.4-0.5,0.8-0.8,1.3-1c0.4-0.2,1-0.3,1.8-0.4l0.2,0v-1H15.8V9.1z"></path>
<path d="M276.5,22.5l0.5,0.6c0.4,0.5,0.9,0.8,1.5,0.8c0.4,0,0.7-0.1,1-0.4c0.3-0.3,0.4-0.6,0.4-1c0-0.6-0.3-1.1-0.9-1.5
			c-0.5-0.3-1.1-0.5-1.9-0.5c-0.7,0-1.3,0.1-1.9,0.3c-0.5,0.2-1.1,0.5-1.7,1c-1.5-0.8-3.6-1.3-5-1.3c-0.9,0-2.6,0.2-3.5,0.5
			c-0.9,0.4-1.7,0.9-2.3,1.5c-1.1,1.1-1.7,2.4-1.7,3.8c0,1.1,0.4,2.1,1.1,3.1c0.6,0.7,1.3,1.3,2.3,1.8c-0.9,0.2-1.5,0.5-1.9,0.7
			c-1,0.6-1.6,1.4-1.6,2.5c0,1,1.1,1.7,2,2.4l0.1,0c-1.7,0.6-2.2,2.2-2.4,3.2l0,0.1c0,0.4,0,0.6,0,0.6c0,1.2,0.4,2.2,1.3,3
			c1.4,1.2,3.7,1.8,6.9,1.8c3,0,5.3-0.5,6.8-1.5c1.5-1,2.3-2.5,2.3-4.3c0-1.7-0.7-3-2-3.9c-0.7-0.4-1.5-0.8-2.4-1
			c-0.9-0.2-2-0.3-3.2-0.3h-4.3c-1.6,0-2.4-0.3-2.4-1c0-0.8,1-1.2,2.9-1.3c0.8,0,1.8-0.1,2.6-0.1c1,0,1.5-0.1,1.7-0.1
			c1-0.2,1.9-0.5,2.8-1c1.8-1.1,2.7-2.5,2.7-4.4c0-1.4-0.6-2.7-1.6-4C275.3,22,276.1,22,276.5,22.5z M262.3,41.5l0-0.5
			c0,0-0.1-1,0.7-1.9c0.7-0.8,1.9-1.2,3.6-1.2h3.4c1.4,0,2.5,0.2,3.2,0.7c0.7,0.5,1.1,1.1,1.1,2c0,1.1-0.5,2-1.6,2.7
			c-1.1,0.7-2.6,1.1-4.5,1.1c-1.7,0-3.2-0.3-4.3-1C263,42.9,262.4,42.3,262.3,41.5z M271.5,22.7c0.3,0.4,0.6,1.1,0.8,1.8
			c0.2,0.6,0.3,1.3,0.3,2c0,1.3-0.3,2.4-0.9,3.3c-0.8,1.1-2.5,1.2-3.1,1.2c-0.5,0-2.2-0.1-3-1.2c-0.6-0.9-0.9-2-0.9-3.3
			c0-0.7,0.1-1.3,0.3-2c0.2-0.7,0.5-1.4,0.8-1.8c0.9-1,2.1-1.2,2.9-1.2S270.6,21.7,271.5,22.7z"></path>
</g>
<g>
<path class="st0" d="M350.8,34.4c-0.9,0.5-2,0.8-3.3,0.8h-4.3v4.3h-2V27.5h6.3c1.3,0,2.5,0.2,3.3,0.8c1.1,0.7,1.7,1.7,1.7,3.1
			C352.5,32.7,351.9,33.7,350.8,34.4z M349.5,29.7c-0.5-0.3-1.3-0.4-2-0.4h-4.3v4h4.3c0.8,0,1.5-0.1,2-0.4c0.6-0.3,0.9-0.9,0.9-1.6
			C350.5,30.6,350.1,30,349.5,29.7z"></path>
<path class="st0" d="M357.7,36.8l-1.3,2.7h-2.2l5.9-11.9h2.6l5.9,11.9h-2.2l-1.3-2.7H357.7z M364.3,35.1l-2.9-5.9l-2.9,5.9H364.3z
			"></path>
<path class="st0" d="M379.5,34.9l3.9,4.6h-2.4l-3.6-4.3h-3.4v4.3h-2V27.5h6.1c1.3,0,2.5,0.2,3.3,0.8c1.1,0.7,1.7,1.7,1.7,3.1
			C383.1,32.7,382.1,34.4,379.5,34.9z M380.1,29.7c-0.5-0.3-1.3-0.4-2-0.4h-4.1v4h4.1c0.8,0,1.5-0.1,2-0.4c0.6-0.3,0.9-0.9,0.9-1.6
			C381,30.6,380.6,30,380.1,29.7z"></path>
<path class="st0" d="M387.9,39.5V27.5h9.7v1.8h-7.7v3.4h6.6v1.8h-6.6v4.9H387.9z"></path>
<path class="st0" d="M402.8,38.1c-1-1-1.3-2.2-1.3-3.5v-7.1h2v7.1c0,0.8,0.2,1.6,0.9,2.3c0.7,0.6,1.5,1,2.8,1c1.3,0,2.2-0.3,2.8-1
			c0.7-0.6,0.9-1.5,0.9-2.3v-7.1h2.1v7.1c0,1.3-0.4,2.5-1.3,3.5c-1.1,1.1-2.7,1.6-4.4,1.6C405.5,39.7,403.9,39.2,402.8,38.1z"></path>
<path class="st0" d="M426.6,39.5H425l-4.8-10.1v10.1h-1.8V27.5h2.9l4.5,9.5l4.5-9.5h2.9v11.9h-1.8V29.4L426.6,39.5z"></path>
<path class="st0" d="M445.4,37.4c0.5-0.3,0.8-0.8,0.8-1.3c0-3.1-8.6-0.3-8.6-5.1c0-1.2,0.6-2.2,1.7-2.9c0.8-0.5,2-0.8,3.3-0.8
			c2.6,0,4.2,1,5.4,2.2l-1.8,1c-0.8-0.9-2-1.4-3.6-1.4c-0.9,0-1.7,0.1-2.2,0.4c-0.5,0.3-0.8,0.8-0.8,1.3c0,2.7,8.6,0,8.6,5.1
			c0,1.2-0.6,2.3-1.9,3c-0.8,0.5-2.1,0.8-3.5,0.8c-3,0-4.8-1.1-5.9-2.5l1.8-1c0.8,1,2.2,1.7,4.1,1.7C443.9,38,444.8,37.8,445.4,37.4
			z"></path>
</g>
</g>
</svg>