<svg width="122px" height="50px" viewBox="0 0 122 50" version="1.1" xmlns="http://www.w3.org/2000/svg" xmlns:xlink="http://www.w3.org/1999/xlink">
    <g stroke="none" stroke-width="1" fill="none" fill-rule="evenodd">
        <g transform="translate(-979.000000, -829.000000)">
            <g transform="translate(400.000000, 809.000000)">
                <g transform="translate(0.000000, 20.000000)">
                    <g transform="translate(579.000000, 0.000000)">
                        <g stroke-width="1" transform="translate(37.000000, 0.000000)">
                            <path d="M34.8862042,15.6105811 C33.5444812,15.1637185 32.9695477,15.2305744 31.9401851,15.6105811 C30.9888334,15.9612595 30.4700296,15.7288405 30.100271,15.6433784 C30.100271,15.6433784 30.0498493,16.7392483 31.3246606,16.6074286 C31.8666139,16.5500334 32.7929134,16.2854478 33.535919,16.5033603 C34.9743628,16.9268865 34.6131663,17.578732 36.495257,18.8426878 C37.0762158,19.1489007 37.6375133,18.5172381 38.0580108,18.6862701 C38.2806271,18.7755165 38.4277695,19.5437292 38.6935137,19.5979708 C38.9583066,19.6541046 39.3876833,19.0076202 39.8091321,19.1161034 C40.0593376,19.1804365 40.1582782,19.9618943 40.4240224,20.0145591 C40.6884982,20.0713236 41.1340479,19.4541675 41.534567,19.5607586 C41.8367797,19.6414903 41.8748338,20.3705986 42.2173204,20.4497535 C42.4833817,20.5112483 42.9092702,19.8764322 43.2454144,19.9552717 C43.5194037,20.0189741 43.5638001,20.3601917 43.9995192,20.5667514 C44.4060635,20.7584892 44.7796276,20.7439827 44.9315268,20.5188169 C45.1271881,20.2286874 44.894424,19.9306738 44.3496166,19.6809101 C43.4699334,19.2775669 41.9940698,18.8723315 40.5378675,18.4547972 C39.0791282,18.03474 37.8109764,17.5084071 37.7218665,16.7755145 C37.6841295,16.4670941 37.8360287,16.5008375 37.899135,16.524174 C37.3384718,16.110424 37.2217726,15.7193797 37.2499961,15.5033593 L37.2493618,15.503044 C37.2493618,15.503044 37.2487276,15.503044 37.2487276,15.5033593 L37.2484105,15.5033593 L37.2477762,15.503044 C37.1938663,15.5169197 37.1421762,15.5355259 37.0869978,15.549717 C36.692504,15.6506316 36.0183127,15.9896417 34.8862042,15.6105811" id="Fill-5" fill="#E10041"></path>
                            <path d="M26.3645348,13.7421674 C26.2918341,14.0428893 26.2216622,14.3515167 26.1555994,14.6667846 C26.1394789,14.7429928 26.0655139,14.7787253 25.9931293,14.7420442 C25.6533329,14.5760305 25.2929906,14.4002141 24.9083094,14.2164922 C24.8251778,14.1794949 24.8232813,14.1105597 24.907045,14.0713488 C25.3277605,13.8692864 25.7731309,13.7235106 26.2330414,13.6371835 C26.3250235,13.6197916 26.3838162,13.6688051 26.3645348,13.7421674 M24.3077389,13.0253044 C24.2353544,13.3266588 24.1632859,13.6352862 24.100068,13.9502379 C24.082367,14.0261298 24.0109307,14.0621785 23.9385461,14.0261298 C23.5959049,13.8591675 23.2361948,13.68177 22.8524618,13.5008941 C22.7696463,13.461367 22.7677498,13.3936967 22.8524618,13.3541696 C23.2709646,13.1524235 23.7157029,13.0044341 24.17751,12.9206367 C24.2679116,12.9029286 24.3289169,12.9513097 24.3077389,13.0253044 M23.6635481,15.9076185 C23.6486918,15.9844591 23.5769395,16.016397 23.5029745,15.9838267 C23.1634941,15.8174967 22.8031518,15.6404155 22.4184706,15.4579585 C22.3359712,15.4190639 22.335023,15.3517097 22.4172063,15.3124989 C22.8366573,15.1088554 23.282976,14.9621309 23.7428866,14.8764362 C23.8345526,14.861574 23.8949257,14.9102714 23.8759604,14.9823688 C23.8004149,15.2824583 23.7318234,15.592983 23.6635481,15.9076185 M22.1504266,12.6727229 C22.0758294,12.9715476 22.0050253,13.2811236 21.9392786,13.5960753 C21.9237902,13.6735484 21.8529861,13.7089646 21.778705,13.6735484 C21.4389086,13.5043725 21.0782502,13.3291885 20.6948334,13.1476802 C20.6104374,13.1084694 20.608857,13.0411152 20.6919886,13.0009557 C21.1120718,12.7979447 21.5593388,12.6515364 22.0195654,12.5655255 C22.1102832,12.5506633 22.1700241,12.5999931 22.1504266,12.6727229 M21.7167515,14.573817 C21.6431026,14.8729578 21.5726145,15.1809528 21.5062357,15.4962207 C21.489799,15.5743262 21.4177306,15.60911 21.3450299,15.5743262 C21.0058657,15.4070476 20.6439429,15.2296501 20.2595778,15.0478256 C20.1777106,15.008931 20.1761301,14.940312 20.2583135,14.9004687 C20.6780806,14.6996711 21.123451,14.5532629 21.5855742,14.4669358 C21.6766081,14.4495438 21.7354008,14.4995061 21.7167515,14.573817 M21.2878177,16.5179164 C21.2125883,16.8176898 21.1427325,17.1260009 21.0766698,17.4412688 C21.0608653,17.5190581 20.9891129,17.5528933 20.9151479,17.5190581 C20.5756676,17.352412 20.2159574,17.1740658 19.8309602,16.9922413 C19.7487768,16.9530304 19.7465642,16.8847277 19.8293797,16.8455168 C20.2491469,16.6437706 20.6948334,16.4967299 21.1547439,16.4113515 C21.2464099,16.3936433 21.3074153,16.4432893 21.2878177,16.5179164 M19.6997829,13.5486428 C19.6861911,13.6261159 19.6138065,13.6608997 19.541422,13.6261159 C19.1984646,13.4578887 18.8397028,13.2823885 18.4550216,13.1002477 C18.37189,13.0610369 18.3696774,12.9952638 18.4531251,12.9547881 C18.8738405,12.7514608 19.319527,12.6041039 19.7813341,12.5196741 C19.8714196,12.5038633 19.9305284,12.5506633 19.9125113,12.6265553 C19.8363337,12.92538 19.7674261,13.2333749 19.6997829,13.5486428 M19.4819971,14.5118385 C19.4083482,14.8138253 19.3369119,15.1189743 19.2727457,15.4364558 C19.2528321,15.5117153 19.1836084,15.5474478 19.1096434,15.5117153 C18.769847,15.3450692 18.4079242,15.1686203 18.0248235,14.987112 C17.9423241,14.9475849 17.9416919,14.880547 18.0229269,14.84102 C18.442378,14.6370603 18.8883806,14.4912844 19.3498716,14.4055897 C19.4424859,14.3897789 19.5019108,14.43816 19.4819971,14.5118385 M19.0628621,16.4309569 C18.9888971,16.7329437 18.9187252,17.0380927 18.8536107,17.3552579 C18.8378063,17.4305175 18.7651056,17.4662499 18.6927211,17.4305175 C18.3516603,17.2638713 17.9922662,17.0874225 17.6069529,16.905598 C17.5247695,16.8660709 17.5225569,16.7993492 17.6050563,16.7607708 C18.0254557,16.5571273 18.4689295,16.4097704 18.9316849,16.3243919 C19.0224027,16.3088973 19.0815114,16.3575946 19.0628621,16.4309569 M17.3025585,13.8098377 C16.9596011,13.6447727 16.5995749,13.4657941 16.2155259,13.2858669 C16.1342908,13.2460236 16.1323943,13.1783532 16.2142615,13.1381937 C16.634977,12.9367638 17.0806635,12.7903555 17.5427867,12.704977 C17.631924,12.6882175 17.6913488,12.7365987 17.6736478,12.8105933 C17.5987345,13.1109991 17.5282465,13.4193102 17.463132,13.7348944 C17.4457471,13.8098377 17.3739947,13.8458864 17.3025585,13.8098377 M17.2377601,14.7303442 C17.1631629,15.0288526 17.0926749,15.3365313 17.0278765,15.6549614 C17.0114398,15.7324345 16.938107,15.7662696 16.8669868,15.730221 C16.5249777,15.5651559 16.1674803,15.387126 15.7821669,15.2059339 C15.698087,15.1651419 15.6958744,15.0996851 15.7786899,15.0598418 C16.1997214,14.8558821 16.6447757,14.7091576 17.1068989,14.625044 C17.1976167,14.6101819 17.2567255,14.6591954 17.2377601,14.7303442 M16.8173607,16.6640085 C16.7424475,16.964098 16.6732238,17.2705119 16.6065289,17.5879933 C16.5910405,17.6660988 16.5202364,17.6993016 16.4472197,17.664834 C16.1052106,17.4978716 15.747397,17.3211065 15.3605032,17.1383334 C15.2783199,17.0984901 15.2757912,17.032717 15.3573423,16.99319 C15.7802704,16.7885978 16.2246925,16.6418733 16.6858674,16.5583922 C16.7769013,16.5419489 16.8366422,16.5919111 16.8173607,16.6640085 M15.0213389,14.192776 C14.6793298,14.0258136 14.3196197,13.8487324 13.9368351,13.6665916 C13.8540196,13.629278 13.8495943,13.563505 13.9336742,13.521132 C14.3543896,13.3178047 14.7984957,13.1726613 15.2603028,13.0872828 C15.3519688,13.0717882 15.4104454,13.1192207 15.3924283,13.194164 C15.3187794,13.4917238 15.247027,13.8012999 15.1819125,14.1159354 C15.1670563,14.1946733 15.0934074,14.2281922 15.0213389,14.192776 M14.7207376,16.1406701 C14.7052492,16.2168783 14.6344451,16.2522945 14.5604801,16.2168783 C14.2206837,16.048651 13.8584448,15.8725184 13.4766084,15.6903777 C13.3953734,15.6521155 13.3912642,15.58571 13.4747119,15.5458667 C13.8944791,15.3415908 14.3411138,15.1948663 14.8003922,15.1117013 C14.89111,15.0958905 14.9524314,15.1423744 14.933466,15.2173177 C14.8585527,15.517091 14.7874325,15.826667 14.7207376,16.1406701 M14.2886429,18.0755993 C14.2731546,18.1521237 14.2010861,18.1862751 14.1277533,18.1521237 C13.7866925,17.9845289 13.4279306,17.8083963 13.0435655,17.6259393 C12.9604339,17.5879933 12.957273,17.5200068 13.0410368,17.4792148 C13.460804,17.27652 13.9074387,17.1304279 14.3682976,17.0456819 C14.4583831,17.0305035 14.5184402,17.077936 14.5007392,17.1519307 C14.4248776,17.4510716 14.3559701,17.7603314 14.2886429,18.0755993 M12.928825,14.6342143 C12.9127044,14.7116874 12.8415842,14.7471036 12.7695157,14.7110549 C12.4265584,14.5463061 12.0677965,14.3708059 11.6824832,14.1848706 C11.600932,14.1491381 11.5965068,14.0792542 11.6809027,14.0403596 C12.1013021,13.8376648 12.5466725,13.6937862 13.0081635,13.605878 C13.1001456,13.5891185 13.15799,13.6387645 13.140289,13.7133917 C13.0660079,14.0122163 12.9942555,14.3202113 12.928825,14.6342143 M12.6623613,15.8212913 C12.5877641,16.1210646 12.5172761,16.4290596 12.4508973,16.7443275 C12.4338284,16.8195871 12.36176,16.8565844 12.2887433,16.8195871 C11.9498951,16.6542058 11.5889206,16.4758596 11.2055038,16.2949838 C11.1226883,16.2564053 11.1214239,16.1890512 11.2039233,16.1492079 C11.62211,15.9471455 12.069377,15.8013697 12.5296036,15.7144101 C12.6212697,15.6982831 12.682275,15.7472967 12.6623613,15.8212913 M12.2261575,17.8178828 C12.1521925,18.1170237 12.0826528,18.4247024 12.0159578,18.7390217 C11.9992051,18.8158623 11.928401,18.851911 11.8550682,18.8158623 C11.5152717,18.6495324 11.1552455,18.4730835 10.7705643,18.2893617 C10.6877488,18.2517319 10.6861684,18.1850102 10.7674034,18.1451669 C11.1878028,17.9424721 11.6331732,17.7957476 12.0962446,17.7110016 C12.185698,17.6932934 12.2470194,17.7432557 12.2261575,17.8178828 M10.5186408,15.3365313 C10.1772639,15.1705176 9.81628945,14.9934363 9.43160825,14.8138253 C9.3500571,14.7749307 9.34816056,14.705363 9.43034389,14.6667846 C9.85011105,14.4653547 10.2980102,14.3176815 10.7569725,14.230722 C10.8499028,14.2158598 10.9077473,14.2629761 10.8900462,14.337287 C10.8132364,14.6383251 10.7449611,14.9460039 10.6785822,15.2609556 C10.6630938,15.3384286 10.5916575,15.3741611 10.5186408,15.3365313 M10.4272909,16.3721406 C10.3517454,16.673495 10.2812574,16.9818062 10.2161429,17.2970741 C10.1990741,17.3726498 10.12827,17.4090147 10.0555694,17.3726498 C9.71450855,17.2063199 9.35479845,17.0295549 8.97138161,16.8470979 C8.8888822,16.8094681 8.88603739,16.7417978 8.96790463,16.7000572 C9.38830396,16.4989434 9.83399047,16.3515865 10.293901,16.2658918 C10.3871475,16.2494486 10.4472045,16.3003594 10.4272909,16.3721406 M8.46563806,15.4203287 C8.44856921,15.4990666 8.37744902,15.531637 8.30474839,15.4990666 C7.96368757,15.3292583 7.60366138,15.1547068 7.21898018,14.9725661 C7.1355325,14.9336714 7.13521641,14.8669497 7.21739974,14.8248929 C7.63748298,14.6228305 8.08348558,14.4764222 8.54529267,14.3919924 C8.63442997,14.3742843 8.69417093,14.4226654 8.67678599,14.4957115 C8.60092446,14.7973821 8.53170081,15.1060094 8.46563806,15.4203287 M8.03038251,17.356839 C8.01426193,17.4343121 7.94187738,17.4690959 7.86886066,17.4343121 C7.52938029,17.2676659 7.16903801,17.0893198 6.78498899,16.9090763 C6.70217349,16.8686006 6.69964477,16.8021951 6.78277637,16.7607708 C7.20254352,16.5615543 7.64886221,16.4138812 8.1106693,16.3272378 C8.20170314,16.311427 8.26144409,16.3601244 8.24311089,16.4328542 C8.16788154,16.7329437 8.09739353,17.0409387 8.03038251,17.356839 M5.94450642,13.6213726 C5.86358745,13.5831104 5.86263918,13.5157563 5.94450642,13.4771779 C6.36458966,13.2725858 6.81059226,13.125545 7.27113499,13.0411152 C7.36027229,13.0253044 7.42032934,13.0736855 7.40357658,13.1467316 C7.32866332,13.4455562 7.25754313,13.7557647 7.19242865,14.0713488 C7.17694025,14.1481894 7.10423961,14.1823408 7.03122289,14.1469246 C6.69142644,13.9812271 6.33140024,13.8038296 5.94450642,13.6213726 M6.05924699,16.337673 C6.04312641,16.4141974 5.97074187,16.4499299 5.89804123,16.4132488 C5.55666433,16.2462864 5.19695422,16.0701538 4.81164085,15.888013 C4.73072188,15.8497508 4.7269288,15.7817643 4.80942822,15.741921 C5.22982755,15.5395424 5.67677842,15.3928179 6.13700506,15.3090205 C6.22867108,15.2903637 6.28904422,15.3390611 6.27165928,15.4124233 C6.19390121,15.7144101 6.12467756,16.0239862 6.05924699,16.337673 M3.70121765,14.1181489 C3.6196665,14.0779894 3.61713778,14.0122163 3.6996372,13.9711082 C4.11908826,13.7680971 4.56603913,13.6213726 5.02689795,13.5347293 C5.1176157,13.5189185 5.17735666,13.5666672 5.15997172,13.6397132 C5.08411019,13.9407514 5.01330609,14.2493787 4.94661116,14.5649629 C4.93017449,14.6424359 4.85968649,14.6784846 4.78603758,14.6414873 C4.44655722,14.4735763 4.08431839,14.2980761 3.70121765,14.1181489 M3.46604689,12.132625 C3.88771059,11.9305626 4.33466145,11.7847868 4.79615245,11.6984597 C4.88655411,11.6798029 4.94661116,11.7297651 4.92669751,11.8031273 C4.85178424,12.1041655 4.78161232,12.4118442 4.71586566,12.7258473 C4.69816464,12.8039528 4.62704445,12.8406339 4.55434381,12.8033204 C4.21201864,12.6360418 3.85420507,12.4599092 3.46762734,12.2784009 C3.38639228,12.2401386 3.38544401,12.1740494 3.46604689,12.132625 M3.98696276,10.3093203 C4.40799427,10.1053606 4.85210033,9.96084959 5.31359133,9.87578733 C5.40399299,9.8580792 5.46405004,9.90709277 5.44698119,9.97887393 C5.37080357,10.281177 5.30126383,10.5894881 5.23488499,10.9028588 C5.21876441,10.9800156 5.14701205,11.0179616 5.07273096,10.9800156 C4.73356669,10.8124208 4.37385658,10.635972 3.98791103,10.453515 C3.90699206,10.4152528 3.90446334,10.3478987 3.98696276,10.3093203 M5.3666944,8.72381035 C5.78488111,8.52079931 6.23151589,8.37502347 6.69458733,8.289645 C6.78498899,8.27288552 6.84441386,8.32126666 6.82450021,8.3946289 C6.7508513,8.69471843 6.68004721,9.00208094 6.61524881,9.31798129 C6.59912824,9.39513814 6.5264276,9.43150304 6.4524626,9.39513814 C6.11171788,9.22912444 5.7513756,9.05204316 5.36859094,8.86895376 C5.28419499,8.83005912 5.28356281,8.76396986 5.3666944,8.72381035 M7.18989993,11.3506214 C7.11435449,11.6510272 7.04449866,11.9580735 6.97780373,12.2733414 C6.96136706,12.3504982 6.89087905,12.3884442 6.81723015,12.3504982 C6.47616933,12.1844845 6.11645923,12.0074032 5.73209412,11.8252625 C5.65054298,11.7879489 5.64801426,11.7199624 5.73082977,11.678538 C6.15091301,11.4761594 6.59912824,11.331016 7.05872269,11.2453213 C7.14786,11.228878 7.20854922,11.2763105 7.18989993,11.3506214 M8.03038251,9.59909783 C8.12362897,9.58265457 8.18273775,9.63071948 8.1628241,9.7053466 C8.08917519,10.0060686 8.01773892,10.3137473 7.95136007,10.6283828 C7.93650386,10.7052234 7.86633194,10.7403234 7.79268303,10.7052234 C7.45162222,10.5363637 7.09064776,10.3624446 6.70754701,10.1793552 C6.62504759,10.141093 6.6218867,10.0734227 6.7047022,10.0326307 C7.12415327,9.83025214 7.57015587,9.68416009 8.03038251,9.59909783 M7.16745756,7.51206845 C7.58722471,7.31032227 8.03164686,7.16328157 8.49377004,7.07758687 C8.5841717,7.06209226 8.64359657,7.11078962 8.62557946,7.18415186 C8.55003401,7.48487382 8.47922991,7.7916039 8.4150637,8.10750425 C8.3995753,8.18592596 8.32782294,8.21944492 8.25449012,8.18371245 C7.91216495,8.01769875 7.55340311,7.83998503 7.16903801,7.65879294 C7.08559032,7.62053073 7.0830616,7.55159552 7.16745756,7.51206845 M9.1777882,6.56689711 C9.59913581,6.36388607 10.043558,6.21842645 10.505365,6.13115067 C10.5960828,6.11597228 10.6561398,6.1640372 10.6365423,6.23676701 C10.5613129,6.53654032 10.491141,6.84516769 10.4263426,7.15948697 C10.4095899,7.23759246 10.3381536,7.27300872 10.2645047,7.23759246 C9.92344386,7.07063011 9.56373376,6.8929164 9.17968474,6.71235673 C9.09813359,6.67409453 9.09434052,6.60642418 9.1777882,6.56689711 M34.5841319,12.1920737 C35.1960816,12.1927062 35.5738089,12.662604 35.6420842,12.8747853 C35.6420842,12.8747853 34.7213149,13.0784288 34.3205131,13.1628586 C34.0584747,13.2185127 33.886838,13.1068883 33.8609186,12.9007151 C33.8277292,12.6727229 34.0733309,12.1876467 34.5841319,12.1920737 M36.8574492,12.26259 C36.9519601,12.0219492 37.1498322,11.8575166 37.3543423,11.856884 C37.719742,11.8565679 37.8951718,12.2562657 37.8942273,12.3783253 L37.0110688,12.5756444 C36.7632545,12.6237093 36.7695763,12.4886849 36.8574492,12.26259 M46.7735,19.7218228 C46.3948245,19.482763 46.0626142,19.4533549 45.7164959,19.348371 C45.2474188,19.2063897 45.0972761,18.6308756 44.9234268,18.5644701 C44.5725672,18.4300781 44.2492074,18.9651165 44.0367951,18.8949164 C43.8240667,18.8272461 43.7374582,18.1223993 43.5648732,18.0578912 C43.2266572,17.9323532 42.8615735,18.4699213 42.6478969,18.4000375 C42.4358007,18.3323671 42.3210601,17.6373231 42.1487912,17.574396 C41.7960351,17.4450634 41.4341123,18.0044506 41.2226483,17.9348829 C41.0092878,17.8662639 40.9508112,17.1446577 40.7772779,17.0788846 C40.400815,16.9369034 40.0556451,17.5083067 39.7240669,17.4558148 C39.5126029,17.4232445 39.0504797,17.345139 38.4429553,16.9381683 C38.2691059,16.8221168 37.9084476,16.53183 37.8796834,16.5207624 C37.8180459,16.4973624 37.6622137,16.4587839 37.7004605,16.7721546 C37.7892817,17.5067257 39.0533245,18.0344911 40.5073373,18.4556916 C41.9588213,18.8743623 43.4299029,19.2810169 44.3067357,19.6851416 C44.8494618,19.9355852 45.0817878,20.2344098 44.8867604,20.5253291 C44.7353534,20.7514239 44.3626836,20.7656537 43.9577727,20.573394 C43.5234654,20.3662721 43.4792129,20.024442 43.2061113,19.9605663 C42.8710562,19.8815121 42.4465477,20.5177399 42.1813484,20.4560776 C41.8399715,20.3767073 41.8020408,19.6456146 41.5008073,19.5649793 C41.1015859,19.4577819 40.6574799,20.0766178 40.3938611,20.020015 C40.1289779,19.9672068 40.0303579,19.1836222 39.7809631,19.1187978 C39.3608798,19.0103355 38.9328944,19.6582632 38.6689594,19.6019767 C38.4040762,19.5475874 38.2574106,18.7772839 38.0355156,18.6877946 C37.6163807,18.5183025 37.0569018,19.1516843 36.4778255,18.844638 C34.601833,17.577242 34.9618592,16.9239385 33.5280762,16.4989434 C32.7874779,16.2804378 31.8638638,16.5460597 31.3236664,16.6032949 C30.0533018,16.7354734 30.1035601,15.6369371 30.1035601,15.6369371 C30.4721207,15.7226318 30.9892435,15.9556834 31.9375127,15.6037343 C32.9635399,15.2226934 33.5362945,15.1556554 34.8739862,15.6037343 C36.0024265,15.9838267 36.6744333,15.6442101 37.0676489,15.5427045 C37.261728,15.4924261 37.4106062,15.3864935 37.776006,15.6192289 C38.1407735,15.8516481 38.4916331,16.108416 38.6711721,16.0211402 C38.9477506,15.8861157 38.8491306,15.1449041 39.3264261,14.987112 C39.5442119,14.9150146 40.1390927,15.5104504 40.3989185,15.4111584 C40.6596925,15.3109178 40.5790896,14.5339737 41.0548047,14.376814 C41.2738548,14.3056653 41.8687357,14.9004687 42.1285615,14.8018091 C42.3909159,14.6996711 42.3093648,13.9243081 42.7844476,13.7658836 C43.0034978,13.6944187 43.5993269,14.2904869 43.8582044,14.1918273 C44.1183463,14.0900056 44.0396399,13.3136939 44.5147228,13.1543208 C44.7318764,13.0834882 45.3299182,13.6805051 45.5881635,13.5808969 L45.5881635,13.5805807 C45.8486214,13.4771779 45.811955,13.2808074 46.0208903,12.7527257 C46.0616659,12.6486905 46.1381596,12.5462363 46.2440497,12.4589605 C46.53422,12.220217 46.9739008,11.7114245 46.7153394,11.139705 C46.4798526,10.6233233 45.994971,10.6397666 44.9294325,10.8592209 C44.0333181,11.0445238 38.4685586,12.2676495 38.4685586,12.2676495 C37.6002601,10.6609531 37.0126493,11.7218597 35.7230032,11.5662811 C34.9071756,11.468254 33.5878171,10.6353395 31.5000445,12.5636282 C30.3776099,12.243617 29.3863525,12.5275795 28.6473347,12.9424557 C27.3949873,12.4314497 25.0059811,11.2057942 20.4669327,11.2057942 C19.1826601,11.2057942 16.1203829,11.4593999 11.2459633,12.7432392 C9.99835713,13.0721044 8.85885367,13.0009557 8.5810108,12.2603765 C8.29305307,11.4850135 9.29316095,10.6723369 11.1789522,9.76795748 C15.8561319,7.52724684 18.9784662,8.0550123 25.2670712,4.72367071 C28.6381681,2.9395768 28.8584827,0.845906872 28.8553218,0.339011706 C28.8553218,-0.00787787493 28.5025656,-0.12456179 28.2990039,0.160033125 C27.1645578,1.74364572 26.8731231,1.61209963 26.520367,1.25920193 C26.048445,0.787406806 25.7317231,1.53684008 25.224083,1.91503511 C24.8390857,2.20152732 24.7619599,1.85653504 24.4496632,1.6554213 C23.9176842,1.31106145 23.4691529,2.32833017 23.0127193,2.53260607 C22.483269,2.77040093 22.3868617,2.50477901 22.2066905,2.31726259 C22.0802546,2.18413541 21.8510896,2.18761379 21.6864068,2.34414099 C20.6135983,3.36393944 20.4568178,3.24725553 20.1359867,2.90763893 C19.8982873,2.6552981 19.7683744,2.47948169 19.0751896,3.18274735 C18.6740718,3.58940186 18.0039616,4.07068348 17.8019802,3.5634721 C17.5984184,3.05562828 17.4223565,2.75933335 16.4390013,3.65833707 C15.8561319,4.18958091 15.4591232,4.23353502 15.282429,3.98214284 C15.1051027,3.72916958 15.1329186,3.03855259 14.2115171,3.76426962 C13.3862068,4.41409468 12.9708649,4.80588701 12.6987116,4.17724847 C12.4354089,3.56979643 11.8275684,4.08080241 11.3663935,4.52065967 C11.1245848,4.7521302 10.7228348,5.3017146 10.3985267,4.7426437 C10.075483,4.18958091 9.56025677,4.76066804 8.89773271,5.46108775 C8.52506292,5.85382874 8.27566813,5.68149071 7.90647533,5.41966338 C7.48133466,5.11546304 7.03248725,6.20293183 6.41611229,6.85497041 C6.30010736,6.96280026 6.13226371,7.04153819 5.76022611,6.78255681 C5.280718,6.45179428 4.51894176,8.13944213 4.30305248,8.55273719 C3.94839981,9.22090281 3.55960945,8.37755321 3.14679627,8.98152686 C2.18556742,10.3899555 1.15701146,11.9511167 0.865260646,14.7180117 C0.515981502,18.0287992 1.74240963,20.7251779 2.98780314,21.7162007 C2.98780314,21.7162007 2.83608007,22.0871227 2.66223073,22.5525935 C2.31421594,23.4857486 2.1710273,24.6965419 2.61766208,25.5458996 C3.04944064,26.3661654 4.06092775,27.7309561 4.43675844,26.4423736 C4.61914221,25.8168972 4.79141111,25.8497837 5.39387812,26.2763599 C6.30390043,26.9179633 6.08105718,25.747962 6.26375704,25.4017048 C6.39208947,25.1588505 6.55013433,25.064618 7.29958306,25.5591807 C7.73104554,25.839981 7.86949284,25.4586238 7.99782526,24.924534 C8.3935696,23.2748322 7.61440843,22.8688101 6.84441386,22.713864 C6.28367069,22.6012909 5.69416336,22.6952072 5.69416336,22.6952072 C6.92090758,20.8235213 7.07294673,19.802458 5.69542772,18.8544407 C5.90088604,18.7513541 6.06904577,18.8076406 6.24510775,18.8819515 C6.58395593,19.0251977 6.86717232,19.2857601 7.04671129,19.6019767 C7.2369973,19.9377987 7.54866177,20.687232 6.91648232,22.0185037 C7.1816816,22.0185037 8.19791006,22.0826957 8.65718843,23.1268428 C9.25902326,23.3209998 13.1504039,23.6299434 14.8493861,23.3554674 C15.4673415,23.2558592 15.7464488,22.6974207 16.3628237,22.1231714 C17.0354626,21.4964302 17.8168364,20.8165645 18.5144465,21.3259894 C17.3262652,21.8132792 16.4892596,22.7378964 16.4892596,23.9097951 C16.4892596,24.790142 16.8518145,25.1430397 17.4814652,25.6663781 C18.0501107,26.1400705 18.2264887,26.8907687 18.4351079,27.4748207 C18.7009394,28.2176134 19.2601021,28.2410135 19.3846415,27.5358505 C19.5562782,26.5603224 19.8508738,26.7418307 20.2279689,27.1579717 C20.686615,27.6629696 21.0437964,27.5858127 21.0450608,26.8585146 C21.0463252,26.1707435 21.2520996,25.8308107 22.0211459,26.6260954 C22.3328103,26.9489525 22.708641,26.9369363 22.7029514,26.2343031 C22.6953652,25.3757751 23.0806786,25.4586238 23.561135,25.8260675 C23.7283465,25.9541352 23.8443514,26.0461542 23.934437,26.0417272 C24.3131124,26.0211731 24.5621912,25.2853371 24.2707564,24.7031824 C24.1256712,24.4125794 23.9138911,23.9774654 21.9509739,23.5730244 C21.3080474,23.4405297 21.4180467,22.9937156 21.4180467,22.9937156 C26.210283,23.226451 30.2726681,22.6237423 32.9433102,20.9996539 C36.225902,21.7917764 41.0288853,21.867036 42.6045926,21.8464819 C44.1793516,21.8275089 45.3839695,21.756044 46.3708016,21.2823515 C47.4107368,20.7830456 47.2545885,20.0241258 46.7735,19.7218228" id="Fill-3" fill="#00552D"></path>
                        </g>
                        <path d="M23.9395351,34.9815823 L27.4893215,42.7856962 L20.6114333,42.7856962 L23.9395351,34.9815823 Z M3.11410072,31.9046835 L0.00799827676,31.9046835 L0.00799827676,49.4749367 L12.4021783,49.4749367 L12.4021783,46.6657595 L3.11410072,46.6657595 L3.11410072,31.9046835 Z M95.9907832,34.7141772 L95.9907832,49.4749367 L99.0968857,49.4749367 L99.0968857,34.7141772 L105.220291,34.7141772 L105.220291,31.9046835 L90.0437181,31.9046835 L90.0437181,34.7141772 L95.9907832,34.7141772 Z M62.8867344,46.7103797 C59.4254329,46.7103797 56.8077292,44.0790506 56.8077292,40.6894937 C56.8077292,37.3005696 59.4254329,34.669557 62.8867344,34.669557 C66.3480359,34.669557 68.9660546,37.3005696 68.9660546,40.6894937 C68.9660546,44.0790506 66.3480359,46.7103797 62.8867344,46.7103797 L62.8867344,46.7103797 Z M44.2938899,34.669557 C46.9119085,34.669557 48.37616,36.0961392 49.2194429,36.8546835 L51.3937775,34.7141772 C50.6840092,33.9113291 48.5984743,31.5477215 44.24949,31.5477215 C39.2351373,31.5477215 34.7976682,34.9366456 34.7976682,40.6894937 C34.7976682,46.4426582 39.1907374,49.8318987 44.2050901,49.8318987 C48.0659906,49.8318987 50.6840092,47.7356962 51.5266623,46.9774684 L49.7960116,44.5249367 C48.4205599,45.6847468 46.2462252,46.7103797 44.24949,46.7103797 C40.7885034,46.7103797 38.1701699,44.0790506 38.1701699,40.6894937 C38.1701699,37.3005696 40.7885034,34.669557 44.2938899,34.669557 L44.2938899,34.669557 Z M74.7348904,47.7356962 C75.4449736,48.3157595 77.5749084,49.8318987 81.3026092,49.8318987 C85.0740801,49.8318987 88.1357827,47.7806329 88.1357827,44.569557 C88.1357827,37.8803165 78.5069911,40.0208228 78.5069911,36.3641772 C78.5069911,35.3385443 79.3499591,34.4910759 81.5686936,34.4910759 C84.2311122,34.4910759 85.961448,35.6951899 86.6268165,36.2303165 L87.9144131,33.6436076 C87.1152152,32.8856962 84.6747961,31.5477215 81.5686936,31.5477215 C76.9092251,31.5477215 75.0012897,34.1790506 75.0012897,36.765443 C75.0012897,42.8303165 84.6303962,41.0913924 84.6303962,44.7037342 C84.6303962,46.2198734 83.1217449,46.8882278 81.3910941,46.8882278 C78.7730755,46.8882278 76.6872257,45.7293671 75.7998578,45.0600633 L74.7348904,47.7356962 Z M121.239517,31.9046835 L107.971509,31.9046835 L107.971509,49.4749367 L121.505601,49.4749367 L121.505601,46.6657595 L111.077926,46.6657595 L111.077926,42.0724051 L119.95255,42.0724051 L119.95255,39.2625949 L111.077926,39.2625949 L111.077926,34.7141772 L121.239517,34.7141772 L121.239517,31.9046835 Z M30.551024,49.4749367 L34.2116527,49.4749367 L25.8030706,31.9046835 L22.2973692,31.9046835 L14.5321131,49.4749367 L17.7714152,49.4749367 L19.4576661,45.5059494 L28.7318884,45.5059494 L30.551024,49.4749367 Z M62.8867344,49.8318987 C67.9010872,49.8318987 72.3385563,46.4426582 72.3385563,40.6894937 C72.3385563,34.9366456 67.9010872,31.5477215 62.8867344,31.5477215 C57.8726966,31.5477215 53.4349126,34.9366456 53.4349126,40.6894937 C53.4349126,46.4426582 57.8726966,49.8318987 62.8867344,49.8318987 L62.8867344,49.8318987 Z" id="Fill-1" fill="#000000"></path>
                    </g>
                </g>
            </g>
        </g>
    </g>
</svg>