<svg version="1.1" id="Layer_1" xmlns:x="ns_extend;" xmlns:i="ns_ai;" xmlns:graph="ns_graphs;" xmlns="http://www.w3.org/2000/svg" xmlns:xlink="http://www.w3.org/1999/xlink" x="0px" y="0px" viewBox="0 0 237 62.3" style="enable-background:new 0 0 237 62.3;" xml:space="preserve">
 <style type="text/css">
  .st0{fill-rule:evenodd;clip-rule:evenodd;}
 </style>
 <metadata>
  <sfw xmlns="ns_sfw;">
   <slices>
   </slices>
   <sliceSourceBounds bottomLeftOrigin="true" height="62.3" width="237" x="35" y="12.7">
   </sliceSourceBounds>
  </sfw>
 </metadata>
 <g>
  <path class="st0" d="M94.2,57.1v-2.4h3.3c0.9,0,1.7,0.1,1.7,1.2c0,1.1-0.8,1.2-1.7,1.2H94.2z M92.6,62h1.6v-3.4h3
		c1.4,0,3.7,0,3.7-2.7c0-2.7-2.3-2.7-3.7-2.7h-4.6V62z">
  </path>
  <path class="st0" d="M106,58.5l1.7-3.9l1.7,3.9H106z M102.7,62h1.7l0.9-2h4.7l0.9,2h1.7l-4-8.8h-1.8L102.7,62z">
  </path>
  <path class="st0" d="M118.2,57.1v-2.5h3.1c1.3,0,2,0.2,2,1.2c0,1-0.7,1.2-2,1.2H118.2z M116.6,62h1.6v-3.5h2.5l2.4,3.5h2l-2.5-3.6
		c1.2-0.1,2.3-1,2.3-2.6c0-2.2-1.4-2.6-3.3-2.6h-4.9V62z">
  </path>
  <path class="st0" d="M129.9,62h1.6v-8.8h-1.6V62z">
  </path>
  <path class="st0" d="M142.8,55.9c-0.3-0.8-0.9-1.5-2.9-1.5c-1.1,0-2.2,0.3-2.2,1.1c0,0.4,0.2,0.8,1.8,1l1.9,0.3
		c1.8,0.3,2.9,1.1,2.9,2.5c0,2.1-1.8,2.9-4,2.9c-3.5,0-4.4-1.9-4.6-2.5l1.5-0.5c0.3,0.6,0.9,1.6,3.1,1.6c1.3,0,2.4-0.5,2.4-1.2
		c0-0.6-0.6-0.9-1.8-1.1l-2-0.3c-1.9-0.3-2.9-1.2-2.9-2.5c0-2.6,3.2-2.6,3.8-2.6c3.5,0,4.1,1.7,4.3,2.3L142.8,55.9z">
  </path>
  <path class="st0" d="M204.3,39.4c0.7,6.1,3.6,5.2,3.8,5.7c0,0-11.4,0-11.4,0c-0.1-0.2,3.3-0.1,2.6-5.4l-3-23.8
		c-0.1-0.6-0.1-1.3-0.5-1.2c-0.2,0.1-10.1,25.8-10.1,25.8c-0.1,0.4-0.4,0.7-0.7,0.1c-0.2-0.4-9.2-21.7-9.2-21.7
		c-0.4-1.1-1.2-2.8-1.4-3.1c-0.2-0.5-0.6-0.6-0.6,1.2L171.6,41c-0.5,4.2,3.1,3.9,3.1,4.2h-8.1c-0.1-0.2,2.7,0.2,3.3-4.2l2.7-26.7
		c-0.2-5.2-3.6-4.9-3.6-5.3h8.5l0.1,0.3l9,21.2c0.1,0.2,0.2,0.4,0.3,0.5c0.3,0.6,0.2,1,0.5,0.2l8.9-22.3l8.2,0
		c0.1,0.3-3.3,0.2-3.3,4.6L204.3,39.4z">
  </path>
  <path class="st0" d="M17.7,43.9l-4.6,0c-1.6-0.1-3.5,0.3-3.5-1.8v-28c0-4.3,4.5-4.3,4.8-4.7H0.5c-0.2,0.3,4.2,0.4,4.2,4.8v27.1
		C4.7,44.9,0,45,0,45.2h24.4l1.4-7.7C25.2,37.4,25.6,43.8,17.7,43.9z">
  </path>
  <path class="st0" d="M69.6,41.4c0.5,4.5,3.6,3.3,3.6,3.8l-8.8,0c0-0.4,3.5,0,3.5-4v-0.4V14c0.1-4.7-3.7-4.7-3.8-5.1h8.9l18.3,24.5
		l-0.1-19.9c-0.1-4.8-3.5-4.5-3.6-4.7h9.3c0,0.2-3.7,0.3-3.8,4.7l0,30.7c0,0,0.3,2.3-1,0.5c-0.6-0.8-22-30.1-22-30.1
		c-0.2-0.2-0.3,0-0.3,0.7l0,25.6V41.4z">
  </path>
  <path class="st0" d="M57.7,40.6L45.4,9.1c-0.9-1.1-1.2,0.1-1.2,0.1c-1.2,3-12.5,32.2-12.5,32.2c-1.5,3.9-3.5,3.4-3.5,3.7h8
		c0-0.4-4.3,0.3-2.8-3.8l4.3-11.2c0.4-0.7,0.5-0.9,1.5-0.9c1.8,0,7.2,0,8,0c1,0,1,0,1.4,1l4,10.6c1.2,4.3-2.4,4-2.4,4.3h11.3
		C61.6,44.8,59.8,46.1,57.7,40.6z M39.9,27.5c-0.9,0-0.8-0.6-0.4-1.5c0,0,3-8.1,3.4-9.1c0.5-1.3,1-1,1.3,0.1l3,9.1
		c0.3,1,0.7,1.3-0.3,1.3C46,27.5,40.2,27.5,39.9,27.5z">
  </path>
  <path class="st0" d="M162,7.2L148.4,0l-13.5,7.2l13.5-4.5L162,7.2z">
  </path>
  <path class="st0" d="M148.5,8.3c-10.6,0-17.4,9.1-17.4,18.7c0,9.6,6.7,18.2,17.3,18.2c10.6,0,17.5-8.6,17.5-18.2
		C165.9,17.3,159.1,8.3,148.5,8.3z M148.4,43.8c0,0-0.1,0-0.1,0h0c-6.5,0-10.8-6.6-10.8-16.8c0-11.7,4.4-17.4,10.9-17.4h0
		c6.5,0,10.9,5.7,10.9,17.4C159.3,37.2,154.9,43.8,148.4,43.8z">
  </path>
  <path class="st0" d="M116.3,43.7c7.6-0.1,11-5.8,11.7-6.1c0.3-0.1-3.7,7.5-11.8,7.5c-18.2,0-17.9-17.7-17.9-17.7
		c0.6-12.5,9.9-19.9,18.9-18.9c2.4,0.3,3.5,0.7,5.2,1.3c0.8,0.3,3.1,1.6,4,1.2c0.6-0.3,1.1-1.7,1.2-1.8l0.1,9.7
		c-0.6,0-2.6-9.4-11.3-9.4c-7.1,0-12.5,8.7-12.4,17.3C104.3,41.2,113.6,43.8,116.3,43.7z">
  </path>
  <path class="st0" d="M220,27.3l0,8.9v4.7c0,2.7-0.2,3,1.4,3l9,0c2.2-0.1,3.6-0.8,4.5-1.5c2.1-1.8,1.6-4.4,2-4.5l-0.2,7.3h-25.3
		c-0.1-0.3,3.8,0.4,3.8-5.5V35V14.6c0-6-3.6-5.1-3.5-5.5h25l0.2,7.2c-0.5,0,0.8-5.6-6.6-6.1h-8.3c-1.4,0-2,0-2,3l0,7.7l0,1.7
		c0,1.3,0,1.4,1.7,1.4h8c4.1,0,3.5-3.9,3.9-3.9c0,0,0,9.3,0,9.3c-0.4,0,0.2-4.3-3.7-4.2h-8.1c-1.8,0-1.8,0.7-1.8,2L220,27.3z">
  </path>
 </g>
</svg>