<svg class="max-s:w-30 h-auto" fill="none" height="24" viewBox="0 0 213 24" width="213" xmlns="http://www.w3.org/2000/svg">
<path d="M2.58771 21.771L4.69169 3.92991L1.90673 3.38318V2.2243H8.21868L14.3381 19.5187L20.5232 2.2243H26.7365V3.38318L23.9516 3.92991L25.7973 21.7757L28.385 22.3224V23.4813H20.0348V22.3224L22.6225 21.7757L21.1337 5.28505L14.5964 23.6122L12.9761 24L6.2462 5.28037L4.94999 19.8365C4.81849 21.4159 5.37267 21.8972 7.82888 22.3178L7.6692 23.4766H0V22.3178L2.58771 21.771Z" fill="currentColor"></path>
<path d="M34.3447 23.9626C31.818 23.9626 30.4279 22.1589 30.4279 19.9673C30.4279 16.8738 32.3722 15.2009 36.7727 14.9766L39.2665 14.8458V13.8131C39.2665 11.0748 38.2004 9.98131 35.7724 9.98131C34.2179 9.98131 32.6634 10.6589 31.663 11.3645L31.1136 9.75234C32.2454 8.71963 34.3823 7.7243 36.9747 7.7243C40.342 7.7243 42.2534 9.62617 42.2534 13.2944V20.285C42.2534 21.7336 42.7371 22.1215 44.7801 22.1215L44.7472 22.4439C44.2963 23.1542 43.3899 23.9252 41.8965 23.9252C40.2152 23.9252 39.5013 23.0561 39.5013 21.6402V20.7383C38.4634 22.4112 36.7821 23.9579 34.3541 23.9579L34.3447 23.9626ZM39.2665 20.3551V16.1355L36.2561 16.6168C34.2508 16.9393 33.4383 17.8411 33.4383 19.3551C33.4383 20.771 34.3118 21.7056 35.9649 21.7056C37.0639 21.7056 38.5245 21.0607 39.2665 20.3551Z" fill="currentColor"></path>
<path d="M48.7814 21.8692V10.8224L46.3533 9.53271L46.3862 9.21028L52.0501 7.40654L51.7589 10.4346V21.8692L54.0225 22.4159V23.4766H46.513V22.4159L48.7814 21.8692ZM47.875 3.09346C47.875 1.96729 48.7156 1.09813 49.8475 1.09813C50.9793 1.09813 51.8199 1.96729 51.8199 3.09346C51.8199 4.21963 50.9793 5.08879 49.8475 5.08879C48.7156 5.08879 47.875 4.21963 47.875 3.09346Z" fill="currentColor"></path>
<path d="M58.3667 23.4159L56.7465 23.3505L56.615 18.6168L57.8783 18.3271C58.5593 21.8037 59.5596 22.3551 61.8937 22.3551C63.5139 22.3551 64.3217 21.486 64.3217 20.1636C64.3217 18.1028 62.5089 17.3925 60.6632 16.5888C58.7518 15.7523 56.8451 14.7523 56.8451 12.1122C56.8451 9.63084 58.5921 7.79439 61.7669 7.79439C62.9645 7.79439 64.0634 7.98598 64.8759 8.24299L66.2332 8.30841L66.3647 12.3972L65.2 12.6542C64.4861 9.7243 63.6126 9.23832 61.7669 9.23832C60.2124 9.23832 59.4985 10.1402 59.4985 11.3972C59.4985 13.1682 61.2785 13.9112 63.157 14.7477C65.0685 15.6168 67.0738 16.6822 67.0738 19.257C67.0738 21.9626 65.261 23.8645 61.8608 23.8645C60.4707 23.8645 59.3999 23.7056 58.3667 23.4159Z" fill="currentColor"></path>
<path d="M69.9198 16.2336C69.9198 11.243 73.1556 7.69626 77.6877 7.69626C82.2197 7.69626 84.5491 10.2103 84.5491 15.4252C84.5491 20.6402 81.3133 23.9626 76.7484 23.9626C72.1835 23.9626 69.9198 21.4486 69.9198 16.2336ZM77.1382 22.257C79.6977 22.257 81.4776 20.0654 81.4776 16.0421C81.4776 11.3411 79.9889 9.40654 77.3026 9.40654C74.6162 9.40654 72.996 11.6589 72.996 15.6215C72.996 20.3224 74.4519 22.257 77.1382 22.257Z" fill="currentColor"></path>
<path d="M87.0804 23.4813V22.4206L89.3441 21.8738V10.8271L86.9161 9.53738L86.9489 9.21495L92.3216 7.41122L92.0962 10.9206C93.3266 9.08411 95.2381 7.73364 97.5675 7.73364C100.738 7.73364 102.198 9.63551 102.198 13.4673V21.8738L104.462 22.4206V23.4813H96.9522V22.4206L99.2206 21.8738V14.3692C99.2206 10.9533 98.3799 9.89252 96.1116 9.89252C94.7825 9.89252 93.2937 10.5047 92.3263 11.3084V21.8738L94.59 22.4206V23.4813H87.0804Z" fill="currentColor"></path>
<path d="M115.184 12.3773C116.739 5.74182 120.622 1.19977 127.55 1.19977C129.038 1.19977 130.236 1.35864 131.598 1.71379L133.12 1.81192L132.279 7.44743L130.757 7.70444C130.79 3.38668 129.982 2.93808 127.033 2.93808C122.985 2.93808 119.913 6.125 118.584 11.9895C117.194 18.0783 119.589 21.0409 123.699 21.0409C125.962 21.0409 127.775 20.4942 129.33 19.5269L129.621 20.9755C128.099 22.4568 125.572 23.4241 122.792 23.4241C116.382 23.4241 113.695 18.6904 115.184 12.3773Z" fill="currentColor"></path>
<path d="M137.285 8.98598C136.087 9.92056 135.082 11.5327 133.885 13.8178L132.819 13.9486C134.115 10.4065 136.378 7.53738 138.548 7.53738C139.455 7.53738 140.004 7.92523 140.004 8.98598C140.004 10.4019 138.642 14.0093 137.707 17.4579H137.839C140.009 11.5 143.052 7.53738 145.09 7.53738C146.156 7.53738 146.678 8.0514 146.678 8.89252C146.678 9.43925 146.452 10.0187 146.161 10.3411L145.87 10.5047C145.644 10.3411 145.353 10.2477 144.963 10.2477C143.183 10.2477 138.36 13.8879 136.416 23.0981C136.383 23.1963 136.383 23.2897 136.35 23.3879L133.565 23.5794C133.565 22.5187 137.29 11.2757 137.29 8.99065L137.285 8.98598Z" fill="currentColor"></path>
<path d="M147.222 22.5467C147.222 19.6822 150.782 11.5327 150.782 8.98598C149.453 9.98598 148.129 11.9159 147.189 13.785L146.091 13.9486C147.387 10.5327 149.876 7.53738 152.013 7.53738C152.919 7.53738 153.534 7.92523 153.534 8.95327C153.534 11.8178 149.974 19.9673 149.974 22.514C151.365 21.3551 152.304 20.0981 153.567 17.715L154.666 17.5514C153.304 21.0935 150.815 23.9626 148.744 23.9626C147.87 23.9626 147.222 23.6075 147.222 22.5467ZM152.727 0.836449C153.793 0.836449 154.572 1.64019 154.572 2.70561C154.572 3.77103 153.797 4.57477 152.727 4.57477C151.656 4.57477 150.881 3.77103 150.881 2.70561C150.881 1.64019 151.656 0.836449 152.727 0.836449Z" fill="currentColor"></path>
<path d="M157.484 22C157.484 19.0374 160.95 11.5654 160.95 8.98598C159.56 10.1122 158.555 11.5327 157.357 13.785L156.258 13.9486C157.522 10.5654 160.044 7.53738 162.18 7.53738C163.087 7.53738 163.669 7.92523 163.669 8.98598C163.669 11.5607 160.4 18.9393 160.4 21.2243C160.4 21.771 160.56 21.9953 160.95 21.9953C164.543 21.9953 168.976 14.715 168.943 8.14486L171.662 7.88785C172.343 14.715 164.702 23.9579 159.522 23.9579C158.16 23.9579 157.484 23.3458 157.484 21.9953V22Z" fill="currentColor"></path>
<path d="M172.409 20.3224C172.409 13.6869 176.584 7.53738 182.121 7.53738C184.39 7.53738 185.456 8.57009 185.456 10.1122C185.456 13.2991 182.154 16.0701 175.678 16.5841C175.419 17.6168 175.288 18.7103 175.288 19.771C175.288 21.4439 175.805 21.9626 177.002 21.9626C179.266 21.9626 182.051 19.6449 183.479 17.3551L184.709 17.2243C183.089 20.9299 179.369 23.9579 175.87 23.9579C173.508 23.9579 172.409 22.7991 172.409 20.3178V20.3224ZM175.842 16.0093C180.308 15.2991 182.638 12.9486 182.638 10.4673C182.638 9.56542 182.215 9.08411 181.309 9.08411C179.364 9.08411 176.908 12.1776 175.837 16.0093H175.842Z" fill="currentColor"></path>
<path d="M187.137 22.5467C187.137 19.5841 190.082 9.47196 191.669 3.4486L189.598 2.15888L189.697 1.83645L195.684 0L194.52 3.18692C192.575 10.1449 189.856 20.3551 189.856 22.514C191.279 21.3224 192.251 20 193.449 17.715L194.548 17.5514C193.317 20.8037 190.824 23.9626 188.593 23.9626C187.686 23.9626 187.137 23.5421 187.137 22.5467Z" fill="currentColor"></path>
<path d="M195.943 22.5467C195.943 19.5841 198.887 9.47196 200.475 3.4486L198.404 2.15888L198.502 1.83645L204.49 0L203.325 3.18692C201.381 10.1449 198.662 20.3551 198.662 22.514C200.085 21.3224 201.057 20 202.255 17.715L203.354 17.5514C202.123 20.8037 199.629 23.9626 197.399 23.9626C196.492 23.9626 195.943 23.5421 195.943 22.5467Z" fill="currentColor"></path>
<path d="M205.556 22.5467C205.556 19.6822 209.116 11.5327 209.116 8.98598C207.787 9.98598 206.463 11.9159 205.523 13.785L204.424 13.9486C205.721 10.5327 208.21 7.53738 210.347 7.53738C211.253 7.53738 211.868 7.92523 211.868 8.95327C211.868 11.8178 208.308 19.9673 208.308 22.514C209.698 21.3551 210.638 20.0981 211.901 17.715L213 17.5514C211.643 21.0935 209.149 23.9626 207.078 23.9626C206.204 23.9626 205.556 23.6075 205.556 22.5467ZM211.06 0.836449C212.126 0.836449 212.906 1.64019 212.906 2.70561C212.906 3.77103 212.131 4.57477 211.06 4.57477C209.99 4.57477 209.215 3.77103 209.215 2.70561C209.215 1.64019 209.99 0.836449 211.06 0.836449Z" fill="currentColor"></path>
</svg>