<?xml version="1.0" encoding="UTF-8"?>
<svg id="Brand_Assets" data-name="Brand Assets" xmlns="http://www.w3.org/2000/svg" xmlns:xlink="http://www.w3.org/1999/xlink" viewBox="0 0 2540 550">
  <defs>
    <style>
      .cls-1 {
        fill: #141414;
      }

      .cls-2 {
        fill: url(#radial-gradient);
      }

      .cls-3 {
        fill: #fcfcff;
      }
    </style>
    <radialGradient id="radial-gradient" cx="516.81" cy="34.7" fx="516.81" fy="34.7" r="685.73" gradientUnits="userSpaceOnUse">
      <stop offset=".1" stop-color="#ffecf4"/>
      <stop offset=".25" stop-color="#c83ea6"/>
      <stop offset=".4" stop-color="#7e25e2"/>
      <stop offset=".6" stop-color="#5973c4"/>
      <stop offset=".75" stop-color="#012a78"/>
      <stop offset=".9" stop-color="#22bccf"/>
    </radialGradient>
  </defs>
  <g id="Full_Color_Light" data-name="Full / Color / Light">
    <g id="MixItUp_Logo-Full_Color-Light">
      <g>
        <path class="cls-1" d="M791.43,380h1.43l52.86-355h109.29v500h-74.29V166.43h-1.43l-52.86,358.57h-74.29l-57.14-353.57h-1.43v353.57h-68.57V25h109.29l57.14,355Z"/>
        <path class="cls-1" d="M1005,25h80v500h-80V25Z"/>
        <path class="cls-1" d="M1429,25l-86.25,242.86,92.25,257.14h-87l-66.75-197.86h-1.5l-67.5,197.86h-77.25l92.25-257.14-86.25-242.86h85.5l61.5,184.29h1.5l63-184.29h76.5Z"/>
        <path class="cls-1" d="M1535,25h80v500h-80V25Z"/>
        <path class="cls-1" d="M1665,25h240v71.43h-81.18v428.57h-77.65V96.43h-81.18V25Z"/>
        <path class="cls-1" d="M2082.13,25v380.82c0,35.26,15.43,47.96,39.97,47.96s39.97-12.69,39.97-47.96V25h72.93v375.88c0,78.98-39.27,124.12-115,124.12s-115-45.13-115-124.12V25h77.13Z"/>
        <path class="cls-1" d="M2515,148.57v65c0,80-38.1,123.57-115.7,123.57h-36.69v187.86h-77.61V25h114.3c77.61,0,115.7,43.57,115.7,123.57ZM2362.61,96.43v169.29h36.69c24.69,0,38.1-11.43,38.1-47.14v-75c0-35.71-13.4-47.14-38.1-47.14h-36.69Z"/>
      </g>
      <g id="MixItUp_Logo-Spiral_Color">
        <path id="Spiral-Background" class="cls-3" d="M455.22,448.25c-53.27-20.36-106.05-49.34-139.57-96.78-43.17-50.91-39.34-163.09,43.66-164.47-.03.16-.1.31-.1.48,0,.31.09.59.18.88-67.19,14.99-64.82,106.97-25.76,150.07,35.93,45.6,93.36,67.22,149.38,75.28,8.67-12.98,16.17-26.81,22.32-41.35-57.57,5.98-121.95-8.62-158.97-56-31.21-36.54-34.41-103.6,13.1-127.7.2.44.52.8.89,1.09-45.29,38.51-14.06,111.35,33.23,133.73,38.22,21.02,84.39,20.09,125.17,7.23,2.63-11.56,4.46-23.43,5.43-35.54-39.58,18.95-88.61,23.48-127.75,1.25-36.94-19.21-61.13-69.24-35.94-106.59.33.23.69.38,1.1.46-14.37,37.38,16.23,76.97,51.49,88.39,36.99,13.51,78.16,4.88,111.68-14.07.07,1.67.12,3.34.16,5.01-.23-11.04-1.17-21.91-2.79-32.55-51.29,40.09-160.2,34.08-160.28-46.73.1.01.19.06.29.06.26,0,.5-.08.74-.15,16.11,69.73,110.85,63.82,154.36,22.74-2.29-8.97-5.07-17.74-8.3-26.29-34.73,43.78-115.91,60.06-145.85,3.51.38-.13.73-.33,1.02-.59,38.61,43.69,108.28,15.26,132.55-30.31,4.62,8.83,8.72,17.97,12.28,27.39-9.26-24.52-22.25-47.19-38.3-67.34,3.39,4.26,6.64,8.63,9.76,13.11-13.24,47.54-70.17,86.58-116.11,56.98.31-.33.51-.75.64-1.19,50.05,17.54,93.52-34.56,94.88-81.62,1.75,1.92,3.47,3.88,5.16,5.86-9.27-10.83-19.44-20.85-30.41-29.96,10.78,46.26-15.86,108.21-69.59,105.5.04-.19.11-.37.11-.57,0-.26-.08-.48-.15-.72,54.67-10.4,64.83-80.74,42.14-124.03,4.78,2.98,9.45,6.11,14,9.4-22.39-16.15-47.55-28.68-74.64-36.74,2.89.86,5.76,1.75,8.6,2.71,10.6,5.79,19.8,14,26.71,25.78,27.92,36.6,28.64,99.98-16.84,122.73-.13-.39-.31-.74-.58-1.04,36.78-31.33,22.24-90.58-11.73-118.49-29.06-25.91-69.62-34.98-107.68-30.81-70.41,7.69-129.08,52.46-178.35,100.69,4.18-6.3,8.63-12.39,13.35-18.27-34.35,42.81-54.91,97.16-54.91,156.32,0,7.05.31,14.04.88,20.94-.26-3.07-.46-6.16-.6-9.26,50.38-82.31,96.96-181,194.56-214.51,36.36-12.47,78.67-11.84,111.9,8.88,34.96,20.12,56.3,68.36,32.38,104.29-.33-.3-.73-.5-1.17-.63,16.43-45.95-29.01-88.92-72.73-93.41-36.31-5.41-73.33,6.76-103.23,27.12-81.77,55.51-107.73,155.69-147.46,240.76,4.8,13.44,10.72,26.34,17.65,38.6,36.08-84.67,53.44-183.66,126.89-245.92,51.07-50.98,174.74-59.92,178.48,32.77-.14-.02-.27-.08-.42-.08-.19,0-.36.07-.54.11-11.33-54.32-81.66-64.98-124.75-41.67-36.06,17.31-62.51,49.73-78.85,85.59-35.64,78.25-25.11,166.22-28.46,249.77-1.77-1.27-3.52-2.56-5.26-3.88,37.58,28.44,83.45,46.5,133.35,49.92-5.27-.36-10.51-.88-15.69-1.57-34.31-82.55-81.09-169.07-61.81-261.14,7.58-36.59,26.68-71.66,57.72-93.42,36.75-28.18,100.24-28.72,123.37,16.46-.39.13-.74.32-1.04.59-39.44-44.13-110.8-14.09-133.83,32.89-17.38,31.11-20.34,68.09-13.5,102.6,15.76,79.79,75.39,139.59,131.47,194.44-2.69.77-5.4,1.5-8.13,2.19,27.16-6.84,52.54-18.11,75.35-33.02-2.57,1.68-5.17,3.32-7.81,4.91-67.53-38.81-137.4-90.08-159.87-168.27-26.02-71.41,34.26-179.47,115.93-135.27-.2.28-.35.59-.45.93-67.66-20.61-109.83,65-91.16,121.71,20.32,79.61,95.38,127.96,166.65,158.78,9.9-8.25,19.16-17.25,27.68-26.91-2.38,2.7-4.82,5.36-7.32,7.95Z"/>
        <path id="Spiral-Arms" class="cls-2" d="M459.81,106.65c7.41,8.13,14.29,16.77,20.59,25.83-13.24,47.54-70.17,86.58-116.11,56.98.31-.33.51-.75.64-1.19,50.05,17.54,93.52-34.56,94.88-81.62ZM364.94,186.76c.06.24.15.47.15.72,0,.2-.08.38-.11.57,53.73,2.71,80.37-59.23,69.59-105.5-8.68-7.21-17.87-13.83-27.48-19.82,22.69,43.29,12.53,113.63-42.14,124.03ZM352.59,67.06c33.98,27.91,48.52,87.17,11.73,118.49.27.3.46.65.58,1.04,45.48-22.75,44.76-86.13,16.84-122.73-6.91-11.78-16.1-19.99-26.71-25.78-25.13-8.49-52.05-13.09-80.04-13.09-87.03,0-163.67,44.48-208.44,111.95,49.27-48.23,107.95-93,178.35-100.69,38.06-4.17,78.62,4.89,107.68,30.81ZM364.11,189.63c-.29.27-.64.46-1.02.59,29.94,56.55,111.13,40.27,145.85-3.51-3.55-9.41-7.66-18.56-12.28-27.39-24.27,45.56-93.95,74-132.55,30.31ZM362.89,190.27c-.24.06-.48.15-.74.15-.1,0-.19-.05-.29-.06.08,80.81,108.99,86.82,160.28,46.73-1.24-8.16-2.88-16.2-4.89-24.08-43.51,41.08-138.25,46.99-154.36-22.74ZM187,118.42c29.9-20.37,66.91-32.53,103.23-27.12,43.72,4.49,89.15,47.46,72.73,93.41.44.13.84.33,1.17.63,23.92-35.93,2.58-84.17-32.38-104.29-33.23-20.72-75.54-21.35-111.9-8.88C122.24,105.68,75.66,204.37,25.28,286.68c1.17,25.33,6.1,49.68,14.26,72.5,39.72-85.07,65.69-185.25,147.46-240.76ZM333.63,338.42c-39.06-43.1-41.43-135.07,25.76-150.07-.09-.28-.18-.57-.18-.88,0-.17.07-.31.1-.48-83,1.37-86.83,113.56-43.66,164.47,33.52,47.44,86.3,76.43,139.57,96.78,10.25-10.65,19.55-22.21,27.79-34.55-56.01-8.06-113.45-29.68-149.38-75.28ZM524.77,264.63c-33.52,18.95-74.68,27.58-111.68,14.07-35.26-11.42-65.86-51.01-51.49-88.39-.41-.08-.77-.23-1.1-.46-25.18,37.35-1,87.38,35.94,106.59,39.14,22.23,88.16,17.7,127.75-1.25.53-6.66.81-13.38.81-20.17,0-3.48-.09-6.93-.23-10.37ZM393.59,323.48c-47.29-22.38-78.52-95.22-33.23-133.73-.38-.3-.7-.65-.89-1.09-47.52,24.1-44.31,91.15-13.1,127.7,37.02,47.39,101.4,61.98,158.97,56,5.64-13.33,10.15-27.25,13.43-41.64-40.78,12.86-86.94,13.79-125.17-7.23ZM236.87,142.98c43.08-23.31,113.42-12.65,124.75,41.67.18-.03.35-.11.54-.11.15,0,.28.06.42.08-3.74-92.69-127.42-83.74-178.48-32.77-73.45,62.26-90.81,161.25-126.89,245.92,17.99,31.85,42.76,59.36,72.35,80.56,3.35-83.55-7.18-171.52,28.46-249.77,16.35-35.86,42.8-68.28,78.85-85.59ZM268.21,308.43c-18.67-56.71,23.5-142.32,91.16-121.71.09-.34.24-.65.45-.93-81.67-44.19-141.95,63.86-115.93,135.27,22.47,78.19,92.33,129.46,159.87,168.27,10.94-6.59,21.34-13.99,31.1-22.12-71.27-30.82-146.33-79.17-166.65-158.78ZM212.87,320.8c-6.83-34.51-3.87-71.49,13.5-102.6,23.03-46.97,94.39-77.01,133.83-32.89.3-.27.65-.46,1.04-.59-23.12-45.18-86.62-44.64-123.37-16.46-31.04,21.76-50.14,56.84-57.72,93.42-19.29,92.06,27.5,178.59,61.81,261.14,10.81,1.43,21.84,2.18,33.05,2.18,24.06,0,47.32-3.41,69.34-9.75-56.08-54.85-115.71-114.66-131.47-194.44Z"/>
      </g>
    </g>
  </g>
</svg>