<svg fill="none" height="100%" viewBox="0 0 356 47" width="100%" xmlns="http://www.w3.org/2000/svg">
<title>MONTALE PARIS logo</title>
<g>
<path d="M119.64 35.09H129.02C132.05 35.09 134.11 35.09 135.81 35.61C137.35 36.08 137.81 36.75 137.81 37.27C137.81 39.48 131.79 39.57 129.11 39.57H119.63V35.08L119.64 35.09ZM114.76 46.14H119.64V41.06H129.08C131.08 41.06 133.87 41.02 137.11 40.57C140.82 40.05 142.88 38.69 142.88 37.23C142.88 36.25 141.85 35.15 139.33 34.44C136.33 33.6 131.95 33.6 128.67 33.6H114.77V46.14H114.76ZM159.05 37.31C159.92 36.52 160.54 35.74 160.99 34.91H161.1C161.87 35.93 162.69 36.7 163.61 37.52L167.48 41H154.98L159.05 37.31ZM144.36 46.14H149.51L153.58 42.33H168.98L173.32 46.14H178.84L163.79 33.6H158.54L144.37 46.14H144.36ZM187.78 34.98H199.42C201.32 34.98 202.93 35.05 204.47 35.34C206.01 35.62 207.31 36.25 207.31 37.03C207.31 37.81 206.02 38.54 204.11 38.82C202.1 39.11 200.45 39.11 198.24 39.11H187.78V34.98ZM182.9 46.14H187.78V40.61H193.39C197.47 40.61 199.16 40.73 204.41 43.55L209.26 46.14H215.38L208.95 42.72C206.05 41.2 203.85 40.75 202 40.44V40.41C208.27 40.13 212.35 39.05 212.35 37.03C212.35 35.72 210.33 34.43 206.58 33.94C204.15 33.62 201.8 33.6 199.22 33.6H182.9V46.14ZM220.7 33.6H225.59V46.14H220.7V33.6ZM235.89 41.9C235.94 42.17 236.15 42.68 236.87 43.13C238.93 44.44 244.03 44.69 246.75 44.69C251.86 44.69 255.91 43.97 255.91 42.62C255.91 41.2 252.2 40.89 244.74 40.3C239.96 39.93 232.7 39.37 232.7 36.94C232.7 35.06 237.43 33.59 245.62 33.59C253.81 33.59 259.22 34.84 259.49 37.23L254.79 37.35C254.54 36.47 253.46 35.03 245.84 35.03C242.63 35.03 237.34 35.34 237.34 36.84C237.34 37.89 239.4 38.29 246.15 38.78C252.88 39.26 260.63 39.84 260.63 42.51C260.63 44.53 255.37 46.14 246.97 46.14C238.11 46.14 234.09 45.02 232.18 43.53C231.36 42.86 231.32 42.36 231.26 42.04L235.89 41.91V41.9ZM86 20.62C82.12 20.62 79.03 19.93 76.71 18.54C74.4 17.18 73.24 15.18 73.24 12.59C73.24 10 74.39 8.07 76.71 6.67C79.01 5.28 82.11 4.58 86 4.58C89.89 4.58 92.95 5.29 95.23 6.67C97.52 8.07 98.66 10.03 98.66 12.59C98.66 15.15 97.53 17.17 95.23 18.54C92.96 19.93 89.88 20.62 86 20.62ZM109.43 12.57C109.43 8.22 106.96 4.94 102.03 2.74C98.33 0.92 92.97 0 85.96 0C78.95 0 73.61 0.92 69.91 2.75C64.95 4.95 62.47 8.23 62.47 12.58C62.47 16.93 64.95 20.16 69.91 22.42C73.61 24.28 78.97 25.21 85.96 25.21C92.95 25.21 98.32 24.29 102.03 22.42C106.96 20.16 109.43 16.88 109.43 12.58V12.57ZM114.76 0H126.64L148.56 17.62V0H159.11V25.2H147.8L125.31 7.27V25.2H114.77V0H114.76ZM215.6 0V5.42H196.66V25.2H183.36V5.42H164.39V0H215.59H215.6ZM235.57 5.73L242.76 15.69H228.16L235.56 5.73H235.57ZM210.13 25.2H221.82L225.46 20H245.16L248.69 25.2H260.8L241.88 0H229.24L210.12 25.2H210.13ZM265.72 0H278.43V20.76H309.1V25.2H265.71V0H265.72ZM355.99 4.43H325.64V9.83H353.93V14.15H325.64V20.76H356.01V25.2H314.13V0H355.99V4.43ZM38.75 0L28.93 18.48H27.5L17.57 0H0V25.2H11.2V8.8H13.59L22.09 25.2H33.94L42.52 8.8H44.92V25.2H56.13V0H38.74H38.75Z" fill="currentColor"></path>
</g>
</svg>