<?xml version="1.0" encoding="UTF-8" standalone="no"?>
<svg
   id="Layer_1"
   data-name="Layer 1"
   viewBox="0 0 192.31 65.581398"
   version="1.1"
   sodipodi:docname="Moschino-Logo.svg"
   width="192.31"
   height="65.581398"
   inkscape:version="1.1.1 (3bf5ae0d25, 2021-09-20)"
   xmlns:inkscape="http://www.inkscape.org/namespaces/inkscape"
   xmlns:sodipodi="http://sodipodi.sourceforge.net/DTD/sodipodi-0.dtd"
   xmlns="http://www.w3.org/2000/svg"
   xmlns:svg="http://www.w3.org/2000/svg"
   xmlns:rdf="http://www.w3.org/1999/02/22-rdf-syntax-ns#"
   xmlns:cc="http://creativecommons.org/ns#"
   xmlns:dc="http://purl.org/dc/elements/1.1/">
  <defs
     id="defs23" />
  <sodipodi:namedview
     id="namedview21"
     pagecolor="#ffffff"
     bordercolor="#999999"
     borderopacity="1"
     inkscape:pageshadow="0"
     inkscape:pageopacity="0"
     inkscape:pagecheckerboard="0"
     showgrid="false"
     fit-margin-top="10"
     fit-margin-right="10"
     fit-margin-bottom="10"
     fit-margin-left="10"
     inkscape:zoom="7.1338141"
     inkscape:cx="38.899247"
     inkscape:cy="35.394811"
     inkscape:window-width="1920"
     inkscape:window-height="1001"
     inkscape:window-x="-9"
     inkscape:window-y="-9"
     inkscape:window-maximized="1"
     inkscape:current-layer="Layer_1" />
  <title
     id="title2">Moschino</title>
  <polygon
     points="124.22,54.47 124.22,10 130.47,10 130.47,54.47 "
     id="polygon4"
     transform="translate(5.05,0.54)" />
  <path
     d="m 74.13,19.38 v 4.16 h 6 v -5.2 C 79.5,11.62 74.84,10 71.39,10 c -3.45,0 -8.92,1.75 -8.92,9.33 0,7.58 0.05,9 6.86,13.72 4.26,3 5.38,4.84 5.52,7.4 0,0 0.1,3.77 0,5.63 -0.33,6 -6.31,4.53 -6.32,0.45 0,-2.24 0,-6.53 0,-6.53 h -6.11 v 6.48 c 0,5.65 3.77,9 9.24,9.1 3.14,0.05 9.24,-1.21 9.37,-9 v -7.79 c -0.3,-5.74 -3.81,-7.89 -6.5,-9.91 -2.69,-2.02 -6,-3.41 -6.19,-6.5 v -3 c 0,-5.56 5.77,-5.47 5.78,0 v 0 z"
     id="path6" />
  <polygon
     points="11.87,10.03 18.02,34.66 24.16,10.03 31.09,10.03 31.09,54.49 24.83,54.49 24.83,27.08 20.12,54.49 15.86,54.49 11.21,27.08 11.21,54.49 4.95,54.49 4.95,10.03 "
     id="polygon8"
     transform="translate(5.05,0.54)" />
  <polygon
     points="107.7,34.73 114,34.73 114,54.47 120.26,54.47 120.26,10 114,10 114,29.18 107.7,29.18 107.7,10 101.45,10 101.45,54.47 107.7,54.47 "
     id="polygon10"
     transform="translate(5.05,0.54)" />
  <polygon
     points="148.07,33.03 148.07,10.01 154.32,10.01 154.32,54.47 149.06,54.47 140.9,27.62 140.9,54.47 134.63,54.47 134.63,10 141.08,10 "
     id="polygon12"
     transform="translate(5.05,0.54)" />
  <path
     d="m 163.12,21.61 c 0,-4.21 2,-11.6 9.61,-11.6 7.61,0 9.58,7.14 9.58,11.6 v 22.36 c 0,4.44 -2,11.61 -9.58,11.61 -7.58,0 -9.61,-7.17 -9.61,-11.61 z m 6.26,22.36 c 0,4.15 1.81,5.54 3.35,5.54 1.54,0 3.32,-1.38 3.32,-5.54 V 21.61 c 0,-4.18 -1.81,-5.54 -3.35,-5.54 -1.54,0 -3.35,1.36 -3.35,5.54 v 22.36 0 z"
     id="path14" />
  <path
     d="m 39.76,21.61 c 0,-4.21 2,-11.6 9.61,-11.6 7.61,0 9.58,7.14 9.58,11.6 v 22.36 c 0,4.44 -2,11.61 -9.58,11.61 -7.58,0 -9.61,-7.17 -9.61,-11.61 z m 6.29,22.36 c 0,4.15 1.78,5.57 3.32,5.57 1.54,0 3.35,-1.37 3.35,-5.54 V 21.61 c 0,-4.18 -1.81,-5.54 -3.35,-5.54 -1.54,0 -3.32,1.36 -3.32,5.54 z"
     id="path16" />
  <path
     d="m 103.05,39.93 v 4 c 0,5.37 -1.72,11.61 -9.25,11.61 -7.53,0 -9.61,-7.17 -9.61,-11.61 V 21.61 c 0,-4.21 2,-11.6 9.61,-11.6 7.61,0 8.87,6.17 8.87,11.6 v 3.57 h -5.68 v -3.57 c 0,-3.75 -1.18,-5.54 -3.17,-5.54 -1.49,0 -3.35,1.18 -3.35,5.54 v 22.36 c 0,3.42 1.27,5.54 3.35,5.54 1.76,0 3.17,-1.33 3.17,-5.54 v -4 h 6 z"
     id="path18" />
  <metadata
     id="metadata935">
    <rdf:RDF>
      <cc:Work
         rdf:about="">
        <dc:title>Moschino</dc:title>
      </cc:Work>
    </rdf:RDF>
  </metadata>
</svg>
