<svg width="110" height="48" viewBox="0 0 110 48" fill="none" xmlns="http://www.w3.org/2000/svg">
<g clip-path="url(#clip0_346_8)">
<path d="M0 30.8571H4.55989V37.8675H5.70471V30.8571H10.2646V30.0144H0V30.8571Z" fill="black"/>
<path d="M25.1666 33.3472H17.0947V30.0144H16.0081V37.8675H17.0947V34.2091H25.1666V37.8675H26.2727V30.0144H25.1666V33.3472Z" fill="black"/>
<path d="M38.0895 30.0144H37.2164L31.6863 37.8675H32.9669L34.6162 35.5116H40.5538L42.1643 37.8675H43.4062L38.0701 30.0144H38.0895ZM35.2372 34.6305L37.6626 31.2211L39.9911 34.6305H35.2372Z" fill="black"/>
<path d="M55.0098 36.6991L49.7514 30.0144H48.5872V37.8675H49.7126V31.6233L54.6023 37.8675H55.3979L60.307 31.6233V37.8675H61.4131V30.0144H60.2682L55.0098 36.6991Z" fill="black"/>
<path d="M69.3492 34.2091H76.7032V33.3472H69.3492V30.8571H77.6346V30.0144H68.2043V37.8675H77.7316V37.0056H69.3492V34.2091Z" fill="black"/>
<path d="M84.8526 34.2091H92.2066V33.3472H84.8526V30.8571H93.138V30.0144H83.7078V37.8675H93.235V37.0056H84.8526V34.2091Z" fill="black"/>
<path d="M108.875 30.0144V36.5267C108.079 35.8947 106.682 34.822 104.703 33.3089C102.879 31.9298 101.482 30.8188 100.473 30.0144H99.3862V37.8675H100.512V31.3168L108.933 37.8675H110.019V30.0144H108.875Z" fill="black"/>
<path d="M44.8615 43.5563C43.5421 43.5563 42.4749 44.5523 42.4749 45.7781C42.4749 47.004 43.5421 48 44.8615 48C46.181 48 47.2482 47.004 47.2482 45.7781C47.2482 44.5523 46.181 43.5563 44.8615 43.5563ZM44.8615 47.3679C43.9495 47.3679 43.2122 46.6592 43.2122 45.7781C43.2122 44.8971 43.9495 44.1884 44.8615 44.1884C45.7735 44.1884 46.5108 44.8971 46.5108 45.7781C46.5108 46.6592 45.7735 47.3679 44.8615 47.3679Z" fill="black"/>
<path d="M37.8375 47.2913V43.6712L37.7987 43.6329H37.2165L37.1777 43.6712V47.8851L37.2165 47.9042H39.9525L39.9719 47.8851V47.3296L39.9525 47.2913H37.8375Z" fill="black"/>
<path d="M53.0692 43.6329L53.0304 43.6712V46.9274L50.3721 43.6712L50.3139 43.6329H49.693L49.6736 43.6712V47.8659L49.693 47.9042H50.2751L50.3139 47.8659V44.6097L52.9722 47.8659L53.0304 47.9042H53.6514L53.6902 47.8659V43.6712L53.6514 43.6329H53.0692Z" fill="black"/>
<path d="M65.2548 43.5563C63.9354 43.5563 62.8682 44.5523 62.8682 45.7781C62.8682 47.004 63.9354 48 65.2548 48C66.5743 48 67.6609 47.004 67.6609 45.7781C67.6609 44.5523 66.5937 43.5563 65.2548 43.5563ZM65.2548 47.3679C64.3428 47.3679 63.6055 46.6592 63.6055 45.7781C63.6055 44.8971 64.3428 44.1884 65.2548 44.1884C66.1668 44.1884 66.9041 44.8971 66.9041 45.7781C66.9041 46.6592 66.1668 47.3679 65.2548 47.3679Z" fill="black"/>
<path d="M73.2299 43.6329L73.2105 43.6712V46.9274L70.5522 43.6712L70.494 43.6329H69.873L69.8342 43.6712V47.8659L69.873 47.9042H70.4552L70.494 47.8659V44.6097L73.1329 47.8659L73.2105 47.9042H73.812L73.8508 47.8659V43.6712L73.812 43.6329H73.2299Z" fill="black"/>
<path d="M58.3084 43.6329H56.7949L56.7561 43.6712V47.8659L56.7949 47.9042H58.3084C59.7055 47.9042 60.6951 46.9657 60.6951 45.7781C60.6951 44.5906 59.6861 43.652 58.3084 43.652V43.6329ZM58.3084 47.2913H57.3964V44.2458H58.3084C59.2786 44.2458 59.9577 44.9162 59.9577 45.759C59.9577 46.6018 59.2786 47.2721 58.3084 47.2721V47.2913Z" fill="black"/>
<path d="M55.0096 11.7223C52.4289 11.6648 54.7186 14.672 55.0096 15.0359C55.3007 14.672 57.5709 11.6648 55.0096 11.7223Z" fill="black"/>
<path d="M70.8044 12.3735C71.1148 10.8986 70.5327 9.15563 68.9804 8.63847C67.9132 8.27454 66.5937 8.48524 65.5265 9.11732C64.6728 9.61532 64.2071 10.2091 63.1593 10.4773C63.0817 10.4964 62.9846 10.5156 62.907 10.5347C62.8682 10.3815 62.81 10.2283 62.7712 10.075C62.2279 8.332 64.5757 7.41261 64.5757 7.41261C62.8876 7.08699 62.1115 8.04469 61.8398 8.5427C61.801 8.63847 61.7622 8.73424 61.704 8.83001C61.704 8.83001 61.7428 8.71508 61.8398 8.5427C63.2175 5.38228 60.0547 3.3328 59.0263 2.94972C57.9785 2.54749 56.1545 1.64725 56.0187 1.28332C55.8829 0.938548 56.2515 1.13009 56.2515 1.13009C57.3963 1.70471 57.474 0.536313 57.474 0.536313C57.474 0.536313 57.3187 -0.153232 56.5038 0.0191544C55.4754 0.229849 55.2619 0.766162 55.3978 1.34078C55.5336 1.93456 56.4262 2.31764 56.4262 2.31764C59.7054 3.50519 61.2383 5.88029 60.2681 8.38947C59.2979 10.8795 61.5099 10.0942 61.5099 10.0942C61.607 10.2857 61.704 10.4773 61.7816 10.6688C60.6756 10.7071 59.6278 10.4773 59.1621 9.84517V8.75339C59.1621 8.75339 55.6306 8.84916 55.0291 6.4166C54.4276 8.84916 50.8961 8.75339 50.8961 8.75339V9.84517C50.4498 10.4773 49.3826 10.7263 48.296 10.6688C48.3736 10.4773 48.4706 10.3049 48.5676 10.0942C48.5676 10.0942 50.7797 10.8986 49.8095 8.38947C48.8393 5.89944 50.3722 3.50519 53.6514 2.31764C53.6514 2.31764 54.544 1.93456 54.6798 1.34078C54.8156 0.747008 54.6022 0.229849 53.5738 0.0191544C52.7394 -0.153232 52.6036 0.536313 52.6036 0.536313C52.6036 0.536313 52.6812 1.70471 53.8261 1.13009C53.8261 1.13009 54.1947 0.919394 54.0589 1.28332C53.9231 1.64725 52.1185 2.54749 51.0513 2.94972C50.0229 3.3328 46.8601 5.38228 48.2378 8.5427C47.9467 8.04469 47.1706 7.08699 45.5018 7.41261C45.5018 7.41261 47.8303 8.332 47.3064 10.075C47.2676 10.2283 47.2094 10.3623 47.1706 10.5347C47.0929 10.5347 46.9959 10.4964 46.9183 10.4773C45.8705 10.2091 45.4048 9.61532 44.5511 9.11732C43.4838 8.50439 42.145 8.27454 41.0972 8.63847C39.5449 9.17478 38.9822 10.8986 39.2732 12.3735C39.5449 13.7334 40.5733 14.8827 42.2226 14.8827C43.6585 14.8444 44.5705 13.5611 44.26 12.2394C43.8913 10.5347 41.6211 10.8412 41.3106 11.7606C40.9031 12.9864 40.2434 12.9864 40.2434 12.9864C40.2434 12.9864 40.6897 13.7717 41.5435 13.1205C41.5435 13.1205 42.1644 14.4804 43.251 13.6951C43.251 13.6951 42.5331 13.4653 42.7077 12.5076C42.8823 11.5307 41.8927 11.7223 41.8927 11.7223C41.8927 11.7223 41.9898 11.4158 42.6883 11.4158C44.6093 11.435 44.2406 14.5188 42.1644 14.4996C40.7091 14.4996 39.8359 13.4844 39.6419 12.2777C39.4479 11.0902 39.9524 9.48125 41.1942 9.0407C42.4942 8.58101 44.1242 9.61532 44.9973 10.7071C45.6377 11.4924 45.6765 12.3352 46.7049 12.8332H46.7437C46.7437 13.8484 47.0153 14.9018 47.9467 15.8595C48.7617 16.7023 49.4602 17.0088 50.5856 17.2386C50.5856 17.2386 47.5974 16.1085 47.6557 13.1014C48.3154 13.1971 48.8781 13.1014 48.8781 13.1014C48.8781 13.1014 49.0139 14.9593 51.4782 15.2083C53.9425 15.4765 54.8739 16.0894 54.8739 18.2921C54.8739 20.4948 52.0215 20.6289 52.0215 20.6289C52.0215 20.6289 53.1857 21.8547 54.5246 21.1077C54.5246 21.1077 53.0111 22.6975 55.0291 24.5363C57.0277 22.6975 55.5336 21.1077 55.5336 21.1077C56.8724 21.8547 58.0367 20.6289 58.0367 20.6289C58.0367 20.6289 55.1843 20.4948 55.1843 18.2921C55.1843 16.0894 56.1351 15.4765 58.58 15.2083C61.0443 14.9401 61.1801 13.1014 61.1801 13.1014C61.1801 13.1014 61.7428 13.178 62.4025 13.1014C62.4607 16.1085 59.4726 17.2386 59.4726 17.2386C60.6174 17.0088 61.3159 16.6832 62.1115 15.8595C63.0428 14.9018 63.3339 13.8484 63.3145 12.8524H63.3533C64.3817 12.3352 64.4399 11.4924 65.0608 10.7071C65.934 9.61532 67.5639 8.58101 68.864 9.0407C70.1058 9.48125 70.6103 11.0902 70.4163 12.2777C70.2222 13.4653 69.3491 14.4996 67.8938 14.4996C65.8176 14.4996 65.4489 11.435 67.3699 11.4158C68.0684 11.4158 68.1654 11.7223 68.1654 11.7223C68.1654 11.7223 67.1759 11.5499 67.3505 12.5076C67.5251 13.4653 66.8072 13.6951 66.8072 13.6951C67.8744 14.4804 68.5147 13.1205 68.5147 13.1205C69.3685 13.7909 69.8148 12.9864 69.8148 12.9864C69.8148 12.9864 69.1356 12.9864 68.7476 11.7606C68.4565 10.8412 66.1863 10.5347 65.7982 12.2394C65.5071 13.5802 66.4191 14.8444 67.8356 14.8827C69.4849 14.8827 70.5133 13.7334 70.785 12.3735H70.8044ZM48.3348 8.83001C48.2766 8.73424 48.2378 8.63847 48.199 8.5427C48.296 8.71508 48.3348 8.83001 48.3348 8.83001ZM55.0097 23.6744C54.9515 23.5786 54.0589 22.1038 55.0097 22.0463C55.9605 22.0846 55.0679 23.5786 55.0097 23.6744ZM57.8038 14.3272C55.6306 15.0359 55.1261 16.6257 55.0097 17.5451C54.9127 16.6257 54.4082 15.0168 52.2155 14.3272C49.499 13.4461 51.3618 11.5499 52.0797 11.5116V9.71109C52.0797 9.71109 54.5828 9.09816 55.0097 7.3743C55.4366 9.09816 57.9397 9.71109 57.9397 9.71109V11.5116C58.6576 11.569 60.5204 13.4653 57.8038 14.3272ZM61.704 8.81085C61.704 8.81085 61.7428 8.69593 61.8398 8.52354C61.801 8.61931 61.7622 8.71508 61.704 8.81085Z" fill="black"/>
</g>
<defs>
<clipPath id="clip0_346_8">
<rect width="110" height="48" fill="white"/>
</clipPath>
</defs>
</svg>
