<?xml version="1.0" encoding="utf-8"?>
<!-- Generator: Adobe Illustrator 26.0.3, SVG Export Plug-In . SVG Version: 6.00 Build 0)  -->
<svg version="1.1" id="Livello_1" xmlns="http://www.w3.org/2000/svg" xmlns:xlink="http://www.w3.org/1999/xlink" x="0px" y="0px"
	 viewBox="0 0 353 50" style="enable-background:new 0 0 353 50;" xml:space="preserve">
<style type="text/css">
	.st0{fill:#222221;}
</style>
<path class="st0" d="M332.87,42.82c1.79-0.06,3.24-1.48,3.33-3.28V10.7c-0.07-1.79-1.54-3.21-3.33-3.22h-0.67V6.94H348v0.53h-0.67
	c-1.8-0.02-3.29,1.42-3.33,3.22v28.86c0.02,1.82,1.51,3.29,3.33,3.28H348v0.53h-15.81v-0.53L332.87,42.82z"/>
<path class="st0" d="M304.68,6.94h-18.83v0.53h0.68c1.59,0,3.28,1.35,3.28,2.96v29.12c-0.03,1.8-1.48,3.25-3.28,3.28h-0.68v0.53
	h18.83c11.91,0,19.87-6.45,19.87-18.2S316.32,6.94,304.68,6.94z M304,41.1h-6.37v-32H304c8.49,0,12.12,7.49,12.12,16.64
	C316.14,34.24,312.01,41.1,304,41.1L304,41.1z"/>
<path class="st0" d="M255.17,9.23v30.26c-0.01,1.83,1.47,3.32,3.31,3.33c0.02,0,0.04,0,0.06,0h0.63v0.53h-15.81v-0.53h0.67
	c1.76,0.08,3.25-1.28,3.33-3.04c0-0.06,0-0.12,0-0.18V10.73c-0.01-1.82-1.5-3.29-3.33-3.28c0,0,0,0,0,0h-0.67V6.93h17.83
	c7.18,0,12.38,2.91,12.38,10.29c0.07,4.91-3.69,9.02-8.58,9.4c6.03,1.92,8.37,11.96,13.68,15.29c1.02,0.62,2.19,0.93,3.38,0.89v0.53
	h-5.1c-5.56,0-9.88-1.19-12.21-5.41c-0.67-1.14-2.08-4.1-4.32-8.89c-0.99-2.08-2.12-3.28-3.54-3.49v-0.46h1.66
	c4.22,0,6.71-3.64,6.71-7.7c0-5.98-2.12-8.16-7.69-8.16L255.17,9.23z"/>
<path class="st0" d="M237.74,42.82c-1.89-0.01-3.59-1.16-4.32-2.91L218.39,6.94h-0.41l-14.25,33.07c-0.73,1.68-2.38,2.78-4.21,2.81
	h-0.47v0.53h10.82v-0.53h-0.44c-1.71,0-2.76-1.35-1.98-3.19l2.65-6.24h11.8l2.5,6.24c0.68,1.66-0.1,3.19-1.92,3.19h-0.47v0.53h16.14
	v-0.53H237.74z M210.95,31.33l5.2-12.48l4.94,12.48H210.95z"/>
<path class="st0" d="M170.14,32.1h0.53v0.83c0,5.04,4.01,8.95,9.62,8.95c4.22,0,7.39-2.08,7.39-5.88c0-2.39-1.66-3.72-4.16-5.36
	l-9.03-5.98c-3.18-2.03-5.06-5.59-4.94-9.36c0-5.67,4.68-9.1,10.92-9.1c1.92,0,4.25,0.53,7.07,0.53h3.28l-0.68,7.65h-0.53
	c0-3.95-3.19-5.98-7.33-5.98c-3.44,0-6.82,1.98-6.82,4.89c0,2.08,1.2,3.33,3.64,4.94l9.93,6.45c3.12,2.03,4.68,4.68,4.68,8.01
	c0,7.65-5.84,11.39-13.78,11.39c-3.59,0-8.63-0.88-10.92-3.19L170.14,32.1z"/>
<path class="st0" d="M135.63,32.1h0.53v0.83c0,5.04,4,8.95,9.62,8.95c4.22,0,7.39-2.08,7.39-5.88c0-2.39-1.66-3.72-4.16-5.36
	l-9.05-5.98c-3.18-2.03-5.06-5.59-4.94-9.36c0-5.67,4.68-9.1,10.92-9.1c1.92,0,4.25,0.53,7.07,0.53h3.28l-0.68,7.65h-0.53
	c0-3.95-3.19-5.98-7.33-5.98c-3.44,0-6.81,1.98-6.81,4.89c0,2.08,1.19,3.33,3.64,4.94l9.93,6.45c3.12,2.03,4.68,4.68,4.68,8.01
	c0,7.65-5.84,11.39-13.78,11.39c-3.59,0-8.63-0.88-10.92-3.19L135.63,32.1z"/>
<path class="st0" d="M124.61,7.46c-1.51,0-2.71,0.99-2.71,2.44v20.23c0,8.69-5.77,13.94-14.98,13.94
	c-10.03,0-16.95-4.47-16.95-13.88V10.05c0-1.56-1.25-2.6-2.81-2.6h-0.78V6.93h14.98v0.53h-0.88c-1.51,0-2.76,1.04-2.76,2.5v19.86
	c0,6.97,3.54,11.96,10.14,11.96c6.45,0,10.35-4.32,10.35-11.28V9.95c0-1.51-1.25-2.5-2.76-2.5h-0.83V6.93h10.87v0.53H124.61z"/>
<path class="st0" d="M57.47,9.23v30.26c-0.01,1.83,1.47,3.32,3.31,3.33c0.02,0,0.04,0,0.06,0h0.63v0.53H45.66v-0.53h0.67
	c1.76,0.08,3.25-1.28,3.33-3.04c0-0.06,0-0.12,0-0.18V10.73c-0.01-1.82-1.5-3.29-3.33-3.28c0,0,0,0,0,0h-0.67V6.93h17.83
	c7.18,0,12.38,2.91,12.38,10.29c0.07,4.91-3.69,9.02-8.58,9.4c6.03,1.92,8.37,11.96,13.68,15.29c1.02,0.62,2.19,0.93,3.38,0.89v0.53
	h-5.1c-5.56,0-9.88-1.19-12.21-5.41c-0.67-1.14-2.08-4.1-4.32-8.89c-0.99-2.08-2.12-3.28-3.54-3.49v-0.46h1.66
	c4.22,0,6.71-3.64,6.71-7.7c0-5.98-2.12-8.16-7.69-8.16L57.47,9.23z"/>
<path class="st0" d="M5.5,15H4.97V5.97c1.41,0.57,3.43,0.88,6.14,0.93h20.98c1.17-0.01,2.33-0.12,3.48-0.31
	c0.9-0.12,1.79-0.33,2.65-0.62V15H37.7v-0.63c0-3.22-2.18-5.31-5.2-5.31h-6.97v30.53c0.04,1.8,1.52,3.24,3.32,3.22h0.68v0.53H13.72
	v-0.53h0.67c1.77-0.04,3.21-1.42,3.33-3.19V9.07H10.7c-3.12,0-5.2,2.12-5.2,5.31V15"/>
</svg>
