<svg role="img" class="svg-logo" xmlns="http://www.w3.org/2000/svg" viewBox="0 0 196 32" enable-background="new 0 0 196 32" aria-label="Valentino logo" xmlns:xlink="http://www.w3.org/1999/xlink">
 <path fill="#000" d="M3.097 0.997h-3.097v-0.454h9.733v0.408h-2.839l8.076 24.16 6.763-24.159h-2.303v-0.406h5.604v0.406h-2.913l-8.701 31.048-10.323-31.003zM18.801 30.459h2.728l8.738-30.188h0.516l9.070 30.188h3.023v0.363h-9.475v-0.363h2.802l-2.765-9.247h-8.848l-2.655 9.247h2.728v0.363h-5.863v-0.363zM33.327 20.758l-4.388-14.73-4.24 14.73h8.628zM44.461 30.459h3.245v-29.506h-3.319v-0.408h10.473l-0.001 0.408h-3.429l-0.037 29.461h5.53c2.986 0 5.789-2.085 7.005-5.167 0.553-1.497 0.663-2.040 0.885-4.216h0.295v9.791h-20.647v-0.363zM67.099 30.459h3.097v-29.504h-2.913v-0.412h19.614v7.571h-0.22v-0.183c-0.036-2.267-1.291-4.985-2.876-6.119-0.959-0.725-1.771-0.862-3.171-0.862l-6.784 0.008v14.089h2.212c2.728 0.046 4.719-2.494 4.977-6.301h0.295v13.327h-0.258v-0.227c-0.037-3.943-2.102-6.436-5.383-6.436h-1.843v15.003h5.899c4.351 0.045 7.852-3.672 8.37-8.929h0.184v9.337h-21.199v-0.363zM90.362 30.459h2.581l0.009-29.506h-2.581v-0.408h6.931l11.714 22.3v-21.892h-2.469v-0.408h5.604v0.408h-2.765v30.594l-16.066-30.594-0.008 29.501h2.544v0.367h-5.494v-0.363zM120.41 30.459h2.729v-29.503h-1.548c-3.356 0-6.047 3.259-6.785 8.201h-0.259v-8.611h20.795v8.655h-0.222c-0.405-4.487-3.171-8.25-6.12-8.25h-2.249v29.509h2.839v0.363h-9.181v-0.363zM138.182 30.459h2.986v-29.506h-2.95v-0.408h9.291v0.409h-2.912v29.5h2.912v0.367h-9.328v-0.363zM150.275 30.459h2.581v-29.506h-2.581v-0.408h6.932l11.719 22.3v-21.892h-2.466v-0.408h5.604v0.408h-2.765v30.594l-16.074-30.594v29.501h2.544v0.367h-5.494v-0.363zM173.391 16.227c0-8.658 5.346-16.227 11.429-16.227 6.009 0 11.207 7.569 11.207 16.272 0 8.159-5.309 15.094-11.539 15.094-5.973 0-11.097-6.98-11.097-15.139zM191.641 22.845c0.405-2.403 0.627-4.896 0.627-7.39 0-5.803-1.143-10.742-3.060-13.008-1.106-1.314-2.727-2.040-4.535-2.040-3.318 0-5.53 2.311-6.599 6.89-0.628 2.628-0.959 5.483-0.959 8.476 0 6.3 1.106 11.286 2.986 13.463 0.995 1.132 2.507 1.722 4.276 1.722 4.056 0 6.23-2.403 7.263-8.114z">
 </path>
</svg>