<svg width="144" height="32" viewBox="0 0 144 32" fill="none" xmlns="http://www.w3.org/2000/svg" role="presentation">
<g clip-path="url(#clip0_974_116929)">
<path d="M144 28.4785H134.044V17.4035H141.867V14.4944H134.044V3.47049H144V0.510367H128.152V31.4386H144V28.4785ZM126.629 9.08453C126.425 2.90909 122.108 0 116.419 0C107.022 0 104.432 7.50239 104.432 15.9234C104.432 24.8038 107.225 31.949 116.622 31.949C121.498 31.949 126.425 29.4992 126.578 22.8644H121.651C121.6 26.386 120.025 30.0096 116.673 30.0096C111.289 30.0096 110.73 22.0989 110.73 16.1786V15.7703C110.73 11.2281 110.832 1.83732 116.267 1.83732C119.924 1.83732 120.838 6.1244 120.99 9.03349H126.629V9.08453ZM95.9492 0.510367H91.3778L80.9143 31.4386H83.8603L87.2635 21.2823H96.1016L99.0984 31.4386H105.549L95.9492 0.510367ZM88.2286 18.3222L91.7841 7.6555H92.0381L95.2381 18.3222H88.2286ZM81.6254 21.9458C81.6254 17.4545 79.3397 14.3923 74.3111 13.0654L71.8222 12.4019C68.8762 11.6364 66.5397 10.4115 66.5397 7.0941C66.5397 4.08294 68.4191 2.60287 70.7048 2.60287C72.9397 2.60287 75.581 4.08293 77.1556 6.99202L80.4064 3.72568C78.0698 1.22488 74.9714 0.0510359 71.9746 0.0510359C66.8444 0.0510359 62.0698 3.52153 62.0698 10.0032C62.0698 15.7703 66.0825 17.7608 69.9937 18.8325L71.7714 19.3429C75.1746 20.2616 76.6984 22.5582 76.6984 24.8549C76.6984 28.1212 74.4635 29.8054 71.9238 29.8054C68.673 29.8054 66.1333 27.1515 64.7111 24.3955C61.3587 27.6108 61.3079 27.6619 61.3079 27.6619C63.8984 31.0813 68.1651 32 71.3651 32C77.9175 32 81.6254 27.5088 81.6254 21.9458ZM54.6032 16.9442C58.2095 15.6683 60.0889 12.504 60.0889 9.1866C60.0889 4.89952 57.0921 0.510367 50.4381 0.510367H40.381V31.4386H46.273V18.3222H48.8127L54.9587 31.4386H61.4603L54.6032 16.9442ZM54.0444 9.44179C54.0444 13.3206 52.6222 16.1276 48.8635 16.1276H46.273V2.75598H48.8635C52.6222 2.75598 54.0444 5.563 54.0444 9.44179ZM39.0095 28.4785H29.054V17.4035H36.8762V14.4944H29.054V3.47049H39.0095V0.510367H23.1619V31.4386H39.0095V28.4785ZM19.3016 0.510367L12.8508 24.3445H12.5968L6.50159 0.510367H0L8.68571 31.4386H13.4095L22.1968 0.561403H19.3016V0.510367Z" fill="black"></path>
</g>
<defs>
<clipPath id="clip0_974_116929">
<rect width="144" height="32" fill="white"></rect>
</clipPath>
</defs>
</svg>