<svg version="1.1" id="Layer_1" xmlns:x="ns_extend;" xmlns:i="ns_ai;" xmlns:graph="ns_graphs;" xmlns="http://www.w3.org/2000/svg" xmlns:xlink="http://www.w3.org/1999/xlink" x="0px" y="0px" viewBox="0 0 764.6 59.2" style="enable-background:new 0 0 764.6 59.2;" xml:space="preserve">
 <metadata>
  <sfw xmlns="ns_sfw;">
   <slices>
   </slices>
   <sliceSourceBounds bottomLeftOrigin="true" height="59.2" width="764.6" x="-181.8" y="-229.8">
   </sliceSourceBounds>
  </sfw>
 </metadata>
 <g>
  <path d="M7.7,7.1C5.9,2.6,4,1.6,0,1.6V0.4h17.3v1.1c-3,0.1-4,0.6-4,1.8C13.3,5,14,6.3,30.6,50L46.9,8.8c0.8-1.7,1.3-3.6,1.5-5.4
		c0-1.8-2.3-1.7-4-1.9V0.4H59l-0.1,1.2c-4.4,0.4-5.6,1.4-7.3,5.5L30.3,57.7c-0.4,1-0.8,1.3-1.1,1.3s-0.8-0.4-1.1-1.1L7.7,7.1z
		 M84.5,58.3H67.3v-1.2h0.3c4.7,0,4.7-3.1,4.7-9.2V16.1c0-6.1-0.8-7-5.2-7.2V7.7h15.9V9c-4.9,0-5,1.2-5,9.2V48
		c0,7.5,0.4,9.1,6.6,9.1L84.5,58.3L84.5,58.3z M138.1,49.1c-2.6,5.9-8.4,10-17.6,10c-15.9,0-25.6-10.9-25.6-26
		c0-14.1,9.9-26.2,26.5-26.2c5.1,0,10.2,1.1,14.9,3.1c0.8,0.3,1,0.5,1,1.2l-0.5,10.2h-1.1c-0.1-2.8-0.7-6.3-2.9-8.1
		c-3.1-2.5-6.6-3.8-12.5-3.8c-13.4,0-19.4,10.2-19.4,22.3s6.5,24.7,20.2,24.7c7.7,0,12.8-2.9,15.5-7.9c0.6-1.1,0.8-1.2,1.4-1.1
		S138.6,48,138.1,49.1L138.1,49.1z M190.7,16.2h-1.2c-0.4-3.9-0.7-5.3-6.9-5.3h-9.7v37.4c0,7.9,0.8,8.7,6.5,8.7v1.2h-17.3v-1.2
		c4.3,0,4.9-2,4.9-7.3V10.9h-8.3c-6.7,0-8.1,0.2-8.4,5.3h-1.2l-0.3-8.5c0,0,6.8,0.4,9.8,0.4h23c3.1,0.1,6.1,0,9.2-0.3l0.1,0.1
		L190.7,16.2z M224.9,59.1c-18.2,0-25.8-14.2-25.8-26.2c0-10.7,7.8-26,26.2-26c15,0,26.1,9.4,26.1,24.9
		C251.4,46.8,241,59.1,224.9,59.1z M224.8,9.2c-11.1,0-19.4,7.3-19.4,21.9c0,15.4,9.3,25.4,21.3,25.4c6,0,18.4-3.4,18.4-22.8
		C245.1,17.9,235.3,9.2,224.8,9.2z M307.5,58.3h-5.8c-7,0-9.5-4.7-13.3-10.7c-3.2-5-6.5-12.1-10.9-12.4l-3.1-0.2
		c-0.4,0-0.5,0.1-0.5,0.6v13.1c0,7.9,1.4,8.3,6.6,8.3v1.2h-17v-1.2c4-0.2,4.9-0.7,4.9-8.4V13.7c0-3.6-2.2-4.6-5.9-4.6V7.9h17.5
		c9.5,0,15.9,4.3,15.9,12.4c0,6.6-5.4,12.2-11.3,14.1c5,1.9,9.1,13.3,13.3,17.7s5.9,5,9.5,5L307.5,58.3L307.5,58.3z M280.4,33.3
		c6.1,0,10-4.6,10-11.6c0-7.4-4.5-11.7-11.5-11.7c-3.8,0-4.9,0.1-4.9,1.2v20.6c0,0.7,0.1,0.9,1.2,1.2
		C276.9,33.2,278.7,33.3,280.4,33.3L280.4,33.3z M335.3,58.3h-17.3v-1.2h0.3c4.7,0,4.7-3.1,4.7-9.2V16.1c0-6.1-0.8-7-5.2-7.2V7.7
		h15.9V9c-4.9,0-5,1.2-5,9.2V48c0,7.5,0.4,9.1,6.6,9.1L335.3,58.3L335.3,58.3z M378.7,57.1c2.5-0.1,3.5-0.7,3.5-1.7
		c0-1-0.2-1.9-0.7-2.8l-5.3-13.9c-0.1-0.3-0.3-0.4-0.6-0.4h-14.3c-0.3,0-0.6,0.2-0.7,0.6L357,49.6c-0.7,1.7-1.1,3.5-1.4,5.4
		c0,1.5,1.4,2,4.1,2.1v1.2h-14.6l0.2-1.2c4.4-0.3,5.7-2,7.2-6.1l15.3-41.7c0.8-2.2,1-2.4,1.4-2.4s0.6,0.3,1.5,2.4l15.9,41.1
		c1.5,4,3.2,6.5,7.7,6.5l0.2,1.3h-15.9L378.7,57.1L378.7,57.1z M375,35.8L375,35.8l-6.3-18.2c-0.1-0.4-0.3-0.8-0.5-0.8
		s-0.4,0.3-0.5,0.8l-5.9,18c0,0.1-0.1,0.1-0.1,0.2s0.1,0.2,0.3,0.2h12.8C374.9,35.9,375,35.9,375,35.8L375,35.8z M395.3,14.7
		c1.8-0.2,2.7-2.7,3-3.7c0.3-0.8,0.4-1.6,0.2-2.4c-0.3-0.8-1-1.2-1.9-1.6c-0.5-0.2-0.8-0.5-1.1-0.9C395,5.5,394.8,4.7,395,4
		c0.3-1.3,1.6-2,2.9-1.7c0,0,0,0,0,0c2.2,0.5,3.4,2.9,3.1,6.5c-0.1,1.3-1.2,6.5-5.7,6.8L395.3,14.7z M425.9,59c-4,0-7.9-0.2-12-2.8
		v-9.6h1.3c0.2,7.4,5.3,10,11.4,10c6.9,0,10.5-4.5,10.5-8.6c0-5.4-3.2-8.6-10.4-13.1c-9.6-6-12.1-10.6-12.1-15.5
		c0-7,5.4-12.4,14.1-12.4c3.8-0.1,7.5,0.6,11,2.1v8h-1.2c-0.2-1.5-0.6-2.9-1.3-4.2c-0.4-0.7-2.4-3.6-9.2-3.6c-5.2,0-9,3.3-9,8.1
		c0,4.5,3.4,7.2,11.3,12.5c7.7,5.2,11.5,10.2,11.6,15.5C441.8,53.3,435.4,59,425.9,59L425.9,59z M483.6,56V45.6h1.4
		c0.6,8.7,6.5,11.3,13.4,11.3c8,0,12.4-5.2,12.4-10.5c0-6.1-4-9.9-12.1-15c-11-7-13.6-12.4-13.6-17.5C485,5.8,491.2,0,501.6,0
		c4.1,0.2,8.1,0.9,12,2.2v8.6h-1.4c-0.2-1.6-0.7-3.2-1.5-4.6c-0.6-0.9-3-4.2-10.8-4.2c-6.2,0-10.7,4-10.7,9.6
		c0,5.4,4.1,8.6,13.1,14.5c8.8,5.8,13.1,11.5,13.1,17.4c0,14.7-14.7,15.6-18.3,15.6C488.2,59.2,483.6,56,483.6,56L483.6,56z
		 M562.3,49.4l-0.1,8.9h-33.6v-1.2c3.5-0.1,4.9-0.9,4.9-7.4V13.6c0-3.2-2.2-4.4-5.9-4.4V7.9c2.8,0.2,6.7,0.4,10.3,0.4
		c2.8,0,9.9,0,14.3-0.1c1.4,0,8.2-0.2,8.2-0.3l-0.1,8.6H559c-0.3-5.3-3.4-5.7-9.5-5.7c0,0-7.6-0.1-9.7-0.1c-0.7,0-0.8,0.2-0.8,0.7
		v18.2c0,0.4,0,0.7,0.4,0.7h11.9c2.2,0,3.1-0.8,3.5-2.8h1.3v10.6h-1.3c-0.1-2.4-0.2-4.6-4-5c-2-0.2-10.2-0.3-11.3-0.3
		c-0.2,0-0.5,0.1-0.5,0.4c0,0,0,0.1,0,0.1v19.2c0.1,3.5,0.2,3.5,8.8,3.5c2.8,0,8.9-0.1,10.4-0.8c2-1,2.7-2.8,2.9-5.7L562.3,49.4z
		 M616.1,49.1c-2.6,5.9-8.4,10-17.6,10c-15.9,0-25.6-10.9-25.6-26c0-14.1,9.9-26.2,26.5-26.2c5.1,0,10.2,1.1,14.9,3.1
		c0.8,0.3,1,0.5,1,1.2l-0.5,10.2h-1.1c-0.1-2.8-0.7-6.3-2.9-8.1c-3.1-2.5-6.6-3.8-12.5-3.8c-13.4,0-19.4,10.2-19.4,22.3
		s6.5,24.7,20.2,24.7c7.7,0,12.8-2.9,15.5-7.9c0.6-1.1,0.8-1.2,1.4-1.1S616.6,48,616.1,49.1L616.1,49.1z M671.7,58.3h-5.8
		c-7,0-9.5-4.7-13.3-10.7c-3.2-5-6.5-12.1-10.9-12.4l-3.1-0.2c-0.3,0-0.5,0.1-0.5,0.6v13.1c0,7.9,1.4,8.3,6.6,8.3v1.2h-17v-1.2
		c4-0.2,4.9-0.7,4.9-8.4V13.7c0-3.6-2.2-4.6-5.8-4.6V7.9h17.5c9.5,0,15.9,4.3,15.9,12.4c0,6.6-5.4,12.2-11.3,14.1
		c5,1.9,9.1,13.3,13.3,17.7s5.9,5,9.5,5L671.7,58.3L671.7,58.3z M644.6,33.3c6.1,0,10-4.6,10-11.6c0-7.4-4.5-11.7-11.5-11.7
		c-3.8,0-4.9,0.1-4.9,1.2v20.6c0,0.7,0.1,0.9,1.2,1.2C641.1,33.2,642.9,33.3,644.6,33.3L644.6,33.3z M713.3,49.4l-0.1,8.9h-33.6
		v-1.2c3.5-0.1,4.9-0.9,4.9-7.4V13.6c0-3.2-2.2-4.4-5.9-4.4V7.9c2.8,0.2,6.7,0.4,10.3,0.4c2.8,0,9.9,0,14.3-0.1
		c1.4,0,8.2-0.2,8.2-0.3l-0.1,8.6H710c-0.3-5.3-3.4-5.7-9.5-5.7c0,0-7.6-0.1-9.8-0.1c-0.7,0-0.8,0.2-0.8,0.7v18.2
		c0,0.4,0,0.7,0.4,0.7h11.9c2.2,0,3.1-0.8,3.5-2.8h1.3v10.6h-1.3c-0.1-2.4-0.2-4.6-4-5c-2-0.2-10.2-0.3-11.3-0.3
		c-0.2,0-0.5,0.1-0.5,0.4c0,0,0,0.1,0,0.1v19.2c0.1,3.5,0.2,3.5,8.8,3.5c2.8,0,8.9-0.1,10.4-0.8c2-1,2.7-2.8,2.8-5.7L713.3,49.4z
		 M764.3,16.2h-1.2c-0.4-3.9-0.7-5.3-6.9-5.3h-9.7v37.4c0,7.9,0.8,8.7,6.5,8.7v1.2h-17.3v-1.2c4.3,0,4.9-2,4.9-7.3V10.9h-8.3
		c-6.7,0-8.1,0.2-8.3,5.3h-1.2l-0.3-8.5c0,0,6.8,0.4,9.8,0.4h23c3.1,0.1,6.1,0,9.2-0.3l0.1,0.1L764.3,16.2z">
  </path>
 </g>
</svg>