<svg width="257" height="47" viewBox="0 0 257 47" fill="none" xmlns="http://www.w3.org/2000/svg">
<path d="M144.572 36.8865C144.841 36.6096 145.433 35.7609 145.73 35.2507L158.447 9.99765L164.233 34.848C164.233 34.848 164.929 36.6485 165.264 36.8865H162.216C162.004 36.1818 158.96 25.1751 158.96 25.1751H152.49C152.49 25.1751 147.346 36.5639 147.204 36.8865H144.574H144.572ZM153.1 23.8573H158.592L156.552 16.1565L153.1 23.8573ZM169.797 29.689L169.758 11.4641H165.772C166.281 11.7433 166.564 12.7819 166.629 14.0242C166.704 14.5687 166.926 29.7919 166.987 30.7917C167.595 39.9087 180.609 41.6337 181.393 29.7782C181.454 28.6961 181.974 17.6321 182.019 16.8863C182.164 14.7106 182.426 12.0521 183.161 11.4641H180.251L180.229 29.1948C180.215 38.8128 169.826 38.5177 169.792 29.6867L169.797 29.689ZM185.743 11.5305C186.155 12.0407 186.505 12.7957 186.525 14.2484L185.924 34.8549C185.829 35.706 185.61 36.5341 185.354 36.8888H188.77L189.98 12.3244C198.477 10.0754 202.284 23.4318 191.022 25.5251C191.836 26.4792 202.89 38.2683 203.387 38.8151C204.904 40.4852 209.019 41.9952 209.989 42.391C207.984 41.1304 204.943 37.8199 204.567 37.1885C205.35 37.2068 216.867 37.1885 216.867 37.1885L217.932 34.7977C217.932 34.7977 214.199 36.1475 208.192 36.1475C207.706 36.1475 207.03 36.2001 207.03 35.3925V25.2872H216.213V23.7544H207.03L207.276 12.6378C213.437 12.6744 216.213 14.0677 216.213 14.0677V11.4641H203.1C203.1 11.4641 203.878 12.226 203.937 14.0677C203.937 14.0677 204.201 36.811 204.201 36.8865C203.844 36.3923 194.633 24.9829 194.633 24.9829C202.232 23.5187 207.663 8.29094 185.745 11.5282L185.743 11.5305ZM97.8389 36.9185C97.8389 36.9185 100.873 36.9162 100.918 36.9185C100.731 36.8316 100.285 35.7883 100.324 35.4474L100.586 11.3612H96.4801C96.9549 11.8416 97.4297 12.7728 97.4297 13.6078C97.4297 13.6078 97.8367 36.9139 97.8367 36.9185H97.8389ZM103.67 11.3612L105.501 13.7428L104.814 34.5803C104.766 35.4589 104.425 36.5708 104.199 36.9162C104.163 36.9139 106.611 36.9162 106.611 36.9162L106.602 15.2894L124.897 38.9867L125.994 14.4955C126.03 13.9556 125.743 12.7064 127.12 12.6721H131.312L131.486 34.8366C131.461 35.7586 131.382 36.2871 131.156 36.9162C131.167 36.9139 134.52 36.9139 134.533 36.9162C134.384 36.39 134.258 35.786 134.267 34.9395L135.022 12.6858C137.697 12.6813 140.577 12.7339 142.955 13.6284L136.711 43.0224C136.39 44.1915 136.073 45.054 135.723 45.5184H157.85L159.695 42.2812C155.752 43.6401 145.865 44.5164 141.065 44.4454C139.51 44.4226 139.451 43.6081 139.688 42.6678L149.356 1.69971H144.798C145.257 2.28768 145.257 2.89395 145.081 3.89145L143.462 11.3635H124.05V33.7018L108.054 11.3635H103.665L103.67 11.3612ZM256.657 11.606H238.42V33.926L222.431 11.5968H218.04C218.271 11.8805 219.668 13.7085 219.865 13.9876C219.865 14.6351 219.164 34.8251 219.164 34.8251C219.125 35.7632 219.103 36.4792 218.789 37.1656H220.979L220.97 15.5319C220.97 15.5319 238.942 38.7694 239.261 39.2338C239.29 38.3347 240.174 14.7174 240.174 14.7174C240.17 14.1798 240.17 12.6927 241.585 12.6881H246.155L246.299 35.4291C246.247 36.3191 246.146 36.5479 245.96 37.1564C245.96 37.161 249.2 37.1656 249.2 37.1656C249.04 36.573 248.96 36.2619 248.997 35.4429L249.774 12.6904C252.506 12.695 254.203 12.695 256.654 13.4317V11.6083L256.657 11.606ZM83.4776 25.3307L76.8939 39.4877C72.4399 48.7191 61.8769 48.138 54.7686 41.604L55.8968 37.9663C65.3429 53.4389 81.1602 41.2791 72.7745 30.5149L60.4729 15.7904C52.0939 6.00311 47.0363 16.3692 51.7005 20.1373L58.6031 25.4222C63.6834 29.0667 61.9854 36.811 55.4175 37.5019C52.3833 37.8222 48.9128 36.4838 46.8305 35.0265L46.2653 36.9848H32.8152C33.0503 36.5479 33.308 35.7288 33.3058 35.1043L33.2719 12.5188C33.2854 12.1047 33.0232 12.0773 32.8694 12.4227L21.0064 38.1128L15.7656 14.8295C15.5938 14.2599 15.2434 14.7975 15.2434 14.7975C14.3571 16.0215 10.4932 21.5169 9.80137 22.4617C9.28588 23.1549 9.07561 23.6217 8.68674 24.7656C8.49004 25.3352 4.23953 42.6129 4.04735 43.2855C3.87326 43.8918 4.11292 45.1455 4.43849 45.459H0.249023C0.3892 45.3423 1.07878 44.5324 1.23704 43.8895L4.56962 26.4517C5.31572 23.0177 4.3684 19.5425 4.3684 19.5425C2.29967 7.3392 1.85201 2.07262 0.775815 1.24214H4.25988C4.3684 1.88502 8.38378 21.0982 8.63022 22.0316C8.38378 22.4205 21.9922 1.41144 21.9922 1.41144H25.5056C25.5056 1.41144 23.7489 3.09757 23.4324 3.52768C23.1633 3.88687 18.9196 9.74142 18.3883 10.4689L22.4444 32.5556L31.219 11.2949H45.8064V13.7062C44.2102 12.8986 38.6596 11.9126 36.4643 12.2008L36.2563 22.9216C36.2676 23.5096 36.2608 23.5576 36.7808 23.5576L45.8267 23.5462V25.0218H36.1477L35.847 35.3811C35.847 36.104 36.3603 36.175 36.7989 36.1933C40.5904 36.3397 44.1581 35.8386 46.7785 34.6764L47.4048 32.3543C50.3191 35.9576 52.675 37.2274 55.7476 36.3328C58.6868 35.4543 61.5197 31.382 56.098 27.5521L50.812 23.7727C43.5047 18.1858 49.6838 6.10377 60.0388 12.1459C60.0049 1.6265 73.2448 -3.61491 82.5936 4.41078L81.6734 7.87455C73.4188 -5.69455 58.3024 5.46318 65.2931 15.1407L75.1914 28.2339C77.4139 31.0548 77.796 33.0978 77.796 33.0978L89.4464 10.5307L95.2411 35.0516C95.4491 35.8364 95.8719 36.6142 96.1772 36.9094C96.1726 36.9071 92.8468 36.9071 92.8446 36.9094C92.8468 36.9071 89.7675 25.3307 89.7675 25.3307L83.4731 25.3215L83.4776 25.3307ZM84.1243 23.7383H89.3515L87.4817 16.4608L84.1265 23.7383H84.1243Z" fill="black"/>
</svg>
